<svg xmlns="http://www.w3.org/2000/svg" viewBox="0 0 408.75 445.86"><defs><style>.cls-1{fill:#0093ff;}.cls-2{fill:#27234c;}.cls-3{fill:#fdfefe;}.cls-4{fill:#e48f9b;}.cls-5{fill:#eac1ce;}.cls-6{fill:#1848d3;}.cls-10,.cls-11,.cls-12,.cls-13,.cls-21,.cls-22,.cls-23,.cls-7,.cls-8,.cls-9{fill:none;stroke-miterlimit:10;}.cls-10,.cls-11,.cls-12,.cls-13,.cls-22,.cls-23,.cls-7,.cls-8,.cls-9{stroke:#ccc;}.cls-8{stroke-dasharray:3.05 3.05;}.cls-9{stroke-dasharray:2.97 2.97;}.cls-10{stroke-dasharray:2.99 2.99;}.cls-11{stroke-dasharray:3.05 3.05;}.cls-12{stroke-dasharray:3 3;}.cls-13{stroke-dasharray:3 3;}.cls-14{isolation:isolate;}.cls-15{fill:#23a2f8;}.cls-16{fill:#058dd8;}.cls-17{fill:#2161ec;}.cls-18{fill:#fcd67a;}.cls-19{fill:#ecb329;}.cls-20{fill:#c35c3a;}.cls-21{stroke:#0f1e51;stroke-width:0.25px;}.cls-22{stroke-dasharray:3 3;}.cls-23{stroke-dasharray:3.01 3.01;}.cls-24,.cls-26,.cls-28{fill:#ef9e20;}.cls-25{fill:#f6ca10;}.cls-26{font-size:9.94px;font-family:Roboto-Bold, Roboto;font-weight:700;}.cls-27{fill:#f5efdb;}.cls-28{opacity:0.5;}</style></defs><title>mercado</title><g id="Camada_2" data-name="Camada 2"><g id="OBJECTS"><polygon class="cls-1" points="68.5 60.23 60 64.36 59.75 67.23 42.63 65.73 44.13 72.23 51.13 73.86 52.25 78.36 41.25 78.36 41.25 85.73 47.63 89.61 45.63 93.36 49 97.11 42.25 130.86 32.88 128.86 28.75 133.86 18.75 133.61 10.88 140.86 9.38 154.61 0.88 157.48 3.75 161.11 0 164.23 10.13 180.61 7.88 185.86 19.25 191.11 35.63 186.48 35.88 202.98 57.63 202.98 60.88 197.86 64.13 199.73 84 189.73 88.38 189.48 89.38 196.48 87.63 198.36 90.5 202.11 88.13 205.98 96.88 215.48 112.63 219.73 138.25 230.86 143.5 259.36 162.25 258.73 161.25 268.73 168.75 272.23 170.5 278.86 167 298.86 162 300.36 167.13 306.86 166.5 320.98 180.13 322.86 188.5 320.48 192.88 340.98 201 338.61 205 342.36 200.75 357.98 208.38 357.98 211.75 366.23 209.5 374.58 187.63 387.36 170.25 408.98 178.63 407.36 187 418.61 191 415.36 210 426.86 216.75 435.61 211.5 439.36 211.88 445.86 221.38 440.73 227.25 427.23 243.88 414.98 251.88 398.36 261.5 391.86 264.5 378.98 263.13 363.61 279.38 346.86 296.63 338.98 305.5 329.73 331.25 330.86 335 323.23 343.13 319.61 344.25 307.61 357.13 293.73 357.75 280.61 363.38 272.73 364.88 252.11 363.25 225.98 374.5 220.11 384.75 198.48 395.13 193.98 394.88 189.73 405.75 176.48 408.75 156.73 401.13 139.73 382.88 137.86 354.38 114.48 337.25 116.36 333.88 112.73 316 108.48 311 113.36 301.63 98.48 297 101.48 272.13 89.86 265.13 91.98 266 86.98 252.88 80.61 248.75 82.61 247.75 77.86 250.75 67.36 244.13 60.23 241.75 62.61 237 49.48 233.5 35.73 232.5 43.48 223.75 51.98 221.25 63.11 210.25 59.11 200.13 58.98 186.75 57.48 190.38 65.36 173.75 62.48 157.88 71.11 147.75 67.36 144.63 52.36 149 41.23 144.5 36.48 144.25 27.86 137.25 28.11 135.88 35.73 113.75 45.23 112 41.61 94 39.11 101.38 53.36 111.13 59.23 111.75 61.86 87.38 76.73 86 72.36 72.75 75.86 71.63 65.73 68.5 60.23"/><polygon class="cls-1" points="347.33 162.12 348.9 159.04 343.93 149.88 345.51 139.71 339.52 134.17 340.64 115.99 337.25 116.36 333.88 112.73 331.27 121.06 328.33 121.06 322.9 129.19 325.16 139.37 320.87 145.13 324.03 155.99 313.86 155.99 296.9 164.92 291.02 178.82 292.72 185.04 292.72 193.63 292.68 193.68 296.11 193.86 298.93 201.89 308.32 197.82 310.58 198.61 315.89 190.02 313.06 187.42 317.7 184.36 329.23 185.95 340.11 176.98 347.88 170.57 345.74 165.26 347.33 162.12"/><path class="cls-1" d="M388.86,159.53l-9.5-2.85s3.41-6.72,3.56-7.2-5.69.4-5.69.4l-6.49,4.66L368,150.59l.4,13.21-2.83,2.46,8.52,1.57,7.87-6.09,3.13,2.61-3.13,6,1,4.58,7.52-5.69,10.68-5.54L407.5,165l1.25-8.22-1.15-2.56-16.53-1.92Z"/><path class="cls-1" d="M401.13,139.73l-18.25-1.87L368,150.59l2.77,3.95,6.49-4.66s5.85-.87,5.69-.4-3.56,7.2-3.56,7.2l9.5,2.85,2.21-7.28,16.53,1.92Z"/><polygon class="cls-1" points="382.88 137.86 354.38 114.48 340.64 115.99 339.52 134.17 345.51 139.71 343.93 149.88 348.9 159.04 347.33 162.12 358.16 163.25 362.91 168.55 365.54 166.26 368.37 163.8 367.97 150.59 382.88 137.86"/><path class="cls-1" d="M289,97.75l-16.87-7.89-7,2.12.87-5-13.12-6.37-4.13,2-1-4.75-1.62-.16L243.47,83l-7.44,3-4.48,12.12-5.16.1L212.06,69.71l-12.49-2.57s-.22-4.78-.41-8.26l-12.41-1.4,3.63,7.88-16.63-2.88-15.87,8.63-1.5,10.6V88.5l11.3,13.11L184,107.94l-23.85,48.84,4,6,14.62,21.88,67,5.5,9.31-20.87,2.6-10,10.06-12.32-3.16-7.69L275.65,133Z"/><polygon class="cls-1" points="147.75 67.36 144.63 52.36 149 41.23 144.5 36.48 144.25 27.86 137.25 28.11 135.88 35.73 113.75 45.23 112 41.61 94 39.11 101.38 53.36 111.13 59.23 111.75 61.86 117.6 63.51 119.52 94.49 129.59 102.74 130.94 89.97 140.55 93.02 144.51 82.17 156.38 81.71 157.88 71.11 147.75 67.36"/><path class="cls-1" d="M212.06,69.71l14.33,28.56,5.16-.1L236,86.05l7.44-3,2.66-5.32,1.62.16,3-10.5-6.62-7.13-2.38,2.38L237,49.48l-3.5-13.75-1,7.75L223.75,52l-2.5,11.13-11-4L200.13,59l-1-.1c.19,3.48.41,8.26.41,8.26Z"/><polygon class="cls-1" points="264.57 139.37 276.44 143.78 274.85 161.64 280.39 171.7 285.14 169.1 285.71 173.28 279.72 182.1 287.52 193.41 292.68 193.68 292.72 193.63 292.72 185.04 291.02 178.82 296.9 164.92 313.86 155.99 324.03 155.99 320.87 145.13 325.16 139.37 322.9 129.19 328.33 121.06 331.27 121.06 333.88 112.73 316 108.48 311 113.36 301.63 98.48 297 101.48 289 97.75 275.65 133.04 264.57 139.37"/><polygon class="cls-1" points="347.66 269.94 354.44 253.44 339.86 253.55 334.66 247.33 306.96 236.86 291.93 246.73 280.85 243.94 280.85 255.92 274.4 269.94 277.34 276.78 271.8 282.94 266.15 280.57 244.33 285.2 241.76 293.48 240.28 298.24 238.34 299.79 249.08 297.3 256.99 298.32 256.65 302.39 276.32 298.32 280.39 313.01 287.18 313.01 283.67 323.53 288.08 331.44 303.34 323.87 321.88 320.7 329.91 317.31 330.81 309.72 333.89 306.99 334.88 301.37 338.28 302.61 343.81 293.34 341.67 280.68 351.95 277.74 347.66 269.94"/><polygon class="cls-1" points="401.12 163.72 390.44 169.26 382.92 174.96 381.94 170.37 385.06 164.35 381.94 161.74 374.06 167.83 365.54 166.26 362.91 168.55 358.16 163.25 347.33 162.12 345.74 165.26 347.88 170.57 340.11 176.98 345.66 186.03 358.72 176.3 371.69 184.53 376.75 179.7 383.48 184.53 389.96 184.29 396.85 179.15 403.45 179.29 405.75 176.48 407.5 164.95 401.12 163.72"/><polygon class="cls-1" points="292.68 193.68 287.52 193.41 279.72 182.1 285.71 173.28 285.14 169.1 280.39 171.7 274.85 161.64 276.44 143.78 264.57 139.37 267.73 147.06 257.67 159.38 255.07 169.33 245.76 190.2 241.05 200.75 240.05 221.74 247.38 217.83 246.37 222.24 255.86 226.19 257.56 222.24 267.05 227.21 287.23 222.71 285.14 204.15 292.68 193.68"/><polygon class="cls-1" points="287.4 224.27 287.23 222.71 267.05 227.21 257.56 222.24 255.86 226.19 246.37 222.24 247.38 217.83 240.05 221.74 238.9 245.86 221.38 258.75 215.05 268.81 219.01 285.2 241.76 293.48 244.33 285.2 266.15 280.57 271.8 282.94 277.34 276.78 274.4 269.94 280.85 255.92 280.85 243.94 291.93 246.73 287.4 224.27"/><polygon class="cls-1" points="341.67 280.68 343.81 293.34 338.28 302.61 334.88 301.37 333.89 306.99 336.69 311.77 343.81 312.27 344.25 307.61 357.13 293.73 357.75 280.61 351.95 277.74 341.67 280.68"/><polygon class="cls-1" points="336.69 311.77 333.89 306.99 330.81 309.72 329.91 317.31 321.88 320.7 303.34 323.87 305.5 329.73 331.25 330.86 335 323.23 343.13 319.61 343.81 312.27 336.69 311.77"/><polygon class="cls-1" points="288.08 331.44 283.67 323.53 287.18 313.01 280.39 313.01 276.32 298.32 256.65 302.39 256.99 298.32 249.08 297.3 238.34 299.79 233.37 303.29 225.45 320.93 218.67 323.87 216.83 326.36 235.74 326.36 241.39 329.86 252.24 329.86 256.31 348.17 265.02 349.53 264.91 352.69 271.55 354.93 279.38 346.86 296.63 338.98 305.5 329.73 303.34 323.87 288.08 331.44"/><polygon class="cls-1" points="265.02 349.53 256.31 348.17 252.24 329.86 241.39 329.86 235.74 326.36 216.83 326.36 205 342.36 200.75 357.98 208.38 357.98 211.75 366.23 236.42 370.33 234.04 367.96 242.63 363.1 253.71 366.38 256.2 363.1 263.13 363.61 271.55 354.93 264.91 352.69 265.02 349.53"/><polygon class="cls-1" points="396.85 179.15 389.96 184.29 383.48 184.53 376.75 179.7 371.69 184.53 390.62 195.94 395.13 193.98 394.88 189.73 403.45 179.29 396.85 179.15"/><polygon class="cls-1" points="379.71 209.12 374.46 207.71 371.69 199.64 375.96 197.9 371.69 184.53 358.72 176.3 345.66 186.03 340.11 176.98 329.23 185.95 317.7 184.36 313.06 187.42 315.89 190.02 310.58 198.61 308.32 197.82 298.93 201.89 296.11 193.86 292.68 193.68 285.14 204.15 287.23 222.71 287.4 224.27 291.93 246.73 306.96 236.86 334.66 247.33 339.86 253.55 354.44 253.44 347.66 269.94 351.95 277.74 357.75 280.61 363.38 272.73 364.88 252.11 363.25 225.98 374.5 220.11 379.71 209.12"/><polygon class="cls-1" points="375.96 197.9 371.69 199.64 374.46 207.71 379.71 209.12 384.75 198.48 390.62 195.94 371.69 184.53 375.96 197.9"/><polygon class="cls-1" points="219.01 285.2 211.43 270.96 197.87 273.9 186.79 268.36 175.94 274.69 169.6 275.47 170.5 278.86 167 298.86 162 300.36 167.13 306.86 166.5 320.98 180.13 322.86 188.5 320.48 192.88 340.98 201 338.61 205 342.36 216.83 326.36 218.67 323.87 225.45 320.93 233.37 303.29 238.34 299.79 240.28 298.24 241.76 293.48 219.01 285.2"/><polygon class="cls-1" points="144.39 212.06 145.07 201.77 129.92 202.79 128 176.9 124.16 179.84 115.34 170.12 107.54 170.46 102.23 179.84 94.43 179.84 94.43 184.36 88.43 183.8 86.4 185.95 78.26 184.48 74.35 189.3 79.53 191.98 84 189.73 88.38 189.48 89.38 196.48 87.63 198.36 90.5 202.11 88.13 205.98 96.88 215.48 112.63 219.73 138.25 230.86 149.93 216.7 144.39 212.06"/><polygon class="cls-1" points="74.35 189.3 42.42 172.72 3.75 161.11 0 164.23 10.13 180.61 7.88 185.86 19.25 191.11 35.63 186.48 35.88 202.98 57.63 202.98 60.88 197.86 64.13 199.73 79.53 191.98 74.35 189.3"/><path class="cls-1" d="M178.76,184.7l-14.62-21.88c-.86,5.71-2.34,15.33-2.34,15.33L128,176.9l1.92,25.89,15.15-1-.68,10.29,5.54,4.64-11.68,14.16,5.25,28.5,18.75-.63-1,10,7.5,3.5.86,3.24,6.33-.78,10.85-6.33,11.08,5.54L211.43,271,219,285.2l-4-16.39,6.33-10.06,17.52-12.89,1.15-24.12,1-21,4.71-10.56Z"/><polygon class="cls-1" points="253.71 366.38 242.63 363.1 234.04 367.96 236.42 370.33 211.75 366.23 209.5 374.58 227.71 376.32 241.5 388.31 251.79 389.78 248.97 397.35 251.88 398.36 261.5 391.86 264.5 378.98 263.13 363.61 256.2 363.1 253.71 366.38"/><polygon class="cls-1" points="251.79 389.78 241.5 388.31 227.71 376.32 209.5 374.58 187.63 387.36 170.25 408.98 178.63 407.36 187 418.61 191 415.36 210 426.86 216.75 435.61 211.5 439.36 211.88 445.86 221.38 440.73 227.25 427.23 243.88 414.98 251.88 398.36 248.97 397.35 251.79 389.78"/><path class="cls-1" d="M74.35,189.3l3.91-4.82L86.4,186l2-2.15,6,.56v-4.52h7.8l5.31-9.38,7.8-.34,8.82,9.72L128,176.9l33.8,1.25s1.48-9.62,2.34-15.33l-4-6L184,107.94l-16.28-6.33L156.38,88.5V81.71l-11.87.46-4,10.85-9.61-3-1.36,12.77-10.06-8.25-1.92-31-5.85-1.65L87.38,76.73,86,72.36l-13.25,3.5L71.63,65.73l-3.13-5.5L60,64.36l-.25,2.87-17.12-1.5,1.5,6.5,7,1.63,1.12,4.5h-11v7.37l6.38,3.88-2,3.75L49,97.11l-6.75,33.75-9.37-2-4.13,5-10-.25-7.87,7.25-1.5,13.75-8.5,2.87,2.87,3.63,38.67,11.61Z"/><path class="cls-2" d="M370.31,131.57l-1.49,12.6,3.34-.14a19.28,19.28,0,0,0,2.08-3.06c0-.41,2.11-1.65.92-3.12S370.31,131.57,370.31,131.57Z"/><path class="cls-2" d="M373.51,128.9l-2.91.65a2,2,0,0,0-1.09,1.59l-2.36,16.65,1.67.14,2.4-13.41Z"/><path class="cls-2" d="M371.22,134.52l-.74,6.65.57,12.42,1.27,10.19a1,1,0,0,0,.77.83h0a1,1,0,0,0,1.14-1l-.29-10-.34-9.18,2.22.17,1,9.94,1.29,13.69a1.39,1.39,0,0,0,1.24,1.14h0a1.38,1.38,0,0,0,1.49-1.55l-1.13-13.7L379,141.9l-1.73-3.59-2.12-.46Z"/><path class="cls-3" d="M371.32,130.73a2,2,0,0,1,2.51-1.54c.48.15,4,.29,4,.29l1.14,2-.5,1.69.52,9.08s-4.24,1.17-5.56.6a11.5,11.5,0,0,1-2.86-2.13l.63-9.47Z"/><path class="cls-2" d="M372.83,163.88l-2.89,1.44.39.08a3.19,3.19,0,0,0,1.88-.22l2-.88,0-.68Z"/><path class="cls-2" d="M378.7,168.39a14.48,14.48,0,0,0,.51,2.89,1,1,0,0,0,1.36-.17c.25-.42-.68-3.23-.68-3.23Z"/><path class="cls-3" d="M372.91,128.64c0-.1.16-1,.16-1a14,14,0,0,1,2.66,0c.06.18.39,3.1.39,3.1s-2.15-.08-2.25-.11l-.89-.44Z"/><polygon class="cls-4" points="373.1 128.68 374.35 128.78 373.69 129.87 373.1 128.68"/><polygon class="cls-4" points="372.22 137.72 372.76 138.88 373.89 137.85 373.85 129.77 373.5 129.82 372.22 137.72"/><path class="cls-5" d="M374.71,121.68a2.68,2.68,0,0,0-2.88,2.44l-.13,1.68a2.66,2.66,0,1,0,5.31.44l.14-1.68A2.68,2.68,0,0,0,374.71,121.68Z"/><path class="cls-2" d="M377.15,124.46a2.68,2.68,0,0,0-2.44-2.78,2.64,2.64,0,0,0-1.78.52,6.55,6.55,0,0,0,1.47,1,12.58,12.58,0,0,0,1.21.63C376.11,124.08,376.63,124.27,377.15,124.46Z"/><path class="cls-2" d="M377.15,124.56a2.69,2.69,0,0,0-.29-1.44,1.69,1.69,0,0,0-.21.55,2.38,2.38,0,0,0,.07,1.06,1.11,1.11,0,0,0,.26.52,1.05,1.05,0,0,0,.11.07Z"/><path class="cls-2" d="M377.86,129.48l-16.13,11.71.42,1.39,16.35-9.39.5-1.69Z"/><path class="cls-2" d="M375.77,129.15l.7,17.25,4.59-1.25L379,131.5l-.26-1.23a2,2,0,0,0-1.44-1Z"/><path class="cls-5" d="M369,149a1.26,1.26,0,1,1-1.25-1.25A1.25,1.25,0,0,1,369,149Z"/><path class="cls-5" d="M362.85,141.92a1.32,1.32,0,1,1-1.32-1.31A1.32,1.32,0,0,1,362.85,141.92Z"/><path class="cls-3" d="M348.29,134.67l13.28,8.2.41-1.39s-12.35-10-13.05-10.52l-1-.64-2.26.05-.54,2a12.43,12.43,0,0,0,.67,2A20.94,20.94,0,0,0,348.29,134.67Z"/><path class="cls-3" d="M345.48,130.23l-2.89.24a4.84,4.84,0,0,0-1.8,1.57l-5.43,7.3,6.31,6.68.62-2.92-4.17-3.76,4.8-5.17Z"/><path class="cls-2" d="M348.86,142l1.18,1L350,155l-1.27,10.19a1,1,0,0,1-.77.83h0a1,1,0,0,1-1.14-1l.29-10,.34-9.18-2.22.17-1,9.94-1.29,13.69a1.39,1.39,0,0,1-1.24,1.14h0a1.39,1.39,0,0,1-1.5-1.55l1.14-13.7.71-12.21,1.73-3.59,2.12-.46Z"/><path class="cls-3" d="M349.27,132.75c-.2-1.17-.93-2.5-2.06-2.15-.48.15-4,.29-4,.29l-1.13,2,.5,1.69-.52,9.08s4.24,1.17,5.56.6a19.12,19.12,0,0,0,2.48-1.3l-.42-7.85Z"/><path class="cls-2" d="M348.21,165.29l2.88,1.44-.39.08a3.16,3.16,0,0,1-1.87-.22l-2-.88,0-.68Z"/><path class="cls-2" d="M342.34,169.8a14.48,14.48,0,0,1-.51,2.89,1,1,0,0,1-1.36-.17c-.25-.42.68-3.23.68-3.23Z"/><path class="cls-3" d="M348.13,130.05c0-.1-.16-1-.16-1a14,14,0,0,0-2.66,0c-.06.18-.39,3.1-.39,3.1s2.15-.08,2.25-.11l.89-.44Z"/><polygon class="cls-4" points="348.56 129.88 347.31 129.98 347.98 131.07 348.56 129.88"/><polygon class="cls-4" points="349.44 138.92 348.91 140.08 347.77 139.06 347.81 130.97 348.17 131.03 349.44 138.92"/><path class="cls-5" d="M346.33,123.09a2.67,2.67,0,0,1,2.87,2.44l.14,1.68a2.66,2.66,0,1,1-5.31.44l-.14-1.68A2.67,2.67,0,0,1,346.33,123.09Z"/><path class="cls-2" d="M343.89,125.87a2.68,2.68,0,0,1,2.44-2.78,2.64,2.64,0,0,1,1.78.52,6.55,6.55,0,0,1-1.47,1c-.39.23-.8.44-1.21.63S344.41,125.68,343.89,125.87Z"/><path class="cls-2" d="M343.89,126a2.6,2.6,0,0,1,.29-1.44,2,2,0,0,1,.21.55,2.38,2.38,0,0,1-.07,1.06,1.11,1.11,0,0,1-.26.52,1.05,1.05,0,0,1-.11.07Z"/><circle class="cls-5" cx="342.14" cy="144.95" r="1.25"/><circle class="cls-5" cx="361.5" cy="141.54" r="1.32"/><path class="cls-6" d="M239,246.88a5.8,5.8,0,1,1-5.8-5.8A5.8,5.8,0,0,1,239,246.88Z"/><path class="cls-6" d="M71.61,177.7a5.8,5.8,0,1,1-5.79-5.8A5.79,5.79,0,0,1,71.61,177.7Z"/><path class="cls-6" d="M365.54,166.26a5.8,5.8,0,1,1-5.8-5.8A5.79,5.79,0,0,1,365.54,166.26Z"/><path class="cls-6" d="M210.17,156.67a5.8,5.8,0,1,1-5.8-5.79A5.8,5.8,0,0,1,210.17,156.67Z"/><path class="cls-6" d="M115.21,52.26a5.8,5.8,0,1,1-5.79-5.79A5.8,5.8,0,0,1,115.21,52.26Z"/><path class="cls-6" d="M216.57,404.56a5.8,5.8,0,1,1-5.79-5.79A5.79,5.79,0,0,1,216.57,404.56Z"/><path class="cls-6" d="M296.82,316.31a5.8,5.8,0,1,1-5.8-5.79A5.8,5.8,0,0,1,296.82,316.31Z"/><path class="cls-7" d="M109.42,52.26c.32-.39.64-.77,1-1.14"/><path class="cls-8" d="M112.48,48.91c33-32.21,104,14.94,94.56,102.55"/><path class="cls-7" d="M206.87,153c-.06.5-.12,1-.19,1.49,0,0,.25-.46.73-1.3"/><path class="cls-9" d="M208.9,150.59C223,126.76,301.48,5.86,357.16,160.43"/><path class="cls-7" d="M357.66,161.83c.17.47.34.94.5,1.42"/><path class="cls-7" d="M358.71,164.75c-.16-.49-.32-1-.48-1.42"/><path class="cls-10" d="M357.13,160.56c-15.34-34.69-52.86,38.27-65.78,152.76"/><path class="cls-7" d="M291.18,314.82c-.05.5-.11,1-.16,1.49"/><path class="cls-7" d="M109.42,52.26c-.24-.45-.47-.89-.71-1.32"/><path class="cls-11" d="M107.2,48.3C83.1,8.1,59.89,62.71,65.66,174.67"/><path class="cls-7" d="M65.74,176.2c0,.5.05,1,.08,1.5"/><path class="cls-7" d="M65.82,177.7l1.28-.79"/><path class="cls-12" d="M69.67,175.36C169.88,115.88,214.9,185,232.37,244"/><path class="cls-7" d="M232.79,245.44c.14.48.28,1,.41,1.44,0,0,.36-.4,1-1.09"/><path class="cls-13" d="M236.32,243.65c14.09-14,70.6-62.9,55.06,69.68"/><path class="cls-7" d="M291.2,314.82l-.18,1.49"/><g class="cls-14"><polygon class="cls-15" points="61.56 164.4 51.85 170.04 42.08 164.4 51.78 158.76 61.56 164.4"/><polygon class="cls-16" points="61.56 164.4 61.52 176.02 51.82 181.66 51.85 170.04 61.56 164.4"/><polygon class="cls-17" points="51.85 170.04 51.82 181.66 42.04 176.01 42.08 164.4 51.85 170.04"/></g><g class="cls-14"><polygon class="cls-18" points="217.15 247.28 207.44 252.92 197.67 247.28 207.37 241.64 217.15 247.28"/><polygon class="cls-19" points="217.15 247.28 217.12 258.89 207.41 264.54 207.44 252.92 217.15 247.28"/><polygon class="cls-20" points="207.44 252.92 207.41 264.54 197.63 258.89 197.67 247.28 207.44 252.92"/></g><g class="cls-14"><polygon class="cls-18" points="154.88 56.05 145.18 61.69 135.4 56.05 145.11 50.4 154.88 56.05"/><polygon class="cls-19" points="154.88 56.05 154.85 67.66 145.14 73.3 145.18 61.69 154.88 56.05"/><polygon class="cls-20" points="145.18 61.69 145.14 73.3 135.37 67.66 135.4 56.05 145.18 61.69"/></g><g class="cls-14"><polygon class="cls-18" points="239.3 395.94 229.59 401.58 219.81 395.94 229.52 390.29 239.3 395.94"/><polygon class="cls-19" points="239.3 395.94 239.26 407.55 229.56 413.19 229.59 401.58 239.3 395.94"/><polygon class="cls-20" points="229.59 401.58 229.56 413.19 219.78 407.55 219.81 395.94 229.59 401.58"/></g><g class="cls-14"><polygon class="cls-18" points="59.28 151.03 49.57 156.67 39.8 151.03 49.51 145.39 59.28 151.03"/><polygon class="cls-19" points="59.28 151.03 59.25 162.65 49.54 168.29 49.57 156.67 59.28 151.03"/><polygon class="cls-20" points="49.57 156.67 49.54 168.29 39.77 162.64 39.8 151.03 49.57 156.67"/></g><g class="cls-14"><polygon class="cls-15" points="204.14 255.22 194.44 260.87 184.66 255.22 194.37 249.58 204.14 255.22"/><polygon class="cls-16" points="204.14 255.22 204.11 266.84 194.4 272.48 194.44 260.87 204.14 255.22"/><polygon class="cls-17" points="194.44 260.87 194.4 272.48 184.63 266.84 184.66 255.22 194.44 260.87"/></g><path class="cls-2" d="M234.83,232.59a17.83,17.83,0,0,1-.61,3.43,1.15,1.15,0,0,1-1.61-.2c-.3-.51.8-3.83.8-3.83Z"/><path class="cls-2" d="M243.7,197.35l.88,7.89L243.9,220l-1.51,12.09a1.14,1.14,0,0,1-.91,1h0a1.14,1.14,0,0,1-1.35-1.18l.34-11.88.41-10.9-2.64.2-1.19,11.8-1.54,11.3a1.64,1.64,0,0,1-1.46,1.35h0a1.64,1.64,0,0,1-1.78-1.83l1.35-11.32L233.4,202l3.11-.12,2.52-.53Z"/><path class="cls-2" d="M241.78,232.19l3.43,1.71-.46.09a3.76,3.76,0,0,1-2.22-.26l-2.36-1,0-.82Z"/><path class="cls-2" d="M242.52,190.56l1.22.67a4.64,4.64,0,0,1,2.35,3.18l.85,4.13-4.85,1.71L240.53,196Z"/><path class="cls-2" d="M226.85,211.8l6-18.21a4.25,4.25,0,0,1,3.46-2.88l2.08-.29,4.13.14,1.65,2.11.48,11.6a4.68,4.68,0,0,1-4.93,3c-4-.15-6.36-4.45-6.36-4.45l0-1c-2,4.31-5.12,10.69-5.12,10.69Z"/><polygon class="cls-3" points="239.41 190.98 241 198.16 242.24 190.75 241.74 190.01 240.38 189.85 239.41 190.98"/><path class="cls-5" d="M225.87,212.94a1.55,1.55,0,1,0,1.55-1.55A1.54,1.54,0,0,0,225.87,212.94Z"/><path class="cls-3" d="M242.52,190.56l.07-1.25-1.45-.26-2.3.07-.45,1.3,1.91,1.76s.45-.84.55-.84a14.35,14.35,0,0,1,1.22.81Z"/><polygon class="cls-2" points="241.91 191.34 241.07 190.63 240.43 191.25 240.94 192.6 239.55 200.96 240.91 202.09 241.97 201.12 241.36 192.47 241.91 191.34"/><polygon class="cls-4" points="247.65 195.41 240.53 195.98 239.53 204.81 246.23 204.1 247.65 195.41"/><path class="cls-5" d="M246.32,200.54a1.2,1.2,0,1,0,1.19-1.38A1.29,1.29,0,0,0,246.32,200.54Z"/><path class="cls-5" d="M237.68,185.94a3.62,3.62,0,1,0,3.77-4A3.9,3.9,0,0,0,237.68,185.94Z"/><path class="cls-2" d="M244.25,183.81a4.16,4.16,0,0,1-4.45.26,4.21,4.21,0,0,1-1.09-.8,3.37,3.37,0,0,1,2.74-1.29A3.43,3.43,0,0,1,244.25,183.81Z"/><path class="cls-2" d="M239.15,182.82a4.2,4.2,0,0,1-.61,4.22,4.5,4.5,0,0,1-.6.63,4.69,4.69,0,0,1-.26-1.73A4.41,4.41,0,0,1,239.15,182.82Z"/><g class="cls-14"><polygon class="cls-18" points="346.6 276.79 339.68 280.82 332.71 276.79 339.63 272.77 346.6 276.79"/><polygon class="cls-19" points="346.6 276.79 346.58 285.08 339.66 289.1 339.68 280.82 346.6 276.79"/><polygon class="cls-20" points="339.68 280.82 339.66 289.1 332.69 285.07 332.71 276.79 339.68 280.82"/></g><path class="cls-2" d="M110.7,50a17.38,17.38,0,0,0,.6,3.39,1.14,1.14,0,0,0,1.6-.2c.29-.5-.8-3.79-.8-3.79Z"/><path class="cls-2" d="M101.93,15.2,101.07,23l.66,14.57,1.5,11.95a1.14,1.14,0,0,0,.9,1h0a1.14,1.14,0,0,0,1.34-1.17l-.35-11.75-.4-10.76,2.61.2,1.18,11.66L110,49.82a1.61,1.61,0,0,0,1.45,1.33h0a1.62,1.62,0,0,0,1.76-1.8L111.9,38.16l.21-18.41L109,19.64l-2.49-.54Z"/><path class="cls-2" d="M103.83,49.62l-3.39,1.7.45.08a3.76,3.76,0,0,0,2.2-.25l2.33-1,0-.81Z"/><path class="cls-2" d="M103.1,8.49l-1.21.65a4.64,4.64,0,0,0-2.32,3.15l-.84,4.08,4.79,1.69,1.55-4.22Z"/><path class="cls-2" d="M118.59,29.47l-5.93-18a4.23,4.23,0,0,0-3.42-2.85l-2.06-.28-4.08.14-1.64,2.08L101,22a4.64,4.64,0,0,0,4.87,3c3.93-.15,6.29-4.4,6.29-4.4l0-1c2,4.26,5.06,10.56,5.06,10.56Z"/><polygon class="cls-3" points="106.18 8.9 104.6 15.99 103.38 8.67 103.88 7.94 105.22 7.79 106.18 8.9"/><path class="cls-5" d="M119.56,30.6A1.53,1.53,0,1,1,118,29.07,1.54,1.54,0,0,1,119.56,30.6Z"/><path class="cls-3" d="M103.1,8.49,103,7.25,104.47,7l2.26.07.45,1.29-1.88,1.74s-.45-.83-.55-.83a14.12,14.12,0,0,0-1.21.8Z"/><polygon class="cls-2" points="103.7 9.26 104.53 8.56 105.17 9.16 104.66 10.5 106.03 18.76 104.69 19.88 103.64 18.92 104.24 10.37 103.7 9.26"/><polygon class="cls-4" points="98.03 13.27 105.07 13.84 106.06 22.57 99.44 21.86 98.03 13.27"/><path class="cls-5" d="M99.34,18.34A1.19,1.19,0,1,1,98.17,17,1.27,1.27,0,0,1,99.34,18.34Z"/><path class="cls-5" d="M107.88,3.92a3.58,3.58,0,1,1-7.07.33,3.58,3.58,0,1,1,7.07-.33Z"/><path class="cls-2" d="M101.39,1.82a4.12,4.12,0,0,0,4.4.25,4.48,4.48,0,0,0,1.08-.79A3.35,3.35,0,0,0,104.16,0,3.42,3.42,0,0,0,101.39,1.82Z"/><path class="cls-2" d="M106.43.84A4.13,4.13,0,0,0,107,5a4.33,4.33,0,0,0,.59.62,4.58,4.58,0,0,0,.25-1.71A4.34,4.34,0,0,0,106.43.84Z"/><path class="cls-2" d="M206.68,143.86a23.31,23.31,0,0,1-.51,4.15,1.15,1.15,0,0,1-1.6-.2c-.3-.5.8-3.79.8-3.79Z"/><path class="cls-2" d="M213.29,110.35l1.18,7.43-.9,14.85-.82,11.13c-.06.48.16.77-.32.86h0a1.12,1.12,0,0,1-1.33-1.16l.34-11.75.4-10.77-2.61.2L208,133.89,206.54,144l-1.12.26.27-11,1.18-14.67.66-4.81,2.48-.53Z"/><path class="cls-2" d="M212.74,143.77l2.65,1.41-.19.32a2.32,2.32,0,0,1-1.73-.21l-2.33-1,0-.8Z"/><path class="cls-2" d="M205.19,96.31a2.2,2.2,0,1,0,2.19-2.19A2.19,2.19,0,0,0,205.19,96.31Z"/><path class="cls-5" d="M211.12,102.38s.49,3.45.21,3.8-1.62-.6-1.65-.82c-.14-.93-.35-4-.35-4Z"/><path class="cls-5" d="M207.32,100a3.11,3.11,0,1,0,2.16-4.22A3.38,3.38,0,0,0,207.32,100Z"/><path class="cls-3" d="M211.28,103.39s-.07,2.51-.35,2.3a19.74,19.74,0,0,1-1.46-2L207,106.92l1.07,5.77-2.13,3.5c4.46,3.7,9,.25,9,.25l-1-4.77a2.24,2.24,0,0,1,.17-1.42l.4-.83a2.27,2.27,0,0,0,.18-1.36l-.39-2.07.11-3.29Z"/><path class="cls-2" d="M208.74,97.27l2.52-.32,1.11-.17a3.17,3.17,0,0,0-2.08-1.2,3.64,3.64,0,0,0-2.28,1,1.84,1.84,0,0,0-.59.65,3.16,3.16,0,0,0-.42.94,4.33,4.33,0,0,0,1,3.35c.06-.34.36-.91.26-1.23s-.65-.55-.69-.84a.68.68,0,0,1,.34-.76c.27-.1.63.58.85.77A18.16,18.16,0,0,0,208.74,97.27Z"/><path class="cls-21" d="M212.49,98.52c.1.6.52,1,.95,1s.7-.61.6-1.21-.52-1-.95-1S212.4,97.92,212.49,98.52Z"/><path class="cls-21" d="M210.53,99.19c.1.6.52,1,.95,1s.7-.61.6-1.21-.52-1-1-1S210.43,98.59,210.53,99.19Z"/><path class="cls-3" d="M221.38,89.83l-2.58,7.51-4.42,5.36-.24,3.54,6.62-7.45s2.16-7.42,2-7.73A12.7,12.7,0,0,0,221.38,89.83Z"/><path class="cls-3" d="M208.71,106.4l-.51-.92L207,106.92l-3.81,7-1.33,6.28s1.44.92,1.54.51a41.49,41.49,0,0,1,2.16-6.07c.93-1.75,3.33-5.12,3.33-5.12Z"/><circle class="cls-5" cx="222.22" cy="89.71" r="1.13"/><circle class="cls-5" cx="202.34" cy="121.41" r="1.13"/><path class="cls-7" d="M290.71,318.51c-.41-.28-.83-.55-1.25-.81"/><path class="cls-22" d="M286.88,316.17c-36.16-20.23-80.58,7.58-76,84.82"/><path class="cls-7" d="M211,402.49c0,.5.07,1,.1,1.5"/><path class="cls-2" d="M234.81,390.22a23,23,0,0,0,.51,4,1.1,1.1,0,0,0,1.55-.19c.29-.49-.78-3.69-.78-3.69Z"/><path class="cls-2" d="M228.37,357.59,227,363.45l.44,15.49,1.49,11.18c.06.47-.16.75.3.84h0a1.1,1.1,0,0,0,1.31-1.13v-10.6l0-11.28,1.31.1,1,12.49,2.06,9.78,1.1.25-.27-10.67-.13-16.4L234,360.93l-2.42-.52Z"/><path class="cls-2" d="M228.92,390.13l-2.59,1.39.18.3a2.26,2.26,0,0,0,1.69-.2l2.27-1,.05-.79Z"/><polygon class="cls-5" points="233.8 350.52 229.58 350.13 230.84 354.38 233.8 350.52"/><path class="cls-2" d="M235.61,344.59a3.76,3.76,0,1,1-3.76-3.76A3.76,3.76,0,0,1,235.61,344.59Z"/><path class="cls-2" d="M236.27,341.93a2.14,2.14,0,1,1-2.13-2.14A2.13,2.13,0,0,1,236.27,341.93Z"/><path class="cls-3" d="M229.06,350.08s-6.52,6.12-6.61,5.86-3.09-5.56-3.09-5.56l-.88.53,2.92,7a1.08,1.08,0,0,0,1.44.57l6.42-2.66Z"/><path class="cls-5" d="M231.43,341.51a3.21,3.21,0,0,0-3.19,3.19v2a3.19,3.19,0,1,0,6.38,0v-2A3.21,3.21,0,0,0,231.43,341.51Z"/><path class="cls-2" d="M231.43,341.51a3.2,3.2,0,0,1,3.19,3.2v1.65a2.84,2.84,0,0,1-1.71-2.6A2.6,2.6,0,0,1,233,343a2.8,2.8,0,0,1-3.85-.58A3.22,3.22,0,0,1,231.43,341.51Z"/><path class="cls-3" d="M227.76,357.76l-1-1.4a2.19,2.19,0,0,1-.13-2.21l.56-1.06c.83-1.11.86-2.81,1.83-3l6.41.59.2.14c.5.34.82,2.51.11,4.66a13.69,13.69,0,0,1-1.94,3l1.71,4.86a2.46,2.46,0,0,1-2,.87c-1.72.08-5.52-.1-6.75-.86Z"/><polygon class="cls-3" points="235.67 350.81 240.54 358.64 238.78 366.94 237.46 367.11 237.72 358.82 233.66 353.44 235.67 350.81"/><polygon class="cls-4" points="240.99 366.41 234.46 368.7 235.61 374.96 242.31 372.4 240.99 366.41"/><circle class="cls-5" cx="238.25" cy="367.73" r="1.12"/><rect class="cls-2" x="216.34" y="348.94" width="5.32" height="0.26" transform="translate(-172.42 220.21) rotate(-39.67)"/><circle class="cls-5" cx="218.67" cy="350.05" r="1.12"/><path class="cls-2" d="M299.35,275l-1.5,12.6,3.34-.13a19.75,19.75,0,0,0,2.08-3.06c0-.42,2.11-1.65.92-3.12S299.35,275,299.35,275Z"/><path class="cls-2" d="M302.54,272.31l-2.9.65a2,2,0,0,0-1.1,1.59l-2.36,16.65,1.67.14,2.4-13.4Z"/><path class="cls-2" d="M300.25,277.94l-.74,6.64.57,12.42,1.28,10.2a1,1,0,0,0,.77.82h0a1,1,0,0,0,1.14-1l-.3-10-.34-9.18,2.22.17,1,9.94,1.29,13.69a1.39,1.39,0,0,0,1.24,1.14h0a1.39,1.39,0,0,0,1.5-1.54l-1.14-13.71-.7-12.21-1.74-3.59-2.12-.45Z"/><path class="cls-3" d="M300.35,274.14a2,2,0,0,1,2.51-1.54c.48.15,4,.29,4,.29l1.14,2-.51,1.7.53,9.07s-4.24,1.17-5.56.6a11.63,11.63,0,0,1-2.87-2.13l.63-9.46Z"/><path class="cls-2" d="M301.87,307.29,299,308.74l.39.07a3.16,3.16,0,0,0,1.87-.22l2-.87,0-.69Z"/><path class="cls-2" d="M307.73,311.8a15.23,15.23,0,0,0,.51,2.89,1,1,0,0,0,1.36-.17c.26-.42-.68-3.23-.68-3.23Z"/><path class="cls-3" d="M301.94,272.05c0-.1.16-1,.16-1a13.32,13.32,0,0,1,2.67.05c.06.17.38,3.09.38,3.09s-2.15-.08-2.25-.11-.89-.44-.89-.44Z"/><polygon class="cls-4" points="302.13 272.09 303.38 272.19 302.72 273.29 302.13 272.09"/><polygon class="cls-4" points="301.26 281.13 301.79 282.29 302.92 281.27 302.88 273.18 302.53 273.24 301.26 281.13"/><path class="cls-5" d="M303.75,265.09a2.67,2.67,0,0,0-2.88,2.44l-.14,1.68a2.67,2.67,0,1,0,5.32.44l.14-1.68A2.68,2.68,0,0,0,303.75,265.09Z"/><path class="cls-2" d="M306.18,267.87a2.64,2.64,0,0,0-4.22-2.26,5.8,5.8,0,0,0,1.48,1,9.82,9.82,0,0,0,1.2.63C305.14,267.49,305.66,267.68,306.18,267.87Z"/><path class="cls-2" d="M306.19,268a2.66,2.66,0,0,0-.3-1.43,2,2,0,0,0-.21.55,2.33,2.33,0,0,0,.07,1.05,1.11,1.11,0,0,0,.26.52s.08,0,.11.07Z"/><path class="cls-2" d="M306.9,272.89,290.77,284.6l.41,1.39,16.35-9.38.51-1.7Z"/><path class="cls-2" d="M304.8,272.57l.7,17.24,4.59-1.25-2-13.65-.27-1.23a2,2,0,0,0-1.43-1Z"/><path class="cls-5" d="M298,292.45a1.25,1.25,0,1,1-1.25-1.25A1.25,1.25,0,0,1,298,292.45Z"/><path class="cls-5" d="M291.88,285.33a1.32,1.32,0,1,1-1.32-1.31A1.32,1.32,0,0,1,291.88,285.33Z"/><path class="cls-2" d="M277.33,278.09l13.27,8.19.42-1.39s-12.35-10-13.06-10.52l-1-.63-2.25,0-.55,2a13.49,13.49,0,0,0,.67,2A21.25,21.25,0,0,0,277.33,278.09Z"/><path class="cls-2" d="M274.51,273.65l-2.89.23a4.92,4.92,0,0,0-1.8,1.57l-5.42,7.3,6.3,6.68.63-2.92-4.18-3.76,4.8-5.17Z"/><path class="cls-2" d="M277.89,285.44l1.18,1-.05,12-1.27,10.2a1,1,0,0,1-.77.82h0a1,1,0,0,1-1.14-1l.29-10,.34-9.18-2.22.17-1,9.94L272,313a1.37,1.37,0,0,1-1.23,1.14h0a1.38,1.38,0,0,1-1.5-1.54l1.13-13.71.71-12.21,1.74-3.59,2.12-.45Z"/><path class="cls-2" d="M278.3,276.16c-.2-1.17-.93-2.5-2.06-2.15-.47.15-4,.29-4,.29l-1.14,2,.5,1.7-.52,9.07s4.24,1.17,5.56.6a19.12,19.12,0,0,0,2.48-1.3l-.41-7.85Z"/><path class="cls-2" d="M277.24,308.7l2.89,1.45-.39.07a3.16,3.16,0,0,1-1.87-.22l-2-.87,0-.69Z"/><path class="cls-2" d="M271.37,313.21a14.48,14.48,0,0,1-.51,2.89,1,1,0,0,1-1.36-.17c-.25-.42.68-3.23.68-3.23Z"/><path class="cls-3" d="M277.17,273.46c0-.1-.16-1-.16-1a13.32,13.32,0,0,0-2.67.05c-.06.17-.44,2.1-.44,2.1s2.21.91,2.3.88.9-.44.9-.44Z"/><polygon class="cls-4" points="277.6 273.29 276.35 273.39 277.01 274.49 277.6 273.29"/><path class="cls-5" d="M275.36,266.5a2.68,2.68,0,0,1,2.88,2.44l.14,1.68a2.67,2.67,0,0,1-5.32.44l-.14-1.68A2.68,2.68,0,0,1,275.36,266.5Z"/><path class="cls-2" d="M272.92,269.28a2.65,2.65,0,0,1,4.23-2.26,6.17,6.17,0,0,1-1.48,1,9.82,9.82,0,0,1-1.2.63C274,268.9,273.44,269.09,272.92,269.28Z"/><path class="cls-2" d="M272.92,269.38a2.57,2.57,0,0,1,.3-1.43,1.92,1.92,0,0,1,.2.55,2.33,2.33,0,0,1-.06,1.05,1.13,1.13,0,0,1-.27.52,1.05,1.05,0,0,1-.11.07Z"/><circle class="cls-5" cx="271.17" cy="288.36" r="1.25"/><circle class="cls-5" cx="290.53" cy="284.96" r="1.32"/><polygon class="cls-3" points="273.9 274.57 277.07 281.84 277.33 278.09 277 274.27 273.9 274.57"/><polygon class="cls-4" points="278.47 282.33 277.94 283.49 276.81 282.47 276.85 274.38 277.2 274.44 278.47 282.33"/><path class="cls-2" d="M68.6,167.51a23.42,23.42,0,0,1-.52,4.15,1.12,1.12,0,0,1-1.59-.2c-.3-.5.8-3.79.8-3.79Z"/><path class="cls-5" d="M75.21,134l1.18,7.43-.91,14.85-.82,11.13c-.06.48.17.77-.31.86h0A1.13,1.13,0,0,1,73,167.11l.35-11.75.4-10.77-2.61.2L70,157.55l-1.5,10.06-1.13.26.28-11,1.17-14.67.66-4.81,2.49-.53Z"/><path class="cls-2" d="M74.65,167.42l2.66,1.42-.19.31a2.32,2.32,0,0,1-1.73-.21l-2.33-1,0-.81Z"/><path class="cls-2" d="M71.41,134.55,68,139.8l-1.86,13.65s5.9,1.93,8.51.46,2.49-2.16,2.49-2.16L76.57,140l-2.9-8c0-1-.44-2.52-1.45-2.72l-.36-1.17-2.62.72h.27c-.77.54-.24.17-.45,1.09Z"/><polygon class="cls-5" points="69.64 126.75 73.98 126.35 72.68 130.71 69.64 126.75"/><path class="cls-2" d="M67.79,120.66a3.86,3.86,0,1,0,3.85-3.86A3.85,3.85,0,0,0,67.79,120.66Z"/><path class="cls-2" d="M67.1,117.92a2.2,2.2,0,1,0,2.2-2.19A2.2,2.2,0,0,0,67.1,117.92Z"/><path class="cls-3" d="M74.5,126.3s6.71,6.28,6.8,6,3.17-5.71,3.17-5.71l.9.55-3,7.19a1.11,1.11,0,0,1-1.47.58l-6.59-2.73Z"/><path class="cls-5" d="M72.07,117.5a3.28,3.28,0,0,1,3.28,3.27v2.07a3.28,3.28,0,1,1-6.55,0v-2.07A3.29,3.29,0,0,1,72.07,117.5Z"/><path class="cls-2" d="M72.07,117.5a3.29,3.29,0,0,0-3.27,3.28v1.69a2.89,2.89,0,0,0,1.75-2.66,3.25,3.25,0,0,0-.11-.77,2.82,2.82,0,0,0,1.66.54,2.89,2.89,0,0,0,2.28-1.13A3.3,3.3,0,0,0,72.07,117.5Z"/><path class="cls-3" d="M75.85,134.18l1-1.44a2.23,2.23,0,0,0,.13-2.26l-.57-1.1c-.85-1.14-.89-2.88-1.89-3.08l-6.58.6-.2.14c-.51.36-.84,2.58-.11,4.79a14.06,14.06,0,0,0,2,3.08l-1.76,5a2.51,2.51,0,0,0,2,.89c1.76.08,5.66-.1,6.93-.88Z"/><polygon class="cls-3" points="67.72 127.04 62.72 135.09 64.53 143.6 65.89 143.78 65.61 135.27 69.78 129.75 67.72 127.04"/><polygon class="cls-4" points="62.26 143.06 68.97 145.41 67.79 151.84 60.91 149.22 62.26 143.06"/><circle class="cls-5" cx="65.07" cy="144.42" r="1.15"/><rect class="cls-2" x="84.7" y="122.53" width="0.27" height="5.46" transform="translate(-65.74 110.59) rotate(-50.33)"/><circle class="cls-5" cx="85.17" cy="126.26" r="1.15"/><path class="cls-7" d="M233.42,247.34l-.7-1.33"/><path class="cls-23" d="M231.23,243.41C208.32,205,204.78,288.54,210.9,401"/><path class="cls-7" d="M211,402.49c0,.5.05,1,.08,1.5"/><path class="cls-24" d="M396.47,165.87a8.11,8.11,0,1,0-10.93,3.48A8.13,8.13,0,0,0,396.47,165.87Z"/><path class="cls-25" d="M395.34,165.22a6.7,6.7,0,1,0-9,2.88A6.7,6.7,0,0,0,395.34,165.22Z"/><text class="cls-26" transform="translate(385.51 164.49) rotate(27.32)">$</text><path class="cls-27" d="M390.52,155.55s7.37,2.52,4.22,10.63c0,0,2.05-3.09,1-6.11C394.62,156.77,392.83,156.15,390.52,155.55Z"/><path class="cls-28" d="M384.22,157.88a9.63,9.63,0,0,0,.36,7.45c1.93,3.54,6.1,3.39,6.1,3.39s-5.63,1.21-7.55-3.72C381.48,160.78,383.51,158.62,384.22,157.88Z"/><path class="cls-24" d="M397.49,160.7a8.11,8.11,0,1,0-8.06,8.15A8.09,8.09,0,0,0,397.49,160.7Z"/><path class="cls-25" d="M396.19,160.65a6.7,6.7,0,1,0-6.66,6.73A6.69,6.69,0,0,0,396.19,160.65Z"/><text class="cls-26" transform="matrix(1, -0.01, 0.01, 1, 387.15, 164.56)">$</text><path class="cls-27" d="M387.44,154.31s7.69-1.18,8.66,7.46c0,0,.39-3.68-1.93-5.88C391.63,153.49,389.76,153.78,387.44,154.31Z"/><path class="cls-28" d="M382.94,159.3a9.61,9.61,0,0,0,3.78,6.44c3.34,2.24,7,.17,7,.17s-4.42,3.68-8.42.21C381.85,163.14,382.65,160.29,382.94,159.3Z"/><path class="cls-24" d="M258.42,383.33a8.11,8.11,0,1,0-10.92,3.48A8.11,8.11,0,0,0,258.42,383.33Z"/><path class="cls-25" d="M257.29,382.68a6.7,6.7,0,1,0-9,2.88A6.69,6.69,0,0,0,257.29,382.68Z"/><text class="cls-26" transform="translate(247.46 381.95) rotate(27.32)">$</text><path class="cls-27" d="M252.48,373s7.36,2.52,4.21,10.63c0,0,2.05-3.09,1-6.11C256.57,374.23,254.78,373.61,252.48,373Z"/><path class="cls-28" d="M246.18,375.34a9.58,9.58,0,0,0,.36,7.45c1.92,3.54,6.1,3.39,6.1,3.39s-5.63,1.21-7.56-3.72C243.43,378.24,245.47,376.08,246.18,375.34Z"/><path class="cls-24" d="M258.42,382.33a8.11,8.11,0,1,0-10.92,3.48A8.09,8.09,0,0,0,258.42,382.33Z"/><path class="cls-25" d="M257.29,381.69a6.7,6.7,0,1,0-9,2.87A6.7,6.7,0,0,0,257.29,381.69Z"/><text class="cls-26" transform="translate(247.46 380.96) rotate(27.32)">$</text><path class="cls-27" d="M252.48,372s7.36,2.52,4.21,10.63c0,0,2.05-3.08,1-6.1C256.57,373.23,254.78,372.61,252.48,372Z"/><path class="cls-28" d="M246.18,374.35a9.58,9.58,0,0,0,.36,7.45c1.92,3.53,6.1,3.38,6.1,3.38s-5.63,1.21-7.56-3.72C243.43,377.24,245.47,375.08,246.18,374.35Z"/><path class="cls-24" d="M258.42,381.05a8.11,8.11,0,1,0-10.92,3.48A8.11,8.11,0,0,0,258.42,381.05Z"/><path class="cls-25" d="M257.29,380.4a6.7,6.7,0,1,0-9,2.88A6.69,6.69,0,0,0,257.29,380.4Z"/><text class="cls-26" transform="translate(247.46 379.67) rotate(27.32)">$</text><path class="cls-27" d="M252.48,370.73s7.36,2.52,4.21,10.62c0,0,2.05-3.08,1-6.1C256.57,372,254.78,371.33,252.48,370.73Z"/><path class="cls-28" d="M246.18,373.06a9.58,9.58,0,0,0,.36,7.45c1.92,3.54,6.1,3.39,6.1,3.39s-5.63,1.21-7.56-3.72C243.43,376,245.47,373.8,246.18,373.06Z"/><path class="cls-24" d="M258.53,379.81a8.11,8.11,0,1,0-10.92,3.48A8.1,8.1,0,0,0,258.53,379.81Z"/><path class="cls-25" d="M257.4,379.17a6.7,6.7,0,1,0-9,2.87A6.7,6.7,0,0,0,257.4,379.17Z"/><text class="cls-26" transform="translate(247.57 378.44) rotate(27.32)">$</text><path class="cls-27" d="M252.59,369.49S260,372,256.8,380.12c0,0,2.05-3.08,1-6.1C256.68,370.71,254.89,370.09,252.59,369.49Z"/><path class="cls-28" d="M246.29,371.83a9.58,9.58,0,0,0,.36,7.45c1.92,3.53,6.09,3.38,6.09,3.38s-5.62,1.21-7.55-3.72C243.54,374.72,245.57,372.56,246.29,371.83Z"/><path class="cls-24" d="M258.42,378.68a8.11,8.11,0,1,0-10.92,3.49A8.09,8.09,0,0,0,258.42,378.68Z"/><path class="cls-25" d="M257.29,378a6.7,6.7,0,1,0-9,2.87A6.7,6.7,0,0,0,257.29,378Z"/><text class="cls-26" transform="translate(247.46 377.31) rotate(27.32)">$</text><path class="cls-27" d="M252.48,368.36s7.36,2.52,4.21,10.63c0,0,2.05-3.08,1-6.1C256.57,369.58,254.78,369,252.48,368.36Z"/><path class="cls-28" d="M246.18,370.7a9.58,9.58,0,0,0,.36,7.45c1.92,3.54,6.1,3.38,6.1,3.38s-5.63,1.22-7.56-3.72C243.43,373.59,245.47,371.44,246.18,370.7Z"/><path class="cls-24" d="M259.32,373.84a8.11,8.11,0,1,0-8.26,7.94A8.11,8.11,0,0,0,259.32,373.84Z"/><path class="cls-25" d="M258,373.75a6.7,6.7,0,1,0-6.83,6.57A6.68,6.68,0,0,0,258,373.75Z"/><text class="cls-26" transform="translate(248.88 377.44) rotate(1.12)">$</text><path class="cls-27" d="M249.43,367.2s7.72-1,8.48,7.68c0,0,.48-3.68-1.79-5.93C253.65,366.49,251.77,366.72,249.43,367.2Z"/><path class="cls-28" d="M244.81,372.07a9.59,9.59,0,0,0,3.61,6.53c3.29,2.33,7,.35,7,.35s-4.51,3.57-8.42,0C243.63,375.88,244.5,373.05,244.81,372.07Z"/></g></g></svg>