<svg xmlns="http://www.w3.org/2000/svg" xmlns:xlink="http://www.w3.org/1999/xlink" width="76" height="41" viewBox="0 0 76 41" data-ember-extension="1">
    <defs>
        <path id="a" d="M75.196.11H0v40.531h75.196V.111z"/>
    </defs>
    <g fill="none" fill-rule="evenodd">
        <mask id="b" fill="#fff">
            <use xlink:href="#a"/>
        </mask>
        <path fill="#FFF" d="M47.05 26.794L54.986 14h4.422l2.393 12.797h-4.096l-.345-2.57h-5.238l-1.45 2.57h-7.557c-.024-.476.042-1.443.2-2.904.048-.51.072-.86.072-1.05 0-.392-.1-.669-.3-.829-.198-.16-.588-.24-1.168-.24h-1.522l-1.088 5.023h-3.643l2.773-12.86h6.054c1.039 0 1.727.023 2.066.07.822.12 1.407.405 1.758.856.326.404.49.908.49 1.514 0 .308-.037.635-.11.98-.241 1.104-.815 1.9-1.721 2.386-.593.32-1.305.54-2.14.66l-.017.07c.942.025 1.583.208 1.921.553.29.284.435.766.435 1.442 0 .226-.018.612-.054 1.158-.109 1.59-.133 2.646-.073 3.17zM20.367 40.641h23.757l.885-4.382H21.252l-.884 4.382zm1.451-6.8h23.758l.884-4.384H22.703l-.884 4.383zm4.753-22.546H50.33l.884-4.383H27.457l-.885 4.383zm1.452-6.801h23.758L52.666.11H28.908l-.884 4.383zM62.6 26.796l2.773-12.856h9.823l-.525 2.464h-6.235l-.58 2.678h5.873l-.544 2.464h-5.873l-.58 2.75h6.38l-.543 2.5H62.6zm-50.692 0l2.773-12.856h9.824l-.526 2.464h-6.235l-.58 2.678h5.873l-.544 2.464h-5.872l-.58 2.75h6.38l-.544 2.5h-9.969zM.125 22.606h3.589a2.837 2.837 0 0 0-.071.561c0 .897.607 1.346 1.82 1.346 1.274 0 2.018-.466 2.232-1.397.025-.113.036-.222.036-.324 0-.42-.297-.71-.893-.869l-2.981-.783c-1.69-.443-2.536-1.3-2.536-2.572 0-.25.03-.517.09-.8.25-1.09.875-1.983 1.874-2.675 1.131-.784 2.601-1.176 4.41-1.176 3.024 0 4.536.931 4.536 2.794 0 .307-.048.681-.143 1.124H8.463c.06-.227.09-.42.09-.579 0-.75-.464-1.124-1.393-1.124-.512 0-.952.122-1.321.366-.37.244-.59.554-.661.928a1.273 1.273 0 0 0-.036.29c0 .466.352.79 1.054.971l2.267.596c.988.262 1.679.523 2.071.784.667.432 1 1.056 1 1.874 0 .272-.035.567-.107.885-.286 1.318-1.053 2.323-2.303 3.016-1.143.636-2.565.954-4.268.954-2.201 0-3.654-.489-4.356-1.465-.333-.455-.5-1.012-.5-1.67 0-.272.042-.624.125-1.056zm23.154 4.19l2.761-12.898h7.08c.226.019.42.041.58.068.834.155 1.469.467 1.904.933.398.43.598.951.598 1.562a3.2 3.2 0 0 1-.073.663c-.326 1.496-1.468 2.476-3.425 2.943l-.018.036c1.703.311 2.555 1.113 2.555 2.404 0 .814-.23 1.552-.689 2.216a4.512 4.512 0 0 1-1.84 1.534c-.766.36-1.984.539-3.651.539h-5.782zm5.8-10.604l-.617 2.87h1.704c.64 0 1.076-.054 1.305-.161.508-.251.822-.67.943-1.256.108-.503.024-.886-.254-1.149-.217-.203-.586-.304-1.106-.304H29.08zm-1.106 5.167l-.652 3.068h2.012c1.244 0 1.975-.503 2.193-1.507.036-.155.054-.299.054-.43 0-.754-.568-1.13-1.704-1.13h-1.903zm25.51.51h3.552l-.526-5.37h-.054l-2.973 5.37zm-11.907-5.565l-.671 3.153h1.36c.773 0 1.28-.035 1.522-.107.688-.201 1.112-.688 1.268-1.46a2.13 2.13 0 0 0 .055-.445c0-.499-.242-.832-.725-.998-.29-.095-.773-.143-1.45-.143h-1.36z" mask="url(#b)"/>
    </g>
</svg>