<svg xmlns="http://www.w3.org/2000/svg" viewBox="0 0 260.23 275.93"><defs><style>.cls-1{fill:#a79f5a;stroke:#fff;stroke-miterlimit:10;}</style></defs><title>CentroOeste</title><g id="Camada_2" data-name="Camada 2"><g id="Capa_1" data-name="Capa 1"><path class="cls-1" d="M259.08,116l-.23-.75a7.77,7.77,0,0,1-.3-.89,4.56,4.56,0,0,0-2-2.74c-.28-.23-.55-.43-.8-.62a3.58,3.58,0,0,1-1.73-2.2,12.28,12.28,0,0,1,.08-3.71c.07-.59.15-1.17.19-1.8,0-.42,0-.87-.07-1.34a12.72,12.72,0,0,1-.06-1.73,2,2,0,0,0,1.1-.2,2.39,2.39,0,0,0,1.14-2.49,2.3,2.3,0,0,0-1.25-1.66l.17-.28c.63-1.09,1.42-2.44,1-3.71a2.5,2.5,0,0,0-1.48-1.53,1,1,0,0,0-1.28.48.75.75,0,0,0-.07.33,4.14,4.14,0,0,1-.62,0,4,4,0,0,1-.82-.3,5,5,0,0,0-1.3-.45c-1.82-.29-2.61.16-4.14,1l-.29.17c-.57.28-1.19.63-1.83,1a19.86,19.86,0,0,1-4.75,2.17,8.71,8.71,0,0,1-1.9-.07c-1.92-.16-3.9-.34-4.83.71a2.9,2.9,0,0,0-.58,2.44c.05.82.05,1.23-.29,1.54-.53.53-1.12.35-2.59-.38-.32-.16-.64-.33-.93-.44a22.17,22.17,0,0,0-7.84-1.64c-1-.07-2.12-.16-3.21-.32a2.24,2.24,0,0,0,0-.52c0-1.91-2-3.91-3.18-5-2.27-1.92-3.32-1.65-4.57-.39a4.38,4.38,0,0,1-.75.67,2.87,2.87,0,0,0-2.86-2.11.94.94,0,0,0-.76.52,1,1,0,0,0,0,.92c0,.07.07.13.1.16l-.36.2a6.2,6.2,0,0,0-.57.33c-.42.28-.72.46-.95.6-1.19.67-1.29,1-1.69,2.73-.23,1-.42,1.28-.41,1.34a5.51,5.51,0,0,1-1.14-.79c-.41-.34-.86-.69-1.32-1A16.55,16.55,0,0,0,194.66,92a8,8,0,0,0-3.22-.19A5.12,5.12,0,0,1,189,91.7c-.57-.46.38-2.45,1.07-3.9.92-1.93,1.87-3.92,1.34-5.49a.94.94,0,0,0-.63-.61.89.89,0,0,0-.87.16l-1.05.86c-.81.65-1.58,1.28-2.58,2a6.25,6.25,0,0,0-.58.57.94.94,0,0,0-.64.82c-.28.41-.54.84-.78,1.25s-.44.75-.68,1.09a36.37,36.37,0,0,1-.34-8.76,70.39,70.39,0,0,0,0-10.37,6.94,6.94,0,0,1,.53-3.62c.13-.41.28-.85.44-1.39a30.51,30.51,0,0,0,.71-4.93,22.58,22.58,0,0,1,.89-5.45,25.49,25.49,0,0,1,2.12-4.44,20.12,20.12,0,0,0,2.74-6.79,3.31,3.31,0,0,0,0-.34,2.84,2.84,0,0,0,.71-.79.94.94,0,0,0-.3-1.32,1,1,0,0,0-1.32.3c-1,1.54-5.29.62-7.14.23l-.81-.16a117.22,117.22,0,0,0-21.94-2.25c-5.66,0-11.39-.35-16.94-.68-5-.31-10.22-.62-15.39-.69a60.11,60.11,0,0,1-6.16-.43l-1.86-.17c-1.76-.16-3.48-.17-5.16-.19-1.1,0-2.21,0-3.29-.06-2.67-.24-5.15-.36-8-.49-.8-.1-1.53-.25-2.25-.4A18,18,0,0,0,97,34.79h0c-1.34.07-2.71,0-4.1,0s-2.84-.06-4.26,0a16.17,16.17,0,0,0-1.71.26c-1.15.21-2.34.44-3,0a2.31,2.31,0,0,1-.68-.74,3.45,3.45,0,0,0-2.31-1.64,6.11,6.11,0,0,0-1.51-.06c-.73,0-.94,0-1.32-.42a7.69,7.69,0,0,1-1-1.66,11.08,11.08,0,0,0-1.18-1.94,12.78,12.78,0,0,0-2.46-2.07,9.79,9.79,0,0,1-.8-.79,5.17,5.17,0,0,0-3.22-2c0-.66-.06-1.31-.09-2,0-.91-.06-1.84-.12-2.7A13.81,13.81,0,0,0,68,14.25l-.39-1a13.14,13.14,0,0,0-1.72-2.71,9.42,9.42,0,0,1-1.6-2.68,8.37,8.37,0,0,1-.29-2c-.13-1.86-.31-4.4-3.3-5a.93.93,0,0,0-1,.51c-.25.5-.5,1-.76,1.48-1.44,2.77-2.94,5.63-2.83,9,0,.55.09,1.14.14,1.76a17.69,17.69,0,0,1-.11,5.7,6.57,6.57,0,0,1-.51,1.37A5.11,5.11,0,0,0,55,23.36a15.41,15.41,0,0,1-5.31.29,15,15,0,0,0-1.87-.07c-2.8.11-5.69.09-8.49.09-3.39,0-6.89,0-10.32.16l-.28,0a107.65,107.65,0,0,1-15.45.35c-.51,0-1.43.06-2.55.11-2.13.12-7.07.35-8,0a1,1,0,0,0-1.36,1.35,1.45,1.45,0,0,0,.55.38,1,1,0,0,0,.61.43c.27.07.49.16.54.26.17.34-.28,1.42-.55,2.05a8.08,8.08,0,0,0-.62,1.92,5.91,5.91,0,0,0,.38,2.94,10,10,0,0,1,.37,1.41,15.47,15.47,0,0,1-.13,5.14,28.32,28.32,0,0,0,0,9.37l.2,1.25A66.11,66.11,0,0,1,3.83,61.34a1,1,0,0,0,1.85.35,40.11,40.11,0,0,0,9.13-.39c1.12-.14,2.25-.27,3.34-.37A4,4,0,0,1,21.08,62a7.35,7.35,0,0,0,2.44,1.34,3.76,3.76,0,0,0,2-.06,4.75,4.75,0,0,1,.89-.14,6.33,6.33,0,0,1,1,0,2.33,2.33,0,0,1,.29.45l.65,1c.61.91,1,1.51.73,2.15a2.67,2.67,0,0,1-.51.52,4.58,4.58,0,0,0-1.12,1.37,11.36,11.36,0,0,0,.81,7.76,5.27,5.27,0,0,0,.84,1.1,1.91,1.91,0,0,1,.66,1.29A22.42,22.42,0,0,1,30,82.64v1.28a11.35,11.35,0,0,1-2.78,6.66,13.58,13.58,0,0,1-1.09,1.2A10.87,10.87,0,0,0,24,94.48c-.23.47-.39.88-.55,1.27a6.78,6.78,0,0,1-1,1.86,10.35,10.35,0,0,1-3.59,3.12c-.44.27-.91.58-1.39.9a.84.84,0,0,0-.63.21.91.91,0,0,0-.39.72,5.33,5.33,0,0,0-.13.68,1,1,0,0,0,.42.92,4.64,4.64,0,0,0,2.28.65,2.72,2.72,0,0,1,1.33.34,7.1,7.1,0,0,1,1.7,3.3,3.19,3.19,0,0,1-.52.81,4.61,4.61,0,0,0-1,1.79,13.91,13.91,0,0,0,.27,4.12,4,4,0,0,0,1.37,2.12,4,4,0,0,1,.61.63,4.22,4.22,0,0,1,.64,1.8l.11.61A13.7,13.7,0,0,0,24,122c.29.79,1.06,2.9.61,3.31-.27.27-1,.21-1.61.17-.78,0-1.68-.11-2.13.66s0,1.56.47,2.29a10.4,10.4,0,0,0,1.19,1.73,10.17,10.17,0,0,1,1.13,1.67q.21.51.42,1a8.15,8.15,0,0,1,.88,2.91,24,24,0,0,1,.17,2.79c0,2.45.11,5,2.34,7.2,2.93,2.94,6.23,2.07,9.13,1.28.9-.23,1.83-.48,2.75-.63a10.33,10.33,0,0,1,4.07.46,20.78,20.78,0,0,0,2.72.54,22.08,22.08,0,0,0,6.12-.2l1.43-.16c2.24-.17,2.53.21,2.56.23a1.53,1.53,0,0,1-.31.88,2,2,0,0,1-.71.39,2.81,2.81,0,0,0-1.43,1,5.54,5.54,0,0,0-.41,3.73l0,.26c0,.37.09.83.13,1.31.19,2.28.43,5.12,1.81,6.5a3.62,3.62,0,0,0,1.47,1,2.82,2.82,0,0,1,.9.51,4.18,4.18,0,0,1,.69,1A4,4,0,0,0,60,165.64a4.56,4.56,0,0,0,2,.47,2,2,0,0,1,1,.24.88.88,0,0,0-.11.42.59.59,0,0,0,0,.13,1,1,0,0,0,.41,1.07,2.51,2.51,0,0,1,.24,1l0,.44a7.51,7.51,0,0,0,1.43,3.66,9,9,0,0,1,.94,2.4,10.71,10.71,0,0,0,1.33,3.22l-.08.05a3.86,3.86,0,0,0-1.56,1.56,9.8,9.8,0,0,0-.56,2,8.1,8.1,0,0,1-.41,1.57c-1.11,2.22-1,3.32-.59,5.57l0,.28c.25,1.48.36,2.42-.34,3.05a2.89,2.89,0,0,1-1.06.5,4.79,4.79,0,0,0-1.77.94,6.61,6.61,0,0,0-1.35,3.41,8,8,0,0,1-.35,1.44c-.09.3-.21.63-.34,1-.55,1.45-1.32,3.41,0,5.16a3.21,3.21,0,0,0,1.36.85c.63.23.64.28.65.49,0,.46-.28.78-1,1.4a11.47,11.47,0,0,0-.86.78c-1.69,2.09-.84,3.78-.09,5.26a8.87,8.87,0,0,1,.89,2.34c.06.31.1.65.14,1a7.4,7.4,0,0,0,1.37,4.1,4,4,0,0,0,1.23.81c.42.21.57.28.69.54a9.65,9.65,0,0,1,.16,2.56,2.48,2.48,0,0,1-.16,1.11,9.08,9.08,0,0,0-1.11,1c-1.51,1.83-1.13,3.82-.78,5.74a15.91,15.91,0,0,1,.32,2.21c0,.31-.05.68-.09,1.09-.16,1.32-.34,3,.48,3.92.33.5,1,.75,3.29,1.36l.82.22c.38.18.78.33,1.15.49a7.82,7.82,0,0,1,1.56.77,3.23,3.23,0,0,1,.29.42,2.87,2.87,0,0,0,1.4,1.32c1.41.64,3.15.13,4.82-.35a10.33,10.33,0,0,1,3.17-.58l.44.06c3.2.4,6.29.56,7.37-.87a2,2,0,0,0,.34-.81,6.62,6.62,0,0,1,1.4,1,6.2,6.2,0,0,0,2.2,1.29,12,12,0,0,0,2.18.15c1.4,0,2.73,0,3.47.88a5.09,5.09,0,0,1,.62,1.26,7.94,7.94,0,0,0,.82,1.65l.46.66c1.16,1.67,2.08,3,2,4.85l0,.86a12,12,0,0,0,.75,6c.22.52.46,1,.68,1.43a7.64,7.64,0,0,1,1.11,3.66c0,.36,0,.75-.09,1.17-.15,1.55-.35,3.64,1.22,5a4.46,4.46,0,0,0,2.65.65,9.23,9.23,0,0,0,1.32-.09h.14a.87.87,0,0,0,.87,0l.28-.12,0,0,.27-.12a9.5,9.5,0,0,0,2.31-1.33c1.61-1.29,1.8-1.26,4.17-.81,2.64.57,4.58,1.41,5.48,3.51a1,1,0,0,0,1.56,1.09l.44-.57a27.32,27.32,0,0,0,3.65-5.82,9.65,9.65,0,0,0,.64-2.51,6.76,6.76,0,0,1,.48-2,6.17,6.17,0,0,1,1.17-1.44,9,9,0,0,0,1.37-1.65,8.68,8.68,0,0,0,1.13-3.08c.32-1.35.58-2.53,1.67-3.09a5.84,5.84,0,0,1,1.37-.54,5.66,5.66,0,0,0,2.39-1.18c.38-.35.74-.71,1.12-1.08a13,13,0,0,1,2.21-1.92,14.65,14.65,0,0,1,1.41-.75,1,1,0,0,0,.47.14,1,1,0,0,0,.62-.23c.53-.47,1.08-.93,1.63-1.42,1.06-.92,2.11-1.86,3.18-2.67a33.43,33.43,0,0,1,3.07-2,26.67,26.67,0,0,0,4.24-3,10.24,10.24,0,0,0,1.23-1.69,8.92,8.92,0,0,1,.63-.92c.21-.2.51-.42.8-.65a5.8,5.8,0,0,0,1.73-1.68,2.31,2.31,0,0,0,.07-2.25c-.11-.29-.14-.36-.13-.44s.11-.25.26-.29a2.73,2.73,0,0,0,1.35-.92c.89-1.22.64-2.75.43-4.09a4,4,0,0,1,0-2.32,2.73,2.73,0,0,1,1.26-.94,4.82,4.82,0,0,0,2.66-2.57,6.63,6.63,0,0,0,.33-1.33,3.29,3.29,0,0,1,.47-1.37,3.7,3.7,0,0,1,1.33-1.06,5.88,5.88,0,0,0,1.92-1.52,12.29,12.29,0,0,0,1.12-1.53,6.42,6.42,0,0,1,1.53-1.78,10.9,10.9,0,0,1,1.62-.71,10,10,0,0,0,3.13-1.61.81.81,0,0,0,.33-.26.94.94,0,0,0,.2-.79l-.08-.36a4.79,4.79,0,0,1-.16-1.59,1.18,1.18,0,0,0-.3-.95,14.74,14.74,0,0,0-.18-1.9,8.81,8.81,0,0,1-.11-2.44A2.59,2.59,0,0,1,177,201a3.85,3.85,0,0,0,.94-2,3,3,0,0,0,2.79-1.49,2.65,2.65,0,0,0,0-2,2,2,0,0,1-.14-.83c.09-.18.14-.2.21-.22a2.43,2.43,0,0,0,1.45-.51,20.5,20.5,0,0,0,3-3.56c1.33-1.83,2.59-3.58,4.47-4.37a20.52,20.52,0,0,1,5.45-1.3,34.6,34.6,0,0,0,3.61-.65,7.18,7.18,0,0,0,.81-.3l.63-.24.22.21a1.94,1.94,0,0,0,1.31.74,4.82,4.82,0,0,0,3-1.35,8.82,8.82,0,0,1,1.24-.87,2.77,2.77,0,0,1,2.32-.47l.76.08a16.23,16.23,0,0,0,3.38-.3,17.63,17.63,0,0,1,2.31-.32l1.48-.09a29.08,29.08,0,0,1,7.35.18,2.19,2.19,0,0,1,.85.6,3.65,3.65,0,0,0,2.08,1.16h.22c1.47,0,3.92-1.87,4.41-2.62a7.73,7.73,0,0,0,.84-1.35c.15-.31.18-.37,1.18-.88l.48-.21c1.6-.79,3.26-1.59,3.54-4.24a4.34,4.34,0,0,0-.21-1.8c-.07-.35-.15-.66-.17-.8a3.22,3.22,0,0,1,.26-.83,6,6,0,0,0,.36-1.21c.61-2.87-.92-3.54-2-4a4.79,4.79,0,0,1-1.07-.6c.44-.39,1-.77,1.48-1.16a12.84,12.84,0,0,0,3.1-2.87c1.29-2,.94-2.85-.17-4.2-.15-.18-.31-.38-.5-.63a13.69,13.69,0,0,1-1.65-3.34,17,17,0,0,0-2-4l0,0a5.65,5.65,0,0,0,2.45-1.89,3.12,3.12,0,0,0,.22-2.34,1.25,1.25,0,0,1,0-.65c.28-.76,2.56-1.84,4.17-2.13l.78-.17c1.69-.35,4.28-.87,3.68-4.3a9.39,9.39,0,0,0-2.49-4.81,28.47,28.47,0,0,0,1.62-3.64,5.59,5.59,0,0,0,0-2.12c0-.1,0-.23-.09-.25a4.28,4.28,0,0,1,1.11-.22,1.75,1.75,0,0,1,.5.11,1.88,1.88,0,0,0,2.54-1.06,2.63,2.63,0,0,0-.1-2.77,2.16,2.16,0,0,1-.26-.65h.05c.54,0,.72,0,.92.12a.66.66,0,0,0,0,.14,1.74,1.74,0,0,0,.5,1.59,2.13,2.13,0,0,0,1.54.55c.27,0,.53,0,.82,0,0,.18,0,.42,0,.57a5.12,5.12,0,0,0,.1,1.09,1,1,0,0,0,1.11.71c.37-.08.72-.17,1-.26s.46-.13.63-.16a.92.92,0,0,0,.4.54,8.38,8.38,0,0,1-.3,2.9,1,1,0,0,0,.66,1.19,1.36,1.36,0,0,0,.27,0,1,1,0,0,0,.93-.71s.73-2.72.18-4.32a9.69,9.69,0,0,0,.7-3.44C260.54,120.59,259.6,117.61,259.08,116Z"/><path class="cls-1" d="M145.8,245.93c-2.61-.45-4.49.76-7.11,2.29a14.87,14.87,0,0,0-2.56,2.2l-1,1a3.9,3.9,0,0,1-1.66.76,8.38,8.38,0,0,0-1.76.72c-1.8,1-2.23,2.74-2.59,4.33a7.43,7.43,0,0,1-.91,2.51,6.61,6.61,0,0,1-1.11,1.31,7.64,7.64,0,0,0-1.51,2,8.84,8.84,0,0,0-.65,2.51,8.19,8.19,0,0,1-.49,2A26,26,0,0,1,121,273l-.43.57a1,1,0,0,0,1.53,1.16l.43-.57a27.35,27.35,0,0,0,3.66-5.82,9.63,9.63,0,0,0,.63-2.51,6.75,6.75,0,0,1,.49-2,5.9,5.9,0,0,1,1.16-1.44,7.92,7.92,0,0,0,2.51-4.73c.32-1.36.58-2.53,1.66-3.1A7.19,7.19,0,0,1,134,254a5.51,5.51,0,0,0,2.38-1.18c.39-.34.75-.71,1.13-1.08a13.45,13.45,0,0,1,2.2-1.92c2-1.16,1.6-.6,3.49-2.08Z"/><path class="cls-1" d="M175.37,205.31c0,.62,1.12.85,1,1.91a4.74,4.74,0,0,0,.17,1.58l.08.36a1,1,0,0,1-.2.8.91.91,0,0,1-.33.26,10.31,10.31,0,0,1-3.14,1.61,10.16,10.16,0,0,0-1.61.71,6.12,6.12,0,0,0-1.53,1.78,14.29,14.29,0,0,1-1.12,1.52,5.91,5.91,0,0,1-1.92,1.53,3.62,3.62,0,0,0-1.34,1.06,3.32,3.32,0,0,0-.46,1.36,8.19,8.19,0,0,1-.33,1.34A4.85,4.85,0,0,1,162,223.7a2.82,2.82,0,0,0-1.27.94,4.18,4.18,0,0,0,0,2.32c.22,1.34.47,2.87-.42,4.09a2.64,2.64,0,0,1-1.36.91c-.14,0-.19.1-.25.3s0,.15.13.43a2.37,2.37,0,0,1-.07,2.25,5.68,5.68,0,0,1-1.73,1.68c-.3.23-.6.45-.81.65s-.4.57-.63.93a9.55,9.55,0,0,1-1.23,1.69,25.91,25.91,0,0,1-4.23,3,35.66,35.66,0,0,0-3.07,2.06c-1.07.81-2.12,1.75-3.19,2.67-.54.48-1.09.95-1.63,1.41a.89.89,0,0,1-.61.24,1,1,0,0,1-.74-.34,1,1,0,0,1,.12-1.36c.54-.46,1.08-.92,1.6-1.39,1.1-1,2.19-1.91,3.29-2.74a33.85,33.85,0,0,1,3.24-2.17,26.13,26.13,0,0,0,3.9-2.73,8.8,8.8,0,0,0,1-1.32,9.53,9.53,0,0,1,.84-1.21,7.74,7.74,0,0,1,1.06-.88,5,5,0,0,0,1.17-1.06c.14-.25.14-.28,0-.62a2.42,2.42,0,0,1-.18-1.66,2.07,2.07,0,0,1,1.48-1.61.84.84,0,0,0,.46-.27c.37-.52.2-1.54,0-2.61-.19-1.26-.41-2.55.25-3.62a4.57,4.57,0,0,1,2.05-1.66,3.12,3.12,0,0,0,1.75-1.56,6.33,6.33,0,0,0,.22-1,4.86,4.86,0,0,1,.74-2.07,5.06,5.06,0,0,1,2-1.66,4.43,4.43,0,0,0,1.38-1.08,9.58,9.58,0,0,0,1-1.38,7.87,7.87,0,0,1,2-2.32,11.23,11.23,0,0,1,2-.91,13.78,13.78,0,0,0,2.36-1.08,5.49,5.49,0,0,1-.12-2c.23-2.24-1.17-2.7.09-3.11"/><path class="cls-1" d="M105.63,272.6A4.44,4.44,0,0,1,103,272c-1.57-1.31-1.36-3.41-1.21-4.95,0-.42.09-.82.09-1.17a7.61,7.61,0,0,0-1.11-3.66c-.22-.45-.46-.92-.69-1.44a11.85,11.85,0,0,1-.74-6l0-.85c.1-1.88-.82-3.18-2-4.85l-.46-.66a8.27,8.27,0,0,1-.82-1.66,5.19,5.19,0,0,0-.62-1.25c-.74-.86-2.07-.87-3.48-.89a11.31,11.31,0,0,1-2.18-.15,6.1,6.1,0,0,1-2.19-1.29,6.78,6.78,0,0,0-1.41-1,1.93,1.93,0,0,1-.33.81c-1.08,1.44-4.18,1.28-7.37.87l-.44-.05a10.24,10.24,0,0,0-3.17.57c-1.67.48-3.41,1-4.83.35a2.87,2.87,0,0,1-1.4-1.32,3,3,0,0,0-.29-.42,8,8,0,0,0-1.55-.76c-.38-.16-.77-.32-1.16-.5-.06,0-.41-.12-.81-.21-2.25-.61-3-.87-3.29-1.36-.83-1-.65-2.6-.49-3.92a9.94,9.94,0,0,0,.1-1.1,17.42,17.42,0,0,0-.32-2.2c-.35-1.92-.73-3.91.77-5.74a9,9,0,0,1,1.12-1,2.5,2.5,0,0,0,.16-1.11,9.71,9.71,0,0,0-.16-2.57c-.13-.25-.28-.33-.69-.54a3.7,3.7,0,0,1-1.23-.81A7.35,7.35,0,0,1,59.46,217c-.05-.36-.08-.71-.15-1a8.23,8.23,0,0,0-.89-2.34c-.74-1.49-1.59-3.17.09-5.27.32-.31.59-.54.87-.77.76-.63,1.09-.94,1-1.4,0-.22,0-.26-.65-.5a3.22,3.22,0,0,1-1.36-.84c-1.35-1.75-.59-3.72,0-5.16.13-.33.25-.66.34-1a10.41,10.41,0,0,0,.35-1.44,6.52,6.52,0,0,1,1.35-3.41,4.92,4.92,0,0,1,1.77-1,2.92,2.92,0,0,0,1.05-.49c.7-.63.6-1.58.35-3.06l-.05-.27c-.4-2.25-.52-3.35.59-5.57a9.38,9.38,0,0,0,.41-1.57,9,9,0,0,1,.56-2,3.79,3.79,0,0,1,1.55-1.56.2.2,0,0,1,.09-.06,10.26,10.26,0,0,1-1.33-3.22,9.27,9.27,0,0,0-.94-2.4A7.47,7.47,0,0,1,63,169.1l0-.45a2.56,2.56,0,0,0-.24-1,1,1,0,0,1-.32-1.32.94.94,0,0,1,1.31-.33,2.94,2.94,0,0,1,1.15,2.42l0,.39a5.56,5.56,0,0,0,1.1,2.84,10.32,10.32,0,0,1,1.21,3c.32,1.08.8,2.68,1.31,2.89a.93.93,0,0,1,.59.66.91.91,0,0,1-.2.84,5.16,5.16,0,0,1-1.26,1,2.22,2.22,0,0,0-.86.78,8.21,8.21,0,0,0-.41,1.55,9.44,9.44,0,0,1-.56,2c-.89,1.78-.78,2.45-.43,4.42l0,.29c.26,1.52.58,3.41-1,4.81a4.69,4.69,0,0,1-1.71.89,3,3,0,0,0-1,.48,5.11,5.11,0,0,0-.79,2.39,10.31,10.31,0,0,1-.42,1.7c-.1.3-.23.67-.37,1.05-.56,1.45-.88,2.46-.27,3.27a2.14,2.14,0,0,0,.55.24A2.44,2.44,0,0,1,62.33,206c.14,1.53-1,2.41-1.76,3.07a5.6,5.6,0,0,0-.63.56c-.81,1-.54,1.65.2,3.11a10.24,10.24,0,0,1,1.06,2.87c.06.33.11.71.16,1.1a6.26,6.26,0,0,0,.85,3,2.06,2.06,0,0,0,.66.4,3,3,0,0,1,1.6,1.44c.21.42.35,1.15.35,3.4,0,1.46,0,2-.92,2.63a6,6,0,0,0-.83.77c-.86,1-.69,2.25-.34,4.12a18.21,18.21,0,0,1,.35,2.52c0,.41,0,.85-.1,1.35-.1.84-.24,2.13.11,2.54.2.11,1.59.48,2.26.66.45.13.82.22,1.05.3.46.22.81.37,1.14.49a8.76,8.76,0,0,1,2,1,3.79,3.79,0,0,1,.78.91c.14.22.34.53.46.57.87.38,2.27,0,3.61-.41a9.85,9.85,0,0,1,3.89-.63l.47,0c4.7.56,5.47,0,5.6-.11s0-.08-.08-.22a.92.92,0,0,1,0-.73,1,1,0,0,1,.52-.54c1.6-.68,3,.4,4.06,1.28a5.09,5.09,0,0,0,1.4.92,14.91,14.91,0,0,0,1.79.11c1.69,0,3.61,0,4.92,1.56a6.45,6.45,0,0,1,.94,1.78,6.53,6.53,0,0,0,.6,1.27l.47.65c1.26,1.81,2.45,3.51,2.33,6l-.05.89a10.08,10.08,0,0,0,.6,5.16c.2.48.42.91.63,1.33a9.36,9.36,0,0,1,1.31,4.52c0,.41,0,.87-.09,1.37-.14,1.29-.26,2.62.48,3.24a5.78,5.78,0,0,0,2.69.19c.39,0,.75,0,1.06,0a1,1,0,0,1,1,1,1,1,0,0,1-1,1l-.94,0A8.05,8.05,0,0,1,105.63,272.6Z"/><path class="cls-1" d="M121.58,274.62a1,1,0,0,1-.91-.64c-.82-2.37-2.85-3.25-5.63-3.86-2.38-.45-2.56-.48-4.18.81a8.68,8.68,0,0,1-2.3,1.33,5.65,5.65,0,0,0-.6.27,1,1,0,0,1-.86-1.72l.67-.31a7.76,7.76,0,0,0,1.88-1.05c2.11-1.71,2.91-1.75,5.77-1.22s5.89,1.72,7.07,5.12a1,1,0,0,1-.59,1.21A.78.78,0,0,1,121.58,274.62Z"/><path class="cls-1" d="M175,208.35h-.13a1,1,0,0,1-.83-1.09,9.28,9.28,0,0,0-.12-2.55,10.17,10.17,0,0,1-.12-2.92,4.17,4.17,0,0,1,1-2.16,2.26,2.26,0,0,0,.58-1.06,12.65,12.65,0,0,0-1.35-2.32c-.62-.56-2.39-1-3.82-1.25a16.41,16.41,0,0,1-2.83-.78,20.27,20.27,0,0,1-2.4-1.28,14.39,14.39,0,0,0-3.22-1.54l-1.24-.38a15.73,15.73,0,0,1-5.64-2.63l-.59-.45a17.48,17.48,0,0,0-4.16-2.67,11.27,11.27,0,0,0-2.08-.56,8.7,8.7,0,0,1-3.75-1.44,1,1,0,0,1-.32-1.1,5.47,5.47,0,0,1,.76-1.36,4.7,4.7,0,0,0,.26-.41,2,2,0,0,1-.13-.25c-.24-.56-2.06-1.16-2.73-1.4l-.58-.2a4.22,4.22,0,0,1-2.33-1.66,3.86,3.86,0,0,0-.8-.84,16.28,16.28,0,0,0-2-.89l-.86-.34a8.11,8.11,0,0,0-1.79-.08,7.9,7.9,0,0,1-2.76-.28,2.89,2.89,0,0,1-1.78-1.38,2.76,2.76,0,0,1,.28-2.19,7.31,7.31,0,0,0,.3-.77,8.89,8.89,0,0,0-.25-6,19.61,19.61,0,0,1-8.87,3.06h0a7.21,7.21,0,0,1-1.75-.27,5.25,5.25,0,0,0-1.27-.21,1.3,1.3,0,0,0-.77.21,5.48,5.48,0,0,1-.79.36,20.18,20.18,0,0,1-4.08.49c-.77,0-1.55.08-2.33.17-2.45.28-3.75.4-5.91-1.18l-.67-.49A13.06,13.06,0,0,0,99,163.87c-.48-.18-1-.45-1.69-.75-1.34-.63-4.25-2-5.58-2h-.16c-1,1.71-4.56,2.18-5.73,2.29-2.2.15-3-.2-4.26.7a10.6,10.6,0,0,0-2.09,2.21,8.3,8.3,0,0,1-3.43,3c-.39.16-.75.36-1.1.54a5.53,5.53,0,0,1-3.85.88,4.9,4.9,0,0,1-3.07-2.34c-.17-.24-.35-.48-.54-.71l-.45-.55a9.29,9.29,0,0,0-1.45-1.54,2.14,2.14,0,0,0-.24.37,2.32,2.32,0,0,1-2.11,1.44,1,1,0,1,1,0-1.92c.16,0,.18,0,.44-.47a2.44,2.44,0,0,1,1.6-1.38h0c1.35,0,2.34,1.22,3.21,2.3l.42.49c.23.27.44.56.65.85a3.12,3.12,0,0,0,1.93,1.58,3.86,3.86,0,0,0,2.53-.71c.41-.21.82-.44,1.25-.61A6.63,6.63,0,0,0,78,165.16a12.22,12.22,0,0,1,2.49-2.61c1.94-1.34,3.08-.93,5.24-1.06s4-.89,4.21-1.34a1,1,0,0,1,.51-.68c1.63-.83,4.47.37,7.71,1.89.61.29,1.14.53,1.54.69a14.79,14.79,0,0,1,4.64,2.61l.66.5c1.55,1.12,2.24,1.05,4.49.81.87-.11,1.7-.15,2.51-.18a21.1,21.1,0,0,0,3.65-.42c.13-.05.26-.14.39-.2a3.2,3.2,0,0,1,1.7-.45,7.28,7.28,0,0,1,1.73.27,5.1,5.1,0,0,0,1.26.21c2.42-.09,5.4-1.2,8.82-3.33a.94.94,0,0,1,.76-.12.92.92,0,0,1,.59.48,10.8,10.8,0,0,1,.82,8.44c-.13.37-.25.66-.36.91a7.27,7.27,0,0,0-.27.74h0s.21.12.66.28a6.65,6.65,0,0,0,2.05.17,8.4,8.4,0,0,1,2.44.17l.95.37a12.32,12.32,0,0,1,2.49,1.15,6,6,0,0,1,1.14,1.2,2.32,2.32,0,0,0,1.45,1l.55.19c1.38.47,3.28,1.12,3.88,2.44a2.13,2.13,0,0,1-.33,2.54,1.2,1.2,0,0,0-.15.24,11.12,11.12,0,0,0,2.3.66,12.36,12.36,0,0,1,2.41.67,19.09,19.09,0,0,1,4.6,2.91l.57.44a13.92,13.92,0,0,0,5.05,2.33l1.25.39a16,16,0,0,1,3.61,1.72,20.12,20.12,0,0,0,2.2,1.17,16.32,16.32,0,0,0,2.49.66c1.82.4,3.7.81,4.73,1.75.4.4,1.94,2.74,1.94,3.7a3.62,3.62,0,0,1-1,2.22,2.69,2.69,0,0,0-.66,1.22,9.25,9.25,0,0,0,.12,2.44,11.09,11.09,0,0,1,.13,3.06A1,1,0,0,1,175,208.35Z"/><path class="cls-1" d="M63.63,167.18a1,1,0,0,1-.91-.67c-.19-.62-.39-.65-1.31-.72a4.85,4.85,0,0,1-2-.47,4,4,0,0,1-1.59-1.83,4,4,0,0,0-.69-1,2.84,2.84,0,0,0-.89-.51,3.52,3.52,0,0,1-1.47-1c-1.38-1.37-1.62-4.22-1.82-6.5,0-.48-.07-.94-.12-1.31l0-.26a5.62,5.62,0,0,1,.42-3.73,2.69,2.69,0,0,1,1.43-1,1.84,1.84,0,0,0,.7-.39,1.61,1.61,0,0,0,.32-.89s-.33-.39-2.56-.22l-1.44.16a22,22,0,0,1-6.11.19,19.4,19.4,0,0,1-2.73-.54,10.5,10.5,0,0,0-4.07-.46c-.92.15-1.84.4-2.74.64-2.9.78-6.2,1.66-9.14-1.28-2.23-2.22-2.28-4.75-2.33-7.21a24.27,24.27,0,0,0-.17-2.79,8.64,8.64,0,0,0-.88-2.91c-.14-.3-.28-.61-.43-1A9.32,9.32,0,0,0,22,129.85a11.53,11.53,0,0,1-1.19-1.73c-.48-.74-.9-1.56-.47-2.3s1.36-.67,2.14-.66c.56,0,1.34.11,1.6-.17.46-.4-.32-2.51-.6-3.31a10.58,10.58,0,0,1-.53-1.68l-.12-.6a4.17,4.17,0,0,0-.63-1.81,5.11,5.11,0,0,0-.61-.62,4,4,0,0,1-1.37-2.12,13.92,13.92,0,0,1-.28-4.12,4.61,4.61,0,0,1,1-1.79,2.93,2.93,0,0,0,.52-.81,7,7,0,0,0-1.69-3.3,2.52,2.52,0,0,0-1.33-.34,4.72,4.72,0,0,1-2.28-.65.94.94,0,0,1-.42-.92,4,4,0,0,1,.12-.69.91.91,0,0,1,.4-.71.84.84,0,0,1,.69-.22,1,1,0,0,1,.88,1,.41.41,0,0,1,0,.16,6.27,6.27,0,0,0,.82.11,4.26,4.26,0,0,1,2.25.68c1,.64,2.65,3.6,2.49,5.1a3.66,3.66,0,0,1-.91,1.76,3.15,3.15,0,0,0-.6,1,12.18,12.18,0,0,0,.25,3.26,2.17,2.17,0,0,0,.81,1.19,7,7,0,0,1,.89,1,6.15,6.15,0,0,1,.93,2.54l.11.58a8.72,8.72,0,0,0,.45,1.39c.67,1.84,1.5,4.12.12,5.37a3.58,3.58,0,0,1-3,.7s0,0,0,0a10.84,10.84,0,0,0,1.05,1.52,10.5,10.5,0,0,1,1.37,2.06c.16.38.3.68.43,1a9.73,9.73,0,0,1,1,3.49,24.74,24.74,0,0,1,.18,3c.05,2.34.1,4.19,1.78,5.88,2.16,2.16,4.42,1.55,7.28.79a24.41,24.41,0,0,1,3-.67,11.61,11.61,0,0,1,4.83.48,17.84,17.84,0,0,0,2.5.5,22.29,22.29,0,0,0,5.63-.2l1.51-.18c1.75-.14,3.6-.07,4.37,1.15a2.75,2.75,0,0,1-.33,2.9,3.16,3.16,0,0,1-1.6,1.15,3,3,0,0,0-.53.25,4.21,4.21,0,0,0-.13,2.46l0,.26c0,.4.08.87.13,1.39.16,1.76.39,4.43,1.33,5.39a2.7,2.7,0,0,0,.83.5,5.1,5.1,0,0,1,1.41.85,5.61,5.61,0,0,1,1.08,1.5c.25.48.49.92.79,1.05a2.8,2.8,0,0,0,1.22.26,2.86,2.86,0,0,1,3,2.07,1,1,0,0,1-.63,1.2A.52.52,0,0,1,63.63,167.18Z"/><path class="cls-1" d="M16.88,103.39a.94.94,0,0,1-.78-.4,1,1,0,0,1,.22-1.34c.66-.47,1.29-.87,1.88-1.25a10.38,10.38,0,0,0,3.6-3.12,6.83,6.83,0,0,0,1-1.85c.16-.39.33-.81.56-1.28a10.59,10.59,0,0,1,2.13-2.69,13.58,13.58,0,0,0,1.09-1.2,11.38,11.38,0,0,0,2.78-6.66V82.31a23.36,23.36,0,0,0-.13-3.76,1.93,1.93,0,0,0-.66-1.29,5.11,5.11,0,0,1-.84-1.11,11.33,11.33,0,0,1-.81-7.75A4.48,4.48,0,0,1,28,67a2.68,2.68,0,0,0,.51-.52c.23-.63-.13-1.23-.73-2.14l-.65-1a2.72,2.72,0,0,0-.29-.45,6.39,6.39,0,0,0-1,0A4.75,4.75,0,0,0,25,63a3.76,3.76,0,0,1-2,.06,7.22,7.22,0,0,1-2.45-1.33,3.94,3.94,0,0,0-2.93-1.1c-1.09.1-2.21.23-3.33.37a38.92,38.92,0,0,1-9.37.37,1,1,0,0,1,.22-1.91A37.88,37.88,0,0,0,14,59.07c1.13-.14,2.28-.28,3.44-.38a6,6,0,0,1,4.2,1.48,5.43,5.43,0,0,0,1.86,1,2.26,2.26,0,0,0,1.06-.1,5.81,5.81,0,0,1,1.3-.19c1.84,0,2.25.2,3,1.44l.59.94c.64,1,1.52,2.26.93,3.89a3.43,3.43,0,0,1-1,1.27,3.15,3.15,0,0,0-.65.7,9.74,9.74,0,0,0,.71,6A4.17,4.17,0,0,0,30,76a3.69,3.69,0,0,1,1.16,2.33,26.87,26.87,0,0,1,.16,4.08l0,1.28a13.31,13.31,0,0,1-3.21,7.83,15,15,0,0,1-1.22,1.33A9.1,9.1,0,0,0,25.09,95c-.21.42-.35.79-.49,1.13a8.5,8.5,0,0,1-1.22,2.27A12.2,12.2,0,0,1,19.24,102c-.57.35-1.16.72-1.78,1.18A1,1,0,0,1,16.88,103.39Z"/><path class="cls-1" d="M4.19,62a1,1,0,0,1-1-1A67.29,67.29,0,0,0,2.08,50.49l-.2-1.25a28.32,28.32,0,0,1,0-9.37A15.52,15.52,0,0,0,2,34.72a12,12,0,0,0-.37-1.41,5.86,5.86,0,0,1-.38-2.93,7.4,7.4,0,0,1,.62-1.92c.26-.64.72-1.72.54-2.05a.91.91,0,0,0-.54-.27,1,1,0,0,1,.4-1.87,2.53,2.53,0,0,1,1.84,1.25c.59,1.13,0,2.48-.48,3.68a5.74,5.74,0,0,0-.48,1.42,4.15,4.15,0,0,0,.31,2.11,12.65,12.65,0,0,1,.43,1.64A16.5,16.5,0,0,1,3.8,40a27.65,27.65,0,0,0,0,8.94L4,50.17A67.7,67.7,0,0,1,5.15,61,1,1,0,0,1,4.19,62Z"/><path class="cls-1" d="M4.68,26.09c-2.52,0-3.5-.23-3.95-.75A1,1,0,0,1,2.09,24c.94.35,5.88.11,8,0,1.12-.06,2-.11,2.56-.11a107.54,107.54,0,0,0,15.44-.36h.29c3.42-.2,6.93-.2,10.32-.17,2.8,0,5.69,0,8.49-.09a17.33,17.33,0,0,1,1.87.08,15.84,15.84,0,0,0,5.3-.29A5.08,5.08,0,0,1,55,20.3a7.28,7.28,0,0,0,.51-1.38,18,18,0,0,0,.11-5.7c-.06-.61-.1-1.21-.14-1.76-.11-3.32,1.39-6.18,2.83-8.94.25-.49.51-1,.75-1.48a1,1,0,0,1,1-.52c3,.58,3.18,3.12,3.31,5a8.28,8.28,0,0,0,.29,2,9.66,9.66,0,0,0,1.59,2.69A13.38,13.38,0,0,1,67,12.89l.38,1a13.81,13.81,0,0,1,1.18,4.82c.07.87.1,1.8.13,2.71s.06,1.82.12,2.7a1,1,0,1,1-1.91.13c-.07-.9-.1-1.82-.13-2.77s-.07-1.8-.13-2.7a12.48,12.48,0,0,0-1.06-4.22l-.38-1a12.47,12.47,0,0,0-1.46-2.26,11,11,0,0,1-1.91-3.25,9.56,9.56,0,0,1-.37-2.46c-.12-1.69-.28-2.59-1.09-3L60,3.4c-1.39,2.67-2.71,5.18-2.61,8,0,.51.08,1.09.13,1.68a19.31,19.31,0,0,1-.16,6.32,8.36,8.36,0,0,1-.64,1.72,3,3,0,0,0-.36,2.26,1,1,0,0,1-.42,1c-1.79,1.12-4.68,1-7,.84-.64,0-1.22-.07-1.73-.07-2.8.11-5.72.09-8.53.08-3.37,0-6.83,0-10.19.17H28.2a108.94,108.94,0,0,1-15.64.35c-.43,0-1.32.06-2.39.11C7.81,26,6,26.09,4.68,26.09Z"/><path class="cls-1" d="M186.51,43a24,24,0,0,1-4.89-.66l-.79-.16A114.35,114.35,0,0,0,159.25,40c-5.71,0-11.49-.36-17.07-.69-5-.31-10.17-.63-15.28-.68a59.88,59.88,0,0,1-6.35-.44L118.74,38c-1.68-.14-3.3-.15-5-.17-1.12,0-2.25,0-3.39-.07-2.68-.24-5.14-.36-8.09-.49-.93-.11-1.71-.27-2.47-.43a15.9,15.9,0,0,0-3.33-.45c-1.34.07-2.76,0-4.19,0s-2.74-.06-4.09,0a14.92,14.92,0,0,0-1.48.23c-1.41.27-3,.56-4.39-.24a4.35,4.35,0,0,1-1.25-1.28,1.53,1.53,0,0,0-1.1-.85,5.51,5.51,0,0,0-1.07,0,3.08,3.08,0,0,1-2.78-1,8.38,8.38,0,0,1-1.35-2.08,11.21,11.21,0,0,0-.93-1.57,11.44,11.44,0,0,0-2.11-1.76,8.86,8.86,0,0,1-1.1-1c-.91-1-1.56-1.54-2.23-1.36a1,1,0,0,1-1.19-.66.94.94,0,0,1,.66-1.18C69.71,23,71,24.42,72,25.43c.29.29.56.58.81.78a12.77,12.77,0,0,1,2.45,2.07,11.61,11.61,0,0,1,1.19,1.95,7.36,7.36,0,0,0,1,1.65c.38.43.59.45,1.31.42a6.71,6.71,0,0,1,1.52.06A3.5,3.5,0,0,1,82.63,34a2.35,2.35,0,0,0,.68.75c.7.42,1.89.19,3,0,.58-.1,1.16-.21,1.71-.25,1.41-.07,2.83,0,4.25,0s2.77.07,4.1,0h0a17.33,17.33,0,0,1,3.74.48c.72.15,1.44.29,2.24.39,2.91.13,5.39.26,8.06.49,1.08.05,2.19.06,3.28.07,1.68,0,3.41,0,5.17.18l1.85.18c2,.2,4.11.43,6.16.43,5.17.06,10.36.38,15.39.68,5.55.34,11.29.69,16.95.69a117.31,117.31,0,0,1,21.94,2.25l.81.16c1.84.38,6.16,1.3,7.14-.23a1,1,0,1,1,1.62,1C189.93,42.61,188.27,43,186.51,43Z"/><path class="cls-1" d="M253.57,90.66c.2.63-.38,0-.35.07a2.3,2.3,0,0,1-.91.06,3.66,3.66,0,0,1-.82-.31,5,5,0,0,0-1.3-.44c-1.82-.29-2.62.15-4.15,1l-.28.17c-.57.29-1.19.63-1.83,1a20,20,0,0,1-4.75,2.16,8.8,8.8,0,0,1-1.91-.07c-1.91-.16-3.89-.33-4.82.71a2.88,2.88,0,0,0-.58,2.44c0,.83,0,1.24-.29,1.54-.53.54-1.13.36-2.59-.38-.33-.16-.65-.32-.93-.43a22,22,0,0,0-7.84-1.64c-1-.08-2.12-.16-3.22-.32a1.82,1.82,0,0,0,0-.52c0-1.91-2-3.91-3.17-5-2.27-1.92-3.32-1.66-4.57-.39a4.45,4.45,0,0,1-.76.67,2.87,2.87,0,0,0-2.86-2.12.93.93,0,0,0-.75.53,1,1,0,0,0,0,.92.91.91,0,0,0,.1.16l-.36.2c-.17.09-.36.19-.58.33-.41.28-.72.45-.94.59-1.19.68-1.29,1-1.7,2.74-.22,1-.42,1.28-.4,1.34a6.41,6.41,0,0,1-1.15-.8,14.49,14.49,0,0,0-1.31-1,16.32,16.32,0,0,0-4.56-2.22,7.9,7.9,0,0,0-3.21-.19,5,5,0,0,1-2.49-.16c-.57-.46.38-2.45,1.07-3.9.92-1.93,1.86-3.91,1.34-5.48a.93.93,0,0,0-.63-.62.9.9,0,0,0-.87.17l-1.06.85c-.8.65-1.57,1.29-2.58,2a10.19,10.19,0,0,0-2,2.64c-.23.37-.45.75-.68,1.08a36.29,36.29,0,0,1-.34-8.75,73.4,73.4,0,0,0,0-10.38,7,7,0,0,1,.52-3.62c.14-.41.28-.85.45-1.38a29.39,29.39,0,0,0,.7-4.94,23.52,23.52,0,0,1,.89-5.44,26.28,26.28,0,0,1,2.13-4.44A20.28,20.28,0,0,0,190,42.39a2.3,2.3,0,0,0,0-.39,1,1,0,0,0-.9-1,1,1,0,0,0-1,.82.28.28,0,0,1,0,.09h0s-.12.23-.13.25a.76.76,0,0,0,0,.67,20,20,0,0,1-2.37,5.37A28.29,28.29,0,0,0,183.34,53a25,25,0,0,0-1,5.9,29,29,0,0,1-.64,4.59c-.14.48-.28.89-.42,1.28a9,9,0,0,0-.61,4.4,67.83,67.83,0,0,1,0,10.08,35.59,35.59,0,0,0,.78,11.1A1,1,0,0,0,182,91a1,1,0,0,0,.89-.12A8.65,8.65,0,0,0,185.26,88a8.33,8.33,0,0,1,1.54-2.09c.67-.49,1.24-1,1.8-1.4-.25.68-.61,1.43-.93,2.1-1.12,2.36-2.28,4.8-.55,6.23,1,.77,2.43.67,3.85.57a6.58,6.58,0,0,1,2.47.1,14.69,14.69,0,0,1,4.07,2,14.24,14.24,0,0,1,1.19.9c1,.77,1.89,1.53,2.92,1.14s1.45-1.6,1.71-2.75.29-1.21.78-1.5c.26-.15.6-.34,1-.64l.45-.26a3.07,3.07,0,0,0,1.08-.81,2.9,2.9,0,0,1,.24.86,1,1,0,0,0,.4.69,1.1,1.1,0,0,0,.8.14,5.23,5.23,0,0,0,2.54-1.58,2.23,2.23,0,0,1,.48-.42s.29-.07,1.45.91c1.5,1.35,2.49,2.75,2.52,3.57a.61.61,0,0,1-.2.51,1,1,0,0,0-.23,1,1,1,0,0,0,.72.66,36.56,36.56,0,0,0,4.67.56,20.22,20.22,0,0,1,7.21,1.49,8,8,0,0,1,.84.4,6.51,6.51,0,0,0,2.8.89,2.66,2.66,0,0,0,2-.86,3.4,3.4,0,0,0,.88-3c0-.29-.06-.87.06-1,.33-.36,2.38-.19,3.27-.11a10.77,10.77,0,0,0,2.45,0,21.57,21.57,0,0,0,5.29-2.37c.62-.34,1.22-.67,1.8-1l.34-.19c1.43-.81,1.75-1,2.88-.8a3.53,3.53,0,0,1,.82.29,4.86,4.86,0,0,0,1.4.47,2.92,2.92,0,0,0,2.64-.76c.61-.81,0,0-.33-.86Z"/><path class="cls-1" d="M139.73,176.89a.85.85,0,0,1-.48-.15.94.94,0,0,1-.35-1.3c1.31-2.21,2.34-5.4,1.69-7,0-.1-.12-.17-.25-.31a2.4,2.4,0,0,1-.8-1.39,2.8,2.8,0,0,1,.11-1.69,2.34,2.34,0,0,0,.14-.59v-.93a16.3,16.3,0,0,1,.65-5.45c.71-2.47,2.32-3.9,3.86-5.28a12.57,12.57,0,0,0,3-3.34,21.62,21.62,0,0,1,3.35-4.49c.61-.68,1.24-1.36,1.83-2.12a5.83,5.83,0,0,0,.8-1.38,6,6,0,0,1,1.78-2.44,5.69,5.69,0,0,1,2.91-.85,3.71,3.71,0,0,0,2.12-.59,3.88,3.88,0,0,0,1.32-2.93,11.59,11.59,0,0,1,.48-2.24c1-2.62,3.25-7.18,6.76-8.64a7.53,7.53,0,0,1,2.26-.63,5.92,5.92,0,0,0,1.45-.36c1.48-.66,1.59-1.2,1.87-2.51.09-.42.18-.87.33-1.36a26.84,26.84,0,0,1,1-3,16.82,16.82,0,0,0,1.29-4.66l.11-.82a19.93,19.93,0,0,1,1.08-5.15c.53-1.46,1-2.8,1.65-4.17a17.85,17.85,0,0,1,.83-1.91,11.73,11.73,0,0,0,1.2-3.2c.15-.66.28-1.36.42-2.09a20.94,20.94,0,0,1,1.55-5.54,5.2,5.2,0,0,1,.69-.91,7,7,0,0,0,.57-.72,1.05,1.05,0,0,1-.47-1.23.87.87,0,0,1,1.16-.56,1.92,1.92,0,0,1,1.25,1.32c.22,1-.5,1.8-1.08,2.46a6.07,6.07,0,0,0-.46.56,19.81,19.81,0,0,0-1.33,5c-.16.77-.29,1.49-.44,2.11a12.62,12.62,0,0,1-1.35,3.66c-.28.59-.57,1.17-.79,1.78-.63,1.38-1.11,2.68-1.62,4.11a19.45,19.45,0,0,0-1,4.72l-.1.8a18.46,18.46,0,0,1-1.42,5.15c-.34.91-.7,1.83-1,2.82-.14.46-.21.86-.3,1.22a4.51,4.51,0,0,1-3,3.88,8.09,8.09,0,0,1-1.92.49,6.3,6.3,0,0,0-1.78.47c-3,1.28-5,5.72-5.75,7.58a9.31,9.31,0,0,0-.39,1.83,5.74,5.74,0,0,1-2,4.16,5.46,5.46,0,0,1-3.16,1,4,4,0,0,0-2,.53,4.36,4.36,0,0,0-1.12,1.69,7.27,7.27,0,0,1-1.07,1.75c-.58.77-1.23,1.48-1.87,2.19a20.16,20.16,0,0,0-3.09,4.09,14,14,0,0,1-3.37,3.88c-1.46,1.31-2.72,2.43-3.28,4.39a13.71,13.71,0,0,0-.59,4.89l0,.94a3.93,3.93,0,0,1-.21,1.14c-.09.33-.15.53-.09.68a.68.68,0,0,0,.27.48,2.56,2.56,0,0,1,.7,1c1.07,2.6-.63,6.67-1.81,8.68A.88.88,0,0,1,139.73,176.89Z"/><path class="cls-1" d="M175.55,198.9a1,1,0,0,1-.25-1.89,6.22,6.22,0,0,1,1.63-.18c1,0,1.3-.1,1.5-.48,0,0-.11-.36-.16-.57a2.9,2.9,0,0,1,0-2.29,1.94,1.94,0,0,1,1.75-1.19.68.68,0,0,0,.4-.12A18.92,18.92,0,0,0,183.1,189c1.43-2,2.91-4,5.26-5a23.23,23.23,0,0,1,5.94-1.42c1.2-.17,2.34-.35,3.4-.61a4.25,4.25,0,0,0,.56-.22,4.36,4.36,0,0,1,1.54-.43,2.62,2.62,0,0,1,1.42.82,1.06,1.06,0,0,0,.15.15,4,4,0,0,0,1.59-.93,12.6,12.6,0,0,1,1.47-1,4.71,4.71,0,0,1,3.44-.69l.71.06a11.82,11.82,0,0,0,2.92-.27,18.92,18.92,0,0,1,2.55-.35l1.45-.08a29.49,29.49,0,0,1,7.9.22,3.72,3.72,0,0,1,1.73,1.08,2,2,0,0,0,1,.65,7.1,7.1,0,0,0,2.84-1.82,6,6,0,0,0,.69-1.08c.37-.74.66-1,2.05-1.74l.48-.25c1.47-.71,2.29-1.1,2.46-2.71a3,3,0,0,0-.16-1.11,3.38,3.38,0,0,1,.16-2.82,3.4,3.4,0,0,0,.25-.84c.29-1.4.07-1.51-.91-1.93a4.9,4.9,0,0,1-2.44-1.91,1,1,0,0,1,.12-1.15,17.28,17.28,0,0,1,2.38-2,12,12,0,0,0,2.65-2.4c.65-1,.65-1-.06-1.89-.17-.2-.35-.43-.54-.68a14.81,14.81,0,0,1-1.93-3.83,12.25,12.25,0,0,0-2.35-4.28,1,1,0,0,1-.28-.76.94.94,0,0,1,.41-.7,8.83,8.83,0,0,1,1.17-.69,4.71,4.71,0,0,0,1.68-1.16c.14-.25.11-.49,0-1a2.86,2.86,0,0,1,.06-1.75c.75-2,4.64-3.15,5.56-3.32l.79-.16c2.05-.43,2.43-.63,2.18-2.08s-1.46-3.7-2.08-3.82a.92.92,0,0,1-.7-.56.87.87,0,0,1,.06-.88,27.42,27.42,0,0,0,1.89-4,3.76,3.76,0,0,0,0-1.34,2.14,2.14,0,0,1,.26-1.71,3.64,3.64,0,0,1,2.55-1h0a3.51,3.51,0,0,1,1.15.2l.16.06a1.41,1.41,0,0,1,.14-.26c.14-.22.14-.33-.15-.94a2.55,2.55,0,0,1,0-2.9,1,1,0,0,1,1.34-.21,1,1,0,0,1,.22,1.34c-.14.18-.16.26.18.91a2.67,2.67,0,0,1,.1,2.78,1.89,1.89,0,0,1-2.55,1.06,1.66,1.66,0,0,0-.49-.12,4.55,4.55,0,0,0-1.11.23s.07.15.08.25a5.2,5.2,0,0,1,0,2.12,27,27,0,0,1-1.61,3.64,9.54,9.54,0,0,1,2.49,4.81c.59,3.42-2,4-3.68,4.29l-.78.17c-1.62.3-3.9,1.38-4.17,2.13a1.19,1.19,0,0,0,0,.66,3.13,3.13,0,0,1-.23,2.34,5.64,5.64,0,0,1-2.44,1.89h0a16.63,16.63,0,0,1,2,4,14,14,0,0,0,1.66,3.35c.19.25.35.45.5.63,1.11,1.34,1.46,2.14.16,4.2a13.22,13.22,0,0,1-3.09,2.87c-.52.39-1,.76-1.49,1.15a4.5,4.5,0,0,0,1.08.6c1.12.48,2.65,1.15,2,4a4.74,4.74,0,0,1-.36,1.2,3,3,0,0,0-.25.84c0,.13.1.45.17.79a4.36,4.36,0,0,1,.2,1.8c-.27,2.66-1.93,3.45-3.54,4.24l-.47.22c-1,.51-1,.57-1.18.88a8.3,8.3,0,0,1-.85,1.34c-.48.75-2.93,2.63-4.4,2.63l-.23,0a3.63,3.63,0,0,1-2.07-1.15,2.09,2.09,0,0,0-.85-.6,28.7,28.7,0,0,0-7.36-.18l-1.47.09a17.67,17.67,0,0,0-2.31.31,15.57,15.57,0,0,1-3.38.3l-.76-.07a2.75,2.75,0,0,0-2.32.46,10.85,10.85,0,0,0-1.24.87,4.77,4.77,0,0,1-3,1.35,1.93,1.93,0,0,1-1.31-.73l-.22-.21a5.87,5.87,0,0,0-.63.24,6.6,6.6,0,0,1-.82.3,31.34,31.34,0,0,1-3.61.64,20.93,20.93,0,0,0-5.44,1.3c-1.88.8-3.14,2.55-4.48,4.38a20,20,0,0,1-3,3.55,2.35,2.35,0,0,1-1.44.52c-.07,0-.12,0-.21.21a1.84,1.84,0,0,0,.14.83,2.78,2.78,0,0,1,0,2,3.22,3.22,0,0,1-3.15,1.5,5.23,5.23,0,0,0-1.18.12A.64.64,0,0,1,175.55,198.9Z"/><path class="cls-1" d="M230.59,142.81a20.29,20.29,0,0,1-2.34-.16,15,15,0,0,0-2.73,0c-4.36.22-6.91.14-7.92-1a1.79,1.79,0,0,1-.5-1.63,1.54,1.54,0,0,1,1.15-1s0,0,0,0c0-.16.07-.33.11-.52l.11-.51a10.42,10.42,0,0,0,0-1.76c-.08-1.91.12-3.41,3.27-3.86.63-.1,1.23-.16,1.78-.22a.58.58,0,0,1,.06-.26.92.92,0,0,1,1.22-.58,10,10,0,0,0,5.42.24c.72-.12,1.44-.23,2.25-.3s1.94-.12,2.48.57.25,1.39,0,2.11a6.86,6.86,0,0,0-.34,1.19,8.52,8.52,0,0,0,.16,1.87c.27,1.78.64,4.24-1.8,5.4A5.16,5.16,0,0,1,230.59,142.81Zm-3.82-2.17c.46,0,1,.06,1.65.12,1.28.12,3,.27,3.73-.12,1.11-.53,1.09-1.44.79-3.41a10.2,10.2,0,0,1-.16-2.45,8.87,8.87,0,0,1,.43-1.51,1.27,1.27,0,0,1,.06-.18l-.55,0c-.78.07-1.47.17-2.14.27l-1,.15a1,1,0,0,1-.33,1,1,1,0,0,1-1.35-.16c-.3-.38-2.1-.72-5.82-.14-1.7.23-1.69.39-1.62,1.87a13.52,13.52,0,0,1-.07,2.14l-.14.64a2.66,2.66,0,0,0-.11.6.81.81,0,0,1-.07.35,1.45,1.45,0,0,1-.54.68,21,21,0,0,0,5.88.18C226,140.67,226.47,140.64,226.77,140.64Z"/><path class="cls-1" d="M255.87,130.13a.82.82,0,0,1-.26,0,1,1,0,0,1-.66-1.18,6.76,6.76,0,0,0,.21-3.24c-.24-.4-.18-.22-.23-.22a5.43,5.43,0,0,0-.72.17,10.06,10.06,0,0,1-1,.26.93.93,0,0,1-1.11-.7,5.19,5.19,0,0,1-.1-1.09c0-.16,0-.4,0-.58-.29,0-.55,0-.82,0a2.1,2.1,0,0,1-1.54-.55,1.76,1.76,0,0,1-.5-1.6.57.57,0,0,1,0-.13c-.2-.16-.38-.15-.92-.12a5.6,5.6,0,0,1-1.23,0,.94.94,0,0,1-.86-1,1,1,0,0,1,1-.87,5.28,5.28,0,0,0,.9,0,2.91,2.91,0,0,1,2.55.79,1.82,1.82,0,0,1,.42,1.47v.11a3,3,0,0,0,.51,0,2.21,2.21,0,0,1,2,.6,2.7,2.7,0,0,1,.38,1.49,2.25,2.25,0,0,1,2.92,1c.87,1.5,0,4.7,0,4.74A1,1,0,0,1,255.87,130.13Z"/><path class="cls-1" d="M255.74,126.15a.94.94,0,0,1-.93-.77,1,1,0,0,1,.45-1,7.93,7.93,0,0,0,.52-3.16,1,1,0,0,1,.6-1c1.15-.47,1-1.65.28-4l-.22-.71a7.67,7.67,0,0,1-.31-.92,2.83,2.83,0,0,0-1.34-1.81c-.28-.23-.52-.42-.76-.59a5.44,5.44,0,0,1-2.45-3.27,13.6,13.6,0,0,1,.06-4.41c.07-.56.13-1.11.17-1.64,0-.31,0-.72-.07-1.13a8.86,8.86,0,0,1,.24-3.61,1,1,0,0,1,1.58-.35c.14.14.23.18.26.18a.53.53,0,0,0,.13-.42c0-.34-.52-.46-.81-.49a.92.92,0,0,1-.67-.42.93.93,0,0,1-.14-.79,7.29,7.29,0,0,1,.77-1.57c.39-.68,1-1.71.83-2.16,0-.13-.19-.25-.46-.37a1,1,0,0,1,.81-1.75,2.5,2.5,0,0,1,1.47,1.54c.42,1.26-.37,2.61-1,3.71-.06.09-.12.18-.17.27a2.36,2.36,0,0,1,.11,4.15,2,2,0,0,1-1.1.21,14.35,14.35,0,0,0,0,1.72c0,.47.07.92.07,1.35,0,.63-.11,1.21-.18,1.79a12.71,12.71,0,0,0-.09,3.72,3.56,3.56,0,0,0,1.74,2.2l.8.61a4.61,4.61,0,0,1,2,2.75,8.48,8.48,0,0,0,.3.89l.23.75c.52,1.65,1.46,4.63-.79,6-.06,1.36-.39,4.17-1.76,4.44A.43.43,0,0,1,255.74,126.15Z"/></g></g></svg>