<svg xmlns="http://www.w3.org/2000/svg" viewBox="0 0 224.75 281.34"><defs><style>.cls-1{fill:#f29100;stroke:#fff;stroke-miterlimit:10;}</style></defs><title>Nordeste</title><g id="Camada_2" data-name="Camada 2"><g id="Capa_1" data-name="Capa 1"><path class="cls-1" d="M41.77,230.13a1,1,0,0,0,1.36-.13c1-1.25,2.77-1.77,4.64-2.33a14.92,14.92,0,0,0,5.31-2.4,23.39,23.39,0,0,1,5.26-3.71l1.12-.48a7.77,7.77,0,0,0,4.37-3.46,2.7,2.7,0,0,0,.46-.86,4.28,4.28,0,0,1,.5-.35,5,5,0,0,1,1.56-.44,7.13,7.13,0,0,0,2.21-.63l.78-.41c.92-.49,1-.54,2.63-.38a13.77,13.77,0,0,0,2.46.06c1.29-.05,2.95-.1,3.75.36.23.11.31.18.33.18h0a4.42,4.42,0,0,1-.15.69,7.12,7.12,0,0,1-.85-.07,1,1,0,0,0-1,.42,3.53,3.53,0,0,0-.11,3.08,2.58,2.58,0,0,1,.16,1.55,1,1,0,0,0,.12,1,.93.93,0,0,0,.91.36l.25,0c1.7-.26,2.45-.34,3.53.44a1.63,1.63,0,0,1,.51.36,3,3,0,0,0,1.42.82,2.1,2.1,0,0,0,1.42-.14,1,1,0,0,0,1,.26,1,1,0,0,0,.7-.92,9,9,0,0,0-.07-1.07c-.09-1,0-1.08.2-1.21.5-.26,2.3,0,4,.67a1.46,1.46,0,0,1,.76.68,2.81,2.81,0,0,0,1.12,1,5.93,5.93,0,0,0,2,.72c.54.09.78.14,1.56,1.16,2,2.47,4,2.58,6.32,2.7.59,0,1.22.06,1.91.13a12.13,12.13,0,0,1,3.59,1,11.71,11.71,0,0,0,3.62.93c1.57.16,2.11,1,3.1,2.64.18.29.35.59.62,1a23.17,23.17,0,0,1,1.82,2.52c.06.19.12.42.17.66a6,6,0,0,0,1,2.72,1.24,1.24,0,0,0,.22.18c1,.6,3.22.42,3.74.31a3.78,3.78,0,0,0,1.89-1.69c.11-.17.27-.42.23-.43,1.06-.25,5.79,1,7.52,1.85,4.85,2.06,8.19,4.39,8.34,5.78a.8.8,0,0,1-.24.62,1,1,0,0,0-.83.25,1,1,0,0,0,0,1.37.83.83,0,0,1,.23.29c0,.19-.57.64-.82.85a6.62,6.62,0,0,0-1,.93,3.29,3.29,0,0,0-.57,1.12,1.7,1.7,0,0,1-.35.66,2,2,0,0,1-.58.27,3.26,3.26,0,0,0-1.29.76,1,1,0,0,0-.18.22,3.28,3.28,0,0,0-.39,1.7,3.56,3.56,0,0,0,0,.51s-.06,0-.26.12a3.19,3.19,0,0,0-1,.49,6.15,6.15,0,0,0-3,3.12,1,1,0,0,0-.44,1,22.59,22.59,0,0,1,0,6.17.9.9,0,0,0,.33.78,1,1,0,0,0,.87.2,3.5,3.5,0,0,1,.19.85,3.76,3.76,0,0,0,.9,2.24,4.36,4.36,0,0,0,1.81.86c.93.28,1.23.4,1.36,1.12a1,1,0,0,1-.09.62c-.1.09-.07.37,0,.66a1,1,0,0,0,.88,1.34c1.19,0,2.24,1.15,3.24,2.27a13.64,13.64,0,0,0,1.67,1.65,11.76,11.76,0,0,0,1.61.94c.28.15.7.48,1.11.67a2.28,2.28,0,0,0,0,.26,1,1,0,0,0,1,.8h.14a1,1,0,0,0,.79-1.1c-.39-2.47.84-4.38,3-6.63a19,19,0,0,0,1.34-1.55,16.72,16.72,0,0,1,1.82-2,3.84,3.84,0,0,1,.59-.13c.76-.11,2-.33,2.33-1.51.28-.86-.25-1.79-.76-2.69a4.39,4.39,0,0,1-.45-.9,14.92,14.92,0,0,1,.31-4.7c.13-.73.24-1.44.32-2.21a3.56,3.56,0,0,1,.6-2.09l.57-1.15a14.1,14.1,0,0,0,.76-5.19c0-.92.05-1.8.15-2.6l0-.14a14.31,14.31,0,0,1,1.39-3.41l.26-.55a8.67,8.67,0,0,0,.56-5.48L158,236a48.52,48.52,0,0,1-.48-8.75v-1.52a10.5,10.5,0,0,0-.28-2.19,12.86,12.86,0,0,1-.21-1.29,13.3,13.3,0,0,1,.38-4.37,19,19,0,0,0,.49-3.84,12.26,12.26,0,0,0-1.5-6.7,5.71,5.71,0,0,0-.63-.88.39.39,0,0,1,0-.13l.06-.32a7.06,7.06,0,0,1,.55-1.14,5.47,5.47,0,0,0,.84-2,9,9,0,0,0,.24-2.08,2.92,2.92,0,0,1,.75-2.34.93.93,0,0,0,.19-1,.72.72,0,0,1-.05-.5A7.1,7.1,0,0,1,160,193.7c.54-.42.91-.32,1.76-.06a4.64,4.64,0,0,0,2.35.27,8,8,0,0,0,3.12-1.32,11.54,11.54,0,0,1,1.41-.75c2.27-1,2.61-1.88,3.08-3.71L172,187c1-3.63,3.55-7,6-10.24a50.45,50.45,0,0,0,5-7.76.93.93,0,0,0-.12-1,32.18,32.18,0,0,0,5.08-5.34c.35-.37.69-.8,1-1.22a13.27,13.27,0,0,1,1.89-2.09c.29-.19.56-.34.82-.5a5.46,5.46,0,0,0,2.35-2.08,10.35,10.35,0,0,0,.54-1.19,2.33,2.33,0,0,1,1-1.28c.17-.15.35-.28.5-.4a4.1,4.1,0,0,0,1.17-1.21l.6-.09a5.25,5.25,0,0,0,2.32-.69,3,3,0,0,0,1.57-3.08,1.89,1.89,0,0,1,.3-1.36,3.1,3.1,0,0,1,1-.59,5,5,0,0,0,2.13-1.47,16.27,16.27,0,0,0,1.18-2.13,9,9,0,0,1,1.59-2.48,23,23,0,0,1,2.11-1.93,16.25,16.25,0,0,0,4-4.41,21.09,21.09,0,0,0,.95-2.82,11.38,11.38,0,0,1,1.75-4.17.92.92,0,0,0,.58-.37,6.37,6.37,0,0,1,.76-.84,1,1,0,0,0,0-1.36.83.83,0,0,0-.12-.08,29.3,29.3,0,0,1,2.52-6l.78-1.5c.67-1.42,1.79-8.6,1.4-12.06a.64.64,0,0,0,.1-.13.93.93,0,0,0,.4-1,2.91,2.91,0,0,1,.39-1.85,4.17,4.17,0,0,0,.51-1.78,3.8,3.8,0,0,0-.67-2c-.33-.54-.47-.8-.35-1.26a2.73,2.73,0,0,1,.48-1,3.3,3.3,0,0,0,.51-3,3.22,3.22,0,0,0-2.24-2.67s0-.06,0-.08a1.06,1.06,0,0,0,.21-.16,1,1,0,0,0-.13-1.35.66.66,0,0,1-.17-.16,1.47,1.47,0,0,0-.1-.22,2.59,2.59,0,0,1,0-.68,3.34,3.34,0,0,0-.76-2.69A4.22,4.22,0,0,0,219.2,84a1.82,1.82,0,0,1-.74-.39l0-2.72a7.36,7.36,0,0,1,.06-1.18,4.75,4.75,0,0,0-.16-2.48,5.21,5.21,0,0,0-1.16-1.49,3.09,3.09,0,0,1-1-1.6,6.52,6.52,0,0,1-.16-2.53,5.18,5.18,0,0,0-1.14-4.26,7.61,7.61,0,0,0-1.43-.87,5.11,5.11,0,0,1-1.08-.63c-.17-.15-.36-.37-.57-.6a4.36,4.36,0,0,0-1.88-1.52,6.78,6.78,0,0,0-3.36-.13l-.47,0a28.42,28.42,0,0,1-4.14-.06,26.88,26.88,0,0,0-4.32-.07,11.48,11.48,0,0,1-4-.24c-.37,0-.85-.06-1.35-.08a7.29,7.29,0,0,1-2.14-.23,5.12,5.12,0,0,1-1.46-1.15,7.76,7.76,0,0,0-3.93-2.27c-.82-.59-.92-.38-1.47-.78a11,11,0,0,1-1.17-.92,10.11,10.11,0,0,0-4-2.16c-1.56-.57-2.91-1.06-3.57-2.32l-.3-.61A11.91,11.91,0,0,0,171,48.33l-.64-.48A34.46,34.46,0,0,1,166,44.33c-3.83-4-7.48-6-12.46-8.27a35,35,0,0,1-4.34-2.69,28.11,28.11,0,0,0-6.33-3.58L140.69,29c-1.2-.42-2.43-.85-3.61-1.22a5.12,5.12,0,0,0-3.79,0,6.88,6.88,0,0,1-1.22.32,5,5,0,0,1-1.3,0,4.1,4.1,0,0,0-2.89.32,2.32,2.32,0,0,0-1,1.59,1,1,0,0,0-.62.08c-.46.23-.51.17-1-.1a6.31,6.31,0,0,0-.9-.44c-2.75-1-3.32-.64-5.3.89l-.32.25,0,0A16,16,0,0,0,112,28.52a.94.94,0,0,1-.78-.61,3,3,0,0,0-.76-1.3c-1.5-1.51-4.15-1.37-6.73-1.2a16.23,16.23,0,0,1-3.44,0c-2.38-.34-5.66-.81-7.6-2.53-2.38-2-3.54-2.24-6.63-1.58-1,.18-1.89.42-2.83.66s-2,.52-3.13.71c-.18,0-.4.06-.64.08a6.08,6.08,0,0,0-2.31.55,4,4,0,0,0-1.42,1.84,2.56,2.56,0,0,1-.55.87c-.37.21-.58.16-1.33-.2a3.47,3.47,0,0,0-3.36-.18,6.85,6.85,0,0,0-2,2.12,6.23,6.23,0,0,1-1.11,1.32,15.76,15.76,0,0,1-1.78,1.19,13.62,13.62,0,0,0-.24-1.51,5.44,5.44,0,0,1-.16-2.13c.13-.82.74-1.2,1.81-1.81a6.24,6.24,0,0,0,2.57-2.24c1.36-2.6-.39-4.76-1.69-6.34-.17-.23-.36-.44-.52-.67a2.72,2.72,0,0,1-.63-1.45,7,7,0,0,0-.5-1.59,3.48,3.48,0,0,0-1.6-1.77,4.07,4.07,0,0,1-.84-.65,9.28,9.28,0,0,1-1.15-1.31A5.35,5.35,0,0,0,59,6.37a12,12,0,0,0-1.4-.23,6.71,6.71,0,0,1-1.55-.33c-.39-.17-.57-.47-.83-.94a3.42,3.42,0,0,0-.81-1c-1.64-1.37-4.65-1.9-7-2.32-.46-.08-1-.21-1.56-.34C43.77.67,41.2.06,39.26,1a1,1,0,0,0-.46,1.28.9.9,0,0,0,.42.42A17.87,17.87,0,0,1,38.8,6l-.32,1.24a2.12,2.12,0,0,1-.74,1.19,4.46,4.46,0,0,1-.69.24,3.31,3.31,0,0,0-1.7.89,2.05,2.05,0,0,0-.6,1.74c.21.86,1,1.22,1.7,1.51.89.38,1,.51.95.66s0,.05,0,.08a4.14,4.14,0,0,0-.61,1.86c0,.25-.07.5-.1.65a14,14,0,0,1-.88,1.59,12.67,12.67,0,0,0-1,1.73,8,8,0,0,0-.65,2.2,5.32,5.32,0,0,1-.47,1.65,3.21,3.21,0,0,1-.64.74,3.43,3.43,0,0,0-1.31,2.18,4.41,4.41,0,0,0,.14,1.66,2.57,2.57,0,0,1,.1,1,12.82,12.82,0,0,1-.77,2.46,3.09,3.09,0,0,1-1,.93,6.19,6.19,0,0,0-1.44,1.32,7.36,7.36,0,0,0-1,2.24A7,7,0,0,1,27,37.68a4.63,4.63,0,0,1-.71.56A4.07,4.07,0,0,0,25,39.37a7.49,7.49,0,0,0-.92,2.52,7.08,7.08,0,0,1-.52,1.7A17.89,17.89,0,0,1,21.24,47c-.57.7-1.15,1.41-1.67,2.16a23.06,23.06,0,0,0-1.18,2c-.86,1.62-1.61,3-3.37,3.63a2.85,2.85,0,0,1-1.13.08,4.15,4.15,0,0,0-1.61.17,4.8,4.8,0,0,0-2.1,2.11,7.65,7.65,0,0,1-.54.82,10.37,10.37,0,0,1-3.21,2.7A15.56,15.56,0,0,0,3,63.39a11.64,11.64,0,0,0-1.05,1.55A5.24,5.24,0,0,1,1,66.2a.33.33,0,0,0,0,.31,1,1,0,0,0-.31.27,1,1,0,0,0,1,1.53c.38,0,1.25.22,1.85.34s1.36.27,1.85.32a6.77,6.77,0,0,0,1.21-.15,3.94,3.94,0,0,1,1.11-.11,1.91,1.91,0,0,1,1.15.54A7.29,7.29,0,0,0,10,70a4.91,4.91,0,0,0,2.8.55,6.78,6.78,0,0,1,1.38.06,3.26,3.26,0,0,1,3,2.4c1.35,3.19,1.05,7.42.77,11.51-.1,1.63-.21,3.19-.21,4.65v.79c0,3.9,0,6.46-3,8.63a1,1,0,0,0-.39.77,1,1,0,0,0,.38.78l.77.55a9,9,0,0,1,2.24,2,5,5,0,0,1,.5,1.17,7.14,7.14,0,0,0,.46,1.12,5.12,5.12,0,0,0,1.61,1.89c.22.19.48.39.82.73a8.84,8.84,0,0,1,1.62,2.68c1,2.09,2.33,4.92,5.24,3.59.52-.23,1-.47,1.5-.7,1.21-.57,2.34-1.13,3-.85.44.19.85.91,1.21,2.08.08.23.23.6.4,1.06,1.15,2.85,1.63,4.56,1.54,5,0,0,0,0,0,0l-.22-.32a3.48,3.48,0,0,0-.56-.7c-.24-.19-.26-.26-.28-.29-.31-.93-1-.86-1.93-.79-.71,0-3.81,1.33-4.23,2a2.9,2.9,0,0,0-.45,2.15,3.37,3.37,0,0,1,0,.71,8.14,8.14,0,0,1-.94,3.15,2.49,2.49,0,0,1-.53.47,2,2,0,0,0-.75,2.86,3.34,3.34,0,0,0,1.83,1.1,3.35,3.35,0,0,1,1.66.9,5,5,0,0,1,.69,2.12c.17,1.25.42,2.92,3,3.23a11.6,11.6,0,0,0,.33,1.35,6.29,6.29,0,0,1,.34,1.55,1.83,1.83,0,0,0,.62,1.35A5.59,5.59,0,0,1,35.51,144a6.24,6.24,0,0,0,1.92,3.39,3.69,3.69,0,0,0,2.76.66c.4,0,.75-.05.81,0a9.38,9.38,0,0,1,1,.56,11.53,11.53,0,0,0,1.11.62.94.94,0,0,1,.55.82,6.58,6.58,0,0,0,.23,1.42c.22.92.29,1.25-.87,2.3a4,4,0,0,1-1.76.8,6,6,0,0,0-2.31,1,4.27,4.27,0,0,0-1.2,2.07,3,3,0,0,1-.36.79c-.29.09-.88.27-1,.78a5.63,5.63,0,0,0-.55,2.19,3.1,3.1,0,0,1-.48,1.67,6.87,6.87,0,0,1-.92.84c-1.21,1-2.88,2.41-2.15,4.26.76,1.56,2.81,1.36,4.13,1.23.32,0,.61-.06.83-.06a7.07,7.07,0,0,1,1.67.21.88.88,0,0,1,.52,1.32,3.45,3.45,0,0,0-.4,2,3.08,3.08,0,0,0,.76,1.46l.17.2s0,.22-.44.9a9.58,9.58,0,0,1-1.19,1.5c-1.05,1.18-2.16,2.4-1.39,5.11a3.94,3.94,0,0,0,.69,1.29,2.15,2.15,0,0,1,.52,1.12A1.52,1.52,0,0,1,38,185a2.9,2.9,0,0,0-.08,1.12,6.51,6.51,0,0,0,.61,2.81,12.7,12.7,0,0,1,.44,1.23,4.37,4.37,0,0,1,.14.48.7.7,0,0,0-.13.17,1,1,0,0,0,.48,1.27.79.79,0,0,1,.46.36c.14.46-.45,1.49-.84,2.17a6.93,6.93,0,0,0-.76,1.56,1,1,0,0,0,.81,1.22c.29,0,.76.14.81.49a.57.57,0,0,1-.13.42s-.13,0-.26-.18a1,1,0,0,0-.89-.27,1,1,0,0,0-.69.62,8.87,8.87,0,0,0-.25,3.61c0,.41.07.82.07,1.13,0,.53-.09,1.08-.16,1.64a13.27,13.27,0,0,0-.06,4.4,5.44,5.44,0,0,0,2.45,3.28c.23.17.48.36.76.59a2.8,2.8,0,0,1,1.34,1.81,7.67,7.67,0,0,0,.31.92l.21.71c.74,2.34.88,3.51-.27,4a1,1,0,0,0-.6,1,8,8,0,0,1-.53,3.16,1,1,0,0,0-.44,1C40.92,226.19,41.37,229.8,41.77,230.13Z"/><path class="cls-1" d="M223.12,97.16a2.73,2.73,0,0,1,.48-1,3.3,3.3,0,0,0,.51-3,3.22,3.22,0,0,0-2.24-2.67s0-.06,0-.08a1.06,1.06,0,0,0,.21-.16,1,1,0,0,0-.13-1.35.66.66,0,0,1-.17-.16,1.47,1.47,0,0,0-.1-.22,2.59,2.59,0,0,1,0-.68,3.34,3.34,0,0,0-.76-2.69A4.22,4.22,0,0,0,219.2,84a1.82,1.82,0,0,1-.74-.39l0-2.72a7.36,7.36,0,0,1,.06-1.18,4.75,4.75,0,0,0-.16-2.48,5.21,5.21,0,0,0-1.16-1.49,3.09,3.09,0,0,1-1-1.6,6.52,6.52,0,0,1-.16-2.53,5.18,5.18,0,0,0-1.14-4.26,7.61,7.61,0,0,0-1.43-.87,5.11,5.11,0,0,1-1.08-.63c-.17-.15-.36-.37-.57-.6a4.36,4.36,0,0,0-1.88-1.52,6.78,6.78,0,0,0-3.36-.13l-.47,0a28.42,28.42,0,0,1-4.14-.06,26.88,26.88,0,0,0-4.32-.07,11.48,11.48,0,0,1-4-.24c-.37,0-.85-.06-1.35-.08a7.29,7.29,0,0,1-2.14-.23,5.12,5.12,0,0,1-1.46-1.15c-1-1-2.29-2.21-4.1-1.78a4,4,0,0,0-1.3-1.27,11,11,0,0,1-1.17-.92,10.11,10.11,0,0,0-4-2.16c-1.56-.57-2.91-1.06-3.57-2.32l-.3-.61A11.91,11.91,0,0,0,171,48.33l-.64-.48A34.46,34.46,0,0,1,166,44.33c-3.83-4-7.48-6-12.46-8.27a35,35,0,0,1-4.34-2.69,28.11,28.11,0,0,0-6.33-3.58L140.69,29c-1.2-.42-2.43-.85-3.61-1.22a5.12,5.12,0,0,0-3.79,0,6.88,6.88,0,0,1-1.22.32,5,5,0,0,1-1.3,0,4.1,4.1,0,0,0-2.89.32,2.32,2.32,0,0,0-1,1.59,1,1,0,0,0-.62.08c-.46.23-.51.17-1-.1a6.31,6.31,0,0,0-.9-.44c-2.75-1-3.32-.64-5.3.89l-.32.25,0,0c-1.82-1.35-5.11-2.07-7.33-2.3a3.4,3.4,0,0,0-.89-1.83c-1.5-1.51-4.15-1.37-6.73-1.2a16.23,16.23,0,0,1-3.44,0c-2.38-.34-5.66-.81-7.6-2.53-2.38-2-3.54-2.24-6.63-1.58-1,.18-1.89.42-2.83.66s-2,.52-3.13.71c-.18,0-.4.06-.64.08a6.08,6.08,0,0,0-2.31.55,4,4,0,0,0-1.42,1.84,2.56,2.56,0,0,1-.55.87c-.37.21-.58.16-1.33-.2a3.47,3.47,0,0,0-3.36-.18,6.85,6.85,0,0,0-2,2.12,6.23,6.23,0,0,1-1.11,1.32,15.76,15.76,0,0,1-1.78,1.19,13.62,13.62,0,0,0-.24-1.51,5.44,5.44,0,0,1-.16-2.13c.13-.82.74-1.2,1.81-1.81a6.24,6.24,0,0,0,2.57-2.24c1.36-2.6-.39-4.76-1.69-6.34-.17-.23-.36-.44-.52-.67a2.72,2.72,0,0,1-.63-1.45,7,7,0,0,0-.5-1.59,3.48,3.48,0,0,0-1.6-1.77,4.07,4.07,0,0,1-.84-.65,9.28,9.28,0,0,1-1.15-1.31A5.35,5.35,0,0,0,59,6.37a12,12,0,0,0-1.4-.23,6.71,6.71,0,0,1-1.55-.33c-.39-.17-.57-.47-.83-.94a3.42,3.42,0,0,0-.81-1c-1.64-1.37-4.65-1.9-7-2.32-.46-.08-1-.21-1.56-.34C43.77.67,41.2.06,39.26,1a1,1,0,0,0-.46,1.28.9.9,0,0,0,.42.42A17.87,17.87,0,0,1,38.8,6l-.32,1.24a2.12,2.12,0,0,1-.74,1.19,4.46,4.46,0,0,1-.69.24,3.31,3.31,0,0,0-1.7.89,2.05,2.05,0,0,0-.6,1.74c.21.86,1,1.22,1.7,1.51.89.38,1,.51.95.66s0,.05,0,.08a4.14,4.14,0,0,0-.61,1.86c0,.25-.07.5-.1.65a14,14,0,0,1-.88,1.59,12.67,12.67,0,0,0-1,1.73,8,8,0,0,0-.65,2.2,5.32,5.32,0,0,1-.47,1.65,3.21,3.21,0,0,1-.64.74,3.43,3.43,0,0,0-1.31,2.18,4.41,4.41,0,0,0,.14,1.66,2.57,2.57,0,0,1,.1,1,12.82,12.82,0,0,1-.77,2.46,3.09,3.09,0,0,1-1,.93,6.19,6.19,0,0,0-1.44,1.32,7.36,7.36,0,0,0-1,2.24A7,7,0,0,1,27,37.68a4.63,4.63,0,0,1-.71.56A4.07,4.07,0,0,0,25,39.37a7.49,7.49,0,0,0-.92,2.52,7.08,7.08,0,0,1-.52,1.7A17.89,17.89,0,0,1,21.24,47c-.57.7-1.15,1.41-1.67,2.16a23.06,23.06,0,0,0-1.18,2c-.86,1.62-1.61,3-3.37,3.63a2.85,2.85,0,0,1-1.13.08,4.15,4.15,0,0,0-1.61.17,4.8,4.8,0,0,0-2.1,2.11,7.65,7.65,0,0,1-.54.82,10.37,10.37,0,0,1-3.21,2.7A15.56,15.56,0,0,0,3,63.39a11.64,11.64,0,0,0-1.05,1.55A5.24,5.24,0,0,1,1,66.2a.33.33,0,0,0,0,.31,1,1,0,0,0-.31.27,1,1,0,0,0,1,1.53c.38,0,1.25.22,1.85.34s1.36.27,1.85.32a6.77,6.77,0,0,0,1.21-.15,3.94,3.94,0,0,1,1.11-.11,1.91,1.91,0,0,1,1.15.54A7.29,7.29,0,0,0,10,70a4.91,4.91,0,0,0,2.8.55,6.78,6.78,0,0,1,1.38.06,3.26,3.26,0,0,1,3,2.4c1.35,3.19,1.05,7.42.77,11.51-.1,1.63-.21,3.19-.21,4.65v.79c0,3.9,0,6.46-3,8.63a1,1,0,0,0-.39.77,1,1,0,0,0,.38.78l.77.55a9,9,0,0,1,2.24,2,5,5,0,0,1,.5,1.17,7.14,7.14,0,0,0,.46,1.12,5.12,5.12,0,0,0,1.61,1.89c.22.19.48.39.82.73a8.84,8.84,0,0,1,1.62,2.68c1,2.09,2.33,4.92,5.24,3.59.52-.23,1-.47,1.5-.7,1.21-.57,2.34-1.13,3-.85.44.19.85.91,1.21,2.08.08.23.23.6.4,1.06,1.15,2.85,1.63,4.56,1.54,5,0,0,0,0,0,0l-.22-.32a3.48,3.48,0,0,0-.56-.7c-.24-.19-.26-.26-.28-.29-.31-.93-1-.86-1.93-.79-.71,0-3.81,1.33-4.23,2a2.9,2.9,0,0,0-.45,2.15,3.37,3.37,0,0,1,0,.71,8.14,8.14,0,0,1-.94,3.15,2.49,2.49,0,0,1-.53.47,2,2,0,0,0-.75,2.86,3.34,3.34,0,0,0,1.83,1.1,3.35,3.35,0,0,1,1.66.9,5,5,0,0,1,.69,2.12c.17,1.25.42,2.92,3,3.23a11.6,11.6,0,0,0,.33,1.35,5,5,0,0,1,.33,1.88,1,1,0,0,0,.43.88,5,5,0,0,1,1.62,2.9,6.24,6.24,0,0,0,1.92,3.39,3.69,3.69,0,0,0,2.76.66c.4,0,.75-.05.81,0a9.38,9.38,0,0,1,1,.56,8.88,8.88,0,0,0,1.66.85,6.38,6.38,0,0,0,.23,2c.22.92.29,1.25-.87,2.3a4,4,0,0,1-1.76.8,6,6,0,0,0-2.31,1,4.27,4.27,0,0,0-1.2,2.07,3,3,0,0,1-.36.79c-.29.09-.88.27-1,.78a5.63,5.63,0,0,0-.55,2.19,3.1,3.1,0,0,1-.48,1.67,6.87,6.87,0,0,1-.92.84c-1.21,1-2.88,2.41-2.15,4.26.76,1.56,2.81,1.36,4.13,1.23.32,0,.61-.06.83-.06a8.27,8.27,0,0,1,2.92.6,3.48,3.48,0,0,0-1.13,3,3.08,3.08,0,0,0,.76,1.46l.17.2s0,.22-.44.9a9.58,9.58,0,0,1-1.19,1.5c-1.05,1.18-2.16,2.4-1.39,5.11a3.94,3.94,0,0,0,.69,1.29,2.15,2.15,0,0,1,.52,1.12A1.52,1.52,0,0,1,38,185a2.9,2.9,0,0,0-.08,1.12,6.51,6.51,0,0,0,.61,2.81,12.7,12.7,0,0,1,.44,1.23,4.37,4.37,0,0,1,.14.48.7.7,0,0,0-.13.17,1,1,0,0,0,.48,1.27.79.79,0,0,1,.46.36c.14.46-.45,1.49-.84,2.17a6.93,6.93,0,0,0-.76,1.56,1,1,0,0,0,.81,1.22c.29,0,.76.14.81.49a.57.57,0,0,1-.13.42s-.13,0-.26-.18a1,1,0,0,0-.89-.27,1,1,0,0,0-.69.62,8.87,8.87,0,0,0-.25,3.61c0,.41.07.82.07,1.13,0,.53-.09,1.08-.16,1.64a13.27,13.27,0,0,0-.06,4.4,5.44,5.44,0,0,0,2.45,3.28c.23.17.48.36.76.59a2.8,2.8,0,0,1,1.34,1.81,7.67,7.67,0,0,0,.31.92l.21.71c.74,2.34.88,3.51-.27,4a1,1,0,0,0-.6,1,8,8,0,0,1-.53,3.16,1,1,0,0,0-.44,1,.93.93,0,0,0,.93.77.37.37,0,0,0,.18,0c1.38-.27,1.71-3.09,1.77-4.44,2.25-1.41,1.31-4.39.79-6.05l-.24-.74c-.13-.35-.22-.64-.3-.9a4.62,4.62,0,0,0-2-2.74c-.28-.23-.55-.43-.8-.61a3.61,3.61,0,0,1-1.73-2.2,12.37,12.37,0,0,1,.09-3.72c.07-.58.14-1.17.18-1.8,0-.42,0-.87-.07-1.34a14.41,14.41,0,0,1-.06-1.72,2,2,0,0,0,1.11-.21,2.36,2.36,0,0,0,1.13-2.48,2.31,2.31,0,0,0-1.24-1.67l.17-.28c.63-1.09,1.41-2.44,1-3.71a2.17,2.17,0,0,0-.67-1,5.28,5.28,0,0,0-.29-1.29c-.16-.54-.32-1-.47-1.34a5.21,5.21,0,0,1-.49-2.28,1.38,1.38,0,0,1,.07-.57,3.33,3.33,0,0,0,.07-1.23,3.84,3.84,0,0,0-.86-1.95,2.48,2.48,0,0,1-.41-.69c-.46-1.68,0-2.22,1-3.3a12.25,12.25,0,0,0,1.37-1.76c1.08-1.65.84-2.5.11-3.36-.19-.24-.29-.35-.31-.48-.07-.78.29-1.13,1.22-1.93l.44-.38a1,1,0,0,0-.27-1.6,12.69,12.69,0,0,0-5.09-1.33c-.27,0-.63,0-1,.07-.62.07-2,.22-2.19-.07-.18-.49,1-1.45,1.63-2a7.37,7.37,0,0,0,1.23-1.17,4.86,4.86,0,0,0,.86-2.64,3.93,3.93,0,0,1,.27-1.31,1.88,1.88,0,0,0,1-.75,7.21,7.21,0,0,0,.52-1.23,3.18,3.18,0,0,1,.61-1.23,4.5,4.5,0,0,1,1.62-.68,5.87,5.87,0,0,0,2.53-1.21c1.85-1.68,1.77-2.79,1.44-4.18,0-.1,0-.21-.07-.31,1.57-.86,5.4-.83,6.45.32.56.62.51,1.17.39,2.09-.15,1.17-.38,3,2.36,3.89l1.53.61a11.17,11.17,0,0,0,4.42,1.18,7.41,7.41,0,0,0,2.81-.57,17.91,17.91,0,0,0,4.28-2.7,3.75,3.75,0,0,0,.76-.69,1.19,1.19,0,0,1,.92-.51,4.24,4.24,0,0,1,1.32.2,5.93,5.93,0,0,0,1.69.3c1.65,0,3.53-1.19,4.81-2.19a8.85,8.85,0,0,0,3.2-4.81,11.33,11.33,0,0,1,.57-1.28c.94-1.93,1.63-3.5,1.32-4.55A4.37,4.37,0,0,0,81,139.86c-.93-.9-1.57-1.58-1.39-2.19a5.56,5.56,0,0,1,1.4-.78,6.13,6.13,0,0,0,2-1.19,8,8,0,0,0,1.31-1.92,1,1,0,0,0,0-.1l.1.15a3.19,3.19,0,0,0,2.33,1.65,7.14,7.14,0,0,0,2.58-.24,4.17,4.17,0,0,1,2.51-.08,3.14,3.14,0,0,1,1,.83,4.57,4.57,0,0,0,2.07,1.46,9.33,9.33,0,0,0,3.87-.37l.55-.13a9.54,9.54,0,0,0,2.8-1.3c.37-.22.73-.44,1.11-.63a4.52,4.52,0,0,1,2.8-.35l.8.07c1.91.17,7.26-.73,8.42-3.32a2.66,2.66,0,0,0,0-2.09,11.06,11.06,0,0,0,3.94-4.14,2.63,2.63,0,0,0,.33-.87.82.82,0,0,0,.45.21c.16,0,.48.06.88.09,1.24.1,4.48.36,5.36,1.08.59.47.59.81.53,1.8,0,.42-.05.88-.06,1.46a2,2,0,0,0,0,1.27A2.09,2.09,0,0,0,128,131.5l.28.12c.25.49.14.75-.46,1.6a9.13,9.13,0,0,0-.53.84.91.91,0,0,0-.06.82,1,1,0,0,0,.61.56c1.23.37,3.78.74,5.31.12,1.37-.46,1.9-.75,2-2a5.42,5.42,0,0,1,.16-1.2c.39-1.78,1.16-2.1,2.45-2a2.11,2.11,0,0,1,.72.24,2.05,2.05,0,0,0,2.38-.13,5,5,0,0,0,1.63-2.27,5.38,5.38,0,0,1,.78-1.34,19.12,19.12,0,0,1,4.43-3c1.72-.75,5.82-.41,7.67.16,2.66.78,5.66,2.78,8.07,4.39l1.06.71a9.92,9.92,0,0,1,3.42,3.12,9.25,9.25,0,0,1,1.34,2.59,1.1,1.1,0,0,0,0,.16,1,1,0,0,0,.19.63,2.31,2.31,0,0,1-.12,1.27,1,1,0,0,0,.12.95.84.84,0,0,0,.87.39c.67-.08.85.08.85.09.19.18.11,1.1.06,1.66a4.86,4.86,0,0,0,.64,3.66,4.27,4.27,0,0,0,2.24,1.21c.75.2,1,.3,1.23.71.72,1.36.25,4.18-.1,6.25-.1.66-.2,1.26-.25,1.71a10.44,10.44,0,0,0-.15,1.85c0,1.28-.09,1.34-.6,1.48a5.2,5.2,0,0,1-1.36-.29c-1.23-.34-2.88-.82-3.61.47-.61,1,0,2.83,2.63,8.24.24.49.43.88.57,1.18,1.25,2.36,2.87,3.64,4.82,3.81h.45a6.75,6.75,0,0,0,2.94-.75,57.56,57.56,0,0,1-4.15,6.1c-2.53,3.4-5.13,6.91-6.25,10.86-.14.44-.23.84-.33,1.19-.4,1.51-.48,1.79-2,2.42a12.85,12.85,0,0,0-1.65.88,6.71,6.71,0,0,1-2.43,1.07,3.06,3.06,0,0,1-1.5-.21,3.46,3.46,0,0,0-3.47.39c-1.31,1-1.95,3-2.5,4.74a19,19,0,0,1-.76,2.06,1,1,0,0,0,0,.87c0,.26,0,.52,0,.78a8.14,8.14,0,0,1-.21,1.78,4,4,0,0,1-.61,1.43,7.65,7.65,0,0,0-.75,1.59l-.08.41c-.16.74-.28,1.22.34,1.76a2.52,2.52,0,0,1,.47.61A10.49,10.49,0,0,1,156,214a18.27,18.27,0,0,1-.46,3.46,14.91,14.91,0,0,0-.41,5c.06.48.14,1,.24,1.44a10.32,10.32,0,0,1,.25,1.81v1.51a49.33,49.33,0,0,0,.51,9l.1.78a6.87,6.87,0,0,1-.39,4.39l-.25.53a16.36,16.36,0,0,0-1.58,4c-.13,1-.15,2-.18,3a12.8,12.8,0,0,1-.6,4.47c-.18.41-.36.73-.51,1a5.46,5.46,0,0,0-.81,2.89c-.08.64-.18,1.32-.3,2a16.5,16.5,0,0,0-.31,5.33,5.45,5.45,0,0,0,.67,1.53c.21.35.57,1,.62,1.14a2.84,2.84,0,0,1-.83.21,3.49,3.49,0,0,0-1.35.44,15.34,15.34,0,0,0-2.23,2.4c-.43.52-.84,1-1.23,1.42a11.86,11.86,0,0,0-3.47,5.85,2.26,2.26,0,0,0-.26-.2,9.43,9.43,0,0,1-1.33-.78,12.28,12.28,0,0,1-1.4-1.4,8.18,8.18,0,0,0-3.63-2.75,3.47,3.47,0,0,0,.06-1.09,3.19,3.19,0,0,0-2.74-2.72,3.05,3.05,0,0,1-1-.42,2.64,2.64,0,0,1-.32-1.14,2.87,2.87,0,0,0-1-2.09,1.48,1.48,0,0,0-.33-.17,23.6,23.6,0,0,0,0-5,1.09,1.09,0,0,0,.15-.35c.17-1,.66-1.56,2.39-2.64a1.59,1.59,0,0,1,.52-.26,2.42,2.42,0,0,0,1.18-.86,3.05,3.05,0,0,0,.34-1.5c0-.35,0-.65,0-.68a2,2,0,0,1,.58-.27,3.2,3.2,0,0,0,1.28-.72,3.45,3.45,0,0,0,.8-1.39,1.84,1.84,0,0,1,.28-.58,4.82,4.82,0,0,1,.68-.63,3.45,3.45,0,0,0,1.52-2.24,2.35,2.35,0,0,0-.09-.6,2.69,2.69,0,0,0,.86-2.25c-.28-2.86-5.31-5.58-9.43-7.34-1.42-.71-7-2.62-9-1.88a2.62,2.62,0,0,0-1.14,1.14c-.29.4-.57.82-.8.91a9.28,9.28,0,0,1-2.1,0A8.09,8.09,0,0,1,119,236c-.07-.33-.14-.65-.21-.89a.8.8,0,0,0-.11-.25,26.66,26.66,0,0,0-2-2.74l-.5-.84c-1-1.63-2-3.32-4.57-3.58a9.23,9.23,0,0,1-3.1-.8,14.24,14.24,0,0,0-4.09-1.06c-.72-.09-1.39-.12-2-.15-2.16-.12-3.45-.18-4.92-2a3.76,3.76,0,0,0-2.71-1.86,4.33,4.33,0,0,1-1.52-.55c-.13-.06-.19-.13-.38-.4a3.29,3.29,0,0,0-1.65-1.36c-1.2-.45-4.16-1.4-5.65-.56a2.5,2.5,0,0,0-1.2,2.69l-.29.12-.22.11a1.08,1.08,0,0,1-.59-.33,2.72,2.72,0,0,0-.88-.65,5,5,0,0,0-3.85-.84,6.41,6.41,0,0,0-.28-1.32,5.19,5.19,0,0,1-.22-1,2.27,2.27,0,0,1,.62.09,1,1,0,0,0,.83,0,1,1,0,0,0,.53-.66,6,6,0,0,1,.18-.73c.3-1,.64-2.37-1.14-3.17-1.18-.7-3-.63-4.69-.59a12.39,12.39,0,0,1-2.16,0c-2.12-.22-2.58-.05-3.78.59l-.77.41a6.14,6.14,0,0,1-1.65.45,6,6,0,0,0-2.26.71c-.7.47-.95.63-1.17,1.15a3.48,3.48,0,0,1-.35.62,6,6,0,0,1-3.53,2.75l-1.17.51a25.49,25.49,0,0,0-5.66,4,13.31,13.31,0,0,1-4.65,2.05c-2.05.63-4.18,1.26-5.56,2.95A1,1,0,0,0,43.13,230c1-1.25,2.77-1.77,4.64-2.33a14.92,14.92,0,0,0,5.31-2.4,23.39,23.39,0,0,1,5.26-3.71l1.12-.48a7.77,7.77,0,0,0,4.37-3.46,2.7,2.7,0,0,0,.46-.86,4.28,4.28,0,0,1,.5-.35,5,5,0,0,1,1.56-.44,7.13,7.13,0,0,0,2.21-.63l.78-.41c.92-.49,1-.54,2.63-.38a13.77,13.77,0,0,0,2.46.06c1.29-.05,2.95-.1,3.75.36.23.11.31.18.33.18h0a4.42,4.42,0,0,1-.15.69,7.12,7.12,0,0,1-.85-.07,1,1,0,0,0-1,.42,3.53,3.53,0,0,0-.11,3.08,2.58,2.58,0,0,1,.16,1.55,1,1,0,0,0,.12,1,.93.93,0,0,0,.91.36l.25,0c1.7-.26,2.45-.34,3.53.44a1.63,1.63,0,0,1,.51.36,3,3,0,0,0,1.42.82,2.1,2.1,0,0,0,1.42-.14,1,1,0,0,0,1,.26,1,1,0,0,0,.7-.92,9,9,0,0,0-.07-1.07c-.09-1,0-1.08.2-1.21.5-.26,2.3,0,4,.67a1.46,1.46,0,0,1,.76.68,2.81,2.81,0,0,0,1.12,1,5.93,5.93,0,0,0,2,.72c.54.09.78.14,1.56,1.16,2,2.47,4,2.58,6.32,2.7.59,0,1.22.06,1.91.13a12.13,12.13,0,0,1,3.59,1,11.71,11.71,0,0,0,3.62.93c1.57.16,2.11,1,3.1,2.64.18.29.35.59.62,1a23.17,23.17,0,0,1,1.82,2.52c.06.19.12.42.17.66a5.35,5.35,0,0,0,1.15,2.82c.92.69,3.31.51,3.86.39a3.78,3.78,0,0,0,1.89-1.69c.11-.17.27-.42.23-.43,1.06-.25,5.79,1,7.52,1.85,4.85,2.06,8.19,4.39,8.34,5.78a.8.8,0,0,1-.24.62,1,1,0,0,0-.83.25,1,1,0,0,0,0,1.37.83.83,0,0,1,.23.29c0,.19-.57.64-.82.85a6.62,6.62,0,0,0-1,.93,3.29,3.29,0,0,0-.57,1.12,1.7,1.7,0,0,1-.35.66,2,2,0,0,1-.58.27,3.2,3.2,0,0,0-1.39.86,3.11,3.11,0,0,0-.47,1.82,3.56,3.56,0,0,0,0,.51s-.06,0-.26.12a3.19,3.19,0,0,0-1,.49,6.15,6.15,0,0,0-3,3.12,1,1,0,0,0-.44,1,22.59,22.59,0,0,1,0,6.17.9.9,0,0,0,.33.78,1,1,0,0,0,.87.2,3.5,3.5,0,0,1,.19.85,3.76,3.76,0,0,0,.9,2.24,4.36,4.36,0,0,0,1.81.86c.93.28,1.23.4,1.36,1.12a1,1,0,0,1-.09.62c-.1.09-.07.37,0,.66a1,1,0,0,0,.88,1.34c1.19,0,2.24,1.15,3.24,2.27a13.64,13.64,0,0,0,1.67,1.65,11.76,11.76,0,0,0,1.61.94c.28.15.7.48,1.11.67a2.28,2.28,0,0,0,0,.26,1,1,0,0,0,1,.8h.14a1,1,0,0,0,.79-1.1c-.39-2.47.84-4.38,3-6.63a19,19,0,0,0,1.34-1.55,16.72,16.72,0,0,1,1.82-2,3.84,3.84,0,0,1,.59-.13c.76-.11,2-.33,2.33-1.51.28-.86-.25-1.79-.76-2.69a4.39,4.39,0,0,1-.45-.9,14.92,14.92,0,0,1,.31-4.7c.13-.73.24-1.44.32-2.21a3.56,3.56,0,0,1,.6-2.09l.57-1.15a14.1,14.1,0,0,0,.76-5.19c0-.95.05-1.85.16-2.67a14.45,14.45,0,0,1,1.41-3.48l.26-.55a8.67,8.67,0,0,0,.56-5.48L158,236a48.52,48.52,0,0,1-.48-8.75v-1.52a10.5,10.5,0,0,0-.28-2.19,12.86,12.86,0,0,1-.21-1.29,13.3,13.3,0,0,1,.38-4.37,19,19,0,0,0,.49-3.84,12.26,12.26,0,0,0-1.5-6.7,5.71,5.71,0,0,0-.63-.88.39.39,0,0,1,0-.13l.06-.32a7.06,7.06,0,0,1,.55-1.14,5.47,5.47,0,0,0,.84-2,9,9,0,0,0,.24-2.08,2.92,2.92,0,0,1,.75-2.34,1,1,0,0,0,0-1.27c.44-1.37,1-2.82,1.71-3.4.54-.42.91-.32,1.76-.06a4.64,4.64,0,0,0,2.35.27,8,8,0,0,0,3.12-1.32,11.54,11.54,0,0,1,1.41-.75c2.27-1,2.61-1.88,3.08-3.71L172,187c1-3.63,3.55-7,6-10.24a50.45,50.45,0,0,0,5-7.76.93.93,0,0,0-.12-1,32.18,32.18,0,0,0,5.08-5.34c.35-.37.69-.8,1-1.22a13.27,13.27,0,0,1,1.89-2.09c.29-.19.56-.34.82-.5a5.46,5.46,0,0,0,2.35-2.08,10.35,10.35,0,0,0,.54-1.19,2.33,2.33,0,0,1,1-1.28c.17-.15.35-.28.5-.4a4.1,4.1,0,0,0,1.17-1.21l.6-.09a5.25,5.25,0,0,0,2.32-.69,3,3,0,0,0,1.57-3.08,1.89,1.89,0,0,1,.3-1.36,3.1,3.1,0,0,1,1-.59,5,5,0,0,0,2.13-1.47,16.27,16.27,0,0,0,1.18-2.13,9,9,0,0,1,1.59-2.48,23,23,0,0,1,2.11-1.93,16.25,16.25,0,0,0,4-4.41,21.09,21.09,0,0,0,.95-2.82,11.38,11.38,0,0,1,1.75-4.17.92.92,0,0,0,.58-.37,6.37,6.37,0,0,1,.76-.84,1,1,0,0,0,0-1.36.83.83,0,0,0-.12-.08,29.3,29.3,0,0,1,2.52-6l.78-1.5c.67-1.42,1.79-8.6,1.4-12.06a.64.64,0,0,0,.1-.13.93.93,0,0,0,.4-1,2.91,2.91,0,0,1,.39-1.85,4.17,4.17,0,0,0,.51-1.78,3.8,3.8,0,0,0-.67-2C223.14,97.88,223,97.62,223.12,97.16Zm-.87-3.58a1.42,1.42,0,0,1-.24,1.5,4.76,4.76,0,0,0-.75,1.64,3.33,3.33,0,0,0,.56,2.69,2.1,2.1,0,0,1,.4,1,3,3,0,0,1-.34,1,6.61,6.61,0,0,0-.51,1.54h0a.89.89,0,0,0-.46,0,4.41,4.41,0,0,1-.43-.35,5.19,5.19,0,0,0-2.62-1.45c-1.87-.3-4.45.28-5.46,2a2.33,2.33,0,0,0-.27,1.66s-.07.12-.52.35a2.15,2.15,0,0,1-1.25.12,4.61,4.61,0,0,0-1.8.13,5.29,5.29,0,0,0-2.12,1.16,5.67,5.67,0,0,1-.92.64c-.5.23-.63.23-.77.2a3.34,3.34,0,0,0-1.12-.16h0c-2.84.17-6.46.82-7.63,3a3.19,3.19,0,0,0-.48,1.85,4.17,4.17,0,0,1-.83.31,5.79,5.79,0,0,1-1,.2,4.8,4.8,0,0,0-2.22.76,7.53,7.53,0,0,0-1.23,1.13c-.72.74-1.88,2-2.55,1.69l-.19-.1a3.94,3.94,0,0,1,.17-.46,4.71,4.71,0,0,0,.41-1.44c.29-2.2-1.42-3.11-2.73-3.55a3,3,0,0,0,1-1.69,3.4,3.4,0,0,0-.65-2.41,9.22,9.22,0,0,1-.45-.88,4.43,4.43,0,0,1,1.15-.22c.92-.09,2-.22,2.17-1.16.3-1.23-.83-1.91-1.5-2.32a3.82,3.82,0,0,1-.74-.51,1,1,0,0,0-.71-.69c-2.93-.69-4.37.3-5.92,1.35-.34.24-.73.5-1.14.75a10.38,10.38,0,0,1-3.3,1c-1.75.34-3.56.69-5,2.1a2.78,2.78,0,0,0-.63,1.25,3.12,3.12,0,0,1-.09.37c-.74.5-2.76.08-3.72-.11l-.24,0a6,6,0,0,1-2.31-.62.85.85,0,0,0,0-.39,1,1,0,0,0-.48-.67l.36-.32c1-.79,2.16-1.78,1.47-4a8,8,0,0,0-2.28-2.81c-1.83-1.69-2.21-2.3-1.75-2.85a.94.94,0,0,0,.16-1,1,1,0,0,0-.74-.62h0c.38-.32.94-.7,1.3-.94,1.1-.75,1.81-1.23,2.08-1.86a5.09,5.09,0,0,0,.09-2.31c-.2-2.08-.08-2.81.66-3a11.2,11.2,0,0,1,1,.85c.12.11.21.21.33.3a1.44,1.44,0,0,0,.81,1.33,2.69,2.69,0,0,0,1.42.21,2.35,2.35,0,0,1,.56,0c1.42.25,2.86.52,4.22-.23a6.77,6.77,0,0,0,2.27-2.46,7.77,7.77,0,0,1,1.15-1.51c1.3-1.06,5.4-2.54,6.68-1.7a4.88,4.88,0,0,1,.73,2c-.12.49-.76.94-1.44,1.42A6.55,6.55,0,0,0,180,88.14h0a6,6,0,0,0-.33.76c-.08.23-.17.49-.24.66a.92.92,0,0,0-.2.59v.07c.12,1.5.7,1.9,1.71,2.09a3.82,3.82,0,0,1,1.19.36,4.3,4.3,0,0,1,2.4,1.83,1,1,0,0,0,.68.56.93.93,0,0,0,.84-.23c1.32-1.2,3.4-2.22,4.79-1.7.79.36.84.73.91,1.93a8.62,8.62,0,0,0,.18,1.61.92.92,0,0,0,.48.65.89.89,0,0,0,.81,0,4.38,4.38,0,0,0,2.7-3.79c.17-.9.3-1.43.8-1.75a1,1,0,0,0,.43-.9,1.42,1.42,0,0,0,0-.2,2.84,2.84,0,0,1,.54-.14,1,1,0,0,0,.36-1.72,2.51,2.51,0,0,1-.78-1.56c0-.16,0-.29,0-.31a7.39,7.39,0,0,1,1.55.54,11.09,11.09,0,0,0,1.1.43l.47.12a22.75,22.75,0,0,0,3.67.71,1,1,0,0,0,.94.81h1a1,1,0,0,0,.92-.76,11,11,0,0,0,2-.63,7.81,7.81,0,0,1,.82-.3c.8-.29.83-.25,1.29,0a10.11,10.11,0,0,0,1.45.63,8.36,8.36,0,0,0,3.18.28c.5,0,1,0,1.5,0a3.64,3.64,0,0,1,.72.19,2.68,2.68,0,0,0,2,0,2.27,2.27,0,0,0,.23.57s0,0,0,0a.62.62,0,0,1-.31.52,1,1,0,0,0,.27,1.7l.37.12C221.75,92.43,222,92.5,222.25,93.58ZM183.34,61.93a1,1,0,0,0,1.14.2c1-.54,1.58-.11,2.83,1.09a6.61,6.61,0,0,0,2.06,1.56,8.64,8.64,0,0,0,2.83.37l1.06,0a12.73,12.73,0,0,0,4.54.28,26.93,26.93,0,0,1,4,.06,26.32,26.32,0,0,0,4.46.06l.52-.06a5.77,5.77,0,0,1,2.46,0,3.78,3.78,0,0,1,1.09,1,5.71,5.71,0,0,0,2.23,1.68,6.25,6.25,0,0,1,1,.55c.63.67.61,1.45.54,2.75a8.57,8.57,0,0,0,.22,3.15,4.85,4.85,0,0,0,1.51,2.45,4,4,0,0,1,.78.95,3.52,3.52,0,0,1,0,1.45,6.27,6.27,0,0,0-.06,1.53V83.9a1.23,1.23,0,0,0,.07.39,3,3,0,0,0,1.89,1.54,2.32,2.32,0,0,1,1,.58,1,1,0,0,1,.27.52.91.91,0,0,0-.45.22c-.27.22-.29.22-.87,0a5,5,0,0,0-1.14-.27,14.8,14.8,0,0,0-1.76,0,6.88,6.88,0,0,1-2.5-.2,6.4,6.4,0,0,1-1.15-.5,2.86,2.86,0,0,0-2.81-.11c-.31.1-.61.21-.89.32a9.26,9.26,0,0,1-1.69.54l-.08-.1a1,1,0,0,0-.92-.07c-.91.42-3.49-.23-4.73-.55l-.44-.12a6.48,6.48,0,0,1-.84-.33c-1.16-.5-2.5-1.09-3.43-.33a2.37,2.37,0,0,0-.76,2,4.2,4.2,0,0,0,.53,1.78,3.24,3.24,0,0,0-.93.66,1,1,0,0,0-.24.86,1.09,1.09,0,0,0,.13.34,5.51,5.51,0,0,0-.77,2.17,5.29,5.29,0,0,1-.4,1.38,3.37,3.37,0,0,0-2.06-3.24c-2-.75-4.29.15-6,1.35a6.67,6.67,0,0,0-2.79-1.83,6.3,6.3,0,0,0-1.54-.47h-.12v-.06c.1-.22.19-.48.3-.78s.12-.31.16-.42A5.82,5.82,0,0,1,183,87.92a4.76,4.76,0,0,0,2.23-2.6c.17-1-.64-3.49-1.54-3.94-2.44-1.65-7.64.69-9,1.82a10.05,10.05,0,0,0-1.5,1.92,5.59,5.59,0,0,1-1.57,1.82c-.82.44-1.76.25-3,0a2,2,0,0,0-.59-.07c-.19,0-.37,0-.58,0a1,1,0,0,0-.48-.92c-.11-.09-.28-.26-.47-.43s-.55-.5-.81-.71a5.47,5.47,0,0,0,1.48-1.51c.42-.61.91-1.18,1.38-1.75s1-1.22,1.45-1.81a6.25,6.25,0,0,0,1.19-2.46c.12-.37.24-.77.43-1.25a4.76,4.76,0,0,1,1.29-1.58,7.11,7.11,0,0,0,1.45-1.7,3.87,3.87,0,0,0,.72-2.47,6.33,6.33,0,0,1,.08-1,7.11,7.11,0,0,1,1.58-2.75c.45-.62.8-1.19,1.13-1.68,1-1.64,1.45-2.33,3.81-2.65A11.32,11.32,0,0,0,183.34,61.93ZM120.27,32c1.64-1.28,1.64-1.26,3.47-.62a4.06,4.06,0,0,1,.59.29,3.12,3.12,0,0,0,1.71.5,3.52,3.52,0,0,0,1.59,1.78.92.92,0,0,0,.88,0,.94.94,0,0,0,.5-.73,5.8,5.8,0,0,0-.12-1.55c-.17-1-.2-1.43.05-1.6a3.17,3.17,0,0,1,1.59,0,6,6,0,0,0,1.89,0,7.86,7.86,0,0,0,1.45-.37,3.35,3.35,0,0,1,2.6,0c1.2.38,2.4.79,3.58,1.21l2.23.77a26,26,0,0,1,5.87,3.34,36.31,36.31,0,0,0,4.63,2.84c4.91,2.21,8.26,4.12,11.9,7.89a36.41,36.41,0,0,0,4.58,3.72l.59.44a10.11,10.11,0,0,1,2.69,3.81l.31.63c1,1.94,2.93,2.64,4.63,3.25a8.59,8.59,0,0,1,3.28,1.74,12.77,12.77,0,0,0,1.24,1c-.16,0-.36.06-.59.08-3.25.46-4.07,1.75-5.19,3.53-.3.48-.63,1-1,1.53a8.77,8.77,0,0,0-2,3.54,7.62,7.62,0,0,0-.12,1.37,2.11,2.11,0,0,1-.4,1.47,5.49,5.49,0,0,1-1.16,1.33,6.39,6.39,0,0,0-1.74,2.24,12,12,0,0,0-.5,1.45,4.3,4.3,0,0,1-.9,1.84c-.41.6-.9,1.16-1.37,1.73s-1,1.23-1.49,1.9a4.65,4.65,0,0,1-2,1.62,15.24,15.24,0,0,0-1.44.84A.93.93,0,0,0,161.8,86a7.73,7.73,0,0,0-.23,3.4,9.87,9.87,0,0,1,.08,1.34,9.54,9.54,0,0,1-1.41,1.06c-1.49,1-2.77,1.86-2.51,3a1.45,1.45,0,0,0,.81,1c-.34,1.63,1.28,3.12,2.51,4.28a7.81,7.81,0,0,1,1.78,2c.28.88.08,1.08-.87,1.87a8.15,8.15,0,0,0-1.75,1.77.78.78,0,0,0-.09.21,4.94,4.94,0,0,0-2.32.84,4.75,4.75,0,0,0-1.42,2.36s0,.07,0,.09a4.37,4.37,0,0,0-1.46-2.09,3.5,3.5,0,0,0-1.85-.66,1.39,1.39,0,0,1-1.19-.63c-.3-.4-.56-.77-.79-1.09-1.59-2.26-2.38-3.19-5.9-3.64a15.21,15.21,0,0,0-5.45-.13,17.85,17.85,0,0,0-2.11.55,9.94,9.94,0,0,1-2.41.56,4.87,4.87,0,0,1-2-.6,4.5,4.5,0,0,0-1.44-.5c.16-.35.32-.7.48-1.09s.46-1,.73-1.57c.72-1.49,1.56-3.18,1.46-4.54a2.57,2.57,0,0,0-2.72-2.73,3.84,3.84,0,0,1-1.09-.21c-.83-.37-.91-.94-1.05-2.19a8.62,8.62,0,0,0-.52-2.35c0-.14,0-.27,0-.42a7.85,7.85,0,0,0-.08-2.08,2.57,2.57,0,0,0-1.46-1.67.84.84,0,0,1-.42-.33c-1.12-1.46-.82-4.32-.6-6.61.08-.71.14-1.37.17-1.93a41,41,0,0,0,0-5.65,10.35,10.35,0,0,0-1.13-3.42,9.19,9.19,0,0,1-.86-2.38,5.92,5.92,0,0,1,.2-1.75,5.66,5.66,0,0,0,0-2.9c-.09-.37-.17-.67-.24-.93a4.07,4.07,0,0,1-.22-1.94c0-.31.08-.57.12-.81a3.88,3.88,0,0,0-.92-3.74c-.23-.32-.47-.62-.7-.9a6.28,6.28,0,0,1-1.49-2.7c-.09-.44-.13-.78-.17-1.06a3.93,3.93,0,0,0-1.49-2.83c-.31-.28-.55-.48-.74-.63l-.29-.25c0-.08-.08-.41-.17-.95a7.86,7.86,0,0,1,.76-3.56c.58-1.59,1.16-3.24.61-4.67h0ZM41.61,146.16a4.61,4.61,0,0,0-1.51-.06,2,2,0,0,1-1.48-.28,4.86,4.86,0,0,1-1.26-2.44,7.47,7.47,0,0,0-1.94-3.59,8.85,8.85,0,0,0-.42-2,5.76,5.76,0,0,1-.34-1.72,1,1,0,0,0-1-1c-1.73,0-1.77-.31-2-1.63a6.72,6.72,0,0,0-1-2.93,5,5,0,0,0-2.61-1.63l-.9-.32a3.15,3.15,0,0,1,.35-.29,4.15,4.15,0,0,0,.94-.94,9.53,9.53,0,0,0,1.26-4,5,5,0,0,0,0-1.09,4.5,4.5,0,0,1,0-.79,12.72,12.72,0,0,1,2.86-1.29l.27,0a2.56,2.56,0,0,0,.59.62l.23.32a2.34,2.34,0,0,0,1.68,1.28,2,2,0,0,0,1.6-.78c.93-1.06.33-3.17-1.19-7-.17-.41-.29-.74-.35-.91-.52-1.78-1.24-2.81-2.26-3.26-1.43-.63-3,.1-4.58.88-.45.21-.93.44-1.45.67-.94.44-1.48,0-2.73-2.65a10,10,0,0,0-2-3.26c-.38-.36-.68-.61-.95-.83A3.51,3.51,0,0,1,20.36,104a6.06,6.06,0,0,1-.32-.84,7,7,0,0,0-.74-1.62,9.26,9.26,0,0,0-2.44-2.27c2.76-2.59,2.74-5.75,2.73-9.35v-.79c0-1.4.1-2.94.22-4.52.28-4.11.6-8.77-.91-12.37a5.16,5.16,0,0,0-4.46-3.57,8.83,8.83,0,0,0-1.72-.08,3.38,3.38,0,0,1-1.84-.31,4.63,4.63,0,0,1-.76-.53,3.94,3.94,0,0,0-2-1,5.53,5.53,0,0,0-1.78.12,6,6,0,0,1-.75.14c-.35,0-1-.17-1.59-.29l-.81-.16c.14-.23.29-.46.43-.7a9,9,0,0,1,.83-1.27,13.65,13.65,0,0,1,3-2.34,12.09,12.09,0,0,0,3.74-3.19c.23-.3.43-.63.63-.94.43-.7.72-1.15,1.14-1.34a4.22,4.22,0,0,1,.85,0,4.51,4.51,0,0,0,1.89-.22c2.4-.83,3.45-2.79,4.38-4.51a16.75,16.75,0,0,1,1.08-1.82c.48-.72,1-1.39,1.57-2a18.19,18.19,0,0,0,2.59-3.78A8.65,8.65,0,0,0,26,42.32a6.1,6.1,0,0,1,.66-1.92,2.53,2.53,0,0,1,.69-.57,5.24,5.24,0,0,0,1.13-1,8.18,8.18,0,0,0,1.13-2.52,7,7,0,0,1,.72-1.7,5,5,0,0,1,1-.9,4.4,4.4,0,0,0,1.49-1.51,12,12,0,0,0,1-3.27,4.68,4.68,0,0,0-.15-1.63,2.66,2.66,0,0,1-.11-1c.05-.36.27-.58.71-1a4.5,4.5,0,0,0,1.05-1.25,6.8,6.8,0,0,0,.66-2.2,6.07,6.07,0,0,1,.49-1.73,12.55,12.55,0,0,1,.86-1.55,15.33,15.33,0,0,0,1-1.94,9,9,0,0,0,.2-1A2.37,2.37,0,0,1,39,14.46a1.38,1.38,0,0,1,.43-.45A1.79,1.79,0,0,0,40,11.49a.88.88,0,0,0-1.21-.43.81.81,0,0,0-.43.53,6,6,0,0,0-1.13-.6l-.45-.2,0,0a4.18,4.18,0,0,1,.81-.31,4,4,0,0,0,1.33-.58,3.91,3.91,0,0,0,1.35-2l.39-1.49a16.17,16.17,0,0,0,.47-3.89,14.34,14.34,0,0,1,4.27.6c.6.14,1.16.27,1.87.4,2,.34,4.69.83,6,1.88a2.22,2.22,0,0,1,.34.51,3.64,3.64,0,0,0,1.69,1.71,6.87,6.87,0,0,0,2.12.5,11.74,11.74,0,0,1,1.21.2,3.58,3.58,0,0,1,2.54,1.69,11.85,11.85,0,0,0,1.34,1.53,5.45,5.45,0,0,0,1.19.91,1.66,1.66,0,0,1,.84.93,4.88,4.88,0,0,1,.36,1.18,4.66,4.66,0,0,0,1,2.24l.56.7c1.35,1.67,2.19,2.86,1.47,4.22a4.47,4.47,0,0,1-1.82,1.48c-1.1.63-2.48,1.42-2.74,3.14a6.54,6.54,0,0,0,.16,2.86,5.46,5.46,0,0,1,.11,2.65,1,1,0,0,0,.33,1.06,1,1,0,0,0,1.12,0q.61-.4,1.26-.78a23.24,23.24,0,0,0,2.27-1.49,8.24,8.24,0,0,0,1.49-1.73,5.89,5.89,0,0,1,1.35-1.53c.54-.28.92-.14,1.63.2a3.06,3.06,0,0,0,3.12.14A3.43,3.43,0,0,0,77.5,26a3.65,3.65,0,0,1,.62-1,5.38,5.38,0,0,1,1.58-.32l.78-.09c1.14-.21,2.22-.47,3.27-.74s1.8-.46,2.74-.64c2.51-.55,3.08-.42,5,1.15,2.34,2.07,5.94,2.59,8.54,3a16.94,16.94,0,0,0,3.86,0c2-.12,4.38-.25,5.25.64a1.21,1.21,0,0,1,.29.48,1,1,0,0,0-.6.93.92.92,0,0,0,.65.84c-.33,1.63-1.45,2.42-3,3.48l-1.34,1c-.64.54-1.26,1.16-1.88,1.8a21.15,21.15,0,0,1-2.49,2.24,10.29,10.29,0,0,1-1.56.7,12.71,12.71,0,0,0-1.87.84c-2.07,1.58-3.15,4.13-4.2,6.59-.38.89-.76,1.77-1.16,2.56-.2.37-.41.71-.59,1a5.4,5.4,0,0,0-1,4.53,19.92,19.92,0,0,0,.72,2,7.37,7.37,0,0,1,.75,3.5c0,.66,0,1.36,0,2.08,0,2,.06,4.15-.86,5.74a10.18,10.18,0,0,1-.76,1.19,6.24,6.24,0,0,0-1.35,3.28l-.1,1.28c-.21,2.62-.38,4.94.59,7.54a1.06,1.06,0,0,0-.3.26,1,1,0,0,0,.19,1.35,7.59,7.59,0,0,0,1.85.92,4.32,4.32,0,0,1,1.36.67l.47.39h0a7.15,7.15,0,0,0-.07,1c.22,3.12.17,3.23-2,4.14l-.34.13c-3.18,1.29-5.3,2.14-8.4.86-1.59-.63-5.31-2.15-8.17-.23a50.19,50.19,0,0,0-5.21,5.21,25.81,25.81,0,0,1-6.24,5,18.33,18.33,0,0,1-5.15,1.71,35.74,35.74,0,0,0-3.49.93c-4.14,1.42-4.65,5.64-5.09,9.37-.14,1.17-.29,2.28-.49,3.2a13.88,13.88,0,0,1-2,4,9.36,9.36,0,0,0-2.08,5.23c-.06.39-.13.81-.19,1.18a9.78,9.78,0,0,1-.5,1.2,5.43,5.43,0,0,0-.77,2.4,3.3,3.3,0,0,0,.3,1.79,6.16,6.16,0,0,1,.2.61,5.75,5.75,0,0,1,0,1.09,7.22,7.22,0,0,0,0,1.47,10,10,0,0,0,.78,2.69,9.86,9.86,0,0,1,.59,1.77,6.84,6.84,0,0,1-.39,2.36A8.5,8.5,0,0,0,43.8,145a10.72,10.72,0,0,0,.24,2l.12.59a7.27,7.27,0,0,1-1.14-.64A6.52,6.52,0,0,0,41.61,146.16Zm76.58-23.86a3.21,3.21,0,0,0-.51,1.43,1.7,1.7,0,0,1-.21.64,9.75,9.75,0,0,1-3.29,3.38c-.09-.09-.17-.18-.27-.27a.93.93,0,0,0-1.17-.07.89.89,0,0,0-.78,0,1,1,0,0,0-.41,1.3,2.12,2.12,0,0,0,1.88,1.17.85.85,0,0,1,.06.72c-.63,1.4-4.79,2.35-6.5,2.19l-.78-.07a6.25,6.25,0,0,0-3.82.53c-.46.23-.84.47-1.27.72a8.3,8.3,0,0,1-2.25,1.07l-.54.13a8.45,8.45,0,0,1-2.94.39,2.94,2.94,0,0,1-1.15-.91,4.87,4.87,0,0,0-1.64-1.3,5.93,5.93,0,0,0-3.68,0,5.25,5.25,0,0,1-1.88.22c-.5-.08-.65-.27-1-.81a4.19,4.19,0,0,0-1.38-1.43,1,1,0,0,0-1.23.21,6.63,6.63,0,0,0-.82,1.32,6.14,6.14,0,0,1-1,1.53,5.91,5.91,0,0,1-1.37.76c-1.08.49-2.19,1-2.43,2-.55,1.79.86,3.15,1.9,4.15a4,4,0,0,1,1,1.13c.17.52-.76,2.44-1.17,3.25a15.08,15.08,0,0,0-.67,1.52,7,7,0,0,1-2.55,3.89,7.19,7.19,0,0,1-3.63,1.78,4.36,4.36,0,0,1-1.17-.22,5.18,5.18,0,0,0-2-.27,3.14,3.14,0,0,0-2.12,1.12,2.52,2.52,0,0,1-.5.46,16.47,16.47,0,0,1-3.84,2.46c-2.26.87-3.67.3-5.81-.6-.5-.21-1-.43-1.62-.65-1.29-.43-1.26-.73-1.1-1.83a4.08,4.08,0,0,0-.86-3.63c-1.5-1.61-5-1.81-7.37-1.23a11.88,11.88,0,0,0-.24-1.83,9.05,9.05,0,0,1-.22-1.63,7.18,7.18,0,0,1,.4-2,8.34,8.34,0,0,0,.46-3.13,10.83,10.83,0,0,0-.72-2.26,7.82,7.82,0,0,1-.64-2.2,5.87,5.87,0,0,1,0-1.11,7,7,0,0,0,0-1.52,6.44,6.44,0,0,0-.3-1,1.78,1.78,0,0,1-.19-1,4,4,0,0,1,.58-1.71,10.23,10.23,0,0,0,.64-1.6c.09-.49.16-.93.23-1.33a7.52,7.52,0,0,1,1.73-4.37,15.4,15.4,0,0,0,2.27-4.69,31.43,31.43,0,0,0,.54-3.47c.43-3.47.81-6.76,3.8-7.78a30.25,30.25,0,0,1,3.32-.89A20.21,20.21,0,0,0,63.52,103a27.94,27.94,0,0,0,6.72-5.45,49.3,49.3,0,0,1,4.89-4.91c1.72-1.15,4.29-.35,6.31.47,3.87,1.58,6.63.44,9.84-.86l.34-.14c3.2-1.32,3.48-2.38,3.22-6,0-.31,0-.52,0-.68.17-1-.17-1.39-1.13-2.16a5.74,5.74,0,0,0-1.91-1l-.07,0a.66.66,0,0,0-.06-.2c-1.39-2.7-1.21-5-1-7.9l.1-1.29a4.28,4.28,0,0,1,1-2.3,10.68,10.68,0,0,0,.86-1.38c1.17-2,1.14-4.48,1.11-6.67,0-.68,0-1.34,0-2A9.26,9.26,0,0,0,93,56.27a15.57,15.57,0,0,1-.65-1.8c-.3-1.28.08-1.91.77-3,.21-.35.43-.71.64-1.13.43-.83.83-1.75,1.23-2.69,1-2.24,1.94-4.55,3.49-5.74a10,10,0,0,1,1.51-.66,10.31,10.31,0,0,0,1.92-.89,19.41,19.41,0,0,0,2.79-2.5c.6-.58,1.16-1.16,1.74-1.64.42-.32.83-.62,1.24-.91,1.64-1.15,3.33-2.37,3.76-4.91,2.51.28,6.17,1.29,6.73,2.49.35.74-.13,2.09-.61,3.39a9.14,9.14,0,0,0-.81,4.71c.21,1.27.29,1.5,1.11,2.18.17.14.39.32.64.55.79.8.81.9.91,1.69,0,.32.09.69.19,1.19a8,8,0,0,0,1.88,3.51c.2.27.43.53.66.85a2.12,2.12,0,0,1,.57,2.28c0,.25-.1.54-.15.91a6.41,6.41,0,0,0,.28,2.69c.08.24.15.52.26.91a3.86,3.86,0,0,1-.07,2,7.64,7.64,0,0,0-.21,2.32,9.44,9.44,0,0,0,1,3,9.38,9.38,0,0,1,1,2.8,39.8,39.8,0,0,1,0,5.35c0,.55-.1,1.18-.17,1.85-.27,2.64-.61,5.93,1,8a2.7,2.7,0,0,0,1.13.91c.25.12.34.16.45.43a7.32,7.32,0,0,1,0,1.49h0a1,1,0,0,0,0,.91s0,0,0,.08a.83.83,0,0,0,.18.42,7.39,7.39,0,0,1,.3,1.66c.14,1.3.32,2.91,2.2,3.74a5.48,5.48,0,0,0,1.64.36c.94.1,1,.1,1,.94s-.67,2.37-1.26,3.57c-.31.63-.6,1.23-.79,1.71a21.49,21.49,0,0,1-1.61,3.15l-.31.29a1,1,0,0,0-.26.76.81.81,0,0,0,0,.41.89.89,0,0,0,.49.61c.51.25.6,1.48.69,2.57a10.42,10.42,0,0,0,.31,2.19c1,3.27-.77,5.47-4.13,8.15-.56.41-1.09.86-1.6,1.31a16.06,16.06,0,0,1-2.24,1.71,9.46,9.46,0,0,1-1,.4A4.94,4.94,0,0,0,118.19,122.3Zm76.73,30c-.18.15-.38.3-.57.47a4.16,4.16,0,0,0-1.54,2.07,7.3,7.3,0,0,1-.42.92,3.62,3.62,0,0,1-1.61,1.35c-.31.18-.62.36-1,.62a14.79,14.79,0,0,0-2.28,2.44c-.32.4-.63.8-1,1.2-3.62,4.6-6.61,6.93-8.87,6.93h-.29c-1.26-.12-2.34-1-3.25-2.75l-.57-1.18c-.64-1.3-2.5-5.09-2.65-6.32a8.3,8.3,0,0,1,1.34.3,4.92,4.92,0,0,0,2.36.31c2-.54,2-2.07,2.07-3.31a11.21,11.21,0,0,1,.12-1.61c.06-.47.15-1.05.25-1.68.41-2.45.93-5.52-.1-7.44a3.35,3.35,0,0,0-2.42-1.69,2.5,2.5,0,0,1-1.29-.59,3.69,3.69,0,0,1-.19-2.25c.11-1.17.21-2.38-.62-3.2l0,0c.44.28.87.59,1.3.9a15.46,15.46,0,0,0,2.66,1.61,11,11,0,0,1,1.92,1.2,10,10,0,0,0,2.6,1.55,4.59,4.59,0,0,0,2.07.12,3,3,0,0,1,1.41,0c.92.22,1.61,1.15,2.35,2.12a9.55,9.55,0,0,0,2,2.19A25.83,25.83,0,0,0,190.9,148c1.5.88,4.21,2.47,4.65,3.4a.9.9,0,0,0-.16.56A5.57,5.57,0,0,1,194.92,152.33Zm18.3-21.23a17.79,17.79,0,0,1-.83,2.5,14.8,14.8,0,0,1-3.56,3.79c-.82.71-1.6,1.39-2.23,2.05a10.07,10.07,0,0,0-1.92,3,16,16,0,0,1-1,1.84,3.32,3.32,0,0,1-1.36.84,4.44,4.44,0,0,0-1.73,1.11,3.68,3.68,0,0,0-.77,2.63c0,.78,0,1-.68,1.44a4.25,4.25,0,0,1-1.55.4l-.25,0c-.69-1.47-2.79-2.8-5.44-4.35a23.18,23.18,0,0,1-2.09-1.31,8.14,8.14,0,0,1-1.61-1.79c-.86-1.15-1.85-2.45-3.37-2.81a4.57,4.57,0,0,0-2.13-.1,3,3,0,0,1-1.21,0,8.84,8.84,0,0,1-2.1-1.28,12.31,12.31,0,0,0-2.32-1.43,12.76,12.76,0,0,1-2.28-1.41,11,11,0,0,0-3.8-2,10.06,10.06,0,0,0-.95-2.1c.34-.15.71-.3,1.1-.44a7,7,0,0,0,2.89-1.58,4.59,4.59,0,0,0,1-1.54c.26-.61.37-.86,1.16-1,2.37-.56,3.45.72,4.83,2.33a11.87,11.87,0,0,0,2.48,2.37c1.44,1,3.6,1,5.54.91.66,0,1.27,0,1.86,0s1,0,1.52,0,1.32,0,2,0a12.82,12.82,0,0,0,2.73-.23c1.28-.24,6.11-3.23,7-5.87a2.69,2.69,0,0,0,.12-1.21l.38-.15a6.44,6.44,0,0,1,2.5-.62,2.43,2.43,0,0,1,.66.32,4.34,4.34,0,0,0,1.74.69,14.94,14.94,0,0,0,3,0,15.55,15.55,0,0,1,2.73,0l.19,0A12.42,12.42,0,0,0,213.22,131.1Zm6.39-14.67-.75,1.47a30.57,30.57,0,0,0-2.7,6.47,4.76,4.76,0,0,0-.69-.15,15.39,15.39,0,0,0-3.11,0,14.19,14.19,0,0,1-2.61,0,2.9,2.9,0,0,1-1-.44,4.18,4.18,0,0,0-1.27-.55,6.94,6.94,0,0,0-3.55.72,8.16,8.16,0,0,1-1.2.41,1,1,0,0,0-.71.66.91.91,0,0,0,.22.93c.07.08.18.2.06.54-.58,1.77-4.66,4.42-5.54,4.58a19.14,19.14,0,0,1-4.29.15,8.06,8.06,0,0,0-1.53,0c-.58,0-1.25,0-2,0-1.57,0-3.49.07-4.44-.58a10.39,10.39,0,0,1-2.08-2c-1.45-1.68-3.29-3.77-6.74-2.95a3.21,3.21,0,0,0-2.46,2.14,3,3,0,0,1-.63,1,5.88,5.88,0,0,1-2.13,1.08,13.62,13.62,0,0,0-1.52.65,12.52,12.52,0,0,0-3.49-3l-1.06-.71c-2.51-1.68-5.65-3.78-8.57-4.62-2.19-.7-6.78-1.07-9-.09a20.65,20.65,0,0,0-5,3.42,6.55,6.55,0,0,0-1.15,1.89,4.14,4.14,0,0,1-.93,1.47,1.82,1.82,0,0,1-.24.14l-.24-.1a3.53,3.53,0,0,0-1.41-.44c-2.39-.18-3.93,1-4.47,3.45a6.9,6.9,0,0,0-.23,1.59l-.7.24a6.37,6.37,0,0,1-2.79.13,2.89,2.89,0,0,0,.24-3.21,2.27,2.27,0,0,0-1.12-.91.8.8,0,0,1-.25-.16,1.17,1.17,0,0,1,.06-.2,3.2,3.2,0,0,0,.09-.67,8.1,8.1,0,0,1,0-1.11,3.5,3.5,0,0,0-1.23-3.42c-1.24-1-4-1.3-6.42-1.5h0l.4-.14a9.9,9.9,0,0,0,1.29-.51,16.67,16.67,0,0,0,2.57-2c.49-.42,1-.84,1.53-1.24,3.07-2.45,6.24-5.47,4.8-10.22a10.35,10.35,0,0,1-.24-1.8,6.4,6.4,0,0,0-.91-3.44c.79-.68,1.09-.55,1.86-.17a6.53,6.53,0,0,0,2.83.79,10.69,10.69,0,0,0,3-.64,15.6,15.6,0,0,1,1.83-.48,12.85,12.85,0,0,1,4.84.12c2.89.37,3.27.9,4.65,2.85l.81,1.12a3.2,3.2,0,0,0,2.5,1.39,1.71,1.71,0,0,1,1,.34,3.4,3.4,0,0,1,.84,1.41,6.56,6.56,0,0,0,.93,1.63.92.92,0,0,0,.72.33,1.15,1.15,0,0,0,.53-.13,3.92,3.92,0,0,0,1.38-2.19,3.21,3.21,0,0,1,.75-1.43,4.24,4.24,0,0,1,2.24-.56h.07a7.18,7.18,0,0,0,4.19,1.6c1.51.31,3.76.76,5.24-.23a2.49,2.49,0,0,0,.83-1.46,1.1,1.1,0,0,1,.11-.35c1-1,2.46-1.27,4-1.57a12.28,12.28,0,0,0,3.94-1.27c.44-.28.85-.55,1.22-.81,1.38-.94,2.18-1.51,4-1.16a3.75,3.75,0,0,0,1.25,1,3,3,0,0,0-2.3,1,2.75,2.75,0,0,0,.33,2.95,1.92,1.92,0,0,1,.41,1.18c0,.13-.28.41-.49.62a6.78,6.78,0,0,0-.59.66,1,1,0,0,0-1,.58,1.3,1.3,0,0,0,0,.89,1.08,1.08,0,0,0,.36.4c0,.13,0,.26.06.4a1,1,0,0,0,.93.74.9.9,0,0,1,.26,0,1,1,0,0,0,.63-.5c1.24.39,1.61.8,1.5,1.55a3.08,3.08,0,0,1-.27.92c-.28.69-.86,2.11.93,3a2.33,2.33,0,0,0,1.08.27c1.45,0,2.78-1.38,3.71-2.37a7.72,7.72,0,0,1,.9-.84,3,3,0,0,1,1.44-.47,7.24,7.24,0,0,0,1.27-.27c1.35-.39,1.95-.75,2.09-1.93a3,3,0,0,1,.36-1.15c.56-1,2.87-1.79,6-2a1.83,1.83,0,0,1,.55.08,2.7,2.7,0,0,0,2.12-.3,8.7,8.7,0,0,0,1.26-.85,3.75,3.75,0,0,1,1.46-.84,3.48,3.48,0,0,1,1.18-.06,3.76,3.76,0,0,0,2.33-.37c1.28-.69,1.5-1.37,1.44-2.25a.6.6,0,0,1,.06-.47c.46-.77,2.11-1.25,3.52-1a3.74,3.74,0,0,1,1.63,1,6.43,6.43,0,0,0,1.64,1.17C221.16,107.66,220.31,114.92,219.61,116.43Z"/></g></g></svg>