<svg xmlns="http://www.w3.org/2000/svg" viewBox="0 0 457.91 312.34"><defs><style>.cls-1{fill:#008d36;}.cls-1,.cls-2{stroke:#fff;stroke-miterlimit:10;}.cls-2{fill:#063;}</style></defs><title>Norte</title><g id="Camada_2" data-name="Camada 2"><g id="Capa_1" data-name="Capa 1"><path class="cls-1" d="M457.14,258c.44-1.24.35-1.43-.29-2.19a2,2,0,0,0-1.48-.44,6.85,6.85,0,0,1-1.14-.63,7,7,0,0,0-1.41-.77,4.83,4.83,0,0,0-1.5-.06,2,2,0,0,1-1.49-.27,4.85,4.85,0,0,1-1.25-2.45,7.54,7.54,0,0,0-1.95-3.58,8.85,8.85,0,0,0-.42-2,5.76,5.76,0,0,1-.34-1.72,1,1,0,0,0-1-1c-1.72,0-1.77-.32-2-1.63a6.72,6.72,0,0,0-1-2.93,5,5,0,0,0-2.61-1.63c-.31-.11-.78-.27-.89-.32a2.22,2.22,0,0,1,.34-.3,4.08,4.08,0,0,0,.94-.93,9.44,9.44,0,0,0,1.26-4,5.1,5.1,0,0,0,0-1.1,3.4,3.4,0,0,1,0-.78,12.92,12.92,0,0,1,2.85-1.3h.27a2.38,2.38,0,0,0,.59.61l.23.33a2.37,2.37,0,0,0,1.68,1.28,2,2,0,0,0,1.6-.79c.93-1,.33-3.16-1.18-6.95-.18-.41-.3-.75-.36-.91-.52-1.78-1.24-2.81-2.26-3.26-1.43-.63-3,.1-4.58.87-.45.22-.93.45-1.45.67-.94.45-1.48,0-2.72-2.64a10.2,10.2,0,0,0-2-3.26c-.38-.37-.68-.61-.95-.84a3.39,3.39,0,0,1-1.12-1.27,5.74,5.74,0,0,1-.32-.85,7,7,0,0,0-.74-1.62,9.24,9.24,0,0,0-2.44-2.26c2.76-2.6,2.74-5.75,2.73-9.36V197c0-1.41.1-2.94.22-4.53.28-4.11.6-8.76-.91-12.36a5.16,5.16,0,0,0-4.46-3.57,8.85,8.85,0,0,0-1.71-.09,3.26,3.26,0,0,1-1.84-.3,4.36,4.36,0,0,1-.77-.53,3.86,3.86,0,0,0-2-1,5.53,5.53,0,0,0-1.78.12,5.63,5.63,0,0,1-.75.13c-.35,0-1-.17-1.59-.29l-.81-.16c.14-.22.29-.45.43-.69a9,9,0,0,1,.83-1.27,13.65,13.65,0,0,1,3-2.34A12.09,12.09,0,0,0,422.4,167c.23-.31.43-.63.63-.94.43-.71.72-1.15,1.14-1.34a4.22,4.22,0,0,1,.85,0,4.5,4.5,0,0,0,1.89-.22c2.4-.83,3.45-2.79,4.38-4.51a16.75,16.75,0,0,1,1.08-1.82c.49-.72,1-1.39,1.57-2.05a18.46,18.46,0,0,0,2.59-3.78,8.65,8.65,0,0,0,.68-2.11,5.92,5.92,0,0,1,.66-1.92,2.36,2.36,0,0,1,.69-.57,5.24,5.24,0,0,0,1.13-1,8.29,8.29,0,0,0,1.13-2.52,6.85,6.85,0,0,1,.72-1.7,4.73,4.73,0,0,1,1-.9,4.58,4.58,0,0,0,1.49-1.51,12,12,0,0,0,1-3.28,4.62,4.62,0,0,0-.15-1.62,2.66,2.66,0,0,1-.11-1c.05-.36.27-.59.71-1a4.45,4.45,0,0,0,1-1.24,7,7,0,0,0,.66-2.2,6.41,6.41,0,0,1,.49-1.73,12.66,12.66,0,0,1,.86-1.56,13.46,13.46,0,0,0,1-1.93,7.28,7.28,0,0,0,.2-1,2.37,2.37,0,0,1,.36-1.16,1.38,1.38,0,0,1,.43-.45,1.79,1.79,0,0,0,.56-2.52.88.88,0,0,0-1.22-.43.81.81,0,0,0-.43.53,5.72,5.72,0,0,0-1.13-.6l-.44-.2s0,0,0,0a3.62,3.62,0,0,1,.81-.31,4.17,4.17,0,0,0,1.33-.58,3.89,3.89,0,0,0,1.35-2.06l.39-1.49a15.38,15.38,0,0,0,.47-4,3.54,3.54,0,0,0-2.29-3.76l-.6-.33a8.27,8.27,0,0,1-1.39-1,8.22,8.22,0,0,0-2.39-1.46,4.67,4.67,0,0,0-1.6-.13,2.89,2.89,0,0,1-1.25-.13,1.92,1.92,0,0,1-1-.68,4,4,0,0,0-1.17-1,7.48,7.48,0,0,0-4.25-.79c-.64,0-1.31,0-1.94-.07s-1.46-.15-2.21-.19a19.45,19.45,0,0,1-2.68-.29l-1.11-.34c-1.39-.46-2.83-.95-4.6-.12a11.25,11.25,0,0,0-4,3.2,7.33,7.33,0,0,1-2.63,2.46l-.61.4a9.61,9.61,0,0,0-2.45,2.55c-.3.4-.6.82-.93,1.18a10.75,10.75,0,0,1-3,1.83,20.08,20.08,0,0,0-2,1.05l-.78.55A24.29,24.29,0,0,0,402.9,117a9,9,0,0,0-1,1.53,7.16,7.16,0,0,1-.84,1.3,2.94,2.94,0,0,0-.83-3.08,1.17,1.17,0,0,0-.28-.13,3,3,0,0,0,1.23-.63,4.3,4.3,0,0,0,.9-2,3.25,3.25,0,0,0,.2-1l.17.31a2,2,0,0,0,2.37,1.37c1.48-.36,1.59-1.81,1.68-2.59a2.25,2.25,0,0,1,0-.35,2,2,0,0,0-.24-1.37c0-.1-.14-.27-.17-.13.2-.51,1.17-1.11,1.76-1.47l.45-.29c2.88-1.72,4.18-4,5.68-6.51l.74-1.26c.21-.34.41-.63.57-.89,1.15-1.73,1.65-2.72-.38-4.46A9.32,9.32,0,0,0,412.81,94a14.48,14.48,0,0,1-1.32-.69c-.33-.17-.66-.37-1-.56a7.86,7.86,0,0,0-3.19-1.28,6,6,0,0,0-2.1.22,4,4,0,0,1-1.61.17,4.87,4.87,0,0,1-1-.41,5.25,5.25,0,0,0-1.88-.61,5,5,0,0,0-1.77.4,5.56,5.56,0,0,1-.76.24,10.05,10.05,0,0,1-1.83,0,9.5,9.5,0,0,0-2.3.09,7,7,0,0,0-2.51,1.26,4.16,4.16,0,0,1-2,1,3.27,3.27,0,0,1-1.55-.48,4.1,4.1,0,0,0-2.65-.61c-2.7.52-2.74,2.86-2.76,4.25,0,.69,0,1.45-.25,1.65a4.17,4.17,0,0,1-1.86.11,4.26,4.26,0,0,0-2.48.29,9.93,9.93,0,0,1-1.1,0,4.41,4.41,0,0,0-3.2.85.95.95,0,0,0,.41,1.64l.38.13c1.83.45,5.2,1.29,6.19,2.56.08.11.14.2.17.23a2.7,2.7,0,0,1-.33.22,2.3,2.3,0,0,0-1.24,1.47,2,2,0,0,0,.44,1.57,2.55,2.55,0,0,0,1.43.9,5.21,5.21,0,0,1,.54.2,4.18,4.18,0,0,1-1,.08,4.88,4.88,0,0,0-1.24.12,4.21,4.21,0,0,0-2.9,1.41,2.33,2.33,0,0,0-.31,1.92c.36,1.14,1.56,1.43,2.35,1.62l.5.14a1,1,0,0,0,.48.62.49.49,0,0,0,.22.09,2.1,2.1,0,0,0,.13.26c1.11,2.4,1.6,2.68,4.08,3.37a3.89,3.89,0,0,1,.76.33,4.64,4.64,0,0,0,2,.57c.17,0,.34,0,.49,0a2.16,2.16,0,0,0,.87-.53,1,1,0,0,0-.12.37c0,.33-.06.48-.05.5a2.45,2.45,0,0,1-.37.07,5.28,5.28,0,0,0-1,.18,8.29,8.29,0,0,0-2.4,1.19,5.32,5.32,0,0,1-1.49.79c-.82.22-3.69-1.63-4.53-2.72a6.74,6.74,0,0,1-.86-2.38,9,9,0,0,0-1.17-3.13c-.15-.19-.32-.39-.48-.57a2.94,2.94,0,0,1-.72-1,1.6,1.6,0,0,1,.12-.63,3.44,3.44,0,0,0,.16-1.48c-.31-1.73-1.22-2.57-3.19-2.89,0,0-3.3-.38-4.77.65a5.92,5.92,0,0,0-1.53,1.48c-.24.33-.3.41-1.45.46l-.34,0-.62,0a8.86,8.86,0,0,0,1.58-1,.92.92,0,0,0,.86-.27,14.31,14.31,0,0,0,3.5-6.09c0-.11.07-.29.13-.48.32-1.11.76-2.65-.15-3.36A1.88,1.88,0,0,0,368,98h-.14a5.46,5.46,0,0,0-3.28,1.87,3.17,3.17,0,0,0-.81,2.41,4.55,4.55,0,0,1,0,.64,2.39,2.39,0,0,1-.58,1.43,8.84,8.84,0,0,0-.69,1c-.32.56-.63,1.16-.94,1.76s-.62,1.17-.92,1.72a1,1,0,0,0,0,1,1,1,0,0,0,.83.48,2.6,2.6,0,0,0,.39,0,5.76,5.76,0,0,0-1.47,2.08c-1.08,1.77-1.67,2.76-3.51,3.26a6.26,6.26,0,0,1-3.65-.36s.1-.23.76-.6a2.9,2.9,0,0,1,1-.23,4.11,4.11,0,0,0,2.79-1.16,5.47,5.47,0,0,0,1.64-3.92.53.53,0,0,0,0-.12c1.3-1.38,2.16-4.1,3-7.25.17-.62.37-1.33.53-1.83a1,1,0,0,0,.43-.35A16.45,16.45,0,0,1,368,95.22a7.94,7.94,0,0,1,2.14-1.13,7.57,7.57,0,0,0,2.46-1.35,6,6,0,0,0,1.54-3.3,8.34,8.34,0,0,1,.5-1.65,19.35,19.35,0,0,1,2.68-3.73,1,1,0,0,0,.59.22,1,1,0,0,0,1-1v-.49a.78.78,0,0,0-.09-.4c.39-1.52,3.29-4.31,5.41-5.78a14.61,14.61,0,0,1,2.45-1.29c1.84-.85,3.94-1.82,4.8-3.65,1.17-2.22.75-6.56-.91-9.28a4.62,4.62,0,0,0-3.92-2.56,5.24,5.24,0,0,0-1.72.31c-.53.18-.61.21-1-.1a2.94,2.94,0,0,1-.43-.89,4.86,4.86,0,0,0-.6-1.23,4.28,4.28,0,0,0-1.54-1.44,6.22,6.22,0,0,1-.71-.47c-.15-.16-.3-.37-.46-.57a6.31,6.31,0,0,0-.71-.84,6.05,6.05,0,0,0-1.43-.93.92.92,0,0,1-.13-.29,5.65,5.65,0,0,1,.09-1.59,5.66,5.66,0,0,0,0-2.59A4,4,0,0,0,376,46.89a2.28,2.28,0,0,1-.92-.9,3.94,3.94,0,0,1-.45-2.25c0-1.45,0-3.41-2.63-4.64a28.28,28.28,0,0,1,.31-5c.14-1.2.28-2.4.33-3.66,0-1-.08-1.65-.52-2.06a2,2,0,0,0-1.31-.42,3.7,3.7,0,0,1-.31-2.4,7.43,7.43,0,0,0-.14-2.62,1,1,0,0,0-.92-.67h-.06c-.63.06-.76-.05-.77-.05a3.06,3.06,0,0,1-.18-.34,4.17,4.17,0,0,0-.76-1.27,4.52,4.52,0,0,0-1.82-1.15c-.57-.23-.88-.37-1.05-.67a.94.94,0,0,0-.82-.5,1,1,0,0,0-.84.48c-.68,1.16-1.56,2.36-2.39,3.52-.68.94-1.35,1.86-1.89,2.71a14.09,14.09,0,0,0-1.37,2.22,14,14,0,0,1-.88,1.55A8.72,8.72,0,0,1,355,30.33a10.86,10.86,0,0,0-2,1.92,62.18,62.18,0,0,0-5.31,9.28l-1.34,2.65c-.28.51-.61,1-1,1.62a28.51,28.51,0,0,0-1.57,2.81,9,9,0,0,0-.58,2.07c-.13.82-.17,1.06-.83,1.44-1.32.66-5.65,2-6.44,1.76a1.43,1.43,0,0,1,0-.26,2.08,2.08,0,0,0-1.56-1.94,4.27,4.27,0,0,0-1.69.09,7.2,7.2,0,0,1-1.47.13,5.4,5.4,0,0,1-1.88-.59,4.19,4.19,0,0,0-3.18-.49,6,6,0,0,0-2.07,1.34,5.33,5.33,0,0,1-1.65,1.15,8.17,8.17,0,0,1-3.58.24,4.78,4.78,0,0,1-1.59-.85,8.4,8.4,0,0,0-1.34-.82,6.42,6.42,0,0,0-1.64-.49,6.82,6.82,0,0,1-.84-.21v-.29a4.08,4.08,0,0,0-1.75-3.07c-3.11-2.15-9.12-.56-9.77-.38a12.9,12.9,0,0,0-2.79,1.26c-1.31.7-2.79,1.5-3.75,1.34a3.44,3.44,0,0,1-1.3-.91,6.29,6.29,0,0,0-2-1.41,1,1,0,0,0-1.23,1.22c.27.73.27.73-.25,1.41l-.23.31a4.51,4.51,0,0,1-.76.76c-1.25,1-1,1.91-.06,3.28a8.43,8.43,0,0,0,.86,1.2,6.39,6.39,0,0,1,.57.77c.19.51.45,1.43.1,1.82s-2,.61-4.72-.11a29.72,29.72,0,0,0-8.21-.52,22.12,22.12,0,0,1-3-.12,17.91,17.91,0,0,0-4.45,0,6.47,6.47,0,0,0-4,2,5,5,0,0,0-.7,1.08c-.23.42-.28.54-1,.75a5.84,5.84,0,0,1-2.09,0,6.07,6.07,0,0,0-3.7.34,2.91,2.91,0,0,0-1.09,1.24,1.51,1.51,0,0,1-.79.82,5.88,5.88,0,0,1-2.2.28c-1.45,0-3.27,0-4.55,1.8a2.94,2.94,0,0,0-.55,1.44c-.06.35-.08.44-.25.58a6.42,6.42,0,0,1-1.9.67c-.52.14-1,.3-1.54.48a3.7,3.7,0,0,0-2.49-3.1c-1.19-.46-2.36-.1-3.11-.38a3,3,0,0,1-1-.91,7.12,7.12,0,0,0-1.18-1.12c-.49-.29-.89-.5-1.23-.68a3.23,3.23,0,0,1-1.66-1.44,13.41,13.41,0,0,0-2.93-3.74c-.86-.79-1.11-2.12-1.37-3.52-.1-.56-.2-1.11-.34-1.6-.07-.29-.14-.61-.21-1a14.63,14.63,0,0,0-.76-2.68,3.59,3.59,0,0,0-.82-.91,1.94,1.94,0,0,1-.44-.47c-1.05-1.68-.84-6.26-.73-8.56.07-.56.1-1.09.12-1.58a5.91,5.91,0,0,1,.65-3.05A22.55,22.55,0,0,0,229.91,32a9.86,9.86,0,0,1,2.17-3.79,10.68,10.68,0,0,1,.92-.77c1-.76,2.21-1.71,2.34-3.27a2.28,2.28,0,0,0-1-2.17,2.57,2.57,0,0,1-.46-.42,11.69,11.69,0,0,1-2.34-4.7c-1.09-3-2.72-3.31-4.78-3.72l-.6-.12c-.25-.07-.47-.12-.67-.16s-.4-.09-.4,0a1.88,1.88,0,0,1,0-.74c0-.33.09-.46.14-.39a2.38,2.38,0,0,0,1.28-.89,5.7,5.7,0,0,0,.8-4.38c-.36-1.14-.78-1.49-1.45-1.73l-.16-.24a1.47,1.47,0,0,1-.16-.75,2.56,2.56,0,0,0-1.26-2.29,2.74,2.74,0,0,0-2.66-.32,1.66,1.66,0,0,0-.76.85l-.89.11c-1.21.16-3.73.47-4.44-.24a1,1,0,0,0-.85-.91c-1.08-.12-1.77.14-2.08.77-.57,1.14.7,2.46,2,3.85a4.54,4.54,0,0,0,.61.58c.17.56,0,.84-1.29,1.66a4.57,4.57,0,0,0-2.13,2.3,3.65,3.65,0,0,0-1.31,1.75c-.21.48-.29.67-.75.83a6.79,6.79,0,0,1-1.84.18,7,7,0,0,0-1.59.14,3.8,3.8,0,0,0-1.37.36,3.16,3.16,0,0,1-.52.18,4.33,4.33,0,0,1-1,.17,3,3,0,0,0-2.09.87,2.62,2.62,0,0,0-.8,1.21c-.14.37-.21.54-.46.7a3.34,3.34,0,0,1-1.38.42,2.68,2.68,0,0,0-2.4,1.69,2.43,2.43,0,0,0-.1,1.38c-.43.27-2.39.06-3.25,0-.59-.06-1.11-.12-1.46-.12-3.79,0-7.52.18-9.17,1.45-1.46,1.13-1.18,2.57-1,3.61a3.83,3.83,0,0,1,.11,1.56,1.34,1.34,0,0,1-.82.87,3.8,3.8,0,0,1-3.15,0c-.32-.16-.49-.48-.76-1a4,4,0,0,0-1.52-1.9c-1.33-.85-3.27-.76-4.82-.68l-1,0a8.65,8.65,0,0,1-3.23-1A10.15,10.15,0,0,0,162,21.43c-1.45-.05-1.57-.35-1.86-1.11a3.92,3.92,0,0,0-2-2.39c-1-.5-7.19-1.25-8.37.35a2.54,2.54,0,0,0-.54,2.49c.52,1.65,2.56,2.86,3.75,3.16a18.31,18.31,0,0,0,1.81.4c.22,0,.47.07.45,0a8.41,8.41,0,0,1,.25,1.23l.15.86a7.67,7.67,0,0,0,1.13,2.67,2.51,2.51,0,0,1,.41,2.75,3.64,3.64,0,0,1-1.2,1.5,4.66,4.66,0,0,0-1.55,2,3.49,3.49,0,0,0,.06,2.92,2,2,0,0,0,.95.79c0,.43.11.88.17,1.33a22.3,22.3,0,0,1,.27,3,11.49,11.49,0,0,1,0,1.42c-.09,1.36-.19,2.91.92,4,1.17.82,2.62.44,3.29.64a6.77,6.77,0,0,1,2.48,1.22l.23.15a.93.93,0,0,0,1.09,0c.14-.09.21-.1.75,0a5,5,0,0,0,1.64.14,4.7,4.7,0,0,0,1.49-.72c.66-.43.95-.58,1.31-.44.13,0,.25.24.35.53a6.14,6.14,0,0,1,0,2.95l-1-.07a5.3,5.3,0,0,0-2.68.15,1.93,1.93,0,0,0-.93,1.29c0,.1-.11.28,0,.2a3.92,3.92,0,0,1-1.25.33l-.54.09a7.11,7.11,0,0,1-1.4.06,5.89,5.89,0,0,0-2.9.47c-1.48,1.07-1.15,2.57-.93,3.56a4.16,4.16,0,0,1,.16.91c-.06,1.8-.66,2-2,2.47A7.74,7.74,0,0,0,153.61,64l-.8.6c-.8.6-.8.6-2.27.86a4.45,4.45,0,0,0-3,1.64,4.3,4.3,0,0,1-1.31,1.08,3.52,3.52,0,0,1-1.41.21,4.1,4.1,0,0,0-2.78.82,3.23,3.23,0,0,0-.8,1.9c-.12.71-.18,1-.57,1.15a1.51,1.51,0,0,1-.87,0,2.52,2.52,0,0,0-2.74,1.17,3.89,3.89,0,0,0-.53,2,2.08,2.08,0,0,0,0,.45A1.18,1.18,0,0,1,136,76a2.78,2.78,0,0,1-.38,0,5.31,5.31,0,0,1,.05-1.09c.14-1.07.31-2.52-1-3.32-1.25-.61-5,.32-5.41.48a4.87,4.87,0,0,0-2,1.67,2.66,2.66,0,0,1-1.28,1c-1.27.44-4.31.34-5.22-.38a3.64,3.64,0,0,1-.93-1.45,6.09,6.09,0,0,0-1.6-2.35,10.52,10.52,0,0,0-3.46-1.53c-1.89-.59-4-1.27-4.17-2.43,0-.27.17-.46.77-.93a2.88,2.88,0,0,0,1.34-2c0-.83-.73-1.89-2.08-3.54l-.27-.33c-.45-.5-.9-.92-1.33-1.34a13.26,13.26,0,0,1-1.53-1.63,10.79,10.79,0,0,1-.93-1.26,9.62,9.62,0,0,0-1.66-2.07,1,1,0,0,0-1.09-.11,12.17,12.17,0,0,0-3.33,3.08,12,12,0,0,1-2,2.08,4.1,4.1,0,0,1-2.91.62V59a2.63,2.63,0,0,0-.34-1.62c-.38-.57-1.2-1.73-2.26-1.5s-1.21,1.5-1.38,2.81a8.45,8.45,0,0,1-.27,1.49c-.47.36-2.89.11-3.92,0-.68-.07-1.26-.12-1.66-.12-1.13,0-2.3.06-3.47.12s-2.26.13-3.44.13l-1.07.11c-1.25.15-3,.36-3.83,0,0,0-.17-.16-.25-.23a2.44,2.44,0,0,0-.94-.67,4.4,4.4,0,0,0-4.17.28c-3.06,1.34-4.88,2.46-4.42,6.6a18.55,18.55,0,0,1,.13,2.42c0,1.71.06,3.31,1.17,4.38a4.82,4.82,0,0,0,3.44,1A15.28,15.28,0,0,0,70.55,74c2.09-.28,3.23-.35,4.09,1.22.71,1.14,1.09,3.47.48,4.27-.08.11-.3.39-1.14.15a4.34,4.34,0,0,1-.85-.44,5.48,5.48,0,0,0-1.86-.83A7.09,7.09,0,0,0,68,78.7l-.77.21L66,79.19c-2.11.42-4.72.94-5.37,3.82a38.09,38.09,0,0,0-.17,8.49l0,.6a4.57,4.57,0,0,0,1.35,3.46,1,1,0,0,0,.56.5c2.49.79,6,4,5.59,6.18,0,.05-.15.18-.22.27a2.51,2.51,0,0,0-.8,2.1c.15,1,1.06,2.07,2.39,3.39,1.67,1.68,1.82,1.92,1.82,4.65-.12,6.47-1.76,13.17-3.56,20a57.31,57.31,0,0,0-1.22,6.43c-.26,1.7-.52,3.47-.91,5.17a74.33,74.33,0,0,0-1.39,9.06.85.85,0,0,0-.38.69c-.06,2.07-.29,4.09-1.35,4.94a2.84,2.84,0,0,1-2.12.45A3.09,3.09,0,0,0,59.06,158c-2-1.48-5.87-1.81-7.59-1.38A3.94,3.94,0,0,0,48.93,159a3.74,3.74,0,0,1-.79,1.16c-.93.7-2,.61-3.36.49-.48,0-1-.07-1.43-.07h0c-5.23.13-12.65,2.83-16.51,5.24a15.32,15.32,0,0,0-2.46,2,15.73,15.73,0,0,1-2,1.66,3.53,3.53,0,0,1-2,.73,6.66,6.66,0,0,0-2.14.53,1,1,0,0,0-.52.65,1,1,0,0,0,.18.82.87.87,0,0,1,.2.37c0,.2-.64.64-1,.88A5,5,0,0,0,15.55,175a15.17,15.17,0,0,0-1.22,5.21l-.12,1a4,4,0,0,1-1.28,2.31,7.13,7.13,0,0,0-1.52,2.22c-.34.79-.77,3.52,0,5a2.24,2.24,0,0,0,.37.5,7.06,7.06,0,0,0,.25,1.88,3.45,3.45,0,0,1,.12,1.83c-.19.59-.46.7-1.28,1a6.59,6.59,0,0,0-1.34.56c-3,1.52-6,5.14-7.5,7.86a.94.94,0,0,0-.06.77.88.88,0,0,0,.51.57,3.67,3.67,0,0,1,.89.6,1,1,0,0,0,0,.86l0,0a.94.94,0,0,0,.24.5A4.37,4.37,0,0,1,4,208.74l-.33,0c-1.11.17-2.26.35-2.84,1.3a3.49,3.49,0,0,0,0,2.88,10,10,0,0,0,1.94,2.93,13.51,13.51,0,0,1,1.38,1.83,1.75,1.75,0,0,0-.12.32,4.62,4.62,0,0,1-.22.59c-.35.83-.8,1.87-.29,2.71a2,2,0,0,0,2,.8,2.29,2.29,0,0,1,.61.06c.27.13.37.31.59.82l.24.51a7.34,7.34,0,0,1,.62,1.87,6.38,6.38,0,0,0,1.17,2.81,49.35,49.35,0,0,0,4,4.94c.79.91,1.58,1.81,2.31,2.73.88,1.06.53,1.5-.62,2.63-.76.75-1.62,1.59-1.53,2.78a2.88,2.88,0,0,0,1,1.86.92.92,0,0,0,.21.46,1,1,0,0,0,.71.3,1,1,0,0,0,.49.15.89.89,0,0,0,.76-.41.94.94,0,0,0,.16-.42c2.1-.82,5.79.41,7.57,2a11.8,11.8,0,0,1,2.73,3.06,6.94,6.94,0,0,1,.6,1.82,4.09,4.09,0,0,0,2.06,3.19,5.3,5.3,0,0,0,2.47.33,5.47,5.47,0,0,1,1.68.13,4.05,4.05,0,0,1,1.12.42,6.64,6.64,0,0,0,1,.44c2.29.54,6-.49,8.42-1.17l.24-.07c2-.51,3.41-2,4.74-3.33a20.89,20.89,0,0,1,1.5-1.48l.87-.77c1-.83,2-1.74,3-2.52a74.76,74.76,0,0,0-1.87,12.31l-.05.55c-.27,3.07-.61,7.23.38,10.11a1,1,0,0,0,.39,1.19,4,4,0,0,1,.76.63A3.71,3.71,0,0,0,56,271.29a5.74,5.74,0,0,0,3-1,5.41,5.41,0,0,1,1.32-.64,12,12,0,0,1,1.93-.29A13.66,13.66,0,0,0,64.5,269a8.73,8.73,0,0,1,3.4-.11c.49.05,1,.11,1.62.14,2.32.24,4.23-.12,6.26.45.59.2,1.23.45,1.88.71a19,19,0,0,0,5.88,1.58c2.18,0,4.85-1.84,6.91-3.42a8.15,8.15,0,0,0,2-2.6c1-1.75,1.52-2.43,2.71-2.19a4.79,4.79,0,0,1,1.39.58c1.21.66,3,1.64,4.76-.93a4.81,4.81,0,0,0,.9-1.88,2,2,0,0,1,.77-1.29A9.77,9.77,0,0,1,105.7,259a12.85,12.85,0,0,0,3.18-1.23,14.48,14.48,0,0,0,2.41-1.87,10.9,10.9,0,0,1,2.27-1.71,6.73,6.73,0,0,1,1.35-.47,5.25,5.25,0,0,0,2.83-1.51l.32-.05a5.89,5.89,0,0,1,1-.12,2.89,2.89,0,0,1,.71.07,3.11,3.11,0,0,0,1.51,0,3,3,0,0,0,1.26-1.24c0-.1.08-.15,0-.14a7.63,7.63,0,0,1,3-.48,13.79,13.79,0,0,0,2.79-.3c.33-.07.66-.17,1-.26a5.4,5.4,0,0,1,2.13-.35,2,2,0,0,1,.61.26,2.26,2.26,0,0,0,2.79,0,1.55,1.55,0,0,1,.47-.19,2.85,2.85,0,0,0,.5-.14c.17-.05.42-.14.46-.14s.17.11.4.7a3.8,3.8,0,0,1,.13,1.55,8.33,8.33,0,0,0,0,1.41.94.94,0,0,0-.43,1,7.6,7.6,0,0,1,.12,2.2,2.69,2.69,0,0,1-.38,1,4.24,4.24,0,0,0-.48,1.19,16.2,16.2,0,0,0,.77,7.21l.32.88a7.32,7.32,0,0,1,.64,3,2.94,2.94,0,0,1-.26.92,4.29,4.29,0,0,0-.37,1.7,14.51,14.51,0,0,0,.95,4.84c1.37,3.3,3.18,4.76,5.76,6.6a5.09,5.09,0,0,1,1.39,1.7l.52.83a5.24,5.24,0,0,0,2.45,1.89,4.24,4.24,0,0,1,1.43.9,4.65,4.65,0,0,1,1.38,2.15c.49,1.21,1,2.59,4,3.05a15.85,15.85,0,0,0,4.37-.29c2-.31,3.85-.59,5.29.09a4.92,4.92,0,0,1,1.57,1.37,6.13,6.13,0,0,0,2.41,1.91,8.49,8.49,0,0,0,2.75.17,11.13,11.13,0,0,1,1.52,0,3.32,3.32,0,0,1,2.79,1.78,8.7,8.7,0,0,0,1.8,2,10.72,10.72,0,0,0,4.77,1.89,12.94,12.94,0,0,1,2.93.86,11.65,11.65,0,0,0,1.3.42,6.93,6.93,0,0,1,1.59.58,3.81,3.81,0,0,1,1.33,1.33,7.61,7.61,0,0,0,1.39,1.48,12.1,12.1,0,0,0,3,1.94,3.59,3.59,0,0,0,2.43,0,3.74,3.74,0,0,1,1.31-.2,5,5,0,0,1,1.52.34,7,7,0,0,0,1.59.4,8,8,0,0,0,2.29-.42,6.18,6.18,0,0,1,1.52-.32,23.33,23.33,0,0,1,7.13,1.78c.47.2.91.33,1.35.47s.74.23,1.14.39a.8.8,0,0,0,.37.08.92.92,0,0,0,.86-.56s0,0,0-.07c.51-.36,1-.69,1.49-1a12.31,12.31,0,0,0,4.14-3.61,9,9,0,0,0,1.22-2.27,10.19,10.19,0,0,1,.49-1.13,9.1,9.1,0,0,1,1.77-2.21c.43-.44.85-.87,1.22-1.33a13.34,13.34,0,0,0,3.21-7.83v-1.28a25.73,25.73,0,0,0-.15-4.09,3.77,3.77,0,0,0-1.16-2.33,3.69,3.69,0,0,1-.58-.76,9.68,9.68,0,0,1-.71-6,2.88,2.88,0,0,1,.64-.7,3.54,3.54,0,0,0,1-1.27c.59-1.63-.3-2.94-.93-3.89l-.59-.94c-.74-1.24-1.16-1.44-3-1.44a6.47,6.47,0,0,0-1.3.18,2.14,2.14,0,0,1-1.06.1,5.45,5.45,0,0,1-1.87-1,5.92,5.92,0,0,0-4.19-1.48c-1.16.1-2.31.24-3.45.38a38.61,38.61,0,0,1-8.89.37,79.43,79.43,0,0,0-1.12-9.28l-.2-1.24a28,28,0,0,1,0-9,16,16,0,0,0,.1-5.61,12.49,12.49,0,0,0-.43-1.63,4.25,4.25,0,0,1-.3-2.11,5.93,5.93,0,0,1,.48-1.43,5.57,5.57,0,0,0,.67-3.11h.37c1.35,0,3.13-.06,5.49-.2,1.07-.05,2-.11,2.38-.11a110.51,110.51,0,0,0,15.65-.35l.27,0c3.36-.2,6.82-.18,10.19-.16,2.81,0,5.72,0,8.53-.09.5,0,1.09,0,1.73.08,2.3.11,5.2.27,7-.84a1,1,0,0,0,.42-1,2.94,2.94,0,0,1,.36-2.26,7.83,7.83,0,0,0,.63-1.72,19,19,0,0,0,.16-6.31c0-.6-.1-1.17-.12-1.69-.1-2.79,1.22-5.31,2.6-8l0,0a1,1,0,0,0,.34-.22.86.86,0,0,0,.22-.36c.63.46.8,1.32.9,2.86a9.87,9.87,0,0,0,.38,2.45,10.89,10.89,0,0,0,1.9,3.25,12.91,12.91,0,0,1,1.47,2.26l.37,1a12.16,12.16,0,0,1,1.07,4.21c.06.91.09,1.81.13,2.71s.06,1.86.12,2.76a1.5,1.5,0,0,0,1.48,1.12c.68-.18,1.32.4,2.24,1.35a8.94,8.94,0,0,0,1.1,1,11.44,11.44,0,0,1,2.11,1.76,10.17,10.17,0,0,1,.93,1.57,8.65,8.65,0,0,0,1.34,2.08,3.07,3.07,0,0,0,2.78,1,5.66,5.66,0,0,1,1.08,0,1.53,1.53,0,0,1,1.1.85,4.56,4.56,0,0,0,1.24,1.28c1.36.8,3,.5,4.4.23a14.59,14.59,0,0,1,1.47-.22c1.35-.06,2.72,0,4.1,0s2.84.06,4.19,0A16.59,16.59,0,0,1,297,245a23.57,23.57,0,0,0,2.47.44c2.95.13,5.41.25,8.08.49,1.15.05,2.28.06,3.4.06,1.71,0,3.32,0,5,.18l1.81.19a62.66,62.66,0,0,0,6.35.43c5.11.06,10.28.38,15.28.68,5.58.34,11.36.69,17.07.69a115.26,115.26,0,0,1,21.58,2.22l.78.16a24.07,24.07,0,0,0,4.9.67,8.48,8.48,0,0,0,1.44-.12,20.45,20.45,0,0,1-2.36,5.34,28.29,28.29,0,0,0-2.25,4.76,24.45,24.45,0,0,0-1,5.9,29.35,29.35,0,0,1-.64,4.59c-.15.47-.28.88-.42,1.27a9,9,0,0,0-.61,4.41,70.5,70.5,0,0,1,0,10.07,35.36,35.36,0,0,0,.78,11.11.92.92,0,0,0,.58.67,1,1,0,0,0,.9-.12,8.74,8.74,0,0,0,2.33-2.88,8.63,8.63,0,0,1,1.53-2.1c.68-.48,1.25-.94,1.81-1.4-.26.69-.61,1.44-.93,2.11-1.12,2.36-2.28,4.79-.55,6.22,1,.78,2.42.68,3.84.58a6.55,6.55,0,0,1,2.47.1,14.34,14.34,0,0,1,4.08,2,14,14,0,0,1,1.18.89c1,.77,1.9,1.54,2.93,1.15s1.45-1.6,1.71-2.75.29-1.22.78-1.5c.26-.16.59-.35,1-.64a4.29,4.29,0,0,1,.45-.26,3.17,3.17,0,0,0,1.08-.81,2.63,2.63,0,0,1,.23.85,1,1,0,0,0,.41.69,1,1,0,0,0,.8.14,5.2,5.2,0,0,0,2.54-1.58,2.78,2.78,0,0,1,.47-.41s.3-.07,1.46.91c1.5,1.35,2.49,2.74,2.52,3.57a.64.64,0,0,1-.2.51.94.94,0,0,0-.23,1,.93.93,0,0,0,.72.66,36.64,36.64,0,0,0,4.67.57,20.2,20.2,0,0,1,7.21,1.48c.27.12.56.25.84.4a6.51,6.51,0,0,0,2.8.89,2.64,2.64,0,0,0,2-.85,3.45,3.45,0,0,0,.88-3.06,2.11,2.11,0,0,1,.06-1c.33-.35,2.38-.18,3.27-.1a10.6,10.6,0,0,0,2.44,0,21.59,21.59,0,0,0,5.3-2.36c.62-.34,1.22-.67,1.8-1l.34-.19c1.43-.82,1.75-1,2.88-.81a4.14,4.14,0,0,1,.82.3,4.5,4.5,0,0,0,1.4.46,2.31,2.31,0,0,0,2.71-3.48,13.3,13.3,0,0,0-.47-1.34,5.26,5.26,0,0,1-.49-2.29,1.41,1.41,0,0,1,.07-.57,3.08,3.08,0,0,0,.07-1.22,3.88,3.88,0,0,0-.86-2,2.72,2.72,0,0,1-.41-.68c-.46-1.68,0-2.22,1-3.3a11.58,11.58,0,0,0,1.37-1.76c1.08-1.65.84-2.51.11-3.37-.19-.23-.29-.35-.31-.48-.07-.78.29-1.12,1.22-1.93l.44-.37a1,1,0,0,0-.27-1.61,12.8,12.8,0,0,0-5.09-1.32c-.27,0-.63,0-1,.07-.63.07-2.05.22-2.2-.08-.18-.49.95-1.44,1.63-2A7.37,7.37,0,0,0,448,272a4.86,4.86,0,0,0,.86-2.64,4.2,4.2,0,0,1,.27-1.32,1.8,1.8,0,0,0,1.05-.74,8.72,8.72,0,0,0,.53-1.24,3.07,3.07,0,0,1,.6-1.22,4.33,4.33,0,0,1,1.62-.68A5.78,5.78,0,0,0,455.5,263c1.85-1.67,1.77-2.78,1.44-4.17,0-.12-.05-.23-.08-.35s.16-.11.2-.2A1.31,1.31,0,0,0,457.14,258Z"/><path class="cls-2" d="M457.14,257.63c.44-1.24.35-1.43-.29-2.19a2,2,0,0,0-1.48-.44,6.85,6.85,0,0,1-1.14-.63,7,7,0,0,0-1.41-.77,4.83,4.83,0,0,0-1.5-.06,2,2,0,0,1-1.49-.27,4.85,4.85,0,0,1-1.25-2.45,7.54,7.54,0,0,0-1.95-3.58,8.85,8.85,0,0,0-.42-2.05,5.76,5.76,0,0,1-.34-1.72,1,1,0,0,0-1-1c-1.72,0-1.77-.32-2-1.63a6.72,6.72,0,0,0-1-2.93,5,5,0,0,0-2.61-1.63c-.31-.11-.78-.27-.89-.32a2.22,2.22,0,0,1,.34-.3,4.29,4.29,0,0,0,.94-.93,9.44,9.44,0,0,0,1.26-4,5.11,5.11,0,0,0,0-1.1,3.4,3.4,0,0,1,0-.78,12.92,12.92,0,0,1,2.85-1.3h.27a2.38,2.38,0,0,0,.59.61l.23.32a2.36,2.36,0,0,0,1.68,1.29,2,2,0,0,0,1.6-.79c.93-1.05.33-3.16-1.18-7-.18-.41-.3-.75-.36-.91-.52-1.78-1.24-2.81-2.26-3.26-1.43-.63-3,.1-4.58.87-.45.22-.93.45-1.45.67-.94.45-1.48,0-2.72-2.64a10.2,10.2,0,0,0-2-3.26c-.38-.37-.68-.62-.95-.84a3.39,3.39,0,0,1-1.12-1.27,5.74,5.74,0,0,1-.32-.85,7,7,0,0,0-.74-1.62,9.24,9.24,0,0,0-2.44-2.26c2.76-2.6,2.74-5.75,2.73-9.36v-.78c0-1.41.1-2.94.22-4.53.28-4.11.6-8.76-.91-12.36a5.16,5.16,0,0,0-4.46-3.57,8.85,8.85,0,0,0-1.71-.09,3.26,3.26,0,0,1-1.84-.3,4.36,4.36,0,0,1-.77-.53,3.86,3.86,0,0,0-2-1,5.53,5.53,0,0,0-1.78.12c-.3.06-.6.12-.75.13-.35,0-1-.17-1.59-.29l-.81-.16c.14-.22.29-.45.43-.69a9,9,0,0,1,.83-1.27,13.65,13.65,0,0,1,3-2.34,12.09,12.09,0,0,0,3.74-3.19c.23-.31.43-.63.63-.94.43-.71.72-1.15,1.14-1.34a4.22,4.22,0,0,1,.85,0,4.66,4.66,0,0,0,1.89-.22c2.4-.83,3.45-2.79,4.38-4.51a16.75,16.75,0,0,1,1.08-1.82c.49-.72,1-1.39,1.57-2.05a18.46,18.46,0,0,0,2.59-3.78,8.65,8.65,0,0,0,.68-2.11,6.07,6.07,0,0,1,.66-1.93,2.53,2.53,0,0,1,.69-.56,5.24,5.24,0,0,0,1.13-1,8.29,8.29,0,0,0,1.13-2.52,6.69,6.69,0,0,1,.72-1.7,4.73,4.73,0,0,1,1-.9,4.58,4.58,0,0,0,1.49-1.51,12,12,0,0,0,1-3.28,4.62,4.62,0,0,0-.15-1.62,2.66,2.66,0,0,1-.11-1c.05-.36.27-.59.71-1a4.45,4.45,0,0,0,1-1.24,6.93,6.93,0,0,0,.66-2.21,6.45,6.45,0,0,1,.49-1.72,12.66,12.66,0,0,1,.86-1.56,14,14,0,0,0,1-1.93,7.28,7.28,0,0,0,.2-1,2.34,2.34,0,0,1,.36-1.16,1.38,1.38,0,0,1,.43-.45,1.79,1.79,0,0,0,.56-2.52.9.9,0,0,0-1.22-.44.85.85,0,0,0-.43.54,5.72,5.72,0,0,0-1.13-.6l-.44-.2s0,0,0,0a3.62,3.62,0,0,1,.81-.31,4,4,0,0,0,1.33-.59,3.87,3.87,0,0,0,1.35-2l.39-1.49a15.38,15.38,0,0,0,.47-4,3.53,3.53,0,0,0-2.29-3.76l-.6-.34a7.64,7.64,0,0,1-1.39-1,8.22,8.22,0,0,0-2.39-1.46,4.67,4.67,0,0,0-1.6-.13,2.89,2.89,0,0,1-1.25-.13,1.92,1.92,0,0,1-1-.68,4,4,0,0,0-1.17-1,7.48,7.48,0,0,0-4.25-.79c-.64,0-1.31,0-1.94-.07a20.37,20.37,0,0,0-2.21-.19,19.45,19.45,0,0,1-2.68-.29l-1.11-.34c-1.39-.46-2.83-1-4.6-.12a11.25,11.25,0,0,0-4,3.2,7.33,7.33,0,0,1-2.63,2.46l-.61.4a9.61,9.61,0,0,0-2.45,2.55c-.3.4-.6.82-.93,1.18a10.75,10.75,0,0,1-3,1.83,20.08,20.08,0,0,0-2,1l-.78.55a24.29,24.29,0,0,0-4.61,3.81,9,9,0,0,0-1,1.53,7.16,7.16,0,0,1-.84,1.3,2.94,2.94,0,0,0-.83-3.08,1.17,1.17,0,0,0-.28-.13,3,3,0,0,0,1.23-.63,4.3,4.3,0,0,0,.9-2,3.25,3.25,0,0,0,.2-1l.17.31a2,2,0,0,0,2.37,1.37c1.48-.36,1.59-1.81,1.68-2.59a2.25,2.25,0,0,1,0-.35,2,2,0,0,0-.24-1.37c0-.1-.14-.27-.17-.13.2-.51,1.17-1.11,1.76-1.47l.45-.29c2.88-1.73,4.18-4,5.68-6.51l.74-1.26c.21-.34.41-.63.57-.89,1.15-1.73,1.65-2.72-.38-4.46a9,9,0,0,0-2.12-1.31,14.48,14.48,0,0,1-1.32-.69c-.33-.17-.66-.37-1-.56A7.86,7.86,0,0,0,407.3,91a6,6,0,0,0-2.1.22,4,4,0,0,1-1.61.17,4.87,4.87,0,0,1-1-.41,5.06,5.06,0,0,0-1.88-.61,5,5,0,0,0-1.77.4,5.56,5.56,0,0,1-.76.24,11,11,0,0,1-1.83,0,9.5,9.5,0,0,0-2.3.09,7,7,0,0,0-2.51,1.26,4.16,4.16,0,0,1-2,1,3.27,3.27,0,0,1-1.55-.48,4.1,4.1,0,0,0-2.65-.61c-2.7.52-2.74,2.86-2.76,4.25,0,.69,0,1.45-.25,1.65a4.17,4.17,0,0,1-1.86.11,4.26,4.26,0,0,0-2.48.29c-.33,0-.75,0-1.1,0a4.42,4.42,0,0,0-3.2.86.95.95,0,0,0,.41,1.64l.38.13c1.83.45,5.2,1.29,6.19,2.56l.17.23a2.7,2.7,0,0,1-.33.22,2.3,2.3,0,0,0-1.24,1.47,2,2,0,0,0,.44,1.57,2.55,2.55,0,0,0,1.43.9,5.21,5.21,0,0,1,.54.2,4.18,4.18,0,0,1-1,.08,4.12,4.12,0,0,0-1.24.12,4.21,4.21,0,0,0-2.9,1.41,2.33,2.33,0,0,0-.31,1.92c.36,1.14,1.56,1.43,2.35,1.62l.5.13a1,1,0,0,0,.48.63.49.49,0,0,0,.22.09,2.1,2.1,0,0,0,.13.26c1.11,2.4,1.6,2.68,4.08,3.37a3.89,3.89,0,0,1,.76.33,4.64,4.64,0,0,0,2,.57c.17,0,.34,0,.49,0a2.16,2.16,0,0,0,.87-.53,1,1,0,0,0-.12.37c0,.33-.06.48-.05.5a2.45,2.45,0,0,1-.37.07,5.28,5.28,0,0,0-1,.18,8.29,8.29,0,0,0-2.4,1.19,5,5,0,0,1-1.49.78c-.82.23-3.69-1.62-4.53-2.71a6.74,6.74,0,0,1-.86-2.38,9,9,0,0,0-1.17-3.13c-.15-.2-.32-.39-.48-.57a3,3,0,0,1-.72-1,1.6,1.6,0,0,1,.12-.63,3.44,3.44,0,0,0,.16-1.48c-.31-1.73-1.22-2.57-3.19-2.89,0,0-3.3-.38-4.77.65a5.92,5.92,0,0,0-1.53,1.48c-.24.33-.3.41-1.45.46l-.34,0-.62,0a8.86,8.86,0,0,0,1.58-1,.92.92,0,0,0,.86-.27,14.31,14.31,0,0,0,3.5-6.09c0-.11.07-.29.13-.48.32-1.11.76-2.65-.15-3.36a1.88,1.88,0,0,0-1.38-.54h-.14a5.46,5.46,0,0,0-3.28,1.87,3.16,3.16,0,0,0-.81,2.4,4.7,4.7,0,0,1,0,.65,2.39,2.39,0,0,1-.58,1.43,8.84,8.84,0,0,0-.69,1c-.32.56-.63,1.16-.94,1.76s-.62,1.17-.92,1.72a1,1,0,0,0,0,1,1,1,0,0,0,.83.48c.13,0,.26,0,.39-.05a5.76,5.76,0,0,0-1.47,2.08c-1.08,1.77-1.67,2.76-3.51,3.26a6.26,6.26,0,0,1-3.65-.36s.1-.23.76-.6a2.9,2.9,0,0,1,1-.23,4.11,4.11,0,0,0,2.79-1.16,5.47,5.47,0,0,0,1.64-3.92.53.53,0,0,0,0-.12c1.3-1.38,2.16-4.11,3-7.25.17-.62.37-1.33.53-1.83a1,1,0,0,0,.43-.35A16.45,16.45,0,0,1,368,94.82a7.94,7.94,0,0,1,2.14-1.13,7.57,7.57,0,0,0,2.46-1.35A6,6,0,0,0,374.1,89a8.34,8.34,0,0,1,.5-1.65,19.35,19.35,0,0,1,2.68-3.73.94.94,0,0,0,.59.21,1,1,0,0,0,1-1v-.49a.78.78,0,0,0-.09-.4c.39-1.52,3.29-4.31,5.41-5.78A14.61,14.61,0,0,1,386.61,75c1.84-.85,3.94-1.82,4.8-3.65,1.17-2.22.75-6.56-.91-9.28a4.63,4.63,0,0,0-3.92-2.57,5.2,5.2,0,0,0-1.72.32c-.53.18-.61.21-1-.1a2.94,2.94,0,0,1-.43-.89,4.86,4.86,0,0,0-.6-1.23,4.19,4.19,0,0,0-1.54-1.44,6.22,6.22,0,0,1-.71-.47c-.15-.16-.3-.37-.46-.58a6.93,6.93,0,0,0-.71-.83,6.05,6.05,0,0,0-1.43-.93.93.93,0,0,1-.13-.3,5.6,5.6,0,0,1,.09-1.58,5.66,5.66,0,0,0,0-2.59A4,4,0,0,0,376,46.49a2.28,2.28,0,0,1-.92-.9,3.94,3.94,0,0,1-.45-2.25c0-1.45,0-3.41-2.63-4.64a28.28,28.28,0,0,1,.31-5c.14-1.2.28-2.4.33-3.66,0-1-.08-1.65-.52-2.06a2,2,0,0,0-1.31-.42,3.7,3.7,0,0,1-.31-2.4,7.43,7.43,0,0,0-.14-2.62,1,1,0,0,0-.92-.67h-.06c-.63.06-.76-.05-.77-.05a3.06,3.06,0,0,1-.18-.34,4.17,4.17,0,0,0-.76-1.27,4.52,4.52,0,0,0-1.82-1.15c-.57-.23-.88-.37-1.05-.67a.94.94,0,0,0-.82-.5,1,1,0,0,0-.84.48c-.68,1.16-1.56,2.36-2.39,3.52-.68.94-1.35,1.86-1.89,2.71a14.09,14.09,0,0,0-1.37,2.22,14,14,0,0,1-.88,1.55A8.72,8.72,0,0,1,355,29.93a10.86,10.86,0,0,0-2,1.92,62.18,62.18,0,0,0-5.31,9.28l-1.34,2.65c-.28.51-.61,1-1,1.62a28.51,28.51,0,0,0-1.57,2.81,9,9,0,0,0-.58,2.07c-.13.81-.17,1.06-.83,1.44-1.32.66-5.65,2-6.44,1.76a1.43,1.43,0,0,1,0-.26,2.08,2.08,0,0,0-1.56-1.94,4.27,4.27,0,0,0-1.69.09,7.2,7.2,0,0,1-1.47.13,5.4,5.4,0,0,1-1.88-.59,4.19,4.19,0,0,0-3.18-.49,6,6,0,0,0-2.07,1.34,5.33,5.33,0,0,1-1.65,1.15,8.17,8.17,0,0,1-3.58.24,4.78,4.78,0,0,1-1.59-.85,8.4,8.4,0,0,0-1.34-.82,6.42,6.42,0,0,0-1.64-.49,6.82,6.82,0,0,1-.84-.21v-.29a4.08,4.08,0,0,0-1.75-3.07c-3.11-2.15-9.12-.56-9.77-.38a12.9,12.9,0,0,0-2.79,1.26c-1.31.7-2.79,1.5-3.75,1.34a3.44,3.44,0,0,1-1.3-.91,6.29,6.29,0,0,0-2-1.41.92.92,0,0,0-1,.22,1,1,0,0,0-.22,1c.27.73.27.73-.25,1.41l-.23.31a4.51,4.51,0,0,1-.76.76c-1.25,1-1,1.91-.06,3.28a8.43,8.43,0,0,0,.86,1.2,6.39,6.39,0,0,1,.57.77c.19.51.45,1.43.1,1.82s-2,.61-4.72-.11a29.34,29.34,0,0,0-8.21-.52,22.12,22.12,0,0,1-3-.12,17.91,17.91,0,0,0-4.45,0,6.51,6.51,0,0,0-4,2,5.29,5.29,0,0,0-.7,1.09c-.23.42-.28.54-1,.75a5.84,5.84,0,0,1-2.09,0,6.07,6.07,0,0,0-3.7.34,2.85,2.85,0,0,0-1.09,1.24,1.51,1.51,0,0,1-.79.82,5.88,5.88,0,0,1-2.2.28c-1.45,0-3.27,0-4.55,1.8a2.94,2.94,0,0,0-.55,1.44c-.06.35-.08.44-.25.58a6.42,6.42,0,0,1-1.9.67c-.52.14-1,.29-1.54.48a3.7,3.7,0,0,0-2.49-3.1c-1.19-.46-2.36-.1-3.11-.38a3,3,0,0,1-1-.91,7.12,7.12,0,0,0-1.18-1.12c-.49-.29-.89-.5-1.23-.68a3.27,3.27,0,0,1-1.66-1.44,13.41,13.41,0,0,0-2.93-3.74c-.86-.79-1.11-2.12-1.37-3.52-.1-.56-.2-1.11-.34-1.6-.07-.29-.14-.61-.21-1a14.63,14.63,0,0,0-.76-2.68,3.59,3.59,0,0,0-.82-.91,1.94,1.94,0,0,1-.44-.47c-1.05-1.68-.84-6.26-.73-8.56.07-.56.1-1.09.12-1.58a5.91,5.91,0,0,1,.65-3,21.94,21.94,0,0,0,1.15-2.6,9.89,9.89,0,0,1,2.17-3.78A10.68,10.68,0,0,1,233,27c1-.76,2.21-1.71,2.34-3.27a2.28,2.28,0,0,0-1-2.17,2.57,2.57,0,0,1-.46-.42,11.69,11.69,0,0,1-2.34-4.7c-1.09-3-2.72-3.31-4.78-3.72l-.6-.12c-.25-.07-.47-.12-.67-.16s-.4-.09-.4,0a1.88,1.88,0,0,1,0-.74c0-.33.09-.46.14-.39a2.38,2.38,0,0,0,1.28-.89,5.7,5.7,0,0,0,.8-4.38c-.36-1.14-.78-1.49-1.45-1.73l-.16-.24a1.47,1.47,0,0,1-.16-.75A2.55,2.55,0,0,0,224.31,1a2.74,2.74,0,0,0-2.66-.32,1.66,1.66,0,0,0-.76.85l-.89.11c-1.21.16-3.73.47-4.44-.24a1,1,0,0,0-.85-.91c-1.08-.12-1.77.13-2.08.77-.57,1.14.7,2.46,2,3.85a4.54,4.54,0,0,0,.61.58c.17.56,0,.84-1.29,1.66a4.57,4.57,0,0,0-2.13,2.3,3.65,3.65,0,0,0-1.31,1.75c-.21.48-.29.67-.75.83a6.79,6.79,0,0,1-1.84.18,7,7,0,0,0-1.59.14A3.8,3.8,0,0,0,205,13a4.47,4.47,0,0,1-.52.18,4.33,4.33,0,0,1-1,.17,3,3,0,0,0-2.09.87,2.57,2.57,0,0,0-.8,1.21c-.14.37-.21.54-.46.7a3.16,3.16,0,0,1-1.38.41,2.72,2.72,0,0,0-2.4,1.7,2.43,2.43,0,0,0-.1,1.38c-.43.27-2.39.06-3.25,0-.59-.06-1.11-.12-1.46-.12-3.79,0-7.52.18-9.17,1.45-1.46,1.13-1.18,2.56-1,3.61a3.83,3.83,0,0,1,.11,1.56,1.34,1.34,0,0,1-.82.87,3.8,3.8,0,0,1-3.15-.05c-.32-.16-.49-.48-.76-1a4,4,0,0,0-1.52-1.9c-1.33-.85-3.27-.76-4.82-.68l-1,0a8.65,8.65,0,0,1-3.23-1A10.15,10.15,0,0,0,162,21c-1.45-.05-1.57-.36-1.86-1.11a3.92,3.92,0,0,0-2-2.39c-1-.5-7.19-1.25-8.37.35a2.54,2.54,0,0,0-.54,2.49c.52,1.65,2.56,2.86,3.75,3.16a18.31,18.31,0,0,0,1.81.4c.22,0,.47.07.45,0a9,9,0,0,1,.25,1.24l.15.86a7.67,7.67,0,0,0,1.13,2.67,2.51,2.51,0,0,1,.41,2.75A3.64,3.64,0,0,1,156,33a4.66,4.66,0,0,0-1.55,2,3.49,3.49,0,0,0,.06,2.92,2,2,0,0,0,.95.79c0,.43.11.88.17,1.32a22.61,22.61,0,0,1,.27,3,11.49,11.49,0,0,1,0,1.42c-.09,1.36-.19,2.91.92,4,1.17.82,2.62.44,3.29.64a6.77,6.77,0,0,1,2.48,1.22l.23.15a.93.93,0,0,0,1.09,0c.14-.09.21-.1.75,0a5,5,0,0,0,1.64.14,4.7,4.7,0,0,0,1.49-.72c.66-.43.95-.58,1.31-.44.13,0,.25.24.35.53a6.1,6.1,0,0,1,0,2.94c-.27,0-.66,0-1-.06a5.3,5.3,0,0,0-2.68.15,1.93,1.93,0,0,0-.93,1.29c0,.1-.11.28,0,.2a3.92,3.92,0,0,1-1.25.33l-.54.09a7.11,7.11,0,0,1-1.4.06,5.89,5.89,0,0,0-2.9.47c-1.48,1.07-1.15,2.57-.93,3.56a4.16,4.16,0,0,1,.16.91c-.06,1.8-.66,2-2,2.47a7.74,7.74,0,0,0-2.46,1.25l-.8.6c-.8.6-.8.6-2.27.86a4.45,4.45,0,0,0-3,1.64,4.3,4.3,0,0,1-1.31,1.08,3.52,3.52,0,0,1-1.41.21,4.1,4.1,0,0,0-2.78.82,3.23,3.23,0,0,0-.8,1.9c-.12.71-.18,1-.57,1.15a1.51,1.51,0,0,1-.87,0A2.52,2.52,0,0,0,137.07,73a3.89,3.89,0,0,0-.53,2,2.1,2.1,0,0,0,0,.45,1.18,1.18,0,0,1-.52.09,2.78,2.78,0,0,1-.38,0,5.31,5.31,0,0,1,.05-1.09c.14-1.07.31-2.52-1-3.32-1.25-.61-5,.32-5.41.48a4.87,4.87,0,0,0-2,1.67,2.66,2.66,0,0,1-1.28,1c-1.27.44-4.31.34-5.22-.38a3.64,3.64,0,0,1-.93-1.45,6.09,6.09,0,0,0-1.6-2.35,10.52,10.52,0,0,0-3.46-1.53c-1.89-.59-4-1.27-4.17-2.43,0-.27.17-.46.77-.93a2.88,2.88,0,0,0,1.34-2c0-.83-.73-1.89-2.08-3.54l-.27-.33c-.45-.5-.9-.92-1.33-1.34a13.26,13.26,0,0,1-1.53-1.63,10.79,10.79,0,0,1-.93-1.26,9.62,9.62,0,0,0-1.66-2.07,1,1,0,0,0-1.09-.11,12.17,12.17,0,0,0-3.33,3.08,12,12,0,0,1-2,2.08c-.71.51-2.41.91-2.91.61v-.24A2.63,2.63,0,0,0,95.26,57c-.38-.57-1.2-1.73-2.26-1.5s-1.21,1.5-1.38,2.81a8.45,8.45,0,0,1-.27,1.49c-.47.36-2.89.11-3.92,0-.68-.07-1.26-.12-1.66-.12-1.13,0-2.3.06-3.47.12s-2.26.13-3.44.13c-.32,0-.69.07-1.07.11-1.25.15-3,.36-3.83,0,0,0-.17-.16-.25-.23a2.44,2.44,0,0,0-.94-.67,4.4,4.4,0,0,0-4.17.28c-3.06,1.34-4.88,2.46-4.42,6.6a18.55,18.55,0,0,1,.13,2.42c0,1.71.06,3.31,1.17,4.38a4.82,4.82,0,0,0,3.44,1,15.28,15.28,0,0,0,1.63-.17c2.09-.28,3.23-.35,4.09,1.22.71,1.14,1.09,3.47.48,4.27-.08.11-.3.39-1.14.15a4.34,4.34,0,0,1-.85-.44A5.48,5.48,0,0,0,71.27,78,7.09,7.09,0,0,0,68,78.3l-.77.21L66,78.79c-2.11.42-4.72.93-5.37,3.82a38.09,38.09,0,0,0-.17,8.49l0,.6a4.57,4.57,0,0,0,1.35,3.46,1,1,0,0,0,.56.5c2.49.79,6,4,5.59,6.18,0,0-.15.18-.22.27a2.51,2.51,0,0,0-.8,2.1c.15,1,1.06,2.06,2.39,3.39,1.67,1.68,1.82,1.91,1.82,4.65-.12,6.47-1.76,13.17-3.56,20a57.31,57.31,0,0,0-1.22,6.43c-.26,1.7-.52,3.47-.91,5.17A74.33,74.33,0,0,0,64.06,153a.85.85,0,0,0-.38.69c-.06,2.07-.29,4.09-1.35,4.94a2.84,2.84,0,0,1-2.12.45,3.09,3.09,0,0,0-1.15-1.43c-2-1.48-5.87-1.81-7.59-1.38a3.94,3.94,0,0,0-2.54,2.37,3.74,3.74,0,0,1-.79,1.16c-.93.7-2,.61-3.36.49-.48,0-1-.07-1.43-.07h0c-5.23.13-12.65,2.82-16.51,5.24a15.32,15.32,0,0,0-2.46,2,15.73,15.73,0,0,1-2,1.66,3.53,3.53,0,0,1-2,.73,6.66,6.66,0,0,0-2.14.53,1,1,0,0,0-.52.65,1,1,0,0,0,.18.82.87.87,0,0,1,.2.37c0,.2-.64.64-1,.88a5,5,0,0,0-1.58,1.55,15.17,15.17,0,0,0-1.22,5.21l-.12,1a4,4,0,0,1-1.28,2.31,7,7,0,0,0-1.52,2.22c-.34.79-.77,3.52,0,5a2.1,2.1,0,0,0,.37.51,7.06,7.06,0,0,0,.25,1.88,3.45,3.45,0,0,1,.12,1.83c-.19.59-.46.7-1.28,1a6.59,6.59,0,0,0-1.34.56c-3,1.52-6,5.14-7.5,7.86a.94.94,0,0,0-.06.77.9.9,0,0,0,.51.57,3.67,3.67,0,0,1,.89.6,1,1,0,0,0,0,.86l0,0a.94.94,0,0,0,.24.5A4.37,4.37,0,0,1,4,208.34l-.33,0c-1.11.17-2.26.35-2.84,1.3a3.49,3.49,0,0,0,0,2.88,10,10,0,0,0,1.94,2.93,13.51,13.51,0,0,1,1.38,1.83,1.52,1.52,0,0,0-.12.32,4.06,4.06,0,0,1-.22.58c-.35.84-.8,1.88-.29,2.72a2,2,0,0,0,2,.8,2.29,2.29,0,0,1,.61.06c.27.13.37.31.59.82l.24.51A7.34,7.34,0,0,1,7.59,225a6.38,6.38,0,0,0,1.17,2.81,49.35,49.35,0,0,0,4,4.94c.79.91,1.58,1.81,2.31,2.72.88,1.07.53,1.51-.62,2.64-.76.75-1.62,1.59-1.53,2.78a2.88,2.88,0,0,0,1,1.86.92.92,0,0,0,.21.46,1,1,0,0,0,.71.3,1,1,0,0,0,.49.15.89.89,0,0,0,.76-.41.94.94,0,0,0,.16-.42c2.1-.82,5.79.41,7.57,2a11.8,11.8,0,0,1,2.73,3.06,6.94,6.94,0,0,1,.6,1.82,4.09,4.09,0,0,0,2.06,3.19,5.3,5.3,0,0,0,2.47.33,5.47,5.47,0,0,1,1.68.13,4.05,4.05,0,0,1,1.12.42,6.64,6.64,0,0,0,1,.44c2.29.54,6-.49,8.42-1.17l.24-.07c2-.51,3.41-1.95,4.74-3.33a20.89,20.89,0,0,1,1.5-1.48l.87-.77c1-.83,2-1.74,3-2.52a74.76,74.76,0,0,0-1.87,12.31l-.05.55c-.27,3.07-.61,7.23.38,10.11A1,1,0,0,0,53.1,269a4,4,0,0,1,.76.63A3.71,3.71,0,0,0,56,270.89a5.74,5.74,0,0,0,3-1,5.41,5.41,0,0,1,1.32-.64,12,12,0,0,1,1.93-.29,13.66,13.66,0,0,0,2.27-.33,8.73,8.73,0,0,1,3.4-.11c.49.05,1,.11,1.62.13,2.32.25,4.23-.11,6.26.46.59.2,1.23.45,1.88.71a19,19,0,0,0,5.88,1.58c2.18,0,4.85-1.84,6.91-3.42a8.15,8.15,0,0,0,2-2.6c1-1.75,1.52-2.43,2.71-2.19a4.79,4.79,0,0,1,1.39.58c1.21.66,3,1.64,4.76-.93a4.81,4.81,0,0,0,.9-1.88,2,2,0,0,1,.77-1.29,9.77,9.77,0,0,1,2.72-1.09,13.25,13.25,0,0,0,3.18-1.23,15,15,0,0,0,2.41-1.87,10.9,10.9,0,0,1,2.27-1.71,7.44,7.44,0,0,1,1.35-.48,5.17,5.17,0,0,0,2.83-1.5l.32,0a5.89,5.89,0,0,1,1-.12,2.89,2.89,0,0,1,.71.07,3.11,3.11,0,0,0,1.51,0,3,3,0,0,0,1.26-1.24c0-.1.08-.15,0-.14a7.63,7.63,0,0,1,3-.48,13.79,13.79,0,0,0,2.79-.3l1-.26a5.4,5.4,0,0,1,2.13-.35,2,2,0,0,1,.61.26,3.19,3.19,0,0,0,1.73.47,3,3,0,0,0,1.06-.46,1.92,1.92,0,0,1,.47-.18,2.85,2.85,0,0,0,.5-.14c.17-.05.42-.14.46-.14s.17.11.4.7a3.8,3.8,0,0,1,.13,1.55,8.33,8.33,0,0,0,0,1.41.94.94,0,0,0-.43,1,7.6,7.6,0,0,1,.12,2.2,2.69,2.69,0,0,1-.38,1,4.24,4.24,0,0,0-.48,1.19,16.2,16.2,0,0,0,.77,7.21l.32.88a7.32,7.32,0,0,1,.64,3,2.94,2.94,0,0,1-.26.92,4.29,4.29,0,0,0-.37,1.7,14.51,14.51,0,0,0,.95,4.84c1.37,3.3,3.18,4.76,5.76,6.6a5.09,5.09,0,0,1,1.39,1.7l.52.83a5.24,5.24,0,0,0,2.45,1.89,4.24,4.24,0,0,1,1.43.9,4.65,4.65,0,0,1,1.38,2.15c.49,1.21,1,2.59,4,3.05a15.85,15.85,0,0,0,4.37-.29c2-.31,3.85-.59,5.29.09a4.92,4.92,0,0,1,1.57,1.37,6.13,6.13,0,0,0,2.41,1.91,8.49,8.49,0,0,0,2.75.17,11.13,11.13,0,0,1,1.52,0,3.32,3.32,0,0,1,2.79,1.78,8.7,8.7,0,0,0,1.8,2,10.72,10.72,0,0,0,4.77,1.89,12.94,12.94,0,0,1,2.93.86,11.65,11.65,0,0,0,1.3.42,6.93,6.93,0,0,1,1.59.58,3.81,3.81,0,0,1,1.33,1.33,7.61,7.61,0,0,0,1.39,1.48,12.1,12.1,0,0,0,3,1.94,3.59,3.59,0,0,0,2.43,0,3.7,3.7,0,0,1,1.31-.21,5,5,0,0,1,1.52.35,7,7,0,0,0,1.59.4,8,8,0,0,0,2.29-.42,6.25,6.25,0,0,1,1.52-.33,23.62,23.62,0,0,1,7.13,1.79c.47.2.91.33,1.35.47s.74.23,1.14.39a.8.8,0,0,0,.37.08.92.92,0,0,0,.86-.56s0-.05,0-.07c.51-.36,1-.69,1.49-1a12.16,12.16,0,0,0,4.14-3.6,9,9,0,0,0,1.22-2.27,10.19,10.19,0,0,1,.49-1.13,9.1,9.1,0,0,1,1.77-2.21c.43-.44.85-.87,1.22-1.33a13.34,13.34,0,0,0,3.21-7.83v-1.29a25.61,25.61,0,0,0-.15-4.08,3.77,3.77,0,0,0-1.16-2.33,3.69,3.69,0,0,1-.58-.76,9.68,9.68,0,0,1-.71-6,2.88,2.88,0,0,1,.64-.7,3.54,3.54,0,0,0,1-1.27c.59-1.63-.3-2.94-.93-3.89l-.59-.94c-.74-1.24-1.16-1.44-3-1.44a6.47,6.47,0,0,0-1.3.18,2.14,2.14,0,0,1-1.06.1,5.45,5.45,0,0,1-1.87-1,5.87,5.87,0,0,0-4.19-1.48c-1.16.1-2.31.24-3.45.38a38.61,38.61,0,0,1-8.89.37A79.43,79.43,0,0,0,201.2,258l-.2-1.24a28,28,0,0,1,0-9,16,16,0,0,0,.1-5.61,12.49,12.49,0,0,0-.43-1.63,4.25,4.25,0,0,1-.3-2.11,5.93,5.93,0,0,1,.48-1.43,5.57,5.57,0,0,0,.67-3.11h.37c1.35,0,3.13-.06,5.49-.2,1.07-.05,2-.11,2.38-.11a110.51,110.51,0,0,0,15.65-.35l.27,0c3.36-.2,6.82-.18,10.19-.16,2.81,0,5.72,0,8.53-.09.5,0,1.09,0,1.73.08,2.3.11,5.2.27,7-.84a1,1,0,0,0,.42-1,2.94,2.94,0,0,1,.36-2.26,7.83,7.83,0,0,0,.63-1.72,19,19,0,0,0,.16-6.31c0-.6-.1-1.17-.12-1.69-.1-2.79,1.22-5.31,2.6-8l0-.06a.88.88,0,0,0,.34-.21.86.86,0,0,0,.22-.36c.63.46.8,1.32.9,2.86a9.87,9.87,0,0,0,.38,2.45,10.89,10.89,0,0,0,1.9,3.25,12.91,12.91,0,0,1,1.47,2.26l.37,1a12.16,12.16,0,0,1,1.07,4.21c.06.91.09,1.81.13,2.71s.06,1.86.12,2.76a1.5,1.5,0,0,0,1.48,1.12c.68-.18,1.32.4,2.24,1.35a8.94,8.94,0,0,0,1.1,1,11.44,11.44,0,0,1,2.11,1.76,10.17,10.17,0,0,1,.93,1.57,8.85,8.85,0,0,0,1.34,2.08,3.07,3.07,0,0,0,2.78,1,5.66,5.66,0,0,1,1.08,0,1.53,1.53,0,0,1,1.1.85,4.69,4.69,0,0,0,1.24,1.28c1.36.8,3,.5,4.4.23a14.59,14.59,0,0,1,1.47-.22c1.35-.06,2.72,0,4.1,0s2.84.06,4.19,0a15.9,15.9,0,0,1,3.33.44c.76.16,1.54.33,2.47.44,2.95.13,5.41.25,8.08.49,1.15.05,2.28.06,3.4.06,1.71,0,3.32,0,5,.18l1.81.19a62.66,62.66,0,0,0,6.35.43c5.11.06,10.28.38,15.28.68,5.58.34,11.36.69,17.07.69A115.26,115.26,0,0,1,378.06,250l.78.16a24.07,24.07,0,0,0,4.9.67,8.48,8.48,0,0,0,1.44-.12,20.45,20.45,0,0,1-2.36,5.34,28.29,28.29,0,0,0-2.25,4.76,24.45,24.45,0,0,0-1,5.9,29.35,29.35,0,0,1-.64,4.59c-.15.47-.28.88-.42,1.27a9,9,0,0,0-.61,4.41,70.5,70.5,0,0,1,0,10.07,35.36,35.36,0,0,0,.78,11.11.92.92,0,0,0,.58.67,1,1,0,0,0,.9-.12,8.74,8.74,0,0,0,2.33-2.88,8.63,8.63,0,0,1,1.53-2.1c.68-.48,1.25-.94,1.81-1.4-.26.69-.61,1.44-.93,2.11-1.12,2.36-2.28,4.79-.55,6.22,1,.78,2.42.68,3.84.58a6.35,6.35,0,0,1,2.47.1,14.34,14.34,0,0,1,4.08,2,14,14,0,0,1,1.18.89c1,.77,1.9,1.54,2.93,1.15s1.45-1.6,1.71-2.75.29-1.22.78-1.5c.26-.16.59-.35,1-.64a4.29,4.29,0,0,1,.45-.26,3.17,3.17,0,0,0,1.08-.81,2.63,2.63,0,0,1,.23.85,1,1,0,0,0,.41.69,1,1,0,0,0,.8.14,5.2,5.2,0,0,0,2.54-1.58,2.78,2.78,0,0,1,.47-.41s.3-.07,1.46.91c1.5,1.35,2.49,2.74,2.52,3.57a.64.64,0,0,1-.2.51.94.94,0,0,0-.23,1,.93.93,0,0,0,.72.66,36.64,36.64,0,0,0,4.67.57,20.2,20.2,0,0,1,7.21,1.48c.27.12.56.25.84.4a6.51,6.51,0,0,0,2.8.89,2.64,2.64,0,0,0,2-.85,3.45,3.45,0,0,0,.88-3.06,2.11,2.11,0,0,1,.06-1c.33-.35,2.38-.18,3.27-.11a10.13,10.13,0,0,0,2.44,0,21.59,21.59,0,0,0,5.3-2.36c.62-.34,1.22-.67,1.8-1l.34-.19c1.43-.82,1.75-1,2.88-.81a4.14,4.14,0,0,1,.82.3,4.5,4.5,0,0,0,1.4.46A2.31,2.31,0,0,0,452,297a13.3,13.3,0,0,0-.47-1.34,5.26,5.26,0,0,1-.49-2.29,1.41,1.41,0,0,1,.07-.57,3.08,3.08,0,0,0,.07-1.22,3.88,3.88,0,0,0-.86-2,2.72,2.72,0,0,1-.41-.68c-.46-1.68,0-2.22,1-3.3a11.22,11.22,0,0,0,1.37-1.77c1.08-1.64.84-2.5.11-3.36-.19-.23-.29-.35-.31-.48-.07-.78.29-1.12,1.22-1.93l.44-.37a1,1,0,0,0-.27-1.61,12.8,12.8,0,0,0-5.09-1.32c-.27,0-.63,0-1,.07-.63.07-2.05.22-2.2-.08-.18-.49.95-1.44,1.63-2a7.37,7.37,0,0,0,1.23-1.17,4.88,4.88,0,0,0,.86-2.64,4.2,4.2,0,0,1,.27-1.32,1.8,1.8,0,0,0,1.05-.74,8.72,8.72,0,0,0,.53-1.24,3.07,3.07,0,0,1,.6-1.22,4.33,4.33,0,0,1,1.62-.68,5.78,5.78,0,0,0,2.53-1.22c1.85-1.67,1.77-2.78,1.44-4.17,0-.12-.05-.23-.08-.35s.16-.11.2-.2A1.8,1.8,0,0,0,457.14,257.63Zm-93-151.7a7.07,7.07,0,0,1,.54-.78,4.24,4.24,0,0,0,1-2.36,8,8,0,0,0,0-.94,1.31,1.31,0,0,1,.38-1.16,4.91,4.91,0,0,1,1.88-1.27,5.48,5.48,0,0,1-.28,1.57c-.08.27-.15.49-.16.56a12.56,12.56,0,0,1-2.18,4.28,1,1,0,0,0-.69.29,8,8,0,0,1-1.11.95ZM387.82,116a2.77,2.77,0,0,0-.83.82c-.12.17-.09.17,0,.17a2.54,2.54,0,0,1-1.28-.4,8.17,8.17,0,0,0-1.08-.44c-2-.57-2-.57-2.88-2.37l-.18-.41a1.59,1.59,0,0,0-.74-.91,2.82,2.82,0,0,0-1.65-.78,6.63,6.63,0,0,1-1-.28c-.05-.21,0-.28,0-.32a2.53,2.53,0,0,1,1.64-.61,1.05,1.05,0,0,0,.24-.06,4.59,4.59,0,0,1,.7,0,3,3,0,0,0,2.42-.74,2,2,0,0,0,.54-1.79c-.24-.91-1.2-1.25-1.9-1.49a4.3,4.3,0,0,0-.47-.16h0c0-.06-.06-.11-.1-.13l.32-.21a2.29,2.29,0,0,0,1.26-1.51,2.21,2.21,0,0,0-.62-1.77,7.49,7.49,0,0,0-3.43-2.13l.13-.11a1.05,1.05,0,0,0,.31-.17,7.72,7.72,0,0,1,1.15,0,4.64,4.64,0,0,0,3.2-.53c.93-.78,1-2,1-3.11,0-1.71.18-2.2,1.17-2.4a2.26,2.26,0,0,1,1.44.43,4.77,4.77,0,0,0,2.58.7,6,6,0,0,0,2.93-1.3,5.2,5.2,0,0,1,1.78-1,8.4,8.4,0,0,1,1.82,0,10.15,10.15,0,0,0,2.26-.07,7.64,7.64,0,0,0,1.11-.33,3.48,3.48,0,0,1,1-.29,3.06,3.06,0,0,1,1.12.41,7,7,0,0,0,1.44.57,5.9,5.9,0,0,0,2.43-.18,4.79,4.79,0,0,1,1.51-.18,6.2,6.2,0,0,1,2.4,1,11.66,11.66,0,0,0,1.05.58,13.83,13.83,0,0,0,1.4.74,7.21,7.21,0,0,1,1.71,1c.64.55.71.74.71.76a4.79,4.79,0,0,1-.68,1.18c-.16.27-.37.58-.61.94l-.77,1.3c-1.41,2.44-2.54,4.36-5,5.86l-.43.27a5.53,5.53,0,0,0-2.58,2.57,2.17,2.17,0,0,0,.27,1.49.36.36,0,0,0,.09.16,4.58,4.58,0,0,0-.06.56,3.06,3.06,0,0,1-.19.93,2.38,2.38,0,0,1-.2-.37c-.21-.43-.58-1.17-1.28-1.25a1.79,1.79,0,0,0-1.4.08,3.17,3.17,0,0,0-1.28,2.23,5.34,5.34,0,0,1-.36,1.1c-.35.29-.67.23-1.43,0a3,3,0,0,0-2.84.18,2.39,2.39,0,0,0-1.21,2H394a5.86,5.86,0,0,1-1.92-.41,6.45,6.45,0,0,0-1.61-.48l-.32,0c-.91-.07-1.15-.09-1.71.28A4.81,4.81,0,0,1,387.82,116Zm11.35.22a1.05,1.05,0,0,0-.28.24,8.25,8.25,0,0,1-1.69,1.7,1.92,1.92,0,0,1-1.1.35,3.82,3.82,0,0,0-1.3.27,3.9,3.9,0,0,0-2.31,2.57,6.9,6.9,0,0,1-.28.66c-.36-.51-.67-1.06-1-1.64a21.75,21.75,0,0,0-1.37-2.15,1,1,0,0,0-1-.34,1.05,1.05,0,0,0-.3.15l.08-.1c.1-.16.13-.2.16-.22a2.22,2.22,0,0,0,.71-.46l.56,0,.29,0a4.86,4.86,0,0,1,1.09.35,5.6,5.6,0,0,0,2.1.53c1.17,0,1.93,0,2.41-.49a1.55,1.55,0,0,0,.41-1.2c0-.27,0-.34.39-.61s.49-.14,1.18.08A5.25,5.25,0,0,0,399.17,116.26ZM312.92,57.92a29.38,29.38,0,0,1,.25-3.28c.07-.63.14-1.26.19-1.89l.51.11a4.68,4.68,0,0,1,1.19.35,5.72,5.72,0,0,1,1.05.65A6.9,6.9,0,0,0,318.39,55a10.21,10.21,0,0,0,4.58-.29,7,7,0,0,0,2.33-1.52,4.47,4.47,0,0,1,1.39-1c.48-.16,1,.06,1.83.42a7.32,7.32,0,0,0,2.44.74,7.74,7.74,0,0,0,2-.14,5.14,5.14,0,0,1,1-.09,1.18,1.18,0,0,1,0,.25,2.08,2.08,0,0,0,1,1.73,2.5,2.5,0,0,0,1.18.23c2.52,0,7-1.93,7.09-2a3.35,3.35,0,0,0,1.82-2.81,6.59,6.59,0,0,1,.44-1.6,26,26,0,0,1,1.45-2.6c.36-.58.71-1.15,1-1.71.47-.91.92-1.8,1.36-2.69a60.56,60.56,0,0,1,5.15-9,8.67,8.67,0,0,1,1.63-1.56,9.84,9.84,0,0,0,2-1.94,13.4,13.4,0,0,0,1-1.77,11.15,11.15,0,0,1,1.23-2c.57-.91,1.23-1.81,1.88-2.71s1.26-1.75,1.84-2.64a8.66,8.66,0,0,0,1,.47,2.71,2.71,0,0,1,1.11.64,3,3,0,0,1,.44.77,2.18,2.18,0,0,0,2,1.53,11.29,11.29,0,0,1,0,1.28,5.19,5.19,0,0,0,.74,3.77,2.13,2.13,0,0,0,1.38.74V30c0,1.17-.18,2.33-.31,3.48a28.84,28.84,0,0,0-.3,5.84,1,1,0,0,0,.72.86,1,1,0,0,0,.31.24c1.57.72,1.57,1.56,1.58,2.94a5.5,5.5,0,0,0,.71,3.2,4.08,4.08,0,0,0,1.52,1.54c.61.4,1,.66,1.15,1.29a4.48,4.48,0,0,1-.07,1.76,6.52,6.52,0,0,0-.06,2.34,2.26,2.26,0,0,0,1.34,1.65,2.69,2.69,0,0,1,.77.49c.15.17.31.39.48.6a7.59,7.59,0,0,0,.69.83,7.08,7.08,0,0,0,1,.71,2.31,2.31,0,0,1,1,.9,4.67,4.67,0,0,1,.36.79,3.68,3.68,0,0,0,1.06,1.74,2.7,2.7,0,0,0,2.81.4,3.32,3.32,0,0,1,1.11-.21A2.94,2.94,0,0,1,388.85,63c1.39,2.31,1.61,5.94.82,7.43-.58,1.23-2.26,2-3.89,2.76A17.43,17.43,0,0,0,383,74.67s-5.37,3.77-6.15,7a1,1,0,0,0-.29.12c-.95.64-2.15,2.16-3.69,4.72a9.74,9.74,0,0,0-.67,2.13,4.55,4.55,0,0,1-1,2.34,6.55,6.55,0,0,1-1.87,1,9.22,9.22,0,0,0-2.62,1.42,19,19,0,0,0-4.4,4.19c-.81.15-1.07,1.08-1.74,3.47-.57,2-1.76,6.31-2.85,6.73-.59.13-3.27-.76-4.61-1.43-2.83-1.27-4.22-2.67-4.68-4.66-.11-.56-.16-1.18-.22-1.82a9.06,9.06,0,0,0-1.19-4.54,3.87,3.87,0,0,0-2.44-1.54,3.38,3.38,0,0,1-1.27-.55c-1.19-.78-2.41-4-3-5.52-.11-.28-.19-.58-.28-.89s-.21-.76-.32-1a2.28,2.28,0,0,0-1-1.09,7.49,7.49,0,0,1,0-1.48c0-.39.06-.77.06-1.11s-.11-1.76-.23-2.92c-.07-.86-.15-1.66-.15-2a1,1,0,0,0-.26-.86l-.07,0a1,1,0,0,0-1-.61c-1.17.15-1.52-.24-2.42-1.59l-.39-.6a17.09,17.09,0,0,1-1.77-3.16,1.3,1.3,0,0,1-.05-.55,2.32,2.32,0,0,0-1.18-2.28,3.27,3.27,0,0,0-1.89-.43,3.58,3.58,0,0,1-.77,0,3.72,3.72,0,0,1-1.3-1.2,6.19,6.19,0,0,0-1.23-1.29,7.25,7.25,0,0,0-2.87-1.07,10,10,0,0,1-1.7-.48,9.72,9.72,0,0,0-6.64-3.63l-.92,0a4.38,4.38,0,0,0-1,0A4.37,4.37,0,0,1,312.92,57.92ZM166.73,48.23a3.71,3.71,0,0,1-.76.44,2.28,2.28,0,0,1-.89-.12,3.09,3.09,0,0,0-1.67,0,8.41,8.41,0,0,0-2.79-1.3c-1-.29-2.26-.07-2.57-.26-.38-.37-.3-1.51-.25-2.43a13,13,0,0,0,0-1.61,23.65,23.65,0,0,0-.29-3.14c-.08-.64-.18-1.29-.22-1.91a1,1,0,0,0-.88-.89c-.08,0-.25,0-.29-.09a1.76,1.76,0,0,1,.12-1.21,2.72,2.72,0,0,1,1-1.22A5.27,5.27,0,0,0,159,32.21a4.31,4.31,0,0,0-.55-4.47,6,6,0,0,1-.88-2l-.15-.82c-.34-2-.5-2.52-2.27-2.82-.4-.07-.92-.16-1.66-.36a3.94,3.94,0,0,1-2.4-1.89.62.62,0,0,1,.14-.64c.77-.54,5.28-.3,6.06.08a2.11,2.11,0,0,1,1.06,1.36c.45,1.2,1.06,2.28,3.58,2.36a8.08,8.08,0,0,1,3.51,1,10.64,10.64,0,0,0,4,1.21c.33,0,.72,0,1.13,0,1.21-.06,2.89-.14,3.73.39a2.37,2.37,0,0,1,.79,1.11,3.68,3.68,0,0,0,1.61,1.91,5.75,5.75,0,0,0,4.85.08,3.22,3.22,0,0,0,1.89-2.22,5.4,5.4,0,0,0-.11-2.33c-.22-1.07-.22-1.36.25-1.72,1.36-1,6.19-1,8-1a12.41,12.41,0,0,1,1.26.11c2,.19,3.56.32,4.48-.26a1.63,1.63,0,0,0,.88-1.94,1,1,0,0,1-.05-.28c.27-.5.32-.51.88-.58a4.88,4.88,0,0,0,2.13-.68,3,3,0,0,0,1.28-1.65,1,1,0,0,1,.27-.47,1.26,1.26,0,0,1,1-.39A6.1,6.1,0,0,0,205,15a5.06,5.06,0,0,0,.74-.26,3.16,3.16,0,0,1,.87-.24,6.79,6.79,0,0,1,1.39-.11,8.05,8.05,0,0,0,2.43-.29,2.94,2.94,0,0,0,1.89-1.89,3.77,3.77,0,0,1,.29-.57,1.22,1.22,0,0,0,.27,0,1,1,0,0,0,.81-1,.9.9,0,0,0,.1-.56A3.91,3.91,0,0,1,215.05,9c1.06-.7,2.67-1.77,2.06-3.88a4.57,4.57,0,0,0-1.06-1.3L216,3.74a15.73,15.73,0,0,0,4.26-.15,13.17,13.17,0,0,1,1.45-.15,1,1,0,0,0,.87-1,1.3,1.3,0,0,1,.75.27c.29.18.31.26.35.78a3.21,3.21,0,0,0,.42,1.6,1.9,1.9,0,0,0,1.21,1.05,1.16,1.16,0,0,1,.18.43,3.84,3.84,0,0,1-.45,2.7.55.55,0,0,1-.37.24c-.74.24-1.23.64-1.43,1.94-.27,2.05.45,2.6,1.87,2.91.17,0,.36.07.63.15l.66.13c1.92.39,2.65.53,3.34,2.43a13.43,13.43,0,0,0,2.68,5.33,4.53,4.53,0,0,0,.77.71l.19.16a1.16,1.16,0,0,1,0,.42c0,.63-.84,1.24-1.59,1.82a10.9,10.9,0,0,0-1.09.91,11.4,11.4,0,0,0-2.62,4.47,18.7,18.7,0,0,1-1,2.36,7.8,7.8,0,0,0-.9,3.9,9.94,9.94,0,0,1-.42,2.85,1,1,0,0,0,.24,1c-.06,2.64.06,5.75,1.1,7.41a3.32,3.32,0,0,0,.82.92l.37.33a16.32,16.32,0,0,1,.58,2.22c.08.35.16.69.24,1,.11.46.21,1,.3,1.46.29,1.58.62,3.37,1.93,4.57a11.69,11.69,0,0,1,2.6,3.3,5,5,0,0,0,2.45,2.2c.31.16.67.34,1.05.58a5.21,5.21,0,0,1,.78.78,4.51,4.51,0,0,0,1.8,1.44c1.19.45,2.36.1,3.1.37,1,.4,1.33,1.14,1.33,2.52a.94.94,0,0,0-.47.81c0,.17-.08.29-.28.59a2.73,2.73,0,0,0-.56,1.13,9.69,9.69,0,0,0,.1,4,4.23,4.23,0,0,0,.41,1.26A3.3,3.3,0,0,1,244,79a16.26,16.26,0,0,1,0,4.29c-.25.52-2,.37-3.23.26a11,11,0,0,0-2.92,0,26.58,26.58,0,0,0-3.08.81c-.83.25-1.67.51-2.55.69a9.69,9.69,0,0,1-2.21.08,8.12,8.12,0,0,0-3.38.32c-2.14.76-3.2,3.75-3.94,5.82a8.23,8.23,0,0,0-.26,1.06,4.44,4.44,0,0,1-.42,1.26,3.07,3.07,0,0,1-1.18,1,6.57,6.57,0,0,0-1.59,1.24,6.72,6.72,0,0,0-1.24,3.67,4.88,4.88,0,0,1-.66,2.36c-.31.45-.88.53-1.78.61a4.43,4.43,0,0,0-1.78.43,19.74,19.74,0,0,1-2-1.91c-.48-.5-1-1-1.67-1.66-1.15-1.15-2.58-2.58-4.9-2a11.8,11.8,0,0,0-2.74,1.49,16,16,0,0,1-1.55,1c-2.74,1.51-2.74,3-2.74,5.68a52.46,52.46,0,0,1-.34,6.29,17.57,17.57,0,0,1-8.8-5.43c-.42-.46-1-1-1.55-1.52a14.46,14.46,0,0,1-2.43-2.66,0,0,0,0,1,0,0,2.32,2.32,0,0,0,2-.77c.89-1,.39-3-.72-5.92l-.12-.33a10.61,10.61,0,0,1-.64-4.43,20.78,20.78,0,0,0-.15-3c-.16-1.23-.41-2.38-.65-3.52a25.14,25.14,0,0,1-.71-4.52,14,14,0,0,1,.08-1.9c.21-2.34.43-5-1-6a.91.91,0,0,0-.91-.1,3.9,3.9,0,0,1-.52-1.56,11.79,11.79,0,0,0-.35-1.47,10,10,0,0,0-1.81-3.14,7,7,0,0,1-1.53-2.79,12.8,12.8,0,0,0-1.16-2.88l-.27-.53a5,5,0,0,1-.34-1.45,6.5,6.5,0,0,0-.38-1.61c-.69-1.58-2.53-2.32-4.49-2.7a8.33,8.33,0,0,0,0-4.15,2.58,2.58,0,0,0-1.49-1.72A3.21,3.21,0,0,0,166.73,48.23ZM114.39,251.45a9.23,9.23,0,0,0-1.69.6,12,12,0,0,0-2.69,2,12.31,12.31,0,0,1-2.1,1.64,12.44,12.44,0,0,1-2.76,1.05,11.27,11.27,0,0,0-3.28,1.36,3.84,3.84,0,0,0-1.5,2.32,3.26,3.26,0,0,1-.59,1.28c-.82,1.19-1.14,1-2.31.38a6.51,6.51,0,0,0-1.94-.78c-2.63-.52-3.86,1.58-4.74,3.13a6.78,6.78,0,0,1-1.5,2c-1,.75-3.94,3-5.7,3A17.58,17.58,0,0,1,78.36,268c-.68-.27-1.34-.53-2-.76-2.38-.65-4.19-.27-6.66-.53-.6,0-1.1-.08-1.57-.12a10.55,10.55,0,0,0-4.06.16,13.29,13.29,0,0,1-2,.28,12.39,12.39,0,0,0-2.23.33,6.94,6.94,0,0,0-1.82.83,5.36,5.36,0,0,1-1.83.77,2.39,2.39,0,0,1-1-.72c-.16-.15-.32-.3-.5-.45a1.07,1.07,0,0,0-.06-.35c-1-2.48-.6-6.75-.36-9.58l.05-.57A70,70,0,0,1,56.76,243a1,1,0,0,0-.31-1,1,1,0,0,0-1.06-.11A30.23,30.23,0,0,0,50,246l-.86.75c-.57.5-1.1,1.05-1.64,1.61-1.2,1.24-2.32,2.42-3.84,2.8l-.27.07c-2.12.59-5.66,1.58-7.38,1.19a6.29,6.29,0,0,1-.7-.32,4.87,4.87,0,0,0-1.53-.56,6.46,6.46,0,0,0-2.16-.19,4.14,4.14,0,0,1-1.58-.13c-.64-.33-.79-.85-1-1.91a9.63,9.63,0,0,0-.8-2.33A13.82,13.82,0,0,0,25,243.35c-2.26-2-7-3.6-9.94-2.11a1.06,1.06,0,0,1-.28-.49c0-.31.5-.81,1-1.27,1.07-1,2.83-2.76.77-5.23-.74-.92-1.54-1.84-2.36-2.77a50.17,50.17,0,0,1-3.86-4.81,4.9,4.9,0,0,1-.84-2.1,9,9,0,0,0-.79-2.32l-.18-.41a3.1,3.1,0,0,0-1.43-1.73,3.16,3.16,0,0,0-1.55-.29H5.23c.08-.26.24-.64.33-.85s.06-.14.08-.2a1,1,0,0,0,.61-.4.94.94,0,0,0,.1-.89,11.33,11.33,0,0,0-2.12-3.22,9,9,0,0,1-1.59-2.33c-.33-1-.18-1.24-.18-1.25a3.89,3.89,0,0,1,1.49-.4c.39-.05.79-.12,1.22-.21a1,1,0,0,0,.74-.82,4.42,4.42,0,0,0,0-1.2,22.85,22.85,0,0,1,3.31,1.6,17.72,17.72,0,0,0,5.17,2.17,58,58,0,0,1,7,2,56.29,56.29,0,0,0,8.18,2.23c2.85.46,5.73,1.09,8.51,1.69,3.28.71,6.66,1.45,10,1.92,4.53.61,8.14,2.57,12,4.65,1.46.79,2.95,1.6,4.5,2.34,5.71,2.89,11.64,5.54,17.39,8.11,5.14,2.29,10.46,4.67,15.54,7.18a30.19,30.19,0,0,0,4.27,1.71A21,21,0,0,1,107,246a12.64,12.64,0,0,1,1.77,1.51,8.61,8.61,0,0,0,3.31,2.33.83.83,0,0,0,.27,0h.12a.89.89,0,0,0,.33-.08,1,1,0,0,0,.42.1,10.37,10.37,0,0,1,2.24.26v.21a2.25,2.25,0,0,0,.07.67A8.34,8.34,0,0,1,114.39,251.45Zm86.07,17.37a1,1,0,0,0,1,1,1,1,0,0,0,.89-.62,40.11,40.11,0,0,0,9.13-.39c1.12-.14,2.24-.27,3.33-.37a4,4,0,0,1,2.93,1.1,7.35,7.35,0,0,0,2.44,1.34,3.8,3.8,0,0,0,2-.06,4.66,4.66,0,0,1,.88-.14,6.52,6.52,0,0,1,1.05.05,3,3,0,0,1,.29.45l.64,1c.61.91,1,1.51.74,2.15a3.42,3.42,0,0,1-.51.52,4.41,4.41,0,0,0-1.12,1.37A11.36,11.36,0,0,0,225,284a5.65,5.65,0,0,0,.85,1.11,1.9,1.9,0,0,1,.66,1.29,23.36,23.36,0,0,1,.13,3.76l0,1.28a11.39,11.39,0,0,1-2.77,6.67,15.2,15.2,0,0,1-1.1,1.19,10.79,10.79,0,0,0-2.12,2.7c-.24.47-.4.88-.56,1.28a7.12,7.12,0,0,1-1,1.85,10.48,10.48,0,0,1-3.6,3.12c-.54.34-1.12.71-1.72,1.13l-.58-.18a10.7,10.7,0,0,1-1.15-.41,25.67,25.67,0,0,0-7.84-1.94,7.66,7.66,0,0,0-2.11.4,7,7,0,0,1-1.63.35,5.63,5.63,0,0,1-1.1-.31,6.48,6.48,0,0,0-2.12-.45,5.56,5.56,0,0,0-1.9.3,1.71,1.71,0,0,1-1.29,0,14.63,14.63,0,0,1-2.46-1.72,5.81,5.81,0,0,1-.92-1,5.22,5.22,0,0,0-2-1.88,8.4,8.4,0,0,0-1.91-.71c-.37-.11-.73-.2-1-.32a14.7,14.7,0,0,0-3.32-1,8.85,8.85,0,0,1-4-1.52,6.75,6.75,0,0,1-1.45-1.6,5.19,5.19,0,0,0-4.15-2.57,13.69,13.69,0,0,0-1.81,0,6.27,6.27,0,0,1-2-.07,4.51,4.51,0,0,1-1.59-1.36,7,7,0,0,0-2.2-1.84c-1.95-.94-4.21-.58-6.4-.25a14.42,14.42,0,0,1-3.81.29c-1.85-.29-2-.78-2.47-1.85a6.66,6.66,0,0,0-1.85-2.85,6,6,0,0,0-2-1.26,3.36,3.36,0,0,1-1.64-1.2l-.48-.76a6.82,6.82,0,0,0-1.88-2.23c-2.41-1.73-4-3-5.13-5.8a12.67,12.67,0,0,1-.8-4.12,2.55,2.55,0,0,1,.25-1,5.71,5.71,0,0,0,.37-1.39,8.8,8.8,0,0,0-.75-3.9l-.31-.87a14.54,14.54,0,0,1-.69-6.21,2.56,2.56,0,0,1,.27-.63,4.11,4.11,0,0,0,.6-1.64,7.15,7.15,0,0,0,0-1.79.93.93,0,0,0,.46-1.13,4.89,4.89,0,0,1-.13-1.8,5.37,5.37,0,0,0-.26-2.35c-1-2.41-2.44-1.93-3.22-1.69-.14,0-.26.09-.16.09a2.33,2.33,0,0,0-1.23.42c-.18.1-.32.19-.27.2a1.42,1.42,0,0,1-.61-.25,3.68,3.68,0,0,0-1.28-.49,8,8,0,0,0-2.91.41l-.91.24a12.28,12.28,0,0,1-2.41.24,8.77,8.77,0,0,0-4,.75,2.41,2.41,0,0,0-.67.78,2.33,2.33,0,0,0-.27.46,4,4,0,0,0-.54-.07,3.38,3.38,0,0,0-1.23-.09,5.15,5.15,0,0,0-.88.09,1,1,0,0,0-.29-.18.85.85,0,0,0-.31,0,1.45,1.45,0,0,0-.63-1,5.45,5.45,0,0,0-2-.54A3.65,3.65,0,0,1,116,248a6.17,6.17,0,0,0,1.59-.06c1.09-.16,1.69-.24,2-1.1a1.55,1.55,0,0,1,.26-.43,1.31,1.31,0,0,0,.29-1.09,2.14,2.14,0,0,0,.84-.42,7.49,7.49,0,0,1,5.66-1.68,3.09,3.09,0,0,1,1.92,1,5.33,5.33,0,0,0,2.41,1.43.94.94,0,0,0,1.06-.44c.38-.64.71-.67,1.68-.61a5,5,0,0,0,2.21-.23,6,6,0,0,0,2.14-1.58A5.14,5.14,0,0,1,139,242a1.86,1.86,0,0,0,1,1.18c1.48.69,3.49-.85,4.14-1.49a7.45,7.45,0,0,0,1.39-2.22,5.81,5.81,0,0,1,1.22-1.89c1-1,2.92-1.29,4.81-1.6a15.23,15.23,0,0,0,3.77-.9l.29-.09a4.62,4.62,0,0,0,2.32-1.27,4.15,4.15,0,0,0,1.09-2.35,4,4,0,0,1,.4-1.28,13.19,13.19,0,0,1,1.22-1.36c.35-.37.7-.72,1-1a3,3,0,0,1,1.06-.8,6.51,6.51,0,0,0,1.21-.73,4.62,4.62,0,0,0,1.15-1.57,5,5,0,0,1,.64-1,5.35,5.35,0,0,1,1.59-1.28,10.65,10.65,0,0,0,1.28-.92,1.74,1.74,0,0,0,.46-1.12c.34,0,.93,0,1.28,0a8.08,8.08,0,0,0,1.3,0,10.93,10.93,0,0,0,1.58-.18,5.22,5.22,0,0,1,2.16-.1,1.34,1.34,0,0,1,.74.51,5.48,5.48,0,0,0,.75.67,6,6,0,0,0,1.2.76,3.24,3.24,0,0,1,.81.51,2.6,2.6,0,0,1,.52,1.1,3.15,3.15,0,0,0,1.5,2.1,3.76,3.76,0,0,0,1.73.25,2,2,0,0,1,.95.09c.22.13.33.21.36.23a2.5,2.5,0,0,0,.46,1.11,8.46,8.46,0,0,0,3.57,2.77,15.49,15.49,0,0,1,1.87,1.06,9.11,9.11,0,0,1,1.68,1.81,10.15,10.15,0,0,0,1.94,2.05.94.94,0,0,0,1.29-.17,4.27,4.27,0,0,0,.94-1.87c0-.06,0-.11,0-.13a3.91,3.91,0,0,1,.94,0,4.15,4.15,0,0,1,1.38.25l0,0a1.51,1.51,0,0,0,.54.37,1,1,0,0,0,.61.43c.28.07.49.16.54.26.18.34-.28,1.42-.55,2.05a7.92,7.92,0,0,0-.61,1.93,5.78,5.78,0,0,0,.38,2.93,10,10,0,0,1,.36,1.41,15.2,15.2,0,0,1-.13,5.14,28.87,28.87,0,0,0,0,9.37l.2,1.26A66.13,66.13,0,0,1,200.46,268.82Zm56-62.49a5.11,5.11,0,0,1-.38,1,3.59,3.59,0,0,0-.42,2.78c0,.08-.08.16-.13.24-1.43,2.77-2.93,5.63-2.82,8.95,0,.55.08,1.14.13,1.76a17.42,17.42,0,0,1-.11,5.7,6.55,6.55,0,0,1-.5,1.37,5.11,5.11,0,0,0-.62,2.74,15.4,15.4,0,0,1-5.31.29,14.8,14.8,0,0,0-1.86-.07c-2.81.11-5.7.09-8.5.09-3.38,0-6.89,0-10.31.16l-.29,0a107.54,107.54,0,0,1-15.44.35c-.52,0-1.44.06-2.56.11a60.51,60.51,0,0,1-7.57.09,6.25,6.25,0,0,0-3.16-1c-1.87-.11-2.53.31-2.85,1.6,0,.06,0,.13-.05.19-.24-.28-.49-.59-.74-.91a10.7,10.7,0,0,0-2.08-2.2,17.17,17.17,0,0,0-2.12-1.21,6.52,6.52,0,0,1-2.86-2.16.48.48,0,0,1-.14-.31c-.11-.68-.42-1.06-1.24-1.55a3.44,3.44,0,0,0-2-.4,4.2,4.2,0,0,1-.73,0c-.35-.2-.42-.41-.59-1a4.35,4.35,0,0,0-1-1.88,5.37,5.37,0,0,0-1.32-.89,4.62,4.62,0,0,1-.94-.59,2.59,2.59,0,0,1-.49-.45,3.1,3.1,0,0,0-1.61-1,6.3,6.3,0,0,0-3,0,7.89,7.89,0,0,1-1.42.17,6,6,0,0,1-1,0,4.53,4.53,0,0,0-2.63.32,1.77,1.77,0,0,0-.68,1.4c-.26.2-.55.39-.86.59a6.39,6.39,0,0,0-2.09,1.76,6.13,6.13,0,0,0-.81,1.28,2.9,2.9,0,0,1-.65.94,7,7,0,0,1-.86.52,4.71,4.71,0,0,0-1.66,1.25c-.24.29-.55.6-.87.93a14.59,14.59,0,0,0-1.46,1.68,5.75,5.75,0,0,0-.66,1.93,2.45,2.45,0,0,1-.63,1.45,3.52,3.52,0,0,1-1.48.7l-.4.14a14.75,14.75,0,0,1-3.38.8c-2.17.34-4.43.71-5.82,2.1a7.45,7.45,0,0,0-1.63,2.45,5.49,5.49,0,0,1-1,1.68,4.66,4.66,0,0,1-1.89,1.16h0a1.48,1.48,0,0,1-.07-.78.87.87,0,0,0-.32-.79,1,1,0,0,0-.83-.22,5.42,5.42,0,0,0-2.92,1.78,4,4,0,0,1-1.45,1.12,3.35,3.35,0,0,1-1.4.11,3.4,3.4,0,0,0-2.94.88,4.56,4.56,0,0,1-1-.77,5,5,0,0,0-3-1.52,9.27,9.27,0,0,0-7.06,2.09,2.13,2.13,0,0,1-.39.15,1.81,1.81,0,0,0-.9.55,2,2,0,0,0-.27,1.29,2.88,2.88,0,0,0-.33.56l-.66.11a6.59,6.59,0,0,1-1.18,0,4.88,4.88,0,0,0-2.54.41.76.76,0,0,0-.26.18c-.14.15-.31.37-.5.61a7,7,0,0,1-.5.61,9.52,9.52,0,0,1-2.18-1.72,13.41,13.41,0,0,0-2.06-1.73,22.53,22.53,0,0,0-5.67-2.57,30.31,30.31,0,0,1-4-1.6c-5.14-2.55-10.48-4.92-15.63-7.22-5.72-2.56-11.64-5.2-17.33-8.08-1.53-.74-3-1.53-4.42-2.31-4-2.16-7.76-4.21-12.64-4.87-3.32-.46-6.67-1.19-9.9-1.9-2.81-.61-5.72-1.24-8.61-1.71A53.85,53.85,0,0,1,22,212a58.48,58.48,0,0,0-7.25-2.06,16.15,16.15,0,0,1-4.6-2A21.1,21.1,0,0,0,5.89,206a6.19,6.19,0,0,0-1.73-2,18.24,18.24,0,0,1,6.26-6.3,5.75,5.75,0,0,1,1-.42A3.28,3.28,0,0,0,14,195.13a5.16,5.16,0,0,0-.07-2.85,3.58,3.58,0,0,1-.16-1.7.84.84,0,0,0-.06-.71.74.74,0,0,0-.55-.39c-.35-.41-.25-2.63.07-3.37a5.1,5.1,0,0,1,1.15-1.64,6,6,0,0,0,1.77-3.32l.13-1.13a13.61,13.61,0,0,1,1-4.5,3.76,3.76,0,0,1,1-.92A3.56,3.56,0,0,0,20,172.42a2,2,0,0,0,0-.64l.63-.08a5.34,5.34,0,0,0,2.94-1.07,17.58,17.58,0,0,0,2.14-1.81,14.33,14.33,0,0,1,2.18-1.77c3.66-2.3,10.79-4.84,15.52-5,.41,0,.83,0,1.25.07,1.5.12,3.17.27,4.71-.9a5.3,5.3,0,0,0,1.3-1.79c.41-.79.65-1.21,1.31-1.39a9.51,9.51,0,0,1,6,1.06c.53.39.54.69.54.79a1,1,0,0,0,.79.9,5.14,5.14,0,0,0,4.29-.76c1.4-1.11,1.83-3,2-4.93a.93.93,0,0,0,.34-.64,73.57,73.57,0,0,1,1.47-10.18c.41-1.77.68-3.57.94-5.31a54.13,54.13,0,0,1,1.17-6.23c1.84-7,3.51-13.81,3.63-20.51,0-3.15-.31-3.94-2.39-6-1.54-1.53-1.82-2.11-1.85-2.3s0-.23.33-.56a2.46,2.46,0,0,0,.66-1.12c.68-3.29-3.09-6.9-6.21-8.2a.7.7,0,0,0-.1-.08c-.91-.5-1-1-1.12-2.44l0-.58a37,37,0,0,1,.13-8c.35-1.57,1.63-1.9,3.85-2.34.48-.1,1-.19,1.39-.3.27-.06.55-.14.84-.22a5,5,0,0,1,2.35-.28,3.85,3.85,0,0,1,1.23.58,5.13,5.13,0,0,0,1.33.64,2.72,2.72,0,0,0,3.2-.83c1.28-1.7.59-4.89-.36-6.4-1.5-2.74-4-2.41-6-2.14-.49.06-1,.14-1.46.16a2.63,2.63,0,0,1-2-.47c-.53-.51-.55-1.67-.58-3a21.69,21.69,0,0,0-.14-2.63c-.31-2.74.35-3.33,3.3-4.62,1.39-.64,1.52-.63,2.71-.24a2.3,2.3,0,0,1,.25.23,2.38,2.38,0,0,0,.84.63c1.33.61,3.26.37,4.82.19l.92-.11c1.14,0,2.3-.06,3.47-.12s2.27-.12,3.37-.12c.35,0,.87.06,1.47.11,2.54.26,4.41.37,5.32-.43.68-.51.81-1.55,1-2.74,0-.17,0-.38.08-.59l0,0a.74.74,0,0,1,0,.48,2,2,0,0,0,.9,2c1.47.92,4,.08,5-.66a14,14,0,0,0,2.35-2.4,12.8,12.8,0,0,1,2.16-2.24c.29.35.55.74.84,1.17a15.87,15.87,0,0,0,1,1.42,17.2,17.2,0,0,0,1.69,1.79c.39.39.81.78,1.18,1.2l.26.31a20.31,20.31,0,0,1,1.65,2.22,3.26,3.26,0,0,1-.62.57,3,3,0,0,0-1.49,2.65c.31,2.41,3.06,3.29,5.49,4.06a9.57,9.57,0,0,1,2.8,1.16,4.45,4.45,0,0,1,1.09,1.68,5,5,0,0,0,1.53,2.19c1.62,1.28,5.51,1.18,7,.65a4.43,4.43,0,0,0,2.13-1.67A3.1,3.1,0,0,1,130,73.45a15.88,15.88,0,0,1,3.74-.57c.18.12.08,1,0,1.4a3.11,3.11,0,0,0,.47,2.7,2.18,2.18,0,0,0,1.94.52,2.11,2.11,0,0,0,2.27-2.36,2.06,2.06,0,0,1,.21-1c.26-.39.31-.38.89-.31a3.22,3.22,0,0,0,2-.23,3,3,0,0,0,1.6-2.56,2,2,0,0,1,.22-.81,2.92,2.92,0,0,1,1.54-.3,5.05,5.05,0,0,0,2.25-.44A6.51,6.51,0,0,0,149,68a2.58,2.58,0,0,1,1.89-1.06A5.18,5.18,0,0,0,154,65.71l.82-.61a6,6,0,0,1,1.93-1c1.4-.5,3.16-1.11,3.27-4.25a7.55,7.55,0,0,0-.19-1.36c-.24-1-.24-1.3.08-1.54a6.33,6.33,0,0,1,1.84-.15,7.57,7.57,0,0,0,1.82-.11l.41-.06a5.54,5.54,0,0,0,2-.62,2.41,2.41,0,0,0,.76-1.24c0-.06,0-.16,0-.17a3.21,3.21,0,0,1,.71,0,1,1,0,0,0,.72.4l1,.08a1.1,1.1,0,0,0,1.26.15c2.52.4,3.41,1.1,3.67,1.68a5.42,5.42,0,0,1,.24,1.12,6.17,6.17,0,0,0,.53,2l.27.55a11.3,11.3,0,0,1,1,2.45A8.69,8.69,0,0,0,178,66.61a8.21,8.21,0,0,1,1.51,2.53,11.86,11.86,0,0,1,.31,1.29,4.46,4.46,0,0,0,2.43,3.63,20.78,20.78,0,0,1-.07,3.49,15.13,15.13,0,0,0-.1,2.18,28.73,28.73,0,0,0,.75,4.81c.24,1.09.48,2.19.63,3.36a19.93,19.93,0,0,1,.14,2.77,12.12,12.12,0,0,0,.79,5.15l.11.27c1.16,3,1.1,3.84,1,4s-.56.07-.82,0a1.68,1.68,0,0,0-1.74.54c-.46.71-.06,1.58.36,2.35a14.9,14.9,0,0,0,2.81,3.13c.53.5,1.05,1,1.43,1.41a19.71,19.71,0,0,0,10.83,6.26l.2,0a1,1,0,0,0,.53-.16,1,1,0,0,0,.4-.65,51.36,51.36,0,0,0,.51-7.6c0-2.58,0-3,1.71-4a17.3,17.3,0,0,0,1.71-1,10.35,10.35,0,0,1,2.21-1.25c1.2-.3,1.92.35,3,1.45,0,0,.18.19.19.2.53.49,1,1,1.47,1.45a15.88,15.88,0,0,0,3,2.64,1,1,0,0,0,.79.12.93.93,0,0,0,.57-.53,3.38,3.38,0,0,1,1-.16,4,4,0,0,0,3.19-1.43,6.56,6.56,0,0,0,1-3.22,5,5,0,0,1,.82-2.67,4.62,4.62,0,0,1,1.11-.84,4.56,4.56,0,0,0,1.79-1.59,5.12,5.12,0,0,0,.67-1.9c.07-.3.14-.6.24-.91.51-1.44,1.46-4.11,2.79-4.59a7.62,7.62,0,0,1,2.63-.19,10.68,10.68,0,0,0,2.67-.12c.92-.19,1.81-.46,2.71-.73a26.89,26.89,0,0,1,2.87-.77,10.38,10.38,0,0,1,2.39.06,14.4,14.4,0,0,0,2.7.07c-.33,2,.47,4.13,1.21,6a14.64,14.64,0,0,1,1,3.32c0,.42.05.78.06,1.12a9,9,0,0,0,.21,2,8.77,8.77,0,0,1,.19,1.16c.16,1.26.36,2.81,1.84,3.35a3.42,3.42,0,0,0,2,.14c.6-.09.78-.1.93,0a4.93,4.93,0,0,1,.54,1.58,6.3,6.3,0,0,0,.2.81,3.83,3.83,0,0,0,1.09,2.32c.15.17.35.38.61.7a1.71,1.71,0,0,1,.46.92,8.5,8.5,0,0,0,.43,1.28c.88,1.63,3.8,3.72,5.24,4.43a16.48,16.48,0,0,0,5.3.65,18.11,18.11,0,0,1,4.07.35l.87.26c2.25.66,3.19.93,4.55,3.16a2.24,2.24,0,0,1,.29.82c.21,1.16.9,1.44,2.33,1.76a11.24,11.24,0,0,0,1.29.18c.83.08,1,.09,1.57.87a3.27,3.27,0,0,1,.1,1.12,1,1,0,0,0,.92,1,15.69,15.69,0,0,0,9.06-2.92l.35-.25c.32-.24,1.12-.79,1.31-.73-.07.3-1,1-1.43,1.33a7,7,0,0,0-1.43,1.28,1,1,0,0,0-.19.66c-3.19,3.06-5.54,7.55-7.51,11.6-1,2.16-2.2,4.34-3.35,6.45A86.21,86.21,0,0,0,273,151c-.53,1.35-1,2.7-1.52,4.05a71.86,71.86,0,0,1-2.82,7,19.44,19.44,0,0,1-1.1,2.13,20,20,0,0,0-1.39,2.87,38.79,38.79,0,0,0-1.24,3.73,34.32,34.32,0,0,1-1.25,3.71,31.73,31.73,0,0,1-3.53,6,46.69,46.69,0,0,0-2.76,4.27,51.34,51.34,0,0,0-3.42,7c-.17.49-.32,1-.48,1.53a10.34,10.34,0,0,1-1.47,3.41,1,1,0,0,0,.07,1.27c-.26,2,1.08,3,2.09,3.8a4.77,4.77,0,0,1,2.25,4.67Zm122.8,41.93-.81-.16a117.41,117.41,0,0,0-21.95-2.25c-5.65,0-11.39-.34-16.94-.68-5-.31-10.22-.62-15.39-.69a60.11,60.11,0,0,1-6.16-.43l-1.85-.17c-1.76-.16-3.49-.17-5.17-.19-1.1,0-2.2,0-3.29-.06-2.66-.24-5.14-.36-8.05-.49-.8-.1-1.53-.25-2.24-.4a18.06,18.06,0,0,0-3.74-.48h0c-1.34.07-2.71,0-4.1,0s-2.84-.06-4.25,0a16,16,0,0,0-1.72.26c-1.14.21-2.33.44-3,0a2.62,2.62,0,0,1-.69-.75,3.45,3.45,0,0,0-2.3-1.64,6.19,6.19,0,0,0-1.52-.06c-.73,0-.93,0-1.31-.42a7,7,0,0,1-1.05-1.66,11.55,11.55,0,0,0-1.19-1.94A12.42,12.42,0,0,0,270,234a9.62,9.62,0,0,1-.81-.78c-.8-.84-1.84-1.91-3.21-2,0-.65-.07-1.31-.09-2,0-.91-.07-1.84-.13-2.7a13.81,13.81,0,0,0-1.18-4.83l-.39-1A13.14,13.14,0,0,0,262.5,218a9.65,9.65,0,0,1-1.6-2.68,8.81,8.81,0,0,1-.29-2c-.12-1.78-.32-4.16-2.94-4.87,0-.11.08-.2.14-.33a6.16,6.16,0,0,0,.5-1.38,6.7,6.7,0,0,0-.68-4.08,6.3,6.3,0,0,0-2.29-2.52c-1.2-.89-1.59-1.25-1.25-2.42a1,1,0,0,0-.06-.62,14.46,14.46,0,0,0,1.31-3.31c.15-.5.29-1,.45-1.44a49.58,49.58,0,0,1,3.3-6.7,46,46,0,0,1,2.66-4.12,34.43,34.43,0,0,0,3.73-6.3,39,39,0,0,0,1.31-3.91c.35-1.18.72-2.4,1.19-3.6a19.72,19.72,0,0,1,1.29-2.61c.41-.75.83-1.5,1.17-2.27a74.78,74.78,0,0,0,2.87-7.13c.48-1.33,1-2.67,1.49-4a82.17,82.17,0,0,1,4.28-8.55c1.16-2.13,2.38-4.35,3.4-6.56,2-4.16,4.44-8.82,7.72-11.63a1,1,0,0,0,.32-.82c.16-.14.34-.27.52-.41,1.12-.84,2.64-2,2.06-3.49a2,2,0,0,0-1.28-1.28c-1.11-.32-2.19.51-3,1.12l-.33.24a13.71,13.71,0,0,1-7,2.53,2.82,2.82,0,0,0-.37-1.2,3.43,3.43,0,0,0-3-1.73,8.9,8.9,0,0,1-1.08-.15,7.45,7.45,0,0,1-.84-.22,4.07,4.07,0,0,0-.54-1.46c-1.75-2.87-3.31-3.32-5.66-4l-.88-.27a20.25,20.25,0,0,0-4.57-.43,15,15,0,0,1-4.57-.49,14.21,14.21,0,0,1-4.27-3.48,7.3,7.3,0,0,1-.3-.94,3.49,3.49,0,0,0-.85-1.67c-.27-.34-.49-.58-.65-.76-.41-.47-.41-.47-.67-1.55-.06-.19-.11-.45-.17-.72a5.21,5.21,0,0,0-1.1-2.57,2.83,2.83,0,0,0-2.53-.52,1.69,1.69,0,0,1-1,0c-.41-.15-.51-.68-.66-1.8a11,11,0,0,0-.23-1.36,8.19,8.19,0,0,1-.16-1.6,12.19,12.19,0,0,0-.08-1.28,16,16,0,0,0-1.14-3.81c-.74-1.89-1.43-3.68-1.06-5.26a1,1,0,0,0,.48-.84v-.55s0,0,0,0a.35.35,0,0,0,.05-.08c.52-1.21.28-4.73.2-5.33a4.74,4.74,0,0,0-.5-1.66,3,3,0,0,1-.28-.86,9.11,9.11,0,0,1-.18-2.73.85.85,0,0,0,.38.09,1,1,0,0,0,1-.93c0-.39,0-.79,0-1.2,0-.16,0-.34,0-.51a8.7,8.7,0,0,1,2-.66,7.34,7.34,0,0,0,2.62-1,2.5,2.5,0,0,0,.94-1.76,1.36,1.36,0,0,1,.22-.64c.67-.93,1.54-1,3-1a7.68,7.68,0,0,0,3-.43,3.41,3.41,0,0,0,1.71-1.68,1.23,1.23,0,0,1,.33-.47,4.73,4.73,0,0,1,2.56-.12,6.75,6.75,0,0,0,2.87-.06,3,3,0,0,0,2.1-1.69,3.14,3.14,0,0,1,.4-.66A4.51,4.51,0,0,1,271,59.26a17.57,17.57,0,0,1,4,0,25.07,25.07,0,0,0,3.27.12,27.17,27.17,0,0,1,7.67.47c2.24.6,5.21,1,6.58-.47.79-.86.89-2.14.24-3.87a6.71,6.71,0,0,0-.84-1.22,7.86,7.86,0,0,1-.72-1,6.36,6.36,0,0,1-.44-.7l.1-.08a6,6,0,0,0,1.06-1.08l.22-.29a4.8,4.8,0,0,0,.66-1l0,0A4.88,4.88,0,0,0,295,51.54c1.63.29,3.36-.65,5-1.54a11.17,11.17,0,0,1,2.38-1.09c2.75-.77,6.47-1.07,8.17.1a2.08,2.08,0,0,1,.74.91.94.94,0,0,0-.28,1.31,3.05,3.05,0,0,0,.47.58c0,.82-.13,1.7-.23,2.62a29.85,29.85,0,0,0-.28,3.45c-.06,1.19-.05,2.08.52,2.7s1.32.61,2.38.64l.88,0a7.61,7.61,0,0,1,5,2.58.94.94,0,0,0,.5.68l.07,0a7.61,7.61,0,0,1,.62,1,1,1,0,0,0,1.28.45,1,1,0,0,0,.52-.71l.11,0a3.53,3.53,0,0,1,3,1.68,5.05,5.05,0,0,0,2.2,1.82,5.61,5.61,0,0,0,1.38.12c.48,0,.63,0,.8.11.36.25.36.26.35.61a3.15,3.15,0,0,0,.18,1.32,19.42,19.42,0,0,0,2,3.55l.38.56c.78,1.18,1.6,2.39,3.44,2.47,0,.43.08,1,.15,1.75.09,1.1.21,2.29.21,2.75s0,.64-.05,1A6.57,6.57,0,0,0,337,85.6a2,2,0,0,0,.74.7c.09,0,.27.18.21.08a7.15,7.15,0,0,1,.27.89c.11.38.22.76.42,1.28.95,2.48,2.1,5.2,3.63,6.21a5.14,5.14,0,0,0,1.88.83,1.94,1.94,0,0,1,1.37.81,7.59,7.59,0,0,1,.84,3.57,20.74,20.74,0,0,0,.25,2.06c.77,3.38,3.49,5,5.73,6a19,19,0,0,0,5.13,1.57,3.69,3.69,0,0,1-1,1.85,2.24,2.24,0,0,1-1.63.62,4.46,4.46,0,0,0-1.78.47c-1.95,1.12-1.83,2.25-1.59,2.84.66,1.66,4.06,2.13,5.93,1.66,2.59-.72,3.5-2.22,4.7-4.21.79-1.51.79-1.51,2.08-1.58h.33c1.76-.09,2.3-.4,2.92-1.25a3.87,3.87,0,0,1,1.07-1,6.93,6.93,0,0,1,3.39-.33c1.21.2,1.42.46,1.58,1.32a1.65,1.65,0,0,1-.12.61,2.87,2.87,0,0,0-.09,1.77,4.75,4.75,0,0,0,1.12,1.69c.14.15.28.3.35.39a8,8,0,0,1,.86,2.45,8.29,8.29,0,0,0,1.17,3.09c1,1.22,4.34,3.85,6.42,3.46a6.53,6.53,0,0,0,2.19-1.06,6.66,6.66,0,0,1,1.88-1,3.75,3.75,0,0,1,.7-.14,2.63,2.63,0,0,0,1.28-.42c.11.18.21.37.33.56a15.33,15.33,0,0,0,1.92,2.83,1,1,0,0,0,.72.32.94.94,0,0,0,.6-.21,4.74,4.74,0,0,0,1.53-2.24,2,2,0,0,1,1.26-1.49,1.83,1.83,0,0,1,.71-.14,3.76,3.76,0,0,0,2.05-.7,5.1,5.1,0,0,0,.84-.68,8.27,8.27,0,0,1-.19.9l-.13.52a1,1,0,0,0,.73,1.14c2.27.49,3.32-1.37,4-2.6a7.56,7.56,0,0,1,.77-1.2,23.59,23.59,0,0,1,4.26-3.51l.73-.52a17.49,17.49,0,0,1,1.78-.92,12.13,12.13,0,0,0,3.54-2.25,16.36,16.36,0,0,0,1.08-1.35,7.89,7.89,0,0,1,2-2.09l.58-.4a8.89,8.89,0,0,0,3.13-2.93,9.45,9.45,0,0,1,3.24-2.57c1.11-.52,2-.24,3.22.18.39.12.8.26,1.28.39a20.36,20.36,0,0,0,3,.33,18.25,18.25,0,0,1,2.06.17,15.19,15.19,0,0,0,2.21.09,5.94,5.94,0,0,1,3.32.56,2.42,2.42,0,0,1,.7.59,3.73,3.73,0,0,0,1.71,1.18,4.8,4.8,0,0,0,2,.25,3.88,3.88,0,0,1,.94,0,6.6,6.6,0,0,1,1.79,1.15,10.36,10.36,0,0,0,1.66,1.13l.59.33c1.07.6,1.29.72,1.29,2.16a15.16,15.16,0,0,1-.42,3.57l-.32,1.23a2.11,2.11,0,0,1-.74,1.2,5.86,5.86,0,0,1-.69.24,3.23,3.23,0,0,0-1.7.89,2.06,2.06,0,0,0-.6,1.73c.21.86,1,1.22,1.7,1.51.89.39,1,.51.95.67s0,0-.05.07a4.14,4.14,0,0,0-.61,1.87c0,.25-.07.5-.1.64A12.46,12.46,0,0,1,447,125a13.29,13.29,0,0,0-1,1.73,8.15,8.15,0,0,0-.65,2.2,5.38,5.38,0,0,1-.47,1.66,3,3,0,0,1-.64.73,3.46,3.46,0,0,0-1.31,2.19,4.34,4.34,0,0,0,.14,1.65,2.6,2.6,0,0,1,.1,1.05,14,14,0,0,1-.76,2.46,3.45,3.45,0,0,1-1,.93A6.15,6.15,0,0,0,440,141a7.34,7.34,0,0,0-1,2.25,7,7,0,0,1-.83,1.92,4.09,4.09,0,0,1-.71.57,4.17,4.17,0,0,0-1.21,1.12,7.79,7.79,0,0,0-.92,2.52,7.16,7.16,0,0,1-.52,1.71,17.52,17.52,0,0,1-2.36,3.41c-.57.71-1.15,1.42-1.67,2.17a22.87,22.87,0,0,0-1.18,2c-.86,1.62-1.61,3-3.37,3.64a3.28,3.28,0,0,1-1.13.08,4.33,4.33,0,0,0-1.61.16,4.79,4.79,0,0,0-2.09,2.12,9.8,9.8,0,0,1-.55.82,10.34,10.34,0,0,1-3.21,2.69,15.61,15.61,0,0,0-3.44,2.71,12.2,12.2,0,0,0-1.05,1.54,5.12,5.12,0,0,1-.9,1.27,4.64,4.64,0,0,1-1.32.81,5.12,5.12,0,0,0-2.57,2.14,1,1,0,0,0,.12,1.09c1.23,1.42,3.17,1.84,5,2.24a14,14,0,0,1,2.59.72c1.17.58,1.31.89,1.31.89a3.11,3.11,0,0,1-.46.77,6.08,6.08,0,0,0-1.12,2.22,1.66,1.66,0,0,0,0,.22.83.83,0,0,0,.09.39c.06.3.15.88.17,1a4.59,4.59,0,0,1-.21,1.19,3.47,3.47,0,0,0-.12.51,4.31,4.31,0,0,1-1.52,2.24c-.3.28-.64.6-1,1a8.84,8.84,0,0,0-1.88,4c-.39,1.42-.66,2.43-1.58,2.89a.92.92,0,0,0-.79-.45.82.82,0,0,0-.89.59,6.81,6.81,0,0,0-4.39,1.22c-.74.47-2.46,1.74-2.66,3.41a5.94,5.94,0,0,0,.25,2,3.43,3.43,0,0,1,.08,2.29,2.92,2.92,0,0,1-1,1,5.32,5.32,0,0,0-1.49,1.56c-1.51,2.72-.16,5,1,6.92.55.94,1.74,3.35.69,5.73a15.52,15.52,0,0,1-2,3.17,15.47,15.47,0,0,0-2.48,4.11,19.6,19.6,0,0,0-.6,2.13c-.34,1.44-.4,1.7-2.34,2.52-2.68,1.09-3.35,2.83-4,4.51a14.62,14.62,0,0,1-1.07,2.25,5.52,5.52,0,0,1-.6.86,5.39,5.39,0,0,0-1.11,2.1,20.28,20.28,0,0,0-.43,3.92c0,.24,0,.46,0,.7C384.43,249.36,380.87,248.6,379.24,248.26Zm75,12.87a4.12,4.12,0,0,1-1.76.79,6,6,0,0,0-2.31,1.05,4.35,4.35,0,0,0-1.2,2.07,3.12,3.12,0,0,1-.36.79c-.29.09-.88.27-1,.77a5.68,5.68,0,0,0-.55,2.19,3.14,3.14,0,0,1-.48,1.68,7.62,7.62,0,0,1-.92.84c-1.21,1-2.88,2.4-2.15,4.26.76,1.56,2.81,1.35,4.13,1.22.32,0,.61-.06.83-.06a8.61,8.61,0,0,1,2.93.6,3.49,3.49,0,0,0-1.14,3,3.22,3.22,0,0,0,.76,1.46l.17.2a2.25,2.25,0,0,1-.44.9,9.49,9.49,0,0,1-1.19,1.49c-1.05,1.19-2.16,2.41-1.39,5.11a3.84,3.84,0,0,0,.69,1.29,2.32,2.32,0,0,1,.53,1.13,1.83,1.83,0,0,1-.07.56,2.9,2.9,0,0,0-.08,1.12,6.51,6.51,0,0,0,.61,2.81,12.4,12.4,0,0,1,.44,1.22c.2.63.2.9.24.93a2.09,2.09,0,0,1-.91.06,3.17,3.17,0,0,1-.82-.3,5.43,5.43,0,0,0-1.31-.45c-1.81-.29-2.61.16-4.14,1L443,299c-.57.28-1.19.63-1.84,1a19.86,19.86,0,0,1-4.75,2.17,8.73,8.73,0,0,1-1.9-.07c-1.92-.16-3.9-.34-4.82.71a2.87,2.87,0,0,0-.59,2.44c.06.82.05,1.23-.29,1.54-.52.53-1.12.35-2.58-.38-.33-.16-.65-.32-.94-.44a22.35,22.35,0,0,0-7.84-1.64c-1-.07-2.11-.16-3.21-.32a1.8,1.8,0,0,0,0-.52c0-1.91-2-3.91-3.17-5-2.27-1.92-3.33-1.65-4.57-.39a4.45,4.45,0,0,1-.76.67,2.87,2.87,0,0,0-2.86-2.11,1,1,0,0,0-.76.52,1,1,0,0,0,0,.92c.05.07.08.13.1.16a4,4,0,0,1-.35.2l-.58.33c-.41.28-.72.46-.94.6-1.19.67-1.3,1-1.7,2.73a13.31,13.31,0,0,1-.41,1.34,5.78,5.78,0,0,1-1.14-.79,13.36,13.36,0,0,0-1.32-1,15.88,15.88,0,0,0-4.55-2.22,7.73,7.73,0,0,0-3.21-.2c-.94.06-2.1.17-2.5-.15-.56-.46.39-2.45,1.08-3.9.91-1.93,1.86-3.91,1.34-5.48a1,1,0,0,0-.64-.62.91.91,0,0,0-.87.16l-1.05.86c-.8.65-1.58,1.28-2.58,2a10,10,0,0,0-2,2.63c-.22.38-.44.75-.67,1.09a36.33,36.33,0,0,1-.35-8.76,71.78,71.78,0,0,0,0-10.37,6.84,6.84,0,0,1,.52-3.62c.14-.41.28-.85.44-1.39a28.44,28.44,0,0,0,.71-4.93,23.09,23.09,0,0,1,.89-5.45,25.1,25.1,0,0,1,2.13-4.43,20.46,20.46,0,0,0,2.73-6.8c0-.05,0-.11,0-.17a1,1,0,0,0,.48-.63c.08-.1.17-.2.25-.32a.94.94,0,0,0-.14-1.17v0a22.26,22.26,0,0,1,.39-3.53A3.56,3.56,0,0,1,389,243a6.9,6.9,0,0,0,.75-1.09,14.74,14.74,0,0,0,1.19-2.52c.63-1.6,1-2.65,3-3.44,2.72-1.15,3-2.06,3.46-3.84.12-.52.28-1.15.54-1.94a14.38,14.38,0,0,1,2.21-3.59,17.75,17.75,0,0,0,2.25-3.56,8.15,8.15,0,0,0-.8-7.48c-1.2-2-1.91-3.33-1-5a3.42,3.42,0,0,1,1-1,4.56,4.56,0,0,0,1.52-1.69,5.16,5.16,0,0,0,.05-3.55,5,5,0,0,1-.21-1.34,3.66,3.66,0,0,1,1.77-2,6.1,6.1,0,0,1,2.45-.95l.1.07a11.36,11.36,0,0,1,1.55.21.91.91,0,0,0,.52-.16c2.75-.47,3.36-2.69,3.85-4.53a7,7,0,0,1,1.44-3.18,10.63,10.63,0,0,1,.9-.89,6.17,6.17,0,0,0,2-3.17c0-.17.09-.34.14-.51a6.63,6.63,0,0,0,.27-1.67,5,5,0,0,0-.19-1.46,5.34,5.34,0,0,1,.72-1.24,2.79,2.79,0,0,0,.77-2.32c-.21-.81-.9-1.47-2.37-2.19a15.09,15.09,0,0,0-3-.86,10.35,10.35,0,0,1-3.42-1.14,5.48,5.48,0,0,1,1.24-.73c.26-.13.54-.27.81-.42a1,1,0,0,0,.38,0c.38,0,1.25.21,1.85.34s1.36.27,1.85.32a7.83,7.83,0,0,0,1.21-.15,4.42,4.42,0,0,1,1.11-.12,2,2,0,0,1,1.15.55,7.9,7.9,0,0,0,1.06.72,4.81,4.81,0,0,0,2.8.54,6.87,6.87,0,0,1,1.38.07,3.25,3.25,0,0,1,3,2.39c1.35,3.19,1.05,7.42.77,11.51-.1,1.64-.21,3.2-.21,4.66v.79c0,3.9,0,6.46-3,8.63a.94.94,0,0,0-.4.77,1,1,0,0,0,.38.78l.77.55a9,9,0,0,1,2.24,1.95,4.59,4.59,0,0,1,.5,1.17,8.81,8.81,0,0,0,.46,1.12,5.12,5.12,0,0,0,1.61,1.89c.22.19.48.39.82.73a8.72,8.72,0,0,1,1.62,2.68c1,2.08,2.33,4.92,5.24,3.58.52-.22,1-.46,1.5-.69,1.21-.58,2.34-1.14,3-.85.44.19.86.9,1.21,2.08.08.23.23.6.4,1,1.15,2.86,1.63,4.57,1.54,5l0,0c-.07-.11-.16-.23-.22-.33a3.46,3.46,0,0,0-.56-.69.84.84,0,0,1-.28-.3c-.31-.92-1.05-.86-1.93-.78-.71,0-3.81,1.33-4.23,2a2.9,2.9,0,0,0-.45,2.15,2.81,2.81,0,0,1,0,.71,8,8,0,0,1-.94,3.14,2.52,2.52,0,0,1-.53.48,2.05,2.05,0,0,0-.75,2.86,3.34,3.34,0,0,0,1.83,1.1,3.42,3.42,0,0,1,1.66.89,5,5,0,0,1,.69,2.13c.17,1.25.42,2.92,3,3.22a11.12,11.12,0,0,0,.33,1.35,4.87,4.87,0,0,1,.33,1.89,1,1,0,0,0,.43.87,5.06,5.06,0,0,1,1.62,2.9,6.27,6.27,0,0,0,1.92,3.4,3.74,3.74,0,0,0,2.76.66c.4,0,.75-.06.81,0a6.76,6.76,0,0,1,1,.56,8.87,8.87,0,0,0,1.66.84,6.34,6.34,0,0,0,.23,2C455.29,259.74,455.36,260.08,454.2,261.13Z"/></g></g></svg>