<svg xmlns="http://www.w3.org/2000/svg" viewBox="0 0 220.08 180.48"><defs><style>.cls-1{fill:#1d70b7;stroke:#fff;stroke-miterlimit:10;stroke-width:0.5px;}</style></defs><title>Sudeste</title><g id="Camada_2" data-name="Camada 2"><g id="Capa_1" data-name="Capa 1"><path class="cls-1" d="M219,77c-.16-.46-.34-1-.52-1.5a4.17,4.17,0,0,1,.35-3.14,8.55,8.55,0,0,0,.71-2.67c.35-3-1.38-3.86-2.76-4.58a10.54,10.54,0,0,1-1.34-.77A13.33,13.33,0,0,1,214,63a8.18,8.18,0,0,0-3.63-2.75,3.82,3.82,0,0,0,0-1.09,3.16,3.16,0,0,0-2.73-2.71,3.26,3.26,0,0,1-1-.43,2.72,2.72,0,0,1-.33-1.14,2.86,2.86,0,0,0-.95-2.09,1.48,1.48,0,0,0-.33-.17,24.29,24.29,0,0,0,0-5,1.07,1.07,0,0,0,.14-.35c.17-1,.66-1.56,2.4-2.64a1.64,1.64,0,0,1,.51-.26,2.44,2.44,0,0,0,1.19-.86,3,3,0,0,0,.33-1.5c0-.35,0-.65,0-.68a2.11,2.11,0,0,1,.58-.27,3.34,3.34,0,0,0,1.28-.72,3.3,3.3,0,0,0,.79-1.39,2.1,2.1,0,0,1,.29-.58,6.11,6.11,0,0,1,.67-.63,3.38,3.38,0,0,0,1.52-2.24,1.79,1.79,0,0,0-.09-.6,2.71,2.71,0,0,0,.87-2.25c-.28-2.86-5.32-5.57-9.44-7.34-1.42-.7-7-2.62-9-1.88A2.57,2.57,0,0,0,196,24.55c-.29.4-.58.83-.81.91a9.19,9.19,0,0,1-2.09,0,7.5,7.5,0,0,1-.54-1.79c-.08-.34-.15-.66-.22-.9a1.09,1.09,0,0,0-.1-.25,23.61,23.61,0,0,0-2-2.73c-.16-.29-.33-.57-.49-.84-1-1.64-2-3.33-4.58-3.59a9.29,9.29,0,0,1-3.1-.8A14.24,14.24,0,0,0,178,13.52c-.72-.08-1.39-.12-2-.15-2.15-.12-3.45-.18-4.91-2a3.81,3.81,0,0,0-2.72-1.86A4.24,4.24,0,0,1,166.83,9c-.14-.06-.2-.13-.39-.4a3.29,3.29,0,0,0-1.65-1.36c-1.19-.45-4.16-1.4-5.65-.56a2.52,2.52,0,0,0-1.2,2.69l-.28.12-.23.11a1,1,0,0,1-.58-.33,2.77,2.77,0,0,0-.89-.65,5,5,0,0,0-3.84-.84,6.4,6.4,0,0,0-.29-1.32,5.06,5.06,0,0,1-.21-1,2.25,2.25,0,0,1,.61.09,1,1,0,0,0,1.36-.66c0-.27.12-.51.18-.73.3-1,.65-2.36-1.13-3.17-1.18-.7-3-.63-4.69-.59a12.36,12.36,0,0,1-2.16,0c-2.13-.22-2.58-.05-3.79.59l-.76.41a6.25,6.25,0,0,1-1.65.45,6.08,6.08,0,0,0-2.27.71c-.7.47-.94.63-1.17,1.15a3.92,3.92,0,0,1-.34.62A6,6,0,0,1,132.28,7l-1.17.51a25.26,25.26,0,0,0-5.67,4,13.51,13.51,0,0,1-4.64,2,16.74,16.74,0,0,0-4,1.61,4.43,4.43,0,0,0-.35-2.4,2.26,2.26,0,0,0-2.92-1,2.79,2.79,0,0,0-.39-1.49,2.2,2.2,0,0,0-2-.6,3,3,0,0,1-.51,0V9.57a1.75,1.75,0,0,0-.42-1.47,2.9,2.9,0,0,0-2.55-.79,5.26,5.26,0,0,1-.9,0,1,1,0,0,0-1,.87,1,1,0,0,0,.15.58,3.1,3.1,0,0,0,.44,2c.3.61.3.72.15.94s-.12.21-.14.26l-.16-.06a3.51,3.51,0,0,0-1.15-.2h0a3.57,3.57,0,0,0-2.54,1,2.06,2.06,0,0,0-.26,1.71,4,4,0,0,1,0,1.34,26.44,26.44,0,0,1-1.89,4,.89.89,0,0,0-.06.88.93.93,0,0,0,.7.56c.62.12,1.8,2.29,2.08,3.82s-.12,1.65-2.18,2.08l-.78.16c-.92.17-4.82,1.29-5.57,3.32a2.85,2.85,0,0,0,0,1.75c.11.48.14.72,0,1a4.9,4.9,0,0,1-1.68,1.16,9,9,0,0,0-1.18.69.94.94,0,0,0-.41.7,1,1,0,0,0,.28.76,12.43,12.43,0,0,1,2.36,4.28,14.48,14.48,0,0,0,1.92,3.83c.19.25.37.48.54.68.71.86.71.86.06,1.89a12,12,0,0,1-2.65,2.4,17.28,17.28,0,0,0-2.38,2,1,1,0,0,0-.11,1.15,4.94,4.94,0,0,0,2.43,1.91c1,.42,1.2.53.91,1.93a3.87,3.87,0,0,1-.24.84,4.83,4.83,0,0,0-.39,1.41,5.63,5.63,0,0,0,.22,1.41,3,3,0,0,1,.17,1.11c-.17,1.61-1,2-2.47,2.71l-.48.25c-1.39.7-1.68,1-2,1.74a5.46,5.46,0,0,1-.69,1.08A7.1,7.1,0,0,1,85.74,69c-.32,0-.58-.27-1-.65A3.67,3.67,0,0,0,83,67.28a29.49,29.49,0,0,0-7.9-.22l-1.45.08a18.92,18.92,0,0,0-2.55.35,11.78,11.78,0,0,1-2.91.27l-.72-.06a4.72,4.72,0,0,0-3.44.69,12.6,12.6,0,0,0-1.47,1,4,4,0,0,1-1.59.93,1.06,1.06,0,0,1-.15-.15,2.62,2.62,0,0,0-1.42-.82,4.36,4.36,0,0,0-1.54.43,4.25,4.25,0,0,1-.56.22c-1.06.26-2.2.44-3.4.61A23.23,23.23,0,0,0,48,72.06c-2.35,1-3.82,3-5.25,5a18.94,18.94,0,0,1-2.64,3.17.68.68,0,0,1-.4.12,1.94,1.94,0,0,0-1.75,1.19,2.86,2.86,0,0,0,0,2.29,3.78,3.78,0,0,0,.16.57c-.21.38-.51.45-1.5.48a6.25,6.25,0,0,0-1.64.18,1,1,0,0,0-.67,1.18.94.94,0,0,0,.74.68,4.62,4.62,0,0,1-.5.75,4.17,4.17,0,0,0-1,2.16,10.17,10.17,0,0,0,.12,2.92,9.3,9.3,0,0,1,.13,2.55,1,1,0,0,0,.4.91c0,.28.08.55.14.81a14.27,14.27,0,0,1-2.37,1.08,11.57,11.57,0,0,0-2,.91,7.87,7.87,0,0,0-2.05,2.32,9.42,9.42,0,0,1-1,1.38,4.47,4.47,0,0,1-1.39,1.08,5.06,5.06,0,0,0-2,1.66,4.86,4.86,0,0,0-.74,2.07,5.36,5.36,0,0,1-.22,1,3.12,3.12,0,0,1-1.75,1.56,4.57,4.57,0,0,0-2,1.66c-.66,1.07-.44,2.36-.25,3.62.18,1.07.34,2.09,0,2.61a.84.84,0,0,1-.45.27,2.09,2.09,0,0,0-1.49,1.61,2.42,2.42,0,0,0,.18,1.66c.15.34.15.37,0,.62a5,5,0,0,1-1.17,1.06,8.39,8.39,0,0,0-1.06.88,9.53,9.53,0,0,0-.84,1.21,9.54,9.54,0,0,1-.94,1.32,26.78,26.78,0,0,1-3.91,2.73,33.85,33.85,0,0,0-3.24,2.17c-1.1.83-2.19,1.78-3.29,2.74-.52.47-1.06.93-1.6,1.39A1,1,0,0,0,.48,137a1,1,0,0,0,.73.35.93.93,0,0,0,.62-.24L2,137c1.35-.5,1.91.24,3.91.58a19.89,19.89,0,0,0,4.57.41c1.22-.06,2.36-.16,3.46-.27,3.25-.28,6.06-.52,9.43.37l1.77.45A40.73,40.73,0,0,1,32.78,141c3.65,1.59,6.6,1.48,10.3,1.37l.9,0c.45,0,.88,0,1.33,0,2.23,0,4.37-.1,6.13,1.12a6.52,6.52,0,0,1,2.3,3.27,15.66,15.66,0,0,0,1.25,2.4c1.33,2.06,2,3.16,2.21,5.51,0,.68,0,1.37,0,2a9.13,9.13,0,0,0,.77,5.1,13,13,0,0,0,1.39,1.89A6.35,6.35,0,0,1,61,166.28a6.14,6.14,0,0,1,.08,1.44c0,1.21,0,2.7,1.67,3.69a9.27,9.27,0,0,0,4.12.38,12.34,12.34,0,0,1,1.91,0c.42,0,.83,0,1.25,0a23.22,23.22,0,0,1,3.56.13,6.19,6.19,0,0,1,1.23.35,6.18,6.18,0,0,1-1,1.49,11.82,11.82,0,0,0-1.39,2,.89.89,0,0,0-.07.73.91.91,0,0,0,.47.56,6.45,6.45,0,0,0,3.52.4,4.75,4.75,0,0,1,2.3.16c.2.07.31.21.53.62a3.24,3.24,0,0,0,1.13,1.26,2,2,0,0,0,1.24.26h.24c0,.49,1.79.74,1.87.27a.79.79,0,0,1,.23-.12,2.3,2.3,0,0,0,1.37-1.12,2.55,2.55,0,0,0,.19-1.77,1.71,1.71,0,0,1,0-.71c.37-.86,1.57-1.29,2.83-1.76a8.1,8.1,0,0,0,3.43-1.93,1.87,1.87,0,0,0,.47-1.44c0-.09,0-.24,0-.24h0a6.41,6.41,0,0,1,1.9-1.23l.28-.14c.48-.24,1-.46,1.43-.66s1-.45,1.53-.7a13.06,13.06,0,0,0,3.56-2.66l.82-.76a23.13,23.13,0,0,1,3-2.41c.61-.44,1.24-.9,1.88-1.38a4.48,4.48,0,0,1,3-.85,11.55,11.55,0,0,0,2.62-.36,4.71,4.71,0,0,0,2.27-2c.41-.57.66-.9,1.07-1a17.43,17.43,0,0,1,3.86,0c.67,0,1.23,0,1.72.06a1.79,1.79,0,0,1,1.82,1,3.49,3.49,0,0,0,3,1.65,3.34,3.34,0,0,0,2.85-2,2.81,2.81,0,0,0-.1-2.87A2,2,0,0,0,128,154c1.2-2,3.23-3.11,6.65-3.8.07,0,5.76-.76,6.77-2.84a1.79,1.79,0,0,0-.14-1.78c-.8-1.12-2.76-.69-5.47.07a1.78,1.78,0,0,1,.44-1.61h0a.92.92,0,0,0,1.09.13c1.7-.92,3.9-1,6-1.07h.09a4.84,4.84,0,0,0-.9.66,1,1,0,0,0-.24.94.92.92,0,0,0,.69.67,6.52,6.52,0,0,0,1.61.22,6.88,6.88,0,0,0,4.42-1.92,13.38,13.38,0,0,1,1.5-1.06,1,1,0,0,0-.18.67,1,1,0,0,0,.4.7c1.54,1.11,6.49-.11,6.57-.11a5.09,5.09,0,0,0,1.75-1.05,2.77,2.77,0,0,1,1.08-.67,5.06,5.06,0,0,1,.94.31,4.77,4.77,0,0,0,1.55.44h0a12,12,0,0,0,2.85-.14l.78-.1a58.78,58.78,0,0,1,6.6.12l.44,0c2.62.16,7,.42,9.14-1.44a3,3,0,0,0,1.32-2.89,5.78,5.78,0,0,1,.06-1,5.86,5.86,0,0,1,1.62-2.89l.4-.49a7.5,7.5,0,0,0,1.1-1.91,9,9,0,0,1,.54-1.09c.23-.2.45-.22.95-.23a4.47,4.47,0,0,0,1.44-.19,9.42,9.42,0,0,0,3.27-2.08,8.25,8.25,0,0,1,2.27-1.56,4.77,4.77,0,0,1,1-.25c1.09-.15,1.52-.6,1.82-1.87a14.6,14.6,0,0,0-.35-5,4.9,4.9,0,0,0-.76-1.89c-.15-.28-.34-.6-.36-.68,0-.39.12-.6.57-1.1a4.71,4.71,0,0,0,.72-1,5.23,5.23,0,0,0,2.05-1.85,3.25,3.25,0,0,0,.47-2.41,15.22,15.22,0,0,0,2.43-1.7,14.15,14.15,0,0,0,2.85-3.37l.8-1.16a2.5,2.5,0,0,1,.9-.67,3.62,3.62,0,0,0,1.14-.85A6.17,6.17,0,0,0,210,99.51a9.88,9.88,0,0,1,.27-1.63,24.07,24.07,0,0,1,4.43-7.09,28.34,28.34,0,0,0,4.51-7C220.34,80.91,219.71,79.1,219,77Zm0,0c-.16-.46-.34-1-.52-1.5a4.17,4.17,0,0,1,.35-3.14,8.55,8.55,0,0,0,.71-2.67c.35-3-1.38-3.86-2.76-4.58a10.54,10.54,0,0,1-1.34-.77A13.33,13.33,0,0,1,214,63a8.18,8.18,0,0,0-3.63-2.75,3.82,3.82,0,0,0,0-1.09,3.16,3.16,0,0,0-2.73-2.71,3.26,3.26,0,0,1-1-.43,2.72,2.72,0,0,1-.33-1.14,2.86,2.86,0,0,0-.95-2.09,1.48,1.48,0,0,0-.33-.17,24.29,24.29,0,0,0,0-5,1.07,1.07,0,0,0,.14-.35c.17-1,.66-1.56,2.4-2.64a1.64,1.64,0,0,1,.51-.26,2.44,2.44,0,0,0,1.19-.86,3,3,0,0,0,.33-1.5c0-.35,0-.65,0-.68a2.11,2.11,0,0,1,.58-.27,3.34,3.34,0,0,0,1.28-.72,3.3,3.3,0,0,0,.79-1.39,2.1,2.1,0,0,1,.29-.58,6.11,6.11,0,0,1,.67-.63,3.38,3.38,0,0,0,1.52-2.24,1.79,1.79,0,0,0-.09-.6,2.71,2.71,0,0,0,.87-2.25c-.28-2.86-5.32-5.57-9.44-7.34-1.42-.7-7-2.62-9-1.88A2.57,2.57,0,0,0,196,24.55c-.29.4-.58.83-.81.91a9.19,9.19,0,0,1-2.09,0,7.5,7.5,0,0,1-.54-1.79c-.08-.34-.15-.66-.22-.9a1.09,1.09,0,0,0-.1-.25,23.61,23.61,0,0,0-2-2.73c-.16-.29-.33-.57-.49-.84-1-1.64-2-3.33-4.58-3.59a9.29,9.29,0,0,1-3.1-.8A14.24,14.24,0,0,0,178,13.52c-.72-.08-1.39-.12-2-.15-2.15-.12-3.45-.18-4.91-2a3.81,3.81,0,0,0-2.72-1.86A4.24,4.24,0,0,1,166.83,9c-.14-.06-.2-.13-.39-.4a3.29,3.29,0,0,0-1.65-1.36c-1.19-.45-4.16-1.4-5.65-.56a2.52,2.52,0,0,0-1.2,2.69l-.28.12-.23.11a1,1,0,0,1-.58-.33,2.77,2.77,0,0,0-.89-.65,5,5,0,0,0-3.84-.84,6.4,6.4,0,0,0-.29-1.32,5.06,5.06,0,0,1-.21-1,2.25,2.25,0,0,1,.61.09,1,1,0,0,0,1.36-.66c0-.27.12-.51.18-.73.3-1,.65-2.36-1.13-3.17-1.18-.7-3-.63-4.69-.59a12.36,12.36,0,0,1-2.16,0c-2.13-.22-2.58-.05-3.79.59l-.76.41a6.25,6.25,0,0,1-1.65.45,6.08,6.08,0,0,0-2.27.71c-.7.47-.94.63-1.17,1.15a3.92,3.92,0,0,1-.34.62A6,6,0,0,1,132.28,7l-1.17.51a25.26,25.26,0,0,0-5.67,4,13.51,13.51,0,0,1-4.64,2,16.74,16.74,0,0,0-4,1.61,4.43,4.43,0,0,0-.35-2.4,2.26,2.26,0,0,0-2.92-1,2.79,2.79,0,0,0-.39-1.49,2.2,2.2,0,0,0-2-.6,3,3,0,0,1-.51,0V9.57a1.75,1.75,0,0,0-.42-1.47,2.9,2.9,0,0,0-2.55-.79,5.26,5.26,0,0,1-.9,0,1,1,0,0,0-1,.87,1,1,0,0,0,.15.58,3.1,3.1,0,0,0,.44,2c.3.61.3.72.15.94s-.12.21-.14.26l-.16-.06a3.51,3.51,0,0,0-1.15-.2h0a3.57,3.57,0,0,0-2.54,1,2.06,2.06,0,0,0-.26,1.71,4,4,0,0,1,0,1.34,26.44,26.44,0,0,1-1.89,4,.89.89,0,0,0-.06.88.93.93,0,0,0,.7.56c.62.12,1.8,2.29,2.08,3.82s-.12,1.65-2.18,2.08l-.78.16c-.92.17-4.82,1.29-5.57,3.32a2.85,2.85,0,0,0,0,1.75c.11.48.14.72,0,1a4.9,4.9,0,0,1-1.68,1.16,9,9,0,0,0-1.18.69.94.94,0,0,0-.41.7,1,1,0,0,0,.28.76,12.43,12.43,0,0,1,2.36,4.28,14.48,14.48,0,0,0,1.92,3.83c.19.25.37.48.54.68.71.86.71.86.06,1.89a12,12,0,0,1-2.65,2.4,17.28,17.28,0,0,0-2.38,2,1,1,0,0,0-.11,1.15,4.94,4.94,0,0,0,2.43,1.91c1,.42,1.2.53.91,1.93a3.87,3.87,0,0,1-.24.84,4.83,4.83,0,0,0-.39,1.41,5.63,5.63,0,0,0,.22,1.41,3,3,0,0,1,.17,1.11c-.17,1.61-1,2-2.47,2.71l-.48.25c-1.39.7-1.68,1-2,1.74a5.46,5.46,0,0,1-.69,1.08A7.1,7.1,0,0,1,85.74,69c-.32,0-.58-.27-1-.65A3.67,3.67,0,0,0,83,67.28a29.49,29.49,0,0,0-7.9-.22l-1.45.08a18.92,18.92,0,0,0-2.55.35,11.78,11.78,0,0,1-2.91.27l-.72-.06a4.72,4.72,0,0,0-3.44.69,12.6,12.6,0,0,0-1.47,1,4,4,0,0,1-1.59.93,1.06,1.06,0,0,1-.15-.15,2.62,2.62,0,0,0-1.42-.82,4.36,4.36,0,0,0-1.54.43,4.25,4.25,0,0,1-.56.22c-1.06.26-2.2.44-3.4.61A23.23,23.23,0,0,0,48,72.06c-2.35,1-3.82,3-5.25,5a18.94,18.94,0,0,1-2.64,3.17.68.68,0,0,1-.4.12,1.94,1.94,0,0,0-1.75,1.19,2.86,2.86,0,0,0,0,2.29,3.78,3.78,0,0,0,.16.57c-.21.38-.51.45-1.5.48a6.25,6.25,0,0,0-1.64.18,1,1,0,0,0-.67,1.18.94.94,0,0,0,.74.68,4.62,4.62,0,0,1-.5.75,4.17,4.17,0,0,0-1,2.16,10.17,10.17,0,0,0,.12,2.92,9.3,9.3,0,0,1,.13,2.55,1,1,0,0,0,.4.91c0,.28.08.55.14.81a14.27,14.27,0,0,1-2.37,1.08,11.57,11.57,0,0,0-2,.91,7.87,7.87,0,0,0-2.05,2.32,9.42,9.42,0,0,1-1,1.38,4.47,4.47,0,0,1-1.39,1.08,5.06,5.06,0,0,0-2,1.66,4.86,4.86,0,0,0-.74,2.07,5.36,5.36,0,0,1-.22,1,3.12,3.12,0,0,1-1.75,1.56,4.57,4.57,0,0,0-2,1.66c-.66,1.07-.44,2.36-.25,3.62.18,1.07.34,2.09,0,2.61a.84.84,0,0,1-.45.27,2.09,2.09,0,0,0-1.49,1.61,2.42,2.42,0,0,0,.18,1.66c.15.34.15.37,0,.62a5,5,0,0,1-1.17,1.06,8.39,8.39,0,0,0-1.06.88,9.53,9.53,0,0,0-.84,1.21,9.54,9.54,0,0,1-.94,1.32,26.78,26.78,0,0,1-3.91,2.73,33.85,33.85,0,0,0-3.24,2.17c-1.1.83-2.19,1.78-3.29,2.74-.52.47-1.06.93-1.6,1.39A1,1,0,0,0,.48,137a1,1,0,0,0,.73.35.93.93,0,0,0,.62-.24L2,137c1.35-.5,1.91.24,3.91.58a19.89,19.89,0,0,0,4.57.41c1.22-.06,2.36-.16,3.46-.27,3.25-.28,6.06-.52,9.43.37l1.77.45A40.73,40.73,0,0,1,32.78,141c3.65,1.59,6.6,1.48,10.3,1.37l.9,0c.45,0,.88,0,1.33,0,2.23,0,4.37-.1,6.13,1.12a6.52,6.52,0,0,1,2.3,3.27,15.66,15.66,0,0,0,1.25,2.4c1.33,2.06,2,3.16,2.21,5.51,0,.68,0,1.37,0,2a9.13,9.13,0,0,0,.77,5.1,13,13,0,0,0,1.39,1.89A6.35,6.35,0,0,1,61,166.28a6.14,6.14,0,0,1,.08,1.44c0,1.21,0,2.7,1.67,3.69a9.27,9.27,0,0,0,4.12.38,12.34,12.34,0,0,1,1.91,0c.42,0,.83,0,1.25,0a23.22,23.22,0,0,1,3.56.13,6.19,6.19,0,0,1,1.23.35,6.18,6.18,0,0,1-1,1.49,11.82,11.82,0,0,0-1.39,2,.89.89,0,0,0-.07.73.91.91,0,0,0,.47.56,6.45,6.45,0,0,0,3.52.4,4.75,4.75,0,0,1,2.3.16c.2.07.31.21.53.62a3.24,3.24,0,0,0,1.13,1.26,2,2,0,0,0,1.24.26h.24c0,.49,1.79.74,1.87.27a.79.79,0,0,1,.23-.12,2.3,2.3,0,0,0,1.37-1.12,2.55,2.55,0,0,0,.19-1.77,1.71,1.71,0,0,1,0-.71c.37-.86,1.57-1.29,2.83-1.76a8.1,8.1,0,0,0,3.43-1.93,1.87,1.87,0,0,0,.47-1.44c0-.09,0-.24,0-.24h0a6.41,6.41,0,0,1,1.9-1.23l.28-.14c.48-.24,1-.46,1.43-.66s1-.45,1.53-.7a13.06,13.06,0,0,0,3.56-2.66l.82-.76a23.13,23.13,0,0,1,3-2.41c.61-.44,1.24-.9,1.88-1.38a4.48,4.48,0,0,1,3-.85,11.55,11.55,0,0,0,2.62-.36,4.71,4.71,0,0,0,2.27-2c.41-.57.66-.9,1.07-1a17.43,17.43,0,0,1,3.86,0c.67,0,1.23,0,1.72.06a1.79,1.79,0,0,1,1.82,1,3.49,3.49,0,0,0,3,1.65,3.34,3.34,0,0,0,2.85-2,2.81,2.81,0,0,0-.1-2.87A2,2,0,0,0,128,154c1.2-2,3.23-3.11,6.65-3.8.07,0,5.76-.76,6.77-2.84a1.79,1.79,0,0,0-.14-1.78c-.8-1.12-2.76-.69-5.47.07a1.78,1.78,0,0,1,.44-1.61h0a.92.92,0,0,0,1.09.13c1.7-.92,3.9-1,6-1.07h.09a4.84,4.84,0,0,0-.9.66,1,1,0,0,0-.24.94.92.92,0,0,0,.69.67,6.52,6.52,0,0,0,1.61.22,6.88,6.88,0,0,0,4.42-1.92,13.38,13.38,0,0,1,1.5-1.06,1,1,0,0,0-.18.67,1,1,0,0,0,.4.7c1.54,1.11,6.49-.11,6.57-.11a5.09,5.09,0,0,0,1.75-1.05,2.77,2.77,0,0,1,1.08-.67,5.06,5.06,0,0,1,.94.31,4.77,4.77,0,0,0,1.55.44h0a12,12,0,0,0,2.85-.14l.78-.1a58.78,58.78,0,0,1,6.6.12l.44,0c2.62.16,7,.42,9.14-1.44a3,3,0,0,0,1.32-2.89,5.78,5.78,0,0,1,.06-1,5.86,5.86,0,0,1,1.62-2.89l.4-.49a7.5,7.5,0,0,0,1.1-1.91,9,9,0,0,1,.54-1.09c.23-.2.45-.22.95-.23a4.47,4.47,0,0,0,1.44-.19,9.42,9.42,0,0,0,3.27-2.08,8.25,8.25,0,0,1,2.27-1.56,4.77,4.77,0,0,1,1-.25c1.09-.15,1.52-.6,1.82-1.87a14.6,14.6,0,0,0-.35-5,4.9,4.9,0,0,0-.76-1.89c-.15-.28-.34-.6-.36-.68,0-.39.12-.6.57-1.1a4.71,4.71,0,0,0,.72-1,5.23,5.23,0,0,0,2.05-1.85,3.25,3.25,0,0,0,.47-2.41,15.22,15.22,0,0,0,2.43-1.7,14.15,14.15,0,0,0,2.85-3.37l.8-1.16a2.5,2.5,0,0,1,.9-.67,3.62,3.62,0,0,0,1.14-.85A6.17,6.17,0,0,0,210,99.51a9.88,9.88,0,0,1,.27-1.63,24.07,24.07,0,0,1,4.43-7.09,28.34,28.34,0,0,0,4.51-7C220.34,80.91,219.71,79.1,219,77ZM39.77,85.29a2.68,2.68,0,0,0,0-2,2,2,0,0,1-.14-.83c.09-.17.14-.19.21-.21a2.39,2.39,0,0,0,1.45-.52,20.14,20.14,0,0,0,3-3.56c1.33-1.82,2.59-3.57,4.47-4.37a20.91,20.91,0,0,1,5.45-1.3,31.56,31.56,0,0,0,3.6-.64,6.6,6.6,0,0,0,.82-.3,5.87,5.87,0,0,1,.63-.24l.22.21a1.93,1.93,0,0,0,1.31.73,4.77,4.77,0,0,0,3-1.35A10.85,10.85,0,0,1,65,70.05a2.76,2.76,0,0,1,2.32-.46l.76.07a15.57,15.57,0,0,0,3.38-.3,17.67,17.67,0,0,1,2.31-.31L75.23,69a28.69,28.69,0,0,1,7.36.18,2.09,2.09,0,0,1,.85.6,3.7,3.7,0,0,0,2.07,1.15l.23,0c1.47,0,3.92-1.88,4.4-2.63A7.05,7.05,0,0,0,91,66.94c.15-.31.18-.37,1.18-.88l.47-.22c1.61-.79,3.27-1.58,3.55-4.24A4.36,4.36,0,0,0,96,59.8c-.07-.34-.15-.66-.17-.79a3.89,3.89,0,0,1,.25-.84,5.32,5.32,0,0,0,.37-1.2c.61-2.88-.92-3.55-2-4a4.5,4.5,0,0,1-1.08-.6c.45-.39,1-.76,1.49-1.15a13.25,13.25,0,0,0,3.1-2.87c1.29-2.06.94-2.86-.17-4.2-.15-.18-.31-.38-.5-.63a13.59,13.59,0,0,1-1.65-3.35,17,17,0,0,0-2-4s0,0,0,0a5.64,5.64,0,0,0,2.44-1.89,3.13,3.13,0,0,0,.23-2.34,1.29,1.29,0,0,1,0-.66c.27-.75,2.56-1.83,4.17-2.13l.78-.17c1.69-.34,4.27-.87,3.68-4.29a9.46,9.46,0,0,0-2.49-4.81A28.47,28.47,0,0,0,104,16.19a5.35,5.35,0,0,0,0-2.12c0-.1,0-.24-.08-.25a4.55,4.55,0,0,1,1.11-.23,1.8,1.8,0,0,1,.5.12,1.88,1.88,0,0,0,2.54-1.06,2.67,2.67,0,0,0-.1-2.78,2.82,2.82,0,0,1-.27-.64h.06c.54,0,.72,0,.92.12a.57.57,0,0,0,0,.13,1.76,1.76,0,0,0,.5,1.6,2.1,2.1,0,0,0,1.54.55c.27,0,.53-.05.82-.05,0,.18,0,.42,0,.58a5.19,5.19,0,0,0,.1,1.09.94.94,0,0,0,1.11.7c.37-.07.72-.17,1-.26a5.09,5.09,0,0,1,.72-.17s0-.18.22.22a6.76,6.76,0,0,1-.21,3.24,1,1,0,0,0,.66,1.18.88.88,0,0,0,.27,0,1,1,0,0,0,.47-.14.94.94,0,0,0,.76-.34c1-1.25,2.77-1.77,4.65-2.33a14.88,14.88,0,0,0,5.3-2.4,23.49,23.49,0,0,1,5.26-3.7l1.12-.48a7.82,7.82,0,0,0,4.38-3.47,3,3,0,0,0,.46-.86,3.52,3.52,0,0,1,.5-.35A4.71,4.71,0,0,1,140,3.7a7.51,7.51,0,0,0,2.21-.64l.77-.41c.92-.49,1-.54,2.63-.38a13.77,13.77,0,0,0,2.46.06c1.29-.05,2.95-.1,3.75.36.23.11.32.18.33.18h0a3.69,3.69,0,0,1-.16.69,5.73,5.73,0,0,1-.85-.07,1,1,0,0,0-1,.42A3.56,3.56,0,0,0,150,7a2.6,2.6,0,0,1,.17,1.55,1,1,0,0,0,.12,1,.89.89,0,0,0,.9.36l.25,0c1.7-.26,2.46-.33,3.53.44a1.54,1.54,0,0,1,.52.37,3.17,3.17,0,0,0,1.41.82,2.09,2.09,0,0,0,1.42-.15,1,1,0,0,0,1,.26,1,1,0,0,0,.69-.92c0-.38,0-.73-.06-1.07-.09-1,0-1.07.19-1.21.51-.25,2.3,0,4,.68a1.44,1.44,0,0,1,.76.67,2.71,2.71,0,0,0,1.11,1,6.07,6.07,0,0,0,2,.72c.54.09.79.14,1.57,1.16,2,2.47,4,2.58,6.32,2.7.58,0,1.21.06,1.9.13a12.12,12.12,0,0,1,3.6.95,11.64,11.64,0,0,0,3.62.93c1.57.16,2.11,1,3.1,2.64.17.29.34.59.61,1a23.28,23.28,0,0,1,1.83,2.52c.06.19.11.42.16.66A5.44,5.44,0,0,0,191.89,27c.91.7,3.31.51,3.85.39a3.76,3.76,0,0,0,1.9-1.69c.1-.17.27-.42.22-.43,1.07-.25,5.79,1,7.53,1.85,4.85,2.06,8.18,4.39,8.34,5.78a.8.8,0,0,1-.24.62,1,1,0,0,0-.83.25,1,1,0,0,0,0,1.37c.2.19.22.29.22.29,0,.19-.57.64-.82.85a6.07,6.07,0,0,0-1,.93,3.33,3.33,0,0,0-.57,1.13,1.65,1.65,0,0,1-.35.65,2,2,0,0,1-.58.28,3.09,3.09,0,0,0-1.4.85,3.2,3.2,0,0,0-.47,1.83c0,.18,0,.5,0,.5s-.05,0-.26.13a3.1,3.1,0,0,0-.94.48,6.15,6.15,0,0,0-3,3.12,1,1,0,0,0-.44,1,22.59,22.59,0,0,1,0,6.17.87.87,0,0,0,.33.78,1,1,0,0,0,.86.2,3.08,3.08,0,0,1,.19.85,3.78,3.78,0,0,0,.91,2.24,4.38,4.38,0,0,0,1.8.86c.93.28,1.23.4,1.37,1.12a1,1,0,0,1-.1.62c-.29.28-1.46.19-2.24.14-.48,0-.94-.07-1.34-.07a8.16,8.16,0,0,0-5.14,1.31,1,1,0,0,0-.37,1l-.35.15c-2.47,1-6.59,2.76-5,6.83a.88.88,0,0,0,.51.51,1,1,0,0,0,.75,0c.22.15.64.93.87,4.33l0,.49a.17.17,0,0,1,0,.07c-.25.09-.53.18-.82.26-1,.27-2,.58-2.41,1.6a3.36,3.36,0,0,0,.64,2.86,1,1,0,0,0,.81.45,1.16,1.16,0,0,0,.54-.15.93.93,0,0,0,.41-.55c.39.56.24,1.23-.06,2.5l-.24,1a8.65,8.65,0,0,0-.37,3,4.19,4.19,0,0,0,.58,1.41c.16.29.33.54.31.63-.08.38-.73.86-1.25,1.25a6.19,6.19,0,0,0-1.47,1.41A11.74,11.74,0,0,0,191.5,94a10.84,10.84,0,0,1-1,2.75,2.85,2.85,0,0,0-1.16-.55c-1.82-.36-4.84.75-5.64,2.14-.74,1-1.5,4-1,5.47a3.64,3.64,0,0,0,.92,1.32.52.52,0,0,1,.1.11,6,6,0,0,0-1.51,1.57,5.64,5.64,0,0,1-1.13,1.27,5.16,5.16,0,0,1-.84.44,4.18,4.18,0,0,0-2,1.48,3.69,3.69,0,0,0-.64,2.62,3.21,3.21,0,0,1-.15,1.31,2.58,2.58,0,0,1-.85,1.13,6.22,6.22,0,0,0-1.16,1.38,7.43,7.43,0,0,0-.77,4.09v.53c.06,1.92.06,1.92-1.23,2.11a15.08,15.08,0,0,0-2.07.43,16.59,16.59,0,0,0-3.82,2c-1.79,1.12-3.44,2.27-5.39,2a4.53,4.53,0,0,1-1.39-.43,5.42,5.42,0,0,0-2.14-.57,8.44,8.44,0,0,0-2.85.61,11.45,11.45,0,0,1-1.4.43,14.68,14.68,0,0,1-2.11.29,9.44,9.44,0,0,0-3.85.92l-.7.42a12.34,12.34,0,0,1-3.13,1.47c-1,.22-2,.33-2.91.46-2.57.32-5,.63-7.2,2.67h0a2.66,2.66,0,0,0-2.69.12l-.31.14c-.84.36-1.74.65-2.63.94a19,19,0,0,0-4.63,1.95,5.83,5.83,0,0,0-1,.59,2.24,2.24,0,0,1-1.31.55,1.46,1.46,0,0,1-.35-.18,2.33,2.33,0,0,0-2-.4,2.27,2.27,0,0,0-1.51,2.2,1.57,1.57,0,0,1-.19.71c-.08.08-.11.09-.48,0a2.74,2.74,0,0,0-1.33,0c-.69.13-1.33.32-2,.49a11,11,0,0,1-4,.68,4,4,0,0,0-1-2.2,3,3,0,0,0,.45-2.06,4.51,4.51,0,0,0-2.72-3.35,2.34,2.34,0,0,0-1.39-.12s0,0,0-.05a17.68,17.68,0,0,1-.83-2.13,1.45,1.45,0,0,1,.33-.53,3.66,3.66,0,0,0,.77-1.35,5.55,5.55,0,0,0,0-2.82c-.06-.33-.14-.66-.17-1a5.27,5.27,0,0,1,1.22-3.89l.31-.48c.9-1.29,1.5-2.58-.81-4.18a12.33,12.33,0,0,0-2.94-1.32,11.9,11.9,0,0,1-2.46-1.06c-1.35-.86-2.26-1.55-2.57-3.19a4.2,4.2,0,0,1-.07-.86,3,3,0,0,0-.67-2.29,1.45,1.45,0,0,0-.62-.35l.13-.18a7.44,7.44,0,0,0,1.14-2,2.78,2.78,0,0,0,.09-2.4,1.81,1.81,0,0,0-1.42-.73,1.13,1.13,0,0,1-.76-.25c0-.63-.1-2.14-.11-2.39s0-.51-.06-.75a5,5,0,0,0-.54-2.32A10,10,0,0,0,93,95a11.66,11.66,0,0,1-1.74-1.65.91.91,0,0,0-1-.44.83.83,0,0,0-.67.7,5,5,0,0,1-1.88,0,4.86,4.86,0,0,0-2.35.12,2.5,2.5,0,0,0-1,.74,1.15,1.15,0,0,1-.6.46,3.28,3.28,0,0,1-1-.07,9.44,9.44,0,0,1-1-.08,23.47,23.47,0,0,0-2.94.47c-.71.15-1.43.31-2.25.42a11.52,11.52,0,0,1-2.86,0,9,9,0,0,0-4.16.22,1,1,0,0,0-.62.9,14.19,14.19,0,0,1-.39,3.77,6,6,0,0,1-.48-1.22c-.36-1.07-.74-2.28-1.81-2.71a1,1,0,0,0-.76,0,1,1,0,0,0-.5.58,1,1,0,0,1-.5.65c-.14,0-.37-.18-.56-.63a2.7,2.7,0,0,1-.15-1.47,3.55,3.55,0,0,0-1-3.17c-2.6-2.58-7.94-2.19-11.84-1.89-.73.06-1.39.1-1.91.13s-.79,0-1.2.05a9.08,9.08,0,0,1-2.39-.05,1.81,1.81,0,0,1-.76-.38,4.47,4.47,0,0,0-1.31-.66c-.57-.54-1-.41-2.26,0a7.29,7.29,0,0,0-1.65.91,6.36,6.36,0,0,1-1.28.73,13.25,13.25,0,0,1-1.24.47,6.77,6.77,0,0,0-1.5.64s0-.09,0-.13A8.83,8.83,0,0,1,35.39,90,2.57,2.57,0,0,1,36,88.78a3.85,3.85,0,0,0,.94-2A3,3,0,0,0,39.77,85.29Zm94.1,60.82c0,.26,0,.53,0,.81a1,1,0,0,0,.35.74,1,1,0,0,0,.79.21c.18,0,.54-.13,1-.27a23,23,0,0,1,3.28-.74,15.1,15.1,0,0,1-5,1.47c-3.13.63-7,1.89-8.66,6.06a1,1,0,0,0,.14,1,1,1,0,0,0,.9.36c.2,0,.33,0,.36,0a1,1,0,0,1-.09.92,1.42,1.42,0,0,1-1.16.86c-.78,0-1-.29-1.46-.88a3.59,3.59,0,0,0-3.17-1.73c-.39,0-1,0-1.79-.06a14.23,14.23,0,0,0-4.57.12,4.12,4.12,0,0,0-2,1.73,3,3,0,0,1-1.3,1.25,10.54,10.54,0,0,1-2.14.27,6.22,6.22,0,0,0-4,1.25c-.6.48-1.22.9-1.8,1.33a24,24,0,0,0-3.23,2.58l-.82.76a11.3,11.3,0,0,1-3.07,2.33c-.48.24-1,.45-1.46.67s-1,.44-1.52.7l-.28.14a7.76,7.76,0,0,0-2.55,1.76,2.31,2.31,0,0,0-.37,1.44c0,.09,0,.15,0,.13a6.76,6.76,0,0,1-2.69,1.45c-1.5.54-3.21,1.17-3.9,2.73a2.85,2.85,0,0,0-.16,1.81,1.32,1.32,0,0,1,0,.55c-.07.12-.11.15-.4.27H83.1a2.23,2.23,0,0,0-1.36-.35c-.25,0-.57,0-.5,0a1.59,1.59,0,0,1-.48-.62,2.92,2.92,0,0,0-1.45-1.41,6.38,6.38,0,0,0-3.19-.3,8.14,8.14,0,0,1-1.38.06c.15-.21.33-.42.49-.63.9-1.13,1.76-2.19,1.33-3.33s-1.74-1.43-2.74-1.61a23.18,23.18,0,0,0-3.9-.15l-1.13,0c-.58,0-1.3,0-2.08,0a9.29,9.29,0,0,1-3.12-.15c-.64-.36-.68-.78-.66-2a8.54,8.54,0,0,0-.12-1.9,8.36,8.36,0,0,0-2-3.49,11,11,0,0,1-1.18-1.61,7.41,7.41,0,0,1-.53-4.06c0-.74.06-1.48,0-2.27-.26-2.82-1.08-4.2-2.52-6.43a13.12,13.12,0,0,1-1.1-2.11,8.18,8.18,0,0,0-3-4.1c-2.24-1.54-4.76-1.51-7.22-1.43H43.93l-.93,0c-3.64.15-6.24.23-9.45-1.18a42.06,42.06,0,0,0-8-2.59l-1.76-.44c-3.7-1-6.79-.71-10.08-.43-1.07.09-2.19.2-3.39.26a17.89,17.89,0,0,1-4.14-.38,14.33,14.33,0,0,1-2.05-.54c.83-.73,1.66-1.45,2.5-2.08A35.66,35.66,0,0,1,9.71,131,26.43,26.43,0,0,0,14,128a10.67,10.67,0,0,0,1.23-1.69,10.5,10.5,0,0,1,.63-.93c.21-.2.51-.42.8-.65A5.57,5.57,0,0,0,18.34,123a2.34,2.34,0,0,0,.07-2.25c-.11-.28-.14-.36-.13-.43s.11-.25.26-.3a2.62,2.62,0,0,0,1.35-.91c.89-1.23.64-2.75.43-4.09a4,4,0,0,1,0-2.32,2.73,2.73,0,0,1,1.26-.94,4.82,4.82,0,0,0,2.66-2.57,7.28,7.28,0,0,0,.33-1.34A3.19,3.19,0,0,1,25,106.5a3.5,3.5,0,0,1,1.33-1.06,5.91,5.91,0,0,0,1.92-1.53,13,13,0,0,0,1.12-1.52,6.28,6.28,0,0,1,1.53-1.78,10.16,10.16,0,0,1,1.61-.71,10.31,10.31,0,0,0,3.14-1.61A.91.91,0,0,0,36,98a1,1,0,0,0,.2-.8l-.08-.36A4.48,4.48,0,0,1,36,95.29c.12-1.06.47-1.17,1.62-1.55A11.7,11.7,0,0,0,39,93.22a8,8,0,0,0,1.6-.9,7.81,7.81,0,0,1,1.2-.69l.59-.18a4.82,4.82,0,0,0,.71.34,1.85,1.85,0,0,1,.58.31,3.93,3.93,0,0,0,1.5.68,10.92,10.92,0,0,0,2.84.07c.37,0,.75,0,1.12,0l2-.13C54.46,92.43,59.5,92,61.5,94c.51.46.5.82.45,1.64a4.55,4.55,0,0,0,.3,2.39,2.64,2.64,0,0,0,2.32,1.77h.12a2.17,2.17,0,0,0,1.39-.6c.09.26.18.54.26.73.36,1.11.73,2.27,1.74,2.49a1.56,1.56,0,0,0,1.51-.23c.56-.41,1.27-1.33,1.35-4.67a11.38,11.38,0,0,1,2.71.06,12.24,12.24,0,0,0,3.31,0c.84-.11,1.61-.26,2.35-.42a18.74,18.74,0,0,1,2.63-.44,5.88,5.88,0,0,1,.68.06,5.06,5.06,0,0,0,1.66,0,3.13,3.13,0,0,0,1.6-1,1.11,1.11,0,0,1,.33-.29,5.81,5.81,0,0,1,1.41,0,6.05,6.05,0,0,0,2.9-.21c.4.39.84.76,1.28,1.12a8,8,0,0,1,1.86,1.91A3.23,3.23,0,0,1,94,99.9c0,.29,0,.59.07.77,0,2,0,3,.48,3.4a2.83,2.83,0,0,0,2,1,2.15,2.15,0,0,1-.16.6,5.71,5.71,0,0,1-.87,1.44,5.42,5.42,0,0,0-1.15,2.19,1,1,0,0,0,.75,1.13h.12a1.22,1.22,0,0,0,1-.06,4.65,4.65,0,0,1,0,.74,4.49,4.49,0,0,0,.12,1.28,6.44,6.44,0,0,0,3.39,4.36,13.36,13.36,0,0,0,2.88,1.26,10.09,10.09,0,0,1,2.46,1.08c.74.52.79.74.79.74a3,3,0,0,1-.46.8l-.31.48a7.11,7.11,0,0,0-1.54,5.13,9.56,9.56,0,0,0,.2,1.23,4,4,0,0,1,.08,1.89,2.41,2.41,0,0,1-.44.71,3,3,0,0,0-.73,1.56,9.33,9.33,0,0,0,1.34,3.6,1.64,1.64,0,0,0,1.75.63c.18,0,.21-.06.36,0a2.62,2.62,0,0,1,1.54,1.81,1.19,1.19,0,0,1-.52,1.15,1,1,0,0,0-.36.81,1,1,0,0,0,.44.76,2.16,2.16,0,0,1,1.06,2.07,1,1,0,0,0,.82,1.06,13.08,13.08,0,0,0,5.59-.66c.6-.16,1.19-.34,1.9-.49a2,2,0,0,1,.59,0,2.32,2.32,0,0,0,2-.46,2.82,2.82,0,0,0,.84-1.94,1.7,1.7,0,0,1,.16-.62,2.59,2.59,0,0,1,.45.22,2.37,2.37,0,0,0,1.28.46,4,4,0,0,0,2.44-.89,5.36,5.36,0,0,1,.8-.51,18.47,18.47,0,0,1,4.29-1.78c.95-.31,1.9-.62,2.81-1l.33-.16a5.14,5.14,0,0,1,.59-.24,1,1,0,0,1,.24.06,1,1,0,0,0,.95.81.85.85,0,0,0,.53-.21c.19.12.37.26.56.4a4.87,4.87,0,0,0,1.54.87,8.46,8.46,0,0,0,3.33,0c1.93-.24,3.53-.39,3.64.33.08.9-.89,1.29-3,1.81a14.22,14.22,0,0,0-1.56.44,8.91,8.91,0,0,0-1.75,1.11l-.67.5c-.13.09-.51.25-.78.38a3.36,3.36,0,0,0-1.45.83A3.79,3.79,0,0,0,133.87,146.11Zm62.49-21.65c-.09.42-.19.51-.21.44a7.29,7.29,0,0,0-1.43.36,9.8,9.8,0,0,0-2.83,1.91,7.65,7.65,0,0,1-2.63,1.7c-.72.28-1.75-.3-3.13.91a6.54,6.54,0,0,0-.93,1.64,6.9,6.9,0,0,1-.83,1.48l-.41.49a7.56,7.56,0,0,0-2,3.79,6.92,6.92,0,0,0-.09,1.31c0,.72,0,.91-.6,1.38-1.59,1.39-5.66,1.15-7.83,1l-.62,0a55,55,0,0,0-6.69-.11l-.87.11a9.4,9.4,0,0,1-2.51.13,4,4,0,0,1-1-.31,4.21,4.21,0,0,0-2-.41,4.28,4.28,0,0,0-2,1.07,3.27,3.27,0,0,1-1.08.69,18.44,18.44,0,0,1-3.53.51,2.33,2.33,0,0,0,.39-1.58,1,1,0,0,0-1-.83,7.45,7.45,0,0,0-4.82,2c-.35.27-.68.53-1,.75a2.11,2.11,0,0,0,.29-.69,1,1,0,0,0-1-1.21c-.88.11-1.83.14-2.79.17l-1.43.06c1.76-.45,4.29-1.23,4-3.79-.37-2.73-3.65-2.31-5.78-2a8.29,8.29,0,0,1-2.52.1,3.09,3.09,0,0,1-1-.57l-.27-.2c1.6-1.22,3.41-1.46,5.58-1.74a29.36,29.36,0,0,0,3.16-.48,14,14,0,0,0,3.64-1.69l.64-.39a7.66,7.66,0,0,1,3.07-.69,14,14,0,0,0,2.38-.33,11.74,11.74,0,0,0,1.63-.49,6.56,6.56,0,0,1,2-.49,4.19,4.19,0,0,1,1.59.42,6.11,6.11,0,0,0,1.95.57c2.55.26,4.61-1,6.6-2.26a14.14,14.14,0,0,1,3.35-1.74,11.45,11.45,0,0,1,1.79-.37c2-.29,3-.79,2.88-4v-.53a5.92,5.92,0,0,1,.5-3.1,3.72,3.72,0,0,1,.81-.94,4.21,4.21,0,0,0,1.35-1.9,4.59,4.59,0,0,0,.25-2,2,2,0,0,1,.3-1.45,2.57,2.57,0,0,1,1.19-.84,5.61,5.61,0,0,0,1.17-.64,5.36,5.36,0,0,0,.91-.85c-.12,1.49-.1,3,.84,3.88a2.49,2.49,0,0,0,1.72.53,3.86,3.86,0,0,1,.87.14,1.59,1.59,0,0,1,.2.28,2.26,2.26,0,0,0,.83.91c1.7,1.16,3.73.81,5.5.5a8.53,8.53,0,0,1,3-.21c0,.06-.1.11-.16.19a3.14,3.14,0,0,0-1.06,2.61,4.17,4.17,0,0,0,.6,1.41,3.62,3.62,0,0,1,.53,1.31A13.65,13.65,0,0,1,196.36,124.46ZM217.43,83a25.69,25.69,0,0,1-4.24,6.55,26.51,26.51,0,0,0-4.75,7.7,11.84,11.84,0,0,0-.34,2,4.6,4.6,0,0,1-.86,2.76,2.11,2.11,0,0,1-.6.42,4.33,4.33,0,0,0-1.54,1.25c-.31.44-.58.83-.82,1.21a12.7,12.7,0,0,1-2.5,3,15.57,15.57,0,0,1-2.81,1.86,1,1,0,0,0-.4,1.27c.51,1-.28,1.85-.93,2.32-1.54-.83-3.33-.54-4.91-.25s-3,.55-4.17-.24a2.22,2.22,0,0,1-.21-.29,2.26,2.26,0,0,0-.87-.93,3.8,3.8,0,0,0-1.69-.38c-.23,0-.53,0-.53,0-.47-.43-.26-2.38-.16-3.32a12.69,12.69,0,0,0,.11-1.32h0a1.21,1.21,0,0,1,.2-.09.94.94,0,0,0,.61-1.17,3.65,3.65,0,0,0-1-1.56,2.2,2.2,0,0,1-.47-.6,6.79,6.79,0,0,1,.8-3.82,4.59,4.59,0,0,1,3.61-1.3c.38.09.43.24.45.43a1,1,0,0,0,1.53.67c1.49-1.13,2-2.93,2.44-4.67a10.76,10.76,0,0,1,1.15-3,4.32,4.32,0,0,1,1-.9,4.3,4.3,0,0,0,2-2.46,2.89,2.89,0,0,0-.54-1.92,2.46,2.46,0,0,1-.33-.69,7.27,7.27,0,0,1,.31-2.33l.25-1.07c.44-1.83.89-3.71-1.56-5.2l.34-.1a4.84,4.84,0,0,0,2.76-1.55,1,1,0,0,0,0-1,1.17,1.17,0,0,0-.63-.5c-.17-2.41-.47-4.77-1.78-5.57a2.18,2.18,0,0,0-.66-.24c-.22-1.55,1.23-2.46,4.11-3.66.42-.18.84-.35,1.2-.52a.94.94,0,0,0,.54-.86,1.39,1.39,0,0,0,0-.35A6.61,6.61,0,0,1,204.6,62a10.58,10.58,0,0,1,1.46.05,7.39,7.39,0,0,0,2.88-.16.88.88,0,0,0,.42.11c1.19,0,2.23,1.15,3.24,2.27a13.64,13.64,0,0,0,1.67,1.65,11.11,11.11,0,0,0,1.6.94c1.34.69,1.94,1,1.74,2.71a6.42,6.42,0,0,1-.58,2.12,5.85,5.85,0,0,0-.37,4.42c.16.56.34,1.09.52,1.57C217.85,79.58,218.29,80.86,217.43,83Z"/></g></g></svg>