<svg xmlns="http://www.w3.org/2000/svg" viewBox="0 0 158.28 184.91"><defs><style>.cls-1{fill:#a1592a;stroke:#fff;stroke-miterlimit:10;}</style></defs><title>Sul</title><g id="Camada_2" data-name="Camada 2"><g id="Capa_1" data-name="Capa 1"><path class="cls-1" d="M157.6,43.86a1.77,1.77,0,0,0-1.75-.8c-.25,0-.56,0-.5,0a1.64,1.64,0,0,1-.48-.61,2.82,2.82,0,0,0-1.44-1.41,6.51,6.51,0,0,0-3.19-.31,8.18,8.18,0,0,1-1.38.07,7.25,7.25,0,0,1,.49-.64c.89-1.12,1.75-2.19,1.32-3.33s-1.73-1.42-2.73-1.6a22.25,22.25,0,0,0-3.9-.15H142.9c-.57,0-1.29,0-2.07,0A9.1,9.1,0,0,1,137.7,35c-.63-.36-.68-.78-.65-2a8.71,8.71,0,0,0-.13-1.91,8.24,8.24,0,0,0-2-3.49,11.05,11.05,0,0,1-1.19-1.6,7.42,7.42,0,0,1-.52-4.06,21.44,21.44,0,0,0,0-2.27c-.26-2.82-1.08-4.2-2.52-6.44a13.93,13.93,0,0,1-1.1-2.11,8,8,0,0,0-3-4.09c-2.24-1.54-4.76-1.51-7.22-1.44-.42,0-.85,0-1.3,0l-.94,0c-3.63.14-6.23.22-9.44-1.18a41.27,41.27,0,0,0-8-2.6l-1.75-.44A27.32,27.32,0,0,0,87.84,1c-1.08.09-2.2.2-3.4.25A17.4,17.4,0,0,1,80.3.91C77.7.47,75,0,72.42,1.57a15.39,15.39,0,0,0-2.56,2.2l-1,1a4,4,0,0,1-1.66.77,7.46,7.46,0,0,0-1.76.71c-1.8,1-2.23,2.75-2.6,4.33a7.4,7.4,0,0,1-.9,2.52,7,7,0,0,1-1.11,1.31,7.31,7.31,0,0,0-1.51,2,8.77,8.77,0,0,0-.66,2.51,7.77,7.77,0,0,1-.48,2,24.79,24.79,0,0,1-3.24,5.17,1.47,1.47,0,0,0-.28.08.93.93,0,0,0-.49,1.07,1,1,0,0,0,.34,1s.06,0,.09,0c1.4,3.83.11,8.48-1,12.35a7.41,7.41,0,0,0-.08,1.08,3.85,3.85,0,0,1-.14,1.16,4.09,4.09,0,0,1-1,1.59,9.91,9.91,0,0,0-.67.81c-.53.6-2.13,2.47-1,4.58.93,1.61,3.13,1.51,5.08,1.48a11.37,11.37,0,0,1,1.54,0c1.9.1,2.07.16,2.87,1.95.07.23.14.51.2.79A4.64,4.64,0,0,0,61,55.8a4.28,4.28,0,0,0,1.32,1.45,3,3,0,0,1,.76.72,5.45,5.45,0,0,1,.11,1.22,12.09,12.09,0,0,0,.11,1.41,5.32,5.32,0,0,0,.46,1c.25.49.35.69.28,1v0a11.13,11.13,0,0,0-.19,5.94c.06.5.14,1,.2,1.44a6.29,6.29,0,0,1-.42,2.71c-.14.45-.29.93-.41,1.48a10.23,10.23,0,0,0-6.58,1.47l-2.4,1.52c-2.51,1.61-4.89,3.13-7.48,4.52a75.89,75.89,0,0,0-8.14,5.11l-1.51,1c-.42.26-1,.54-1.55.83a10.1,10.1,0,0,0-3.69,2.51,5.06,5.06,0,0,0-.8,2.8v.08c-2,0-3.71,2.1-4.88,3.6-.31.4-.58.76-.81,1A25.08,25.08,0,0,0,23,101.61c-.41.54-.81,1.09-1.23,1.6a13.36,13.36,0,0,1-2.49,2,19.66,19.66,0,0,0-2.3,1.72,14.37,14.37,0,0,0-2.4,3.1c-.38.59-.75,1.17-1.2,1.76a17.1,17.1,0,0,1-3.35,3c-.82.63-1.64,1.26-2.37,1.93a40,40,0,0,0-3.35,3.57,33.52,33.52,0,0,1-3.47,3.64,1,1,0,0,0-.11,1.35l.11.08a.94.94,0,0,0,1.17.29.05.05,0,0,0,.05,0,2,2,0,0,0,1,1,13.07,13.07,0,0,0,4,.53h.26c1.36,0,3,0,3.55-1.11a1.8,1.8,0,0,0,.05-1.42c1.74-.5,4.12-.79,4.9-.26a5.9,5.9,0,0,1,.92,1.41,7.52,7.52,0,0,0,1.46,2.11,13.56,13.56,0,0,0,3.29,2.1,7.64,7.64,0,0,1,3.42,2.6,11,11,0,0,1,1.28,3.18A18.86,18.86,0,0,0,27,138a1.08,1.08,0,0,1,.13.49A1.65,1.65,0,0,0,28.22,140c1.13.66,2.74.06,4.29-.62l.25-.11a4.46,4.46,0,0,0,1.7-1.73c.39-.63.39-.63.7-.55.72.21,2.29,2.57,3,4.28a.94.94,0,0,0,.73.58c.77,1.57,1.3,1.77,3.64,2.1a15.45,15.45,0,0,0,1.54.29,9.26,9.26,0,0,1,1.83.37,1.16,1.16,0,0,1,.37.45,2.36,2.36,0,0,0,.87.91,8.08,8.08,0,0,0,2.18.86,3.14,3.14,0,0,1,2.26,1.47,3.81,3.81,0,0,1,.38.92,3.9,3.9,0,0,0,1.36,2.19,4.79,4.79,0,0,0,1.48.57,3.5,3.5,0,0,1,1,.31,1,1,0,0,1,.32.52,2.06,2.06,0,0,0,1.34,1.42,3.46,3.46,0,0,0,1.93.09,2.27,2.27,0,0,1,1.17,0c2.2,1,2.66,2.85,3.25,5.18l.05.26c.75,3.2,4.36,5.17,7.49,5.77a28.2,28.2,0,0,0-4.1,6.25,11.47,11.47,0,0,0-1.12,2.43h0a10.69,10.69,0,0,1,.07,1.91,8.92,8.92,0,0,0,.65,4.2,6.69,6.69,0,0,0,.88,1.45,3,3,0,0,1,.77,1.72,1,1,0,0,0,.44.73.91.91,0,0,0,.52.16.55.55,0,0,0,.36-.13c5.34-2,10-6.06,14.38-12.41a7.56,7.56,0,0,0,1.05-4.13,6.23,6.23,0,0,1,.74-3.28,4.59,4.59,0,0,1,.8-.89,5.22,5.22,0,0,0,1.25-1.49,4.23,4.23,0,0,0,.23-1.47,1.68,1.68,0,0,1,.35-1.22,2.47,2.47,0,0,1,.84-.52,2.64,2.64,0,0,0,1.75-2,1.63,1.63,0,0,0,0-.54.92.92,0,0,0,1,.07,45.2,45.2,0,0,0,5.86-3.59c1.19-.79,2.36-1.59,3.52-2.28a23,23,0,0,0,6.87-5.84,15.12,15.12,0,0,1,3.14-2.64,12.5,12.5,0,0,0,4.18-4,6.35,6.35,0,0,0,.53-2,7.35,7.35,0,0,1,.25-1.15,13.71,13.71,0,0,1,2.1-3.4l.55-.74a13.44,13.44,0,0,1,1.5-1.86,8.67,8.67,0,0,0,2.61-4.66c0-.44.06-.84.06-1.22a4.26,4.26,0,0,1,.31-2,11.46,11.46,0,0,1,2-2.21,19.76,19.76,0,0,0,1.56-1.62,9.91,9.91,0,0,0,2.39-4.93,3.42,3.42,0,0,0,1.05-1.55,5,5,0,0,1,.46-.93,9.59,9.59,0,0,1,1.71-1.55,13.25,13.25,0,0,0,1.45-1.23,45.92,45.92,0,0,1,5-4.15c1-.78,2.08-1.55,3.05-2.35a14.85,14.85,0,0,0,2.51-2.5,9.14,9.14,0,0,1,1.11-1,7.63,7.63,0,0,0,2.12-2.3c.9-1.68.73-3.87.58-5.81a18.56,18.56,0,0,1-.09-2.41l0-.57c.12-1.43.23-3,.43-4.39a12.86,12.86,0,0,0,.39-4,4.86,4.86,0,0,0-.71-1.94,3.38,3.38,0,0,1-.44-1,13.9,13.9,0,0,1-.39-3.85,16.63,16.63,0,0,0-.34-3.92,9.64,9.64,0,0,1-.36-4.41,5.48,5.48,0,0,1,.42-1.21,6.58,6.58,0,0,0,.57-1.74,4.06,4.06,0,0,0-.55-3.16,9.54,9.54,0,0,1,1.64-1.78c1.22-1.12,2.47-2.27,2.26-3.67a2.23,2.23,0,0,0-.51-1.1l.36-.07a6.18,6.18,0,0,0,1.8-.47c.52-.26,4.08-2.37,4.63-4.14A1.56,1.56,0,0,0,157.6,43.86Z"/><path class="cls-1" d="M157.6,43.86a1.77,1.77,0,0,0-1.75-.8c-.25,0-.56,0-.5,0a1.64,1.64,0,0,1-.48-.61,2.82,2.82,0,0,0-1.44-1.41,6.51,6.51,0,0,0-3.19-.31,8.18,8.18,0,0,1-1.38.07,7.25,7.25,0,0,1,.49-.64c.89-1.12,1.75-2.19,1.32-3.33s-1.73-1.42-2.73-1.6a22.25,22.25,0,0,0-3.9-.15H142.9c-.57,0-1.29,0-2.07,0A9.1,9.1,0,0,1,137.7,35c-.63-.36-.68-.78-.65-2a8.71,8.71,0,0,0-.13-1.91,8.24,8.24,0,0,0-2-3.49,11.05,11.05,0,0,1-1.19-1.6,7.42,7.42,0,0,1-.52-4.06,21.44,21.44,0,0,0,0-2.27c-.26-2.82-1.08-4.2-2.52-6.44a13.93,13.93,0,0,1-1.1-2.11,8,8,0,0,0-3-4.09c-2.24-1.54-4.76-1.51-7.22-1.44-.42,0-.85,0-1.3,0l-.94,0c-3.63.14-6.23.22-9.44-1.18a41.27,41.27,0,0,0-8-2.6l-1.75-.44A27.32,27.32,0,0,0,87.84,1c-1.08.09-2.2.2-3.4.25A17.4,17.4,0,0,1,80.3.91C77.7.47,75,0,72.42,1.57a15.39,15.39,0,0,0-2.56,2.2l-1,1a4,4,0,0,1-1.66.77,7.46,7.46,0,0,0-1.76.71c-1.8,1-2.23,2.75-2.6,4.33a7.4,7.4,0,0,1-.9,2.52,7,7,0,0,1-1.11,1.31,7.31,7.31,0,0,0-1.51,2,8.77,8.77,0,0,0-.66,2.51,7.77,7.77,0,0,1-.48,2,24.79,24.79,0,0,1-3.24,5.17,1.47,1.47,0,0,0-.28.08.93.93,0,0,0-.49,1.07,1,1,0,0,0,.34,1s.06,0,.09,0c1.4,3.83.11,8.48-1,12.35a7.41,7.41,0,0,0-.08,1.08,3.85,3.85,0,0,1-.14,1.16,4.09,4.09,0,0,1-1,1.59,9.91,9.91,0,0,0-.67.81c-.53.6-2.13,2.47-1,4.58.93,1.61,3.13,1.51,5.08,1.48a11.37,11.37,0,0,1,1.54,0c1.9.1,2.07.16,2.87,1.95.07.23.14.51.2.79A4.64,4.64,0,0,0,61,55.8a4.28,4.28,0,0,0,1.32,1.45,3,3,0,0,1,.76.72,5.45,5.45,0,0,1,.11,1.22,12.09,12.09,0,0,0,.11,1.41,5.32,5.32,0,0,0,.46,1c.25.49.35.69.28,1v0a11.13,11.13,0,0,0-.19,5.94c.06.5.14,1,.2,1.44a6.29,6.29,0,0,1-.42,2.71c-.14.45-.29.93-.41,1.48a10.23,10.23,0,0,0-6.58,1.47l-2.4,1.52c-2.51,1.61-4.89,3.13-7.48,4.52a75.89,75.89,0,0,0-8.14,5.11l-1.51,1c-.42.26-1,.54-1.55.83a10.1,10.1,0,0,0-3.69,2.51,5.06,5.06,0,0,0-.8,2.8v.08c-2,0-3.71,2.1-4.88,3.6-.31.4-.58.76-.81,1A25.08,25.08,0,0,0,23,101.61c-.41.54-.81,1.09-1.23,1.6a13.36,13.36,0,0,1-2.49,2,19.66,19.66,0,0,0-2.3,1.72,14.37,14.37,0,0,0-2.4,3.1c-.38.59-.75,1.17-1.2,1.76a17.1,17.1,0,0,1-3.35,3c-.82.63-1.64,1.26-2.37,1.93a40,40,0,0,0-3.35,3.57,33.52,33.52,0,0,1-3.47,3.64,1,1,0,0,0-.11,1.35l.11.08a.94.94,0,0,0,1.17.29.05.05,0,0,0,.05,0,2,2,0,0,0,1,1,13.07,13.07,0,0,0,4,.53h.26c1.36,0,3,0,3.55-1.11a1.8,1.8,0,0,0,.05-1.42c1.74-.5,4.12-.79,4.9-.26a5.9,5.9,0,0,1,.92,1.41,7.52,7.52,0,0,0,1.46,2.11,13.56,13.56,0,0,0,3.29,2.1,7.64,7.64,0,0,1,3.42,2.6,11,11,0,0,1,1.28,3.18A18.86,18.86,0,0,0,27,138a1.08,1.08,0,0,1,.13.49A1.65,1.65,0,0,0,28.22,140c1.13.66,2.74.06,4.29-.62l.25-.11a4.46,4.46,0,0,0,1.7-1.73c.39-.63.39-.63.7-.55.72.21,2.29,2.57,3,4.28a.94.94,0,0,0,.73.58c.77,1.57,1.3,1.77,3.64,2.1a15.45,15.45,0,0,0,1.54.29,9.26,9.26,0,0,1,1.83.37,1.16,1.16,0,0,1,.37.45,2.36,2.36,0,0,0,.87.91,8.08,8.08,0,0,0,2.18.86,3.14,3.14,0,0,1,2.26,1.47,3.81,3.81,0,0,1,.38.92,3.9,3.9,0,0,0,1.36,2.19,4.79,4.79,0,0,0,1.48.57,3.5,3.5,0,0,1,1,.31,1,1,0,0,1,.32.52,2.06,2.06,0,0,0,1.34,1.42,3.46,3.46,0,0,0,1.93.09,2.27,2.27,0,0,1,1.17,0c2.2,1,2.66,2.85,3.25,5.18l.05.26c.75,3.2,4.36,5.17,7.49,5.77a28.2,28.2,0,0,0-4.1,6.25,11.47,11.47,0,0,0-1.12,2.43h0a10.69,10.69,0,0,1,.07,1.91,8.92,8.92,0,0,0,.65,4.2,6.69,6.69,0,0,0,.88,1.45,3,3,0,0,1,.77,1.72,1,1,0,0,0,.44.73.91.91,0,0,0,.52.16.55.55,0,0,0,.36-.13c5.34-2,10-6.06,14.38-12.41a7.56,7.56,0,0,0,1.05-4.13,6.23,6.23,0,0,1,.74-3.28,4.59,4.59,0,0,1,.8-.89,5.22,5.22,0,0,0,1.25-1.49,4.23,4.23,0,0,0,.23-1.47,1.68,1.68,0,0,1,.35-1.22,2.47,2.47,0,0,1,.84-.52,2.64,2.64,0,0,0,1.75-2,1.63,1.63,0,0,0,0-.54.92.92,0,0,0,1,.07,45.2,45.2,0,0,0,5.86-3.59c1.19-.79,2.36-1.59,3.52-2.28a23,23,0,0,0,6.87-5.84,15.12,15.12,0,0,1,3.14-2.64,12.5,12.5,0,0,0,4.18-4,6.35,6.35,0,0,0,.53-2,7.35,7.35,0,0,1,.25-1.15,13.71,13.71,0,0,1,2.1-3.4l.55-.74a13.44,13.44,0,0,1,1.5-1.86,8.67,8.67,0,0,0,2.61-4.66c0-.44.06-.84.06-1.22a4.26,4.26,0,0,1,.31-2,11.46,11.46,0,0,1,2-2.21,19.76,19.76,0,0,0,1.56-1.62,9.91,9.91,0,0,0,2.39-4.93,3.42,3.42,0,0,0,1.05-1.55,5,5,0,0,1,.46-.93,9.59,9.59,0,0,1,1.71-1.55,13.25,13.25,0,0,0,1.45-1.23,45.92,45.92,0,0,1,5-4.15c1-.78,2.08-1.55,3.05-2.35a14.85,14.85,0,0,0,2.51-2.5,9.14,9.14,0,0,1,1.11-1,7.63,7.63,0,0,0,2.12-2.3c.9-1.68.73-3.87.58-5.81a18.56,18.56,0,0,1-.09-2.41l0-.57c.12-1.43.23-3,.43-4.39a12.86,12.86,0,0,0,.39-4,4.86,4.86,0,0,0-.71-1.94,3.38,3.38,0,0,1-.44-1,13.9,13.9,0,0,1-.39-3.85,16.63,16.63,0,0,0-.34-3.92,9.64,9.64,0,0,1-.36-4.41,5.48,5.48,0,0,1,.42-1.21,6.58,6.58,0,0,0,.57-1.74,4.06,4.06,0,0,0-.55-3.16,9.54,9.54,0,0,1,1.64-1.78c1.22-1.12,2.47-2.27,2.26-3.67a2.23,2.23,0,0,0-.51-1.1l.36-.07a6.18,6.18,0,0,0,1.8-.47c.52-.26,4.08-2.37,4.63-4.14A1.56,1.56,0,0,0,157.6,43.86ZM92,154.34a2.93,2.93,0,0,1-.53-1.18s.3-.29,1.92-.48c.63-.09,1.24-.17,1.82-.28A35.6,35.6,0,0,1,92,154.34Zm12.69-12.89a8.92,8.92,0,0,0-.42,1.55,3.5,3.5,0,0,1-.69,1.71,2.63,2.63,0,0,1-1.16.81,5.16,5.16,0,0,0-1,.53,4.64,4.64,0,0,0-1.93,1.73c-.15.19-.29.4-.47.6-1.61,1.82-3.32,2.05-6,2.42-1.65.21-2.84.56-3.3,1.57a2.73,2.73,0,0,0,.33,2.44l-.17-.11a1.5,1.5,0,0,1-.37-.32,8.79,8.79,0,0,1-.2-4c.2-.46.52-.62,1.18-.94a9.18,9.18,0,0,0,1-.53,4.33,4.33,0,0,0,1.9-2.47l.26-.63a3.41,3.41,0,0,1,2.4-1.93,7.82,7.82,0,0,0,2.56-1.36c2.31-1.94,3.09-5.51,3.68-8.13l.25-1.1c.52-2.28,1.81-3.37,4-4.58.17-.09.38-.19.58-.31a7.78,7.78,0,0,1,.8-.42,1.71,1.71,0,0,1,.23.13,1.7,1.7,0,0,0,.9.21,7.44,7.44,0,0,0,2.2-1,11.45,11.45,0,0,1,1.14-.68,12.4,12.4,0,0,1,3-.85h0a5.4,5.4,0,0,1,.12,2.85l-.39-.07a2,2,0,0,0-2,.34c-.95.85-.88,2.27-.82,3.51a4.64,4.64,0,0,1-.12,2,2,2,0,0,1-1,.71,9.34,9.34,0,0,0-.86.47,10.12,10.12,0,0,0-2.18,2.15,8.93,8.93,0,0,1-.69.81,6,6,0,0,1-.84.76A7.19,7.19,0,0,0,104.64,141.45Zm22.68-29.08c0,.07.09.1.13.15a8.86,8.86,0,0,1-1.87,3.49,17.93,17.93,0,0,1-1.43,1.47,12.48,12.48,0,0,0-2.29,2.69,6.16,6.16,0,0,0-.56,2.86c0,.35,0,.7,0,1a6.9,6.9,0,0,1-2.15,3.6,19.33,19.33,0,0,0-1.65,2.06l-.5.67a14.72,14.72,0,0,0-2.36,3.92,7.09,7.09,0,0,0-.35,1.51,5.43,5.43,0,0,1-.34,1.35,11.08,11.08,0,0,1-3.58,3.31,16.76,16.76,0,0,0-3.54,3c-.36.45-.72.87-1.11,1.28a7.6,7.6,0,0,0,.42-1.45,8.63,8.63,0,0,1,.29-1.12,5.37,5.37,0,0,1,1.46-1.52c.33-.29.68-.57,1-.91s.54-.63.78-.94a8.16,8.16,0,0,1,1.76-1.76,4.59,4.59,0,0,1,.62-.33,3.78,3.78,0,0,0,1.81-1.51,5.65,5.65,0,0,0,.35-3,5.36,5.36,0,0,1,.12-2,3.37,3.37,0,0,0,.34.07,2.12,2.12,0,0,0,2.44-.69c.63-.79.51-2.52.42-3.24-.21-1.62-.65-2-.79-2.08-1.46-1.23-5.25.47-5.28.5-.5.25-.91.52-1.31.76a9.77,9.77,0,0,1-1.25.72,2,2,0,0,0-1.36-.32,8.08,8.08,0,0,0-1.44.68c-.18.11-.35.19-.53.29-2.1,1.17-4.2,2.58-4.95,5.84l-.24,1.12c-.55,2.47-1.24,5.55-3,7.07a6.4,6.4,0,0,1-2,1,5.41,5.41,0,0,0-3.5,2.95l-.27.72a2.58,2.58,0,0,1-1.22,1.57,5.38,5.38,0,0,1-.75.39,3.85,3.85,0,0,0-2.12,1.95,9.93,9.93,0,0,0,.29,5.61,2.59,2.59,0,0,0,1,1c.4.27.4.28.39.44s-.23.25-.69.48a3.92,3.92,0,0,0-1.44,1,3.51,3.51,0,0,0-.82,2.4,4.85,4.85,0,0,1,0,.73,4.25,4.25,0,0,1-.8.88,6,6,0,0,0-1.14,1.31,7.73,7.73,0,0,0-1,4.19,5.72,5.72,0,0,1-.71,3.13c-3.83,5.61-7.9,9.3-12.46,11.29a5.55,5.55,0,0,0-.85-1.46,6.29,6.29,0,0,1-.72-1.15,7.72,7.72,0,0,1-.43-3.35,14.19,14.19,0,0,0-.09-2.18c.59-1,.55-2,1.64-3.63a43.3,43.3,0,0,1,3.3-4.6s1.3.31,1.27-.94a1,1,0,0,0-1-1c-3.06,0-6.93-1.91-7.52-4.5l-.08-.27c-.61-2.49-1.25-5.07-4.27-6.46a3.88,3.88,0,0,0-2.28-.17,1.94,1.94,0,0,1-.87.05c-.2-.09-.26-.14-.29-.25a3.15,3.15,0,0,0-.91-1.4,4.93,4.93,0,0,0-1.78-.72,2.84,2.84,0,0,1-.81-.26,2.26,2.26,0,0,1-.64-1.19,5.09,5.09,0,0,0-.62-1.43A5,5,0,0,0,49.78,145a6.45,6.45,0,0,1-1.74-.68,1.69,1.69,0,0,1-.21-.29,2.89,2.89,0,0,0-1.06-1.08,9.05,9.05,0,0,0-2.46-.59,13.77,13.77,0,0,1-1.44-.26c-2-.29-2-.29-2.6-1.75l-.14-.3a.91.91,0,0,0-.72-.54c-.74-1.45-2.19-3.92-3.8-4.35a2.36,2.36,0,0,0-2.77,1.39,2.64,2.64,0,0,1-1.09,1.11c-1.75.76-2.35.84-2.62.69l-.11-.06a2.77,2.77,0,0,0-.3-1.07,17.88,17.88,0,0,1-.67-2,12.37,12.37,0,0,0-1.51-3.69,9.23,9.23,0,0,0-4.17-3.28,11.42,11.42,0,0,1-2.86-1.79,6.39,6.39,0,0,1-1.07-1.63,6.15,6.15,0,0,0-1.52-2.07c-2-1.32-6.37-.15-7.74.42a1,1,0,0,0-.55.63,1,1,0,0,0,.15.82,2.56,2.56,0,0,1,.3.49,8.8,8.8,0,0,1-1.74.09H7.06a8.31,8.31,0,0,1-3.32-.51,2.3,2.3,0,0,0-.33-.56c.83-.84,1.6-1.73,2.35-2.59a36.68,36.68,0,0,1,3.2-3.4,27,27,0,0,1,2.24-1.83,17.86,17.86,0,0,0,3.71-3.39c.48-.62.88-1.26,1.28-1.89a13.7,13.7,0,0,1,2.08-2.72,20.19,20.19,0,0,1,2.07-1.53,14.2,14.2,0,0,0,2.88-2.29c.47-.57.89-1.14,1.32-1.71A20.38,20.38,0,0,1,26.79,100c.28-.31.6-.71.94-1.15,1.36-1.73,2.65-3.28,3.77-2.72a1,1,0,0,0,.84,0,1,1,0,0,0,.51-.65A9.45,9.45,0,0,0,33,94.15a3.36,3.36,0,0,1,.44-1.8,9.47,9.47,0,0,1,3-1.92c.64-.33,1.26-.64,1.74-1l1.54-1a78.46,78.46,0,0,1,8-5c2.67-1.45,5.08-3,7.62-4.62l2.36-1.51a8.55,8.55,0,0,1,5.66-1.17.94.94,0,0,0,.68.34,1.08,1.08,0,0,0,.59-.18l.94.13,1.13.15c2.37.25,4.86.33,7.27.43,6.25.23,12.7.46,18,3.34.38.19.75.39,1.13.6a13,13,0,0,0,3.43,1.47,20,20,0,0,0,2.37.33,7.65,7.65,0,0,1,3.35.8,23.74,23.74,0,0,1,7.37,7.13c2.15,3.51,5.14,4.73,8.29,6,.56.23,1.15.46,1.75.72,1.64.66,5.69,1.81,8.28,1.57a2.69,2.69,0,0,0,.23.52c0,.28-.15.4-.87.78a4.9,4.9,0,0,0-1.05.65,5.62,5.62,0,0,0-1.9,3c-.11.3-.22.63-.4,1.08a13,13,0,0,1-1,1.86c-1.16,1.92-2,3.31-1.17,4.23s2,.2,2.7-.11a9.06,9.06,0,0,0,.92-.6,3.32,3.32,0,0,1,1-.58h0c.26,0,.57.39.76.66a1.94,1.94,0,0,1,.31.82A1,1,0,0,0,127.32,112.37Zm20.06-34.66a12.18,12.18,0,0,1-.37,3.5c-.23,1.56-.34,3.12-.45,4.58l-.06.61a24.65,24.65,0,0,0,.1,2.66c.13,1.76.27,3.59-.37,4.79a6.18,6.18,0,0,1-1.64,1.69,12.72,12.72,0,0,0-1.44,1.34A12.39,12.39,0,0,1,141,99c-1,.81-2,1.56-3,2.31a46.76,46.76,0,0,0-5.25,4.35c-.4.38-.83.72-1.28,1.07a10.36,10.36,0,0,0-2.08,1.92,6,6,0,0,0-.52.92,1.67,1.67,0,0,0-.12-.23,2.78,2.78,0,0,0-2.51-1.45,4.25,4.25,0,0,0-2,.92l-.43.3.74-1.25a13.52,13.52,0,0,0,1.18-2.2c.17-.4.28-.78.41-1.12a3.91,3.91,0,0,1,1.31-2.14,4.46,4.46,0,0,1,.71-.41c.8-.42,2.15-1.12,1.87-3a1.34,1.34,0,0,0-.16-.39.93.93,0,0,1-.16-.35,2,2,0,0,0-.16-.4s0-.06-.06-.09a1.1,1.1,0,0,0,0-.18,1,1,0,0,0-1.19-.66c-1.76.5-6.09-.59-7.93-1.32-.58-.27-1.17-.51-1.75-.75-3-1.21-5.55-2.25-7.38-5.24a25.66,25.66,0,0,0-8.06-7.78,9.35,9.35,0,0,0-4.11-1,15.53,15.53,0,0,1-2.11-.3,11.78,11.78,0,0,1-3-1.28c-.38-.21-.77-.43-1.15-.62C87.16,75.57,80.48,75.32,74,75.09c-2.49-.09-4.85-.18-7.14-.41l-1.06-.16-.65-.09c.09-.37.2-.74.32-1.11A7.9,7.9,0,0,0,66,69.83c0-.49-.12-1-.19-1.53-.29-1.9-.59-3.88.31-5.46a5.82,5.82,0,0,0,.32-.55c.21,0,.49,0,.81-.1a16.85,16.85,0,0,1,5,.23,4.79,4.79,0,0,1,1.55.52c.22.13.47.24.82.41a14.29,14.29,0,0,0,5.27,1.07l2.17.23a42.38,42.38,0,0,1,10.92,2.08,11.58,11.58,0,0,0,2.81.49,7.47,7.47,0,0,1,2.79.57,3,3,0,0,1,.81.63,2.62,2.62,0,0,0,2.72.85c3.5-.39,3.93-3,4.28-5.12.08-.48.15-1,.28-1.47.06-.27.1-.5.15-.77l.45,0,.68-.08,2.63-.27,1-.11a7.67,7.67,0,0,0,3.16-1.56,3.61,3.61,0,0,1,3-1,9,9,0,0,1,1.54.35,6.4,6.4,0,0,0,3,.36,1.33,1.33,0,0,0,1-1,5.9,5.9,0,0,1,2.25-.14,10.77,10.77,0,0,1,3,1,10,10,0,0,0,5.31,1.19,12.28,12.28,0,0,0,4.35-1.81,9.48,9.48,0,0,1,4.25-1.66l.61,0a10.6,10.6,0,0,1,2.44,0,2.57,2.57,0,0,0,.63,1.27s.06,0,.09.07a5.73,5.73,0,0,1-.05.67,4.92,4.92,0,0,1-.42,1.22,5.77,5.77,0,0,0-.55,1.64,11,11,0,0,0,.38,5.19,16.27,16.27,0,0,1,.29,3.5,15.48,15.48,0,0,0,.45,4.34,5.25,5.25,0,0,0,.62,1.41A3.07,3.07,0,0,1,147.38,77.71Zm4.85-30.16a6.27,6.27,0,0,1-1.27.3c-1.11.19-2.35.4-2.78,1.43a1,1,0,0,0,.47,1.24c.67.31.88.57.89.67.06.4-1.06,1.43-1.66,2a11.29,11.29,0,0,0-2,2.2,11.74,11.74,0,0,0-3-.11l-.62,0a11.74,11.74,0,0,0-5.12,1.92,10.25,10.25,0,0,1-3.64,1.58,8,8,0,0,1-4.25-1,13,13,0,0,0-3.6-1.19,9.08,9.08,0,0,0-3.41.29,1.28,1.28,0,0,0-.82.86,7.94,7.94,0,0,1-1.74-.36,10.1,10.1,0,0,0-1.92-.43,5.54,5.54,0,0,0-4.35,1.42,5.45,5.45,0,0,1-2.29,1.2l-.86.09-2.61.28-.67.07c-1.22.12-2,.18-2.15,1.6,0,.18-.06.4-.13.67-.14.52-.22,1.08-.32,1.62-.36,2.22-.62,3.3-2.6,3.52-.77.1-.82,0-1.09-.26a4.32,4.32,0,0,0-1.32-1,8.86,8.86,0,0,0-3.52-.79,10.6,10.6,0,0,1-2.32-.38,44.24,44.24,0,0,0-11.38-2.19L80,62.51a12.88,12.88,0,0,1-4.65-.92c-.3-.13-.54-.25-.74-.35a6.24,6.24,0,0,0-2-.7A19.27,19.27,0,0,0,67,60.28c-.34.06-.59.07-.77.09a2.12,2.12,0,0,0-.85.21l-.19-.38a6.85,6.85,0,0,1-.07-1.05,5.79,5.79,0,0,0-.27-2,4.37,4.37,0,0,0-1.34-1.44,2.64,2.64,0,0,1-.87-.94,4,4,0,0,1-.34-1.13c-.09-.33-.17-.66-.3-1-1.17-2.63-2-3-4.55-3.18h-1.7c-1.28,0-3,.09-3.36-.49s-.14-1.34.8-2.44c.21-.28.41-.52.61-.74a5.65,5.65,0,0,0,1.4-2.28,6.12,6.12,0,0,0,.23-1.69c0-.28,0-.56,0-.73,1.15-4.12,2.56-9.18.82-13.62a27.15,27.15,0,0,0,3.61-5.76,9.44,9.44,0,0,0,.63-2.51,6.45,6.45,0,0,1,.49-2,6.09,6.09,0,0,1,1.16-1.44,8.22,8.22,0,0,0,1.37-1.65A8.66,8.66,0,0,0,64.69,11c.31-1.36.57-2.54,1.66-3.1a6,6,0,0,1,1.37-.54,5.66,5.66,0,0,0,2.39-1.18c.38-.35.75-.71,1.12-1.08a13.44,13.44,0,0,1,2.21-1.92c2-1.16,4.22-.8,6.56-.4a20,20,0,0,0,4.58.4C85.79,3.16,86.93,3.07,88,3c3.25-.28,6.06-.52,9.44.36l1.77.46a39.33,39.33,0,0,1,7.66,2.47c3.65,1.59,6.59,1.48,10.3,1.36l.89,0c.45,0,.89,0,1.33,0,2.23,0,4.37-.09,6.14,1.13a6.49,6.49,0,0,1,2.3,3.26,14.51,14.51,0,0,0,1.25,2.41c1.33,2.06,2,3.15,2.2,5.5a20,20,0,0,1,0,2,9.24,9.24,0,0,0,.77,5.1,13.43,13.43,0,0,0,1.4,1.89,6.52,6.52,0,0,1,1.62,2.67,6.27,6.27,0,0,1,.07,1.45c0,1.21,0,2.7,1.67,3.69a9.45,9.45,0,0,0,4.12.37,15.47,15.47,0,0,1,1.91,0h1.26a20.81,20.81,0,0,1,3.55.13,5.62,5.62,0,0,1,1.23.34,6.08,6.08,0,0,1-1,1.49,11.69,11.69,0,0,0-1.4,2,1,1,0,0,0-.07.74.92.92,0,0,0,.48.56,6.41,6.41,0,0,0,3.51.39,4.87,4.87,0,0,1,2.3.16c.21.08.31.22.54.63a3.14,3.14,0,0,0,1.12,1.26,2.05,2.05,0,0,0,1.25.25A14,14,0,0,1,152.23,47.55Z"/></g></g></svg>